<svg xmlns="http://www.w3.org/2000/svg" width="50" height="50" viewBox="0 0 50 50">
    <g fill="#FFF" fill-rule="nonzero">
        <path d="M24.998 0C11.191 0 0 11.191 0 24.998s11.191 24.998 24.998 24.998c13.805 0 24.998-11.193 24.998-24.998C49.996 11.191 38.803 0 24.998 0zm0 46.871c-12.08 0-21.873-9.793-21.873-21.873 0-12.08 9.793-21.873 21.873-21.873 12.08 0 21.873 9.793 21.873 21.873 0 12.08-9.793 21.873-21.873 21.873z"/>
        <path d="M36.403 16.238L20.33 32.168l-6.689-6.556a1.587 1.587 0 0 0-2.231 0 1.55 1.55 0 0 0 0 2.21l7.81 7.653c.64.564 1.599.627 2.231 0l17.185-17.028c.615-.61.615-1.6 0-2.21a1.592 1.592 0 0 0-2.233 0z"/>
    </g>
</svg>
