<?xml version="1.0" standalone="no"?>
<!DOCTYPE svg PUBLIC "-//W3C//DTD SVG 1.1//EN" "http://www.w3.org/Graphics/SVG/1.1/DTD/svg11.dtd" >
<svg xmlns="http://www.w3.org/2000/svg" xmlns:xlink="http://www.w3.org/1999/xlink" version="1.1">
<metadata></metadata>
<defs>
<font id="leroy_merlin_sanslight" horiz-adv-x="0" >
<font-face units-per-em="2048" ascent="1577" descent="-471" />
<missing-glyph horiz-adv-x="436" />
<glyph unicode="fi" horiz-adv-x="1120" d="M928 1100v-1100h-111v999h-487v-999h-111v999h-182v101h182v151q0 63 16 117.5t48 99t88 70t129 25.5q94 0 174 -41l-19 -97q-66 37 -137 37q-85 0 -136.5 -51.5t-51.5 -163.5v-147h598zM874 1542q32 0 55 -21.5t23 -54.5q0 -34 -23 -55.5t-55 -21.5t-54.5 21.5 t-22.5 55.5q0 33 22.5 54.5t54.5 21.5z" />
<glyph unicode="fl" horiz-adv-x="1208" d="M219 0v999h-182v101h182v151q0 63 16 117.5t48 99t88 70t129 25.5q94 0 174 -41l-19 -97q-66 37 -137 37q-85 0 -136.5 -51.5t-51.5 -163.5v-147h276v-101h-276v-999h-111zM1120 -6q-151 0 -235 89t-84 247v1206h110v-1186q0 -121 57 -188.5t160 -67.5z" />
<glyph unicode="&#xd;" horiz-adv-x="1134" />
<glyph unicode=" "  horiz-adv-x="436" />
<glyph unicode="&#x09;" horiz-adv-x="436" />
<glyph unicode="&#xa0;" horiz-adv-x="436" />
<glyph unicode="!" horiz-adv-x="598" d="M248 356l-6 1067h116l-6 -1067h-104zM297 -14q-34 0 -57 23t-23 59q0 35 23 57t57 22q36 0 59 -22t23 -57q0 -36 -23 -59t-59 -23z" />
<glyph unicode="&#x22;" horiz-adv-x="706" d="M180 1016l-8 520h104l-6 -520h-90zM436 1016l-8 520h104l-6 -520h-90z" />
<glyph unicode="#" horiz-adv-x="1185" d="M1114 899h-186l-33 -377h186l-8 -94h-186l-37 -428h-102l36 428h-432l-37 -428h-102l37 428h-187l9 94h186l33 377h-187l9 94h186l37 430h102l-37 -430h433l36 430h103l-37 -430h186zM793 522l32 377h-432l-33 -377h433z" />
<glyph unicode="$" horiz-adv-x="1101" d="M1006 356q0 -167 -114.5 -271t-303.5 -112v-145h-72v147q-139 9 -249 77t-169 179l103 43q45 -84 128 -134.5t187 -59.5v598q-53 22 -84 35.5t-78.5 37.5t-75 44.5t-61 52.5t-51.5 65t-30.5 77t-12.5 95q0 157 109 255.5t284 107.5v129h72v-127q139 -7 241.5 -69 t155.5 -169l-106 -38q-39 76 -115.5 119.5t-175.5 49.5v-571q173 -70 245 -117q162 -106 172 -275q1 -12 1 -24zM242 1087q0 -55 20.5 -99t61.5 -78t84.5 -58t107.5 -51v542q-123 -9 -198.5 -78.5t-75.5 -177.5zM588 78q136 8 217.5 80.5t81.5 191.5q0 58 -22.5 104.5 t-69 82t-91.5 59.5t-116 53v-571z" />
<glyph unicode="%" horiz-adv-x="1482" d="M311 1436q122 0 187 -95.5t65 -273.5t-65 -274.5t-187 -96.5q-121 0 -184.5 96.5t-63.5 274.5t63.5 273.5t184.5 95.5zM459 0h-94l659 1423h96zM311 1364q-81 0 -122.5 -77.5t-41.5 -219.5q0 -143 41.5 -220t122.5 -77q82 0 125 77t43 220q0 141 -43 219t-125 78z M1167 725q122 0 187 -95.5t65 -273.5t-65 -274t-187 -96q-121 0 -184 96t-63 274t63 273.5t184 95.5zM1167 653q-80 0 -121.5 -77.5t-41.5 -219.5q0 -143 41 -220t122 -77q82 0 125 77t43 220q0 141 -43 219t-125 78z" />
<glyph unicode="&#x26;" horiz-adv-x="1271" d="M1192 51l-80 -71l-158 174q-74 -89 -180 -135t-231 -46q-180 0 -300 104.5t-120 287.5q0 71 20.5 133t60.5 113t82 90t101 81q-83 95 -126.5 180.5t-43.5 180.5q0 97 49 168.5t123 105t160 33.5q133 0 225 -75.5t92 -213.5q0 -49 -17 -94.5t-45.5 -82.5t-69 -73.5 t-83 -68.5t-91.5 -66q-10 -7 -15 -10q2 -4 10 -12l383 -422q59 131 59 307h109q0 -232 -88 -395zM334 1145q0 -74 36 -144.5t107 -156.5q136 91 182 134q93 86 93 179t-60 143t-145 50t-149 -54t-64 -151zM547 78q99 0 185.5 40t148.5 118l-387 428q-6 7 -37 38 q-50 -37 -85.5 -70.5t-68 -75t-49 -88.5t-16.5 -99q0 -130 89.5 -210.5t219.5 -80.5z" />
<glyph unicode="'" horiz-adv-x="450" d="M180 1016l-8 520h104l-6 -520h-90z" />
<glyph unicode="(" horiz-adv-x="567" d="M463 -430q-59 89 -112 198.5t-101.5 248.5t-77.5 307t-29 338q0 169 29 336.5t77.5 306t101.5 248.5t112 200l74 -37q-58 -94 -107 -200t-92.5 -239t-68.5 -291.5t-25 -323.5q0 -216 45.5 -426t107 -356t140.5 -275z" />
<glyph unicode=")" horiz-adv-x="567" d="M104 -430l-73 35q79 129 140.5 275t107 356t45.5 426q0 165 -25 323.5t-68.5 291.5t-92.5 239t-107 200l73 37q59 -90 112 -200t101.5 -248.5t77.5 -306t29 -336.5q0 -170 -29 -338t-77.5 -307t-101.5 -248.5t-112 -198.5z" />
<glyph unicode="*" horiz-adv-x="946" d="M344 791q-13 -18 -32.5 -23t-35.5 2t-29 20t-13.5 31.5t10.5 36.5q9 12 70.5 74t107.5 123q-74 24 -160.5 38t-97.5 17q-41 17 -41 55q0 30 22.5 50t53.5 10q18 -5 95 -45t148 -64q0 78 -13 163.5t-13 100.5q0 37 29 52t58 0t29 -52q0 -15 -12 -100.5t-12 -163.5 q71 24 147 63t95 44q32 11 53.5 -9.5t21.5 -50.5q0 -42 -37 -53q-11 -3 -98 -17t-164 -38q47 -62 108 -124.5t68 -70.5q12 -19 11.5 -38t-13.5 -32.5t-29 -21t-34.5 -2.5t-30.5 22q-9 13 -48 91t-83 141q-45 -63 -83.5 -140t-47.5 -89z" />
<glyph unicode="+" horiz-adv-x="1146" d="M1024 764v-100h-399v-424h-105v424h-397v100h397v422h105v-422h399z" />
<glyph unicode="," horiz-adv-x="430" d="M145 -301l-39 59q57 29 97.5 92.5t40.5 122.5q0 19 -2 27q-20 -14 -45 -14q-31 0 -53.5 22.5t-22.5 57.5q0 33 22 57t60 24q62 0 93.5 -43t31.5 -110q0 -89 -48.5 -173t-134.5 -122z" />
<glyph unicode="-" horiz-adv-x="950" d="M143 623v118h666v-118h-666z" />
<glyph unicode="." horiz-adv-x="399" d="M199 -14q-34 0 -57 23t-23 59q0 35 23 57t57 22q36 0 59 -22t23 -57q0 -36 -23 -59t-59 -23z" />
<glyph unicode="/" horiz-adv-x="692" d="M659 1575l86 -35l-694 -1679l-86 33z" />
<glyph unicode="0" horiz-adv-x="1214" d="M604 1450q236 0 362 -192.5t126 -546.5q0 -353 -126 -545.5t-362 -192.5q-234 0 -357.5 192.5t-123.5 545.5q0 355 123.5 547t357.5 192zM604 1348q-177 0 -271.5 -167t-94.5 -470q0 -302 94.5 -468.5t271.5 -166.5q180 0 275.5 166.5t95.5 468.5q0 303 -95.5 470 t-275.5 167z" />
<glyph unicode="1" horiz-adv-x="698" d="M369 0v1292l-295 -182l-13 107l318 206h102v-1423h-112z" />
<glyph unicode="2" horiz-adv-x="1153" d="M113 0v104l477 484q86 88 132.5 141t83.5 109.5t50.5 105t13.5 107.5q0 133 -89 214t-236 81q-113 0 -198 -44.5t-128 -127.5l-106 38q52 109 166 173.5t268 64.5q198 0 320 -109t122 -282q0 -73 -16 -133t-59 -125.5t-93.5 -123t-142.5 -151.5l-412 -420h764v-106h-917z " />
<glyph unicode="3" horiz-adv-x="1189" d="M598 -27q-96 0 -179 24t-141.5 65t-99 88t-63.5 100l102 43q45 -93 143.5 -154t239.5 -61q64 0 123 19t108 55.5t78 96t29 134.5q0 77 -33 137.5t-88 95.5t-120.5 52.5t-137.5 17.5h-160v96h168q66 0 123 15t107.5 47.5t80 93t29.5 143.5q0 121 -89.5 193t-221.5 72 q-115 0 -199 -45t-125 -127l-108 38q54 109 166.5 173.5t265.5 64.5q188 0 308 -97t120 -261q0 -142 -70 -231t-186 -118v-2q47 -11 92.5 -34t91.5 -64t74.5 -108.5t28.5 -151.5q0 -185 -128 -297.5t-329 -112.5z" />
<glyph unicode="4" horiz-adv-x="1142" d="M750 0v328h-652v96l486 999h116l-481 -995h531v426h108v-426h186v-100h-186v-328h-108z" />
<glyph unicode="5" horiz-adv-x="1204" d="M602 -27q-98 0 -182 24t-142.5 65t-99 88t-63.5 100l102 43q47 -94 144 -154.5t239 -60.5q150 0 251 104.5t101 270.5q0 179 -104.5 278.5t-263.5 99.5q-136 0 -256 -69l-86 24l49 637h710v-104h-620l-37 -442q125 55 258 55q95 0 178.5 -31t148.5 -89t102.5 -151 t37.5 -208q0 -141 -61.5 -251t-168 -169.5t-237.5 -59.5z" />
<glyph unicode="6" horiz-adv-x="1179" d="M610 -27q-233 0 -360 168t-127 480q0 394 139 611.5t389 217.5q132 0 221 -57.5t125 -149.5l-98 -37q-88 140 -248 140q-191 0 -300.5 -180t-112.5 -498q49 109 154 177t237 68q192 0 321 -134t129 -335q0 -202 -131 -336.5t-338 -134.5zM612 78q152 0 251.5 101.5 t99.5 262.5q0 155 -100.5 261t-250.5 106q-149 0 -249.5 -106.5t-100.5 -260.5q0 -161 99.5 -262.5t250.5 -101.5z" />
<glyph unicode="7" horiz-adv-x="1024" d="M942 1423v-96l-569 -1327h-117l567 1323h-741v100h860z" />
<glyph unicode="8" horiz-adv-x="1196" d="M580 -27q-96 0 -182 27t-152 77t-105 127t-39 171q0 255 279 356q-117 53 -180.5 135t-63.5 207q0 113 62 200t162 132t219 45q185 0 314.5 -104t129.5 -273q0 -125 -64 -206.5t-180 -135.5q279 -101 279 -356q0 -124 -67.5 -217.5t-175 -139t-236.5 -45.5zM580 778 q81 0 145 24.5t103 66t59 92.5t20 108q0 133 -96.5 209t-230.5 76q-85 0 -158 -31.5t-120.5 -98t-47.5 -155.5q0 -120 85 -205.5t241 -85.5zM580 70q152 0 258 81.5t106 227.5q0 135 -102 219t-262 84t-261.5 -84t-101.5 -219q0 -98 52.5 -170t133 -105.5t177.5 -33.5z" />
<glyph unicode="9" horiz-adv-x="1179" d="M569 1450q233 0 360.5 -167.5t127.5 -479.5q0 -394 -139.5 -612t-389.5 -218q-132 0 -221 57.5t-125 149.5l99 37q87 -139 247 -139q191 0 301 180t113 498q-49 -109 -154 -177.5t-237 -68.5q-192 0 -321.5 134t-129.5 335q0 202 131 336.5t338 134.5zM567 1346 q-152 0 -251 -102t-99 -263q0 -155 100 -261t250 -106q149 0 250 106.5t101 260.5q0 161 -100 263t-251 102z" />
<glyph unicode=":" horiz-adv-x="399" d="M199 954q-34 0 -57 23t-23 59q0 35 23 57.5t57 22.5q35 0 58.5 -22.5t23.5 -57.5q0 -36 -23 -59t-59 -23zM199 -14q-34 0 -57 23t-23 59q0 35 23 57t57 22q36 0 59 -22t23 -57q0 -36 -23 -59t-59 -23z" />
<glyph unicode=";" horiz-adv-x="430" d="M207 952q-34 0 -57 23t-23 59q0 35 23 57.5t57 22.5q35 0 58.5 -22.5t23.5 -57.5q0 -36 -23 -59t-59 -23zM145 -301l-39 59q57 29 97.5 92.5t40.5 122.5q0 19 -2 27q-20 -14 -45 -14q-31 0 -53.5 22.5t-22.5 57.5q0 33 22 57t60 24q62 0 93.5 -43t31.5 -110 q0 -89 -48.5 -173t-134.5 -122z" />
<glyph unicode="&#x3c;" horiz-adv-x="1146" d="M1024 223l-901 443v94l901 442v-106l-786 -383l786 -383v-107z" />
<glyph unicode="=" horiz-adv-x="1146" d="M123 950v101h901v-101h-901zM123 377v100h901v-100h-901z" />
<glyph unicode="&#x3e;" horiz-adv-x="1146" d="M123 227v107l786 383l-786 383v106l901 -442v-94z" />
<glyph unicode="?" horiz-adv-x="948" d="M330 356v107q0 75 22.5 134.5t58.5 98t79 71.5t86.5 63t79.5 62.5t58.5 80.5t22.5 108q0 123 -87 194t-210 71q-95 0 -176.5 -44.5t-126.5 -127.5l-106 38q59 116 167.5 177t243.5 61q80 0 153 -24t131 -68t93 -115t35 -158q0 -55 -14 -101.5t-38 -79.5t-55 -62t-65 -53 l-68 -48t-65 -51.5t-55 -59.5t-38 -76t-14 -97v-101h-112zM389 -14q-34 0 -57 23t-23 59q0 35 23 57t57 22q36 0 59 -22t23 -57q0 -36 -23 -59t-59 -23z" />
<glyph unicode="@" horiz-adv-x="1380" d="M719 -186q-133 0 -245.5 46t-195.5 132t-129.5 218.5t-46.5 297.5q0 200 72 357t206.5 246t309.5 89q190 0 324.5 -82.5t200 -227t65.5 -339.5q0 -183 -72 -291t-184 -108q-135 0 -178 112q-70 -106 -187 -106q-106 0 -178.5 87.5t-72.5 252.5q0 155 81.5 241t206.5 86 q107 0 209 -63v-397q0 -73 33.5 -106.5t85.5 -33.5q83 0 132.5 88t49.5 236q0 269 -133.5 423t-384.5 154q-153 0 -271 -83t-180.5 -223.5t-62.5 -313.5q0 -145 42 -263t115.5 -195.5t173.5 -119t216 -41.5q180 0 309 84l31 -69q-147 -88 -342 -88zM670 236q50 0 85 23.5 t66 76.5v383q-64 31 -125 31q-88 0 -144 -64.5t-56 -187.5q0 -135 50.5 -198.5t123.5 -63.5z" />
<glyph unicode="A" horiz-adv-x="1212" d="M1051 0l-131 381h-633l-129 -381h-115l494 1423h139l493 -1423h-118zM322 481h563l-283 828z" />
<glyph unicode="B" horiz-adv-x="1245" d="M217 0v1423h408q34 0 64 -2t73.5 -10t78.5 -21.5t72 -39.5t62 -61t41 -88t16 -118q0 -146 -63 -231.5t-162 -118.5v-2q47 -13 90 -38t83.5 -65.5t64.5 -103t24 -139.5q0 -88 -22.5 -155.5t-61 -110.5t-94.5 -70t-118 -38t-138 -11h-418zM330 774h276q150 0 229.5 74.5 t79.5 218.5q0 74 -24 125.5t-68.5 78.5t-95.5 38.5t-117 11.5h-280v-547zM330 100h295q164 0 244.5 69t80.5 218q0 139 -85 212t-247 73h-288v-572z" />
<glyph unicode="C" horiz-adv-x="1308" d="M739 -27q-133 0 -245 48t-195 139t-129.5 232.5t-46.5 320.5q0 178 46.5 319t129.5 232t194.5 138.5t243.5 47.5q178 0 299 -78.5t172 -195.5l-106 -39q-109 209 -363 209q-227 0 -364 -161.5t-137 -471.5q0 -158 37.5 -280t105.5 -199t159 -116.5t201 -39.5 q260 0 369 209l100 -39q-49 -116 -171 -195.5t-300 -79.5z" />
<glyph unicode="D" horiz-adv-x="1388" d="M217 0v1423h375q109 0 206.5 -25t183.5 -80t148.5 -136.5t99 -202t36.5 -268.5t-36.5 -268t-99 -201.5t-148.5 -136.5t-183.5 -80t-206.5 -25h-375zM330 100h250q89 0 169 19.5t154.5 65t128.5 114.5t86.5 174.5t32.5 237.5q0 133 -32.5 239t-86.5 174.5t-128.5 114 t-154.5 65t-169 19.5h-250v-1223z" />
<glyph unicode="E" horiz-adv-x="1210" d="M217 0v1423h789v-100h-676v-553h592v-102h-592v-568h733v-100h-846z" />
<glyph unicode="F" horiz-adv-x="1118" d="M217 0v1423h819v-100h-706v-567h596v-101h-596v-655h-113z" />
<glyph unicode="G" horiz-adv-x="1456" d="M1217 1171l-109 -34q-48 93 -142.5 151t-226.5 58q-223 0 -362 -172.5t-139 -460.5q0 -282 150 -458.5t382 -176.5q132 0 237.5 43t172.5 125v370h-467v101h579v-522q-85 -106 -222 -164t-300 -58q-138 0 -258 55.5t-205.5 152.5t-134.5 234.5t-49 297.5q0 336 168 536.5 t446 200.5q180 0 304.5 -79.5t175.5 -199.5z" />
<glyph unicode="H" horiz-adv-x="1513" d="M217 0v1423h113v-653h854v653h112v-1423h-112v670h-854v-670h-113z" />
<glyph unicode="I" horiz-adv-x="546" d="M217 0v1423h113v-1423h-113z" />
<glyph unicode="J" horiz-adv-x="942" d="M123 0v100h123q190 0 286.5 106.5t96.5 303.5v813h-426v100h538v-913q0 -248 -125.5 -379t-369.5 -131h-123z" />
<glyph unicode="K" horiz-adv-x="1230" d="M1176 0h-146l-549 698l-151 -178v-520h-113v1423h113v-733l624 733h140l-535 -632z" />
<glyph unicode="L" horiz-adv-x="1171" d="M217 0v1423h113v-1323h706v-100h-819z" />
<glyph unicode="M" horiz-adv-x="1708" d="M217 0v1423h125l510 -938l514 938h125v-1423h-113v1221l-477 -877h-96l-475 877v-1221h-113z" />
<glyph unicode="N" horiz-adv-x="1478" d="M217 0v1423h115l817 -1233v1233h113v-1423h-113l-819 1235v-1235h-113z" />
<glyph unicode="O" horiz-adv-x="1388" d="M694 -27q-270 0 -420.5 186t-150.5 554q0 366 150.5 551.5t420.5 185.5t422 -185.5t152 -551.5q0 -367 -152 -553.5t-422 -186.5zM694 78q218 0 337.5 154t119.5 481q0 325 -119.5 479t-337.5 154q-456 0 -456 -633q0 -635 456 -635z" />
<glyph unicode="P" horiz-adv-x="1150" d="M217 0v1423h404q199 0 314.5 -111.5t115.5 -303.5q0 -206 -121.5 -325.5t-331.5 -119.5h-268v-563h-113zM330 664h266q158 0 249 91t91 246q0 150 -88.5 236t-243.5 86h-274v-659z" />
<glyph unicode="Q" horiz-adv-x="1388" d="M1268 713q0 -280 -90 -456t-256 -243l276 -301l-82 -69l-305 340q-68 -11 -117 -11q-270 0 -420.5 186t-150.5 554q0 366 150.5 551.5t420.5 185.5t422 -185.5t152 -551.5zM238 713q0 -635 456 -635q218 0 337.5 154t119.5 481q0 325 -119.5 479t-337.5 154 q-456 0 -456 -633z" />
<glyph unicode="R" horiz-adv-x="1183" d="M1104 0h-135l-344 582h-33h-262v-582h-113v1423h408q55 0 109.5 -11.5t111 -40.5t98.5 -73.5t69 -117t27 -164.5q0 -163 -76.5 -271t-218.5 -145zM588 684q50 0 94 7.5t90 30t79 57.5t54 95t21 138q0 153 -84.5 232t-229.5 79h-282v-639h258z" />
<glyph unicode="S" horiz-adv-x="1136" d="M578 -27q-155 0 -277.5 68.5t-185.5 189.5l102 43q51 -93 146.5 -144.5t214.5 -51.5q147 0 236 73.5t89 198.5q0 61 -26 110t-70.5 82.5t-101.5 62t-120.5 53.5t-127 51t-120.5 60t-101.5 76t-70.5 103t-26 137q0 164 120.5 264.5t309.5 100.5q153 0 264.5 -62 t167.5 -176l-106 -38q-42 82 -128.5 127t-197.5 45q-137 0 -224 -71.5t-87 -187.5q0 -60 26 -108t70.5 -81.5t101.5 -62t120.5 -53.5t127 -51.5t120.5 -60.5t101.5 -76t70.5 -102.5t26 -135.5q0 -173 -122 -278t-322 -105z" />
<glyph unicode="T" horiz-adv-x="1251" d="M561 0v1323h-498v100h1108v-100h-497v-1323h-113z" />
<glyph unicode="U" horiz-adv-x="1361" d="M678 -27q-219 0 -348 139.5t-129 405.5v905h112v-905q0 -95 19.5 -171.5t60.5 -138.5t113.5 -96t171.5 -34q100 0 173.5 34t116 96t62 138.5t19.5 171.5v905h112v-905q0 -266 -131 -405.5t-352 -139.5z" />
<glyph unicode="V" horiz-adv-x="1329" d="M600 0l-522 1423h121l469 -1298l467 1298h116l-520 -1423h-131z" />
<glyph unicode="W" horiz-adv-x="1939" d="M477 0l-381 1423h121l334 -1286l346 1286h145l347 -1286l333 1286h121l-381 -1423h-143l-348 1274l-350 -1274h-144z" />
<glyph unicode="X" horiz-adv-x="1345" d="M1231 0h-137l-428 623l-430 -623h-125l491 717l-485 706h137l422 -614l411 614h123l-469 -708z" />
<glyph unicode="Y" horiz-adv-x="1220" d="M553 0v530l-479 893h127l409 -766l410 766h127l-481 -893v-530h-113z" />
<glyph unicode="Z" horiz-adv-x="1241" d="M123 0v92l840 1231h-820v100h955v-88l-844 -1235h866v-100h-997z" />
<glyph unicode="[" horiz-adv-x="526" d="M502 1782v-90h-189v-1999h189v-90h-285v2179h285z" />
<glyph unicode="\" horiz-adv-x="692" d="M51 1575l694 -1681l-86 -33l-694 1679z" />
<glyph unicode="]" horiz-adv-x="526" d="M25 1782h284v-2179h-284v90h188v1999h-188v90z" />
<glyph unicode="^" horiz-adv-x="960" d="M201 408l-70 34l301 658h96l301 -658l-69 -34l-279 614z" />
<glyph unicode="_" horiz-adv-x="1445" d="M1440 -68v-92h-1434v92h1434z" />
<glyph unicode="`" horiz-adv-x="1241" d="M791 1255l-488 234l41 86l485 -240z" />
<glyph unicode="a" horiz-adv-x="1114" d="M451 -27q-147 0 -239.5 80.5t-92.5 212.5q0 159 108.5 240.5t313.5 81.5h270v170q0 118 -76 193t-194 75q-98 0 -174.5 -51.5t-108.5 -138.5l-102 30q37 110 140.5 185t242.5 75q172 0 277.5 -100t105.5 -268v-469q0 -197 45 -289h-117q-34 66 -37 172 q-51 -90 -150 -144.5t-212 -54.5zM477 72q130 0 232 86.5t102 199.5v144h-268q-312 0 -312 -228q0 -89 69 -145.5t177 -56.5z" />
<glyph unicode="b" horiz-adv-x="1202" d="M664 -27q-78 0 -143.5 22t-110.5 59.5t-75 80.5t-46 90q0 -138 -33 -225h-109q37 121 37 252v1284h109v-651q38 99 131.5 170t239.5 71q214 0 330 -154t116 -417q0 -175 -48.5 -304t-150 -203.5t-247.5 -74.5zM645 74q166 0 259 125t93 352q0 226 -93 350.5t-259 124.5 q-168 0 -260 -124t-92 -351t93 -352t259 -125z" />
<glyph unicode="c" horiz-adv-x="1021" d="M549 -27q-200 0 -329.5 158t-129.5 420q0 260 129.5 417.5t329.5 157.5q144 0 247.5 -77t133.5 -195l-101 -33q-33 94 -108 149.5t-176 55.5q-151 0 -246.5 -131t-95.5 -344q0 -215 95.5 -346t246.5 -131q104 0 186.5 54t120.5 148l98 -26q-44 -124 -155 -200.5 t-246 -76.5z" />
<glyph unicode="d" horiz-adv-x="1202" d="M539 -27q-218 0 -333.5 158t-115.5 424q0 263 116.5 417t332.5 154q145 0 238.5 -71.5t129.5 -169.5v651h111v-1284q0 -140 37 -252h-111q-31 79 -31 223q-18 -48 -47.5 -90t-74 -79t-109.5 -59t-143 -22zM557 74q165 0 257.5 125.5t92.5 351.5q0 227 -92 351t-258 124 q-167 0 -260.5 -124.5t-93.5 -350.5t94 -351.5t260 -125.5z" />
<glyph unicode="e" horiz-adv-x="1087" d="M893 281l96 -33q-50 -125 -168.5 -200t-257.5 -75q-214 0 -343.5 161t-129.5 429q0 258 124.5 410.5t332.5 152.5q129 0 229 -63.5t152.5 -170.5t52.5 -237v-86h-778v-6q0 -222 99 -356.5t267 -134.5q107 0 196 55t128 154zM545 1028q-137 0 -225.5 -96.5t-110.5 -265.5 h661q-2 159 -91.5 260.5t-233.5 101.5z" />
<glyph unicode="f" horiz-adv-x="673" d="M223 0v999h-186v101h186v149q0 134 78.5 223t222.5 89q54 0 113.5 -14t87.5 -29l-25 -97q-25 14 -73 26.5t-90 12.5q-86 0 -145.5 -51.5t-59.5 -161.5v-147h342v-101h-342v-999h-109z" />
<glyph unicode="g" horiz-adv-x="1095" d="M750 195q138 0 221.5 -76t83.5 -199q0 -157 -138 -251.5t-372 -94.5q-203 0 -332 91t-129 239q0 134 125 243q-66 51 -66 134q0 51 31.5 99t89.5 79q-137 105 -137 291q0 169 114.5 272.5t301.5 103.5q171 0 282 -88q90 64 90 181h99q0 -138 -131 -234q78 -100 78 -235 q0 -168 -115.5 -272.5t-302.5 -104.5q-120 0 -205 43q-44 -22 -67 -53.5t-23 -63.5q0 -44 37 -74t106 -30h359zM543 1034q-138 0 -222.5 -78t-84.5 -206q0 -127 84 -206t223 -79t224 79t85 206t-85.5 205.5t-223.5 78.5zM545 -330q174 0 286.5 67.5t112.5 180.5 q0 80 -55.5 131t-143.5 51h-378q-38 0 -84 11q-95 -86 -95 -193q0 -110 99.5 -179t257.5 -69z" />
<glyph unicode="h" horiz-adv-x="1198" d="M625 1126q167 0 273 -111t106 -317v-698h-109v682q0 163 -83 251.5t-210 88.5q-57 0 -110 -22.5t-95.5 -65.5t-68 -113t-25.5 -157v-664h-110v1536h110v-610q39 81 122.5 140.5t199.5 59.5z" />
<glyph unicode="i" horiz-adv-x="495" d="M250 1389q-32 0 -55 21.5t-23 55.5q0 33 23 54.5t55 21.5t55 -21.5t23 -54.5q0 -34 -23 -55.5t-55 -21.5zM193 0v1100h110v-1100h-110z" />
<glyph unicode="j" horiz-adv-x="499" d="M252 1389q-32 0 -55 21.5t-23 55.5q0 33 23 54.5t55 21.5t55 -21.5t23 -54.5q0 -34 -23 -55.5t-55 -21.5zM-27 -426v96q112 0 168 53.5t56 192.5v1184h108v-1178q0 -102 -23.5 -171.5t-69.5 -107.5t-103 -53.5t-136 -15.5z" />
<glyph unicode="k" horiz-adv-x="1124" d="M1049 0h-140l-420 567l-186 -188v-379h-110v1536h110v-1001l569 565h148l-449 -451z" />
<glyph unicode="l" horiz-adv-x="583" d="M496 -6q-151 0 -235.5 89t-84.5 247v1206h111v-1186q0 -121 57 -188.5t160 -67.5z" />
<glyph unicode="m" horiz-adv-x="1845" d="M193 0v1100h108v-178q36 82 117.5 143t197.5 61q231 0 324 -215q44 98 132.5 156.5t205.5 58.5q77 0 143.5 -26t118.5 -76.5t81.5 -133.5t29.5 -190v-700h-109v684q0 163 -80 250.5t-198 87.5q-121 0 -204 -92.5t-83 -263.5v-666h-109v682q0 163 -80 251.5t-198 88.5 q-121 0 -204 -93t-83 -265v-664h-110z" />
<glyph unicode="n" horiz-adv-x="1198" d="M193 0v1100h108v-178q37 82 122 143t202 61q167 0 273 -111t106 -317v-698h-109v682q0 163 -83 251.5t-210 88.5q-57 0 -110 -22.5t-95.5 -65.5t-68 -113t-25.5 -157v-664h-110z" />
<glyph unicode="o" horiz-adv-x="1110" d="M555 -27q-217 0 -341 151.5t-124 426.5q0 274 124 424.5t341 150.5t341 -150.5t124 -424.5q0 -275 -124 -426.5t-341 -151.5zM555 74q166 0 259 125t93 352q0 225 -93 350t-259 125q-167 0 -259.5 -124.5t-92.5 -350.5q0 -227 92.5 -352t259.5 -125z" />
<glyph unicode="p" horiz-adv-x="1210" d="M193 -399v1499h110v-230q15 44 42.5 85t71 81.5t110 65t145.5 24.5q209 0 328.5 -149t119.5 -426t-119.5 -427.5t-328.5 -150.5q-77 0 -143 24.5t-110 64t-71.5 78.5t-44.5 79v-618h-110zM653 72q166 0 260.5 126.5t94.5 352.5t-94 351.5t-261 125.5q-166 0 -258 -125 t-92 -352t92 -353t258 -126z" />
<glyph unicode="q" horiz-adv-x="1210" d="M907 -399v614q-15 -40 -42 -78.5t-70.5 -77t-110.5 -62.5t-147 -24q-208 0 -327.5 151t-119.5 427q0 275 119.5 425t327.5 150q65 0 122.5 -17t96.5 -42t71.5 -58.5t50.5 -62.5t29 -57v211h111v-1499h-111zM557 72q165 0 257.5 126t92.5 353t-92 352t-258 125 t-260 -125.5t-94 -351.5q0 -227 94 -353t260 -126z" />
<glyph unicode="r" horiz-adv-x="847" d="M193 0v1100h110v-182q43 97 117.5 152.5t171.5 55.5q120 0 215 -82l-51 -94q-81 72 -176 72q-117 0 -197 -108t-80 -277v-637h-110z" />
<glyph unicode="s" horiz-adv-x="962" d="M500 -27q-158 0 -264.5 71t-153.5 179l82 53q44 -92 130.5 -149t203.5 -57q104 0 177 57t73 143q0 53 -27 93.5t-71 65t-100 47.5t-114.5 40t-114.5 44t-100 59t-71 85t-27 121q0 136 98 218.5t260 82.5q131 0 230 -56t143 -146l-82 -58q-40 76 -116.5 120t-172.5 44 q-109 0 -178 -55t-69 -144q0 -59 34.5 -101.5t89.5 -69t121.5 -48.5t133 -48t121.5 -60t89.5 -92t34.5 -136q0 -133 -104 -218t-256 -85z" />
<glyph unicode="t" horiz-adv-x="780" d="M514 -27q-132 0 -201 77.5t-69 232.5v716h-207v101h207v330l110 20v-350h297v-101h-297v-696q0 -118 41 -170.5t131 -52.5q82 0 164 47l21 -102q-96 -52 -197 -52z" />
<glyph unicode="u" horiz-adv-x="1112" d="M473 -27q-159 0 -254.5 101.5t-95.5 259.5v766h108v-750q0 -130 72 -202t193 -72q127 0 220 94t93 252v678h111v-805q0 -195 47 -295h-111q-36 70 -39 186q-39 -87 -130.5 -150t-213.5 -63z" />
<glyph unicode="v" horiz-adv-x="1081" d="M483 0l-422 1100h115l365 -975l368 975h113l-424 -1100h-115z" />
<glyph unicode="w" horiz-adv-x="1705" d="M426 0l-342 1100h111l297 -963l301 963h129l295 -963l294 963h111l-342 -1100h-125l-299 973l-305 -973h-125z" />
<glyph unicode="x" horiz-adv-x="1001" d="M938 0h-131l-311 463l-310 -463h-125l373 553l-368 547h131l307 -455l303 455h125l-371 -543z" />
<glyph unicode="y" horiz-adv-x="1062" d="M866 1100h117l-442 -1184q-35 -95 -88.5 -163.5t-118 -106.5t-130.5 -55t-138 -17l-11 104q56 0 109.5 13.5t106.5 43t96.5 83t70.5 125.5l21 55l-439 1102h121l373 -953z" />
<glyph unicode="z" horiz-adv-x="993" d="M84 0l-4 92l670 905h-660v103h797v-86l-670 -912h676v-102h-809z" />
<glyph unicode="{" horiz-adv-x="548" d="M446 -408q-110 0 -180.5 70t-70.5 205q0 90 47 323.5t47 298.5q0 72 -36.5 104t-107.5 38v98q72 8 108 39t36 104q0 64 -47 298.5t-47 324.5q0 135 70 204.5t181 69.5q60 0 125 -18l-14 -84q-43 14 -96 14q-79 0 -125.5 -46t-46.5 -142q0 -90 46 -318t46 -296 q0 -167 -145 -197v-2q14 -3 26.5 -7t36.5 -18t40 -33.5t29 -56t13 -82.5q0 -68 -46 -296.5t-46 -319.5q0 -94 46.5 -140t125.5 -46q53 0 96 14l14 -84q-68 -19 -125 -19z" />
<glyph unicode="|" horiz-adv-x="532" d="M217 -471v2048h98v-2048h-98z" />
<glyph unicode="}" horiz-adv-x="548" d="M102 -408q-57 0 -125 19l15 84q43 -14 96 -14q79 0 125.5 46t46.5 140q0 91 -46 319.5t-46 296.5q0 46 13 82.5t29 56t40 33.5t36.5 18t26.5 7v2q-145 30 -145 197q0 68 46 296t46 318q0 96 -46.5 142t-125.5 46q-53 0 -96 -14l-15 84q65 18 125 18q111 0 181.5 -69.5 t70.5 -204.5q0 -90 -47 -324.5t-47 -298.5q0 -73 35.5 -104t107.5 -39v-98q-71 -6 -107 -38t-36 -104q0 -65 47 -298.5t47 -323.5q0 -135 -70.5 -205t-181.5 -70z" />
<glyph unicode="~" horiz-adv-x="1040" d="M203 698l-84 19q0 73 45.5 125.5t128.5 52.5q68 0 222 -21.5t212 -21.5q103 0 109 109l86 -19q-5 -74 -53.5 -127t-135.5 -53q-68 0 -222 22.5t-208 22.5q-50 0 -75 -29.5t-25 -79.5z" />
<glyph unicode="&#xa1;" horiz-adv-x="598" d="M297 1126q36 0 59 -23t23 -59q0 -35 -23 -57t-59 -22q-34 0 -57 22t-23 57q0 36 23 59t57 23zM248 756h104l6 -1067h-116z" />
<glyph unicode="&#xa2;" horiz-adv-x="1062" d="M965 416q-43 -120 -147.5 -195.5t-233.5 -81.5v-139h-72v141q-181 22 -294.5 177t-113.5 399q0 243 113.5 397t294.5 176v133h72v-131q136 -6 233.5 -83t126.5 -189l-100 -33q-31 88 -99.5 143t-160.5 62v-952q97 7 171 60.5t111 141.5zM217 717q0 -197 81.5 -324.5 t213.5 -148.5v944q-132 -21 -213.5 -148t-81.5 -323z" />
<glyph unicode="&#xa3;" horiz-adv-x="1134" d="M317 100h693v-100h-834v96q83 55 136 167.5t53 228.5q0 69 -23 182h-219v80h199q-3 10 -12.5 45.5t-13 49t-11 44.5t-10.5 49.5t-7.5 45.5t-6 51t-1.5 48q0 169 99 266t255 97q282 0 390 -238l-105 -38q-47 85 -114 128.5t-169 43.5q-101 0 -170 -66t-69 -193 q0 -25 1.5 -49.5t6 -51.5t7.5 -45.5t10.5 -49t10.5 -43.5t12.5 -49t12.5 -45h385v-80h-366q22 -90 22 -182q0 -111 -49.5 -223t-112.5 -169z" />
<glyph unicode="&#xa4;" horiz-adv-x="1032" d="M150 338l-48 47l162 164q-55 76 -55 178t55 178l-162 164l48 47l159 -160q87 80 207 80t207 -80l160 160l49 -47l-164 -164q55 -76 55 -178t-55 -178l164 -164l-49 -47l-160 162q-85 -82 -207 -82t-207 82zM516 510q89 0 152 64t63 153t-63 153t-152 64t-152 -64 t-63 -153t63 -153t152 -64z" />
<glyph unicode="&#xa5;" horiz-adv-x="1220" d="M1147 1423l-449 -833h342v-78h-374v-205h374v-78h-374v-229h-113v229h-375v78h375v205h-375v78h342l-446 833h127l409 -766l410 766h127z" />
<glyph unicode="&#xa6;" horiz-adv-x="532" d="M217 774v803h98v-803h-98zM217 -471v803h98v-803h-98z" />
<glyph unicode="&#xa7;" horiz-adv-x="849" d="M367 -332q-122 0 -174 80q-39 58 -18 120q19 58 78 67q9 2 19 2q36 0 60.5 -18.5t30.5 -44.5t0.5 -52.5t-31 -45t-62.5 -18.5q22 -24 62 -31t79 3.5t68 49.5t29 99q0 54 -15 110t-51 124.5t-60.5 109.5t-78.5 124q-12 19 -18 28q-44 72 -66 108.5t-57.5 105.5t-53 120 t-31.5 119t-14 135q0 209 118.5 348t291.5 139q123 0 175 -80q39 -59 17 -120q-20 -58 -80 -67l-18 -1q-35 0 -59.5 18.5t-30 44.5t0 52t31 44.5t62.5 18.5q-22 24 -62 30t-79.5 -6.5t-68.5 -52.5t-29 -100q0 -40 12 -84t42 -101.5t51.5 -94t68.5 -110.5q13 -21 20 -32 q51 -82 75 -121.5t67 -119.5t63.5 -136t37.5 -131t17 -145q0 -96 -35 -186.5t-92.5 -156t-134.5 -105.5t-157 -40zM559 -174q55 43 103.5 134t48.5 196q0 72 -19.5 147.5t-60.5 159t-73.5 139.5t-88.5 146q-113 184 -144 248q-52 108 -57 188q-8 58 21 121 q-57 -34 -102.5 -136.5t-45.5 -203.5q0 -75 16 -146t51.5 -144.5t65.5 -125t84 -135.5q39 -60 64 -101.5t57.5 -100t50.5 -105t32.5 -98t13 -97.5t-16.5 -86z" />
<glyph unicode="&#xa8;" horiz-adv-x="1241" d="M399 1298q-29 0 -50 20.5t-21 51.5q0 33 21 53.5t50 20.5q30 0 52 -20.5t22 -53.5q0 -31 -22 -51.5t-52 -20.5zM733 1298q-30 0 -50.5 20t-20.5 52q0 33 20.5 53.5t50.5 20.5q29 0 50.5 -20.5t21.5 -53.5q0 -31 -21.5 -51.5t-50.5 -20.5z" />
<glyph unicode="&#xa9;" horiz-adv-x="1452" d="M725 -27q-282 0 -454.5 204t-172.5 536q0 334 172 536.5t455 202.5t456 -202.5t173 -536.5q0 -219 -78 -387t-221.5 -260.5t-329.5 -92.5zM725 49q249 0 401 183t152 481q0 299 -152 480t-401 181q-248 0 -398.5 -181t-150.5 -480q0 -298 151 -481t398 -183zM745 236 q-166 0 -264 129.5t-98 343.5t98 344.5t264 130.5q73 0 145.5 -35.5t110.5 -97.5l-55 -56q-36 50 -87 78.5t-109 28.5q-128 0 -202.5 -106t-74.5 -287t74.5 -287.5t202.5 -106.5q63 0 120.5 29t92.5 78l55 -55q-41 -61 -115.5 -96t-157.5 -35z" />
<glyph unicode="&#xaa;" horiz-adv-x="731" d="M305 743q-89 0 -145 49.5t-56 131.5q0 96 66 145t190 49h152v94q0 64 -42.5 105t-107.5 41q-55 0 -95.5 -29t-61.5 -78l-76 23q22 67 83.5 114.5t149.5 47.5q104 0 171 -61.5t67 -164.5v-270q0 -114 27 -180h-92q-21 47 -21 90q-30 -47 -87 -77t-122 -30zM319 815 q71 0 132 49t61 111v80h-152q-172 0 -172 -127q0 -51 35.5 -82t95.5 -31z" />
<glyph unicode="&#xab;" horiz-adv-x="880" d="M352 295l-229 367l229 366l86 -31l-209 -335l209 -336zM672 295l-230 367l230 366l86 -31l-209 -335l209 -336z" />
<glyph unicode="&#xac;" horiz-adv-x="1146" d="M1024 764v-461h-94v361h-807v100h901z" />
<glyph unicode="&#xad;" horiz-adv-x="950" d="M143 623v118h666v-118h-666z" />
<glyph unicode="&#xae;" horiz-adv-x="1122" d="M561 582q-195 0 -313.5 117.5t-118.5 312.5q0 198 118.5 318t313.5 120t313.5 -120t118.5 -318q0 -195 -118.5 -312.5t-313.5 -117.5zM561 643q164 0 265.5 101.5t101.5 267.5q0 171 -101 274t-266 103q-166 0 -266 -102.5t-100 -274.5q0 -167 100 -268t266 -101z M436 799v446h127q69 0 110.5 -39t41.5 -102q0 -44 -21 -75.5t-57 -45.5l90 -184l-70 -2l-75 170h-82v-168h-64zM500 1020h61q90 0 90 84q0 40 -24.5 64t-65.5 24h-61v-172z" />
<glyph unicode="&#xaf;" horiz-adv-x="1241" d="M825 1425v-88h-516v88h516z" />
<glyph unicode="&#xb0;" horiz-adv-x="833" d="M418 944q-106 0 -180 74t-74 180q0 103 74.5 177.5t179.5 74.5q104 0 178 -74.5t74 -177.5q0 -106 -74 -180t-178 -74zM418 1018q74 0 126 52.5t52 127.5q0 74 -52 126t-126 52q-75 0 -127.5 -52t-52.5 -126q0 -75 52.5 -127.5t127.5 -52.5z" />
<glyph unicode="&#xb1;" horiz-adv-x="1146" d="M625 795h399v-101h-399v-409h-105v409h-397v101h397v407h105v-407zM123 0v100h901v-100h-901z" />
<glyph unicode="&#xb2;" horiz-adv-x="542" d="M39 711v73l242 240q73 73 99 114t26 93q0 59 -40 96t-106 37q-109 0 -149 -84l-78 25q24 58 83.5 94.5t143.5 36.5q106 0 169 -55.5t63 -143.5q0 -67 -32.5 -122t-113.5 -136l-194 -193h358v-75h-471z" />
<glyph unicode="&#xb3;" horiz-adv-x="575" d="M287 696q-97 0 -160.5 42.5t-89.5 105.5l74 28q20 -45 65.5 -73.5t110.5 -28.5q61 0 106 36t45 101q0 66 -50 100.5t-120 34.5h-80v68h82q66 0 110 31.5t44 101.5q0 54 -40 87.5t-99 33.5q-105 0 -148 -84l-78 25q24 58 83 94.5t143 36.5q98 0 160.5 -50t62.5 -133 q0 -68 -33 -111t-88 -57v-2q52 -13 93.5 -57t41.5 -119q0 -95 -65.5 -153t-169.5 -58z" />
<glyph unicode="&#xb4;" horiz-adv-x="1241" d="M346 1249l-41 80l479 250l43 -84z" />
<glyph unicode="&#xb5;" horiz-adv-x="1112" d="M920 295q0 -195 47 -295h-111q-36 70 -39 186q-39 -87 -130.5 -150t-213.5 -63q-156 0 -256 103l12 -475h-106v1499h108v-750q0 -130 72 -202t193 -72q127 0 220 94t93 252v678h111v-805z" />
<glyph unicode="&#xb6;" horiz-adv-x="929" d="M530 -242v772q-87 0 -161 25t-126 68t-89 100.5t-54.5 121.5t-17.5 132q0 85 28.5 164t82.5 142.5t141.5 101.5t195.5 38h88v-1665h-88zM743 -242v1665h86v-1665h-86z" />
<glyph unicode="&#xb7;" horiz-adv-x="481" d="M240 621q-34 0 -57 22.5t-23 58.5q0 35 23 57.5t57 22.5q35 0 58.5 -22.5t23.5 -57.5q0 -36 -23 -58.5t-59 -22.5z" />
<glyph unicode="&#xb8;" horiz-adv-x="1241" d="M559 -424q-111 0 -186 53l24 62q80 -47 158 -47q62 0 96.5 27t34.5 63q0 33 -29.5 57.5t-83.5 24.5q-49 0 -100 -23l-51 35l115 172h86l-95 -129q35 12 76 12q81 0 128.5 -43t47.5 -102q0 -67 -57.5 -114.5t-163.5 -47.5z" />
<glyph unicode="&#xb9;" horiz-adv-x="358" d="M193 711v620l-150 -90l-8 76l166 106h71v-712h-79z" />
<glyph unicode="&#xba;" horiz-adv-x="700" d="M350 743q-132 0 -207 91t-75 256q0 164 75 255t207 91t207.5 -91t75.5 -255t-75.5 -255.5t-207.5 -91.5zM350 821q93 0 144 70.5t51 198.5t-50.5 198t-144.5 70q-93 0 -143.5 -70t-50.5 -198t50.5 -198.5t143.5 -70.5z" />
<glyph unicode="&#xbb;" horiz-adv-x="880" d="M207 295l-86 31l209 336l-209 335l86 31l229 -366zM526 295l-86 31l209 336l-209 335l86 31l230 -366z" />
<glyph unicode="&#xbc;" horiz-adv-x="1142" d="M193 711v620l-150 -90l-8 76l166 106h71v-712h-79zM190 0h-94l660 1423h96zM942 0v160h-321v67l229 486h82l-223 -482h233v199h78v-199h88v-71h-88v-160h-78z" />
<glyph unicode="&#xbd;" horiz-adv-x="1130" d="M193 711v620l-150 -90l-8 76l166 106h71v-712h-79zM190 0h-94l660 1423h96zM627 0v74l241 239q73 73 99 114t26 93q0 59 -40 96t-105 37q-52 0 -91.5 -22t-58.5 -62l-77 25q24 58 83.5 94.5t143.5 36.5q106 0 168.5 -55.5t62.5 -143.5q0 -68 -32.5 -123t-112.5 -135 l-195 -192h359v-76h-471z" />
<glyph unicode="&#xbe;" horiz-adv-x="1359" d="M287 696q-97 0 -160.5 42.5t-89.5 105.5l74 28q20 -45 65.5 -73.5t110.5 -28.5q61 0 106 36t45 101q0 66 -50 100.5t-120 34.5h-80v68h82q66 0 110 31.5t44 101.5q0 54 -40 87.5t-99 33.5q-105 0 -148 -84l-78 25q24 58 83 94.5t143 36.5q98 0 160.5 -50t62.5 -133 q0 -68 -33 -111t-88 -57v-2q52 -13 93.5 -57t41.5 -119q0 -95 -65.5 -153t-169.5 -58zM408 0h-95l660 1423h96zM1159 0v160h-321v67l229 486h82l-223 -482h233v199h78v-199h88v-71h-88v-160h-78z" />
<glyph unicode="&#xbf;" horiz-adv-x="890" d="M508 1126q34 0 57 -23t23 -59q0 -35 -23 -57t-57 -22q-36 0 -59 22t-23 57q0 36 23 59t59 23zM567 756v-107q0 -75 -22.5 -134.5t-58.5 -98t-79 -71.5t-86.5 -63t-79.5 -62.5t-58.5 -80.5t-22.5 -108q0 -123 87 -193.5t210 -70.5q95 0 176.5 44.5t126.5 127.5l106 -39 q-59 -116 -167.5 -177t-243.5 -61q-80 0 -153 24t-131 68t-93 115t-35 158q0 55 14 101.5t38 79.5t55 62t65 53l68 48t65 51.5t55 59.5t38 76t14 97v101h112z" />
<glyph unicode="&#xc0;" horiz-adv-x="1212" d="M846 1659l-39 -80l-488 233l41 86zM1051 0l-131 381h-633l-129 -381h-115l494 1423h139l493 -1423h-118zM322 481h563l-283 828z" />
<glyph unicode="&#xc1;" horiz-adv-x="1212" d="M856 1812l-487 -233l-39 80l485 239zM1051 0l-131 381h-633l-129 -381h-115l494 1423h139l493 -1423h-118zM322 481h563l-283 828z" />
<glyph unicode="&#xc2;" horiz-adv-x="1212" d="M606 1772l-184 -224l-78 39l215 275h94l215 -275l-77 -39zM1051 0l-131 381h-633l-129 -381h-115l494 1423h139l493 -1423h-118zM322 481h563l-283 828z" />
<glyph unicode="&#xc3;" horiz-adv-x="1212" d="M498 1696q-33 0 -48 -18.5t-18 -57.5l-80 18q5 62 40 102t93 40q37 0 115 -15.5t105 -15.5q67 0 73 82l82 -16q-6 -66 -45 -108t-106 -42q-41 0 -115 15.5t-96 15.5zM1051 0l-131 381h-633l-129 -381h-115l494 1423h139l493 -1423h-118zM322 481h563l-283 828z" />
<glyph unicode="&#xc4;" horiz-adv-x="1212" d="M438 1622q-29 0 -50 20.5t-21 51.5q0 33 21 53t50 20q30 0 52 -20t22 -53q0 -31 -22 -51.5t-52 -20.5zM772 1622q-30 0 -51 20t-21 52q0 33 21 53t51 20q29 0 50.5 -20.5t21.5 -52.5q0 -31 -21.5 -51.5t-50.5 -20.5zM1051 0l-131 381h-633l-129 -381h-115l494 1423h139 l493 -1423h-118zM322 481h563l-283 828z" />
<glyph unicode="&#xc5;" horiz-adv-x="1212" d="M606 1548q-76 0 -126 50.5t-50 125.5q0 76 50 127.5t126 51.5t127 -52t51 -127t-51 -125.5t-127 -50.5zM606 1835q-44 0 -74 -31t-30 -80q0 -48 30 -78t74 -30q45 0 76 30t31 78q0 49 -31 80t-76 31zM1051 0l-131 381h-633l-129 -381h-115l494 1423h139l493 -1423h-118z M322 481h563l-283 828z" />
<glyph unicode="&#xc6;" horiz-adv-x="1951" d="M1071 100h733v-100h-846v436h-497l-248 -436h-117l811 1423h840v-100h-676v-553h592v-102h-592v-568zM520 539h438v772z" />
<glyph unicode="&#xc7;" horiz-adv-x="1308" d="M1210 248q-47 -113 -164 -192t-288 -83l-76 -102q34 12 76 12q81 0 128.5 -43t47.5 -102q0 -67 -57.5 -114.5t-163.5 -47.5q-112 0 -187 53l25 62q80 -47 158 -47q62 0 96.5 27t34.5 63q0 33 -29.5 57.5t-83.5 24.5q-49 0 -100 -23l-52 35l99 147q-248 24 -399.5 215 t-151.5 523q0 178 46.5 319t129.5 232t194.5 138.5t243.5 47.5q178 0 299 -78.5t172 -195.5l-106 -39q-109 209 -363 209q-227 0 -364 -161.5t-137 -471.5q0 -158 37.5 -280t105.5 -199t159 -116.5t201 -39.5q260 0 369 209z" />
<glyph unicode="&#xc8;" horiz-adv-x="1210" d="M817 1579l-487 233l41 86l485 -239zM217 0v1423h789v-100h-676v-553h592v-102h-592v-568h733v-100h-846z" />
<glyph unicode="&#xc9;" horiz-adv-x="1210" d="M379 1579l-39 80l485 239l41 -86zM217 0v1423h789v-100h-676v-553h592v-102h-592v-568h733v-100h-846z" />
<glyph unicode="&#xca;" horiz-adv-x="1210" d="M432 1548l-78 39l215 275h95l215 -275l-78 -39l-185 224zM217 0v1423h789v-100h-676v-553h592v-102h-592v-568h733v-100h-846z" />
<glyph unicode="&#xcb;" horiz-adv-x="1210" d="M449 1622q-29 0 -50.5 20.5t-21.5 51.5q0 32 21.5 52.5t50.5 20.5q30 0 51.5 -20t21.5 -53q0 -31 -21.5 -51.5t-51.5 -20.5zM782 1622q-30 0 -50.5 20t-20.5 52q0 33 20.5 53t50.5 20q29 0 50.5 -20.5t21.5 -52.5q0 -31 -21.5 -51.5t-50.5 -20.5zM217 0v1423h789v-100 h-676v-553h592v-102h-592v-568h733v-100h-846z" />
<glyph unicode="&#xcc;" horiz-adv-x="546" d="M475 1579l-487 233l41 86l485 -239zM217 0v1423h113v-1423h-113z" />
<glyph unicode="&#xcd;" horiz-adv-x="546" d="M37 1579l-39 80l485 239l41 -86zM217 0v1423h113v-1423h-113z" />
<glyph unicode="&#xce;" horiz-adv-x="546" d="M90 1548l-78 39l215 275h95l215 -275l-78 -39l-185 224zM217 0v1423h113v-1423h-113z" />
<glyph unicode="&#xcf;" horiz-adv-x="546" d="M106 1622q-29 0 -50 20.5t-21 51.5q0 33 21 53t50 20q30 0 52 -20t22 -53q0 -31 -22 -51.5t-52 -20.5zM440 1622q-30 0 -50.5 20t-20.5 52q0 33 20.5 53t50.5 20q29 0 50.5 -20.5t21.5 -52.5q0 -31 -21.5 -51.5t-50.5 -20.5zM217 0v1423h113v-1423h-113z" />
<glyph unicode="&#xd0;" horiz-adv-x="1388" d="M592 1423q109 0 206.5 -25t183.5 -80t148.5 -136.5t99 -202t36.5 -268.5t-36.5 -268t-99 -201.5t-148.5 -136.5t-183.5 -80t-206.5 -25h-375v666h-190v94h190v663h375zM580 100q89 0 169 19.5t154.5 65t128.5 114.5t86.5 174.5t32.5 237.5q0 133 -32.5 239t-86.5 174.5 t-128.5 114t-154.5 65t-169 19.5h-250v-563h379v-94h-379v-566h250z" />
<glyph unicode="&#xd1;" horiz-adv-x="1478" d="M549 1620l-80 18q5 62 40 102t93 40q37 0 114.5 -15.5t104.5 -15.5q68 0 74 82l82 -16q-6 -65 -45.5 -107.5t-106.5 -42.5q-41 0 -115 15.5t-96 15.5q-33 0 -47.5 -18t-17.5 -58zM217 0v1423h115l817 -1233v1233h113v-1423h-113l-819 1235v-1235h-113z" />
<glyph unicode="&#xd2;" horiz-adv-x="1388" d="M895 1579l-487 233l41 86l485 -239zM694 -27q-270 0 -420.5 186t-150.5 554q0 366 150.5 551.5t420.5 185.5t422 -185.5t152 -551.5q0 -367 -152 -553.5t-422 -186.5zM694 78q218 0 337.5 154t119.5 481q0 325 -119.5 479t-337.5 154q-456 0 -456 -633q0 -635 456 -635z " />
<glyph unicode="&#xd3;" horiz-adv-x="1388" d="M457 1579l-39 80l485 239l41 -86zM694 -27q-270 0 -420.5 186t-150.5 554q0 366 150.5 551.5t420.5 185.5t422 -185.5t152 -551.5q0 -367 -152 -553.5t-422 -186.5zM694 78q218 0 337.5 154t119.5 481q0 325 -119.5 479t-337.5 154q-456 0 -456 -633q0 -635 456 -635z " />
<glyph unicode="&#xd4;" horiz-adv-x="1388" d="M510 1548l-78 39l215 275h94l215 -275l-77 -39l-185 224zM694 -27q-270 0 -420.5 186t-150.5 554q0 366 150.5 551.5t420.5 185.5t422 -185.5t152 -551.5q0 -367 -152 -553.5t-422 -186.5zM694 78q218 0 337.5 154t119.5 481q0 325 -119.5 479t-337.5 154 q-456 0 -456 -633q0 -635 456 -635z" />
<glyph unicode="&#xd5;" horiz-adv-x="1388" d="M520 1620l-80 18q5 62 40 102t93 40q37 0 115 -15.5t105 -15.5q67 0 73 82l82 -16q-6 -66 -45 -108t-106 -42q-41 0 -115 15.5t-96 15.5q-33 0 -48 -18.5t-18 -57.5zM694 -27q-270 0 -420.5 186t-150.5 554q0 366 150.5 551.5t420.5 185.5t422 -185.5t152 -551.5 q0 -367 -152 -553.5t-422 -186.5zM694 78q218 0 337.5 154t119.5 481q0 325 -119.5 479t-337.5 154q-456 0 -456 -633q0 -635 456 -635z" />
<glyph unicode="&#xd6;" horiz-adv-x="1388" d="M526 1622q-29 0 -50 20.5t-21 51.5q0 33 21 53t50 20q30 0 52 -20t22 -53q0 -31 -22 -51.5t-52 -20.5zM860 1622q-30 0 -51 20t-21 52q0 33 21 53t51 20q29 0 50.5 -20.5t21.5 -52.5q0 -31 -21.5 -51.5t-50.5 -20.5zM694 -27q-270 0 -420.5 186t-150.5 554 q0 366 150.5 551.5t420.5 185.5t422 -185.5t152 -551.5q0 -367 -152 -553.5t-422 -186.5zM694 78q218 0 337.5 154t119.5 481q0 325 -119.5 479t-337.5 154q-456 0 -456 -633q0 -635 456 -635z" />
<glyph unicode="&#xd7;" horiz-adv-x="1097" d="M977 1055l-356 -357l356 -356l-72 -72l-354 357l-356 -357l-72 72l356 356l-356 357l72 69l356 -354l354 354z" />
<glyph unicode="&#xd8;" horiz-adv-x="1388" d="M1018 1358q250 -176 250 -645q0 -367 -152 -553.5t-422 -186.5q-135 0 -241 47l-62 -143l-84 29l68 157q-252 178 -252 650q0 366 150.5 551.5t420.5 185.5q139 0 246 -49l57 137l84 -29zM238 713q0 -398 180 -545l479 1135q-87 43 -203 43q-456 0 -456 -633zM694 78 q218 0 337.5 154t119.5 481q0 389 -178 540l-479 -1134q83 -41 200 -41z" />
<glyph unicode="&#xd9;" horiz-adv-x="1361" d="M881 1579l-488 233l41 86l486 -239zM678 -27q-219 0 -348 139.5t-129 405.5v905h112v-905q0 -95 19.5 -171.5t60.5 -138.5t113.5 -96t171.5 -34q100 0 173.5 34t116 96t62 138.5t19.5 171.5v905h112v-905q0 -266 -131 -405.5t-352 -139.5z" />
<glyph unicode="&#xda;" horiz-adv-x="1361" d="M442 1579l-39 80l486 239l41 -86zM678 -27q-219 0 -348 139.5t-129 405.5v905h112v-905q0 -95 19.5 -171.5t60.5 -138.5t113.5 -96t171.5 -34q100 0 173.5 34t116 96t62 138.5t19.5 171.5v905h112v-905q0 -266 -131 -405.5t-352 -139.5z" />
<glyph unicode="&#xdb;" horiz-adv-x="1361" d="M496 1548l-78 39l215 275h94l215 -275l-78 -39l-184 224zM678 -27q-219 0 -348 139.5t-129 405.5v905h112v-905q0 -95 19.5 -171.5t60.5 -138.5t113.5 -96t171.5 -34q100 0 173.5 34t116 96t62 138.5t19.5 171.5v905h112v-905q0 -266 -131 -405.5t-352 -139.5z" />
<glyph unicode="&#xdc;" horiz-adv-x="1361" d="M512 1622q-29 0 -50.5 20.5t-21.5 51.5q0 32 21.5 52.5t50.5 20.5q30 0 52 -20t22 -53q0 -31 -22 -51.5t-52 -20.5zM846 1622q-30 0 -51 20t-21 52q0 33 21 53t51 20q29 0 50.5 -20.5t21.5 -52.5q0 -31 -21.5 -51.5t-50.5 -20.5zM678 -27q-219 0 -348 139.5t-129 405.5 v905h112v-905q0 -95 19.5 -171.5t60.5 -138.5t113.5 -96t171.5 -34q100 0 173.5 34t116 96t62 138.5t19.5 171.5v905h112v-905q0 -266 -131 -405.5t-352 -139.5z" />
<glyph unicode="&#xdd;" horiz-adv-x="1220" d="M375 1579l-39 80l485 239l41 -86zM553 0v530l-479 893h127l409 -766l410 766h127l-481 -893v-530h-113z" />
<glyph unicode="&#xde;" horiz-adv-x="1112" d="M217 0v1423h113v-274h272q203 0 317.5 -111t114.5 -303q0 -206 -121 -323t-331 -117h-252v-295h-113zM330 389h250q158 0 248 91t90 249q0 149 -87.5 235.5t-242.5 86.5h-258v-662z" />
<glyph unicode="&#xdf;" horiz-adv-x="1253" d="M811 -27q-136 0 -238.5 70t-160.5 168l65 63q50 -87 134 -146.5t200 -59.5q104 0 175 58t71 146q0 60 -29 105t-75.5 72.5t-102 51t-111.5 47.5t-102.5 53t-75.5 76.5t-29 110.5q0 52 19 93.5t49.5 68t67 48.5t73.5 43t67.5 44t49.5 57.5t19 78.5q0 99 -79 157t-186 58 q-79 0 -147 -30t-114 -97.5t-46 -161.5v-1147h-112v1143q0 98 36.5 175.5t97 123.5t134.5 70t155 24q97 0 180.5 -33.5t139 -105.5t55.5 -170q0 -53 -19 -95t-49.5 -68.5t-67 -49t-73 -43t-67 -42.5t-49.5 -55t-19 -75q0 -46 29 -81.5t75 -60.5t102 -48t112 -51.5t102 -63.5 t75 -91t29 -127q0 -133 -104 -218t-256 -85z" />
<glyph unicode="&#xe0;" horiz-adv-x="1114" d="M776 1255l-487 234l41 86l485 -240zM451 -27q-147 0 -239.5 80.5t-92.5 212.5q0 159 108.5 240.5t313.5 81.5h270v170q0 118 -76 193t-194 75q-98 0 -174.5 -51.5t-108.5 -138.5l-102 30q37 110 140.5 185t242.5 75q172 0 277.5 -100t105.5 -268v-469q0 -197 45 -289 h-117q-34 66 -37 172q-51 -90 -150 -144.5t-212 -54.5zM477 72q130 0 232 86.5t102 199.5v144h-268q-312 0 -312 -228q0 -89 69 -145.5t177 -56.5z" />
<glyph unicode="&#xe1;" horiz-adv-x="1114" d="M338 1255l-39 80l485 240l41 -86zM451 -27q-147 0 -239.5 80.5t-92.5 212.5q0 159 108.5 240.5t313.5 81.5h270v170q0 118 -76 193t-194 75q-98 0 -174.5 -51.5t-108.5 -138.5l-102 30q37 110 140.5 185t242.5 75q172 0 277.5 -100t105.5 -268v-469q0 -197 45 -289h-117 q-34 66 -37 172q-51 -90 -150 -144.5t-212 -54.5zM477 72q130 0 232 86.5t102 199.5v144h-268q-312 0 -312 -228q0 -89 69 -145.5t177 -56.5z" />
<glyph unicode="&#xe2;" horiz-adv-x="1114" d="M391 1225l-78 39l215 274h95l215 -274l-78 -39l-185 223zM451 -27q-147 0 -239.5 80.5t-92.5 212.5q0 159 108.5 240.5t313.5 81.5h270v170q0 118 -76 193t-194 75q-98 0 -174.5 -51.5t-108.5 -138.5l-102 30q37 110 140.5 185t242.5 75q172 0 277.5 -100t105.5 -268 v-469q0 -197 45 -289h-117q-34 66 -37 172q-51 -90 -150 -144.5t-212 -54.5zM477 72q130 0 232 86.5t102 199.5v144h-268q-312 0 -312 -228q0 -89 69 -145.5t177 -56.5z" />
<glyph unicode="&#xe3;" horiz-adv-x="1114" d="M401 1296l-79 19q5 62 40 101.5t93 39.5q37 0 114.5 -15.5t104.5 -15.5q68 0 74 82l81 -16q-6 -66 -45 -108t-106 -42q-41 0 -115 15.5t-96 15.5q-33 0 -48 -18.5t-18 -57.5zM451 -27q-147 0 -239.5 80.5t-92.5 212.5q0 159 108.5 240.5t313.5 81.5h270v170 q0 118 -76 193t-194 75q-98 0 -174.5 -51.5t-108.5 -138.5l-102 30q37 110 140.5 185t242.5 75q172 0 277.5 -100t105.5 -268v-469q0 -197 45 -289h-117q-34 66 -37 172q-51 -90 -150 -144.5t-212 -54.5zM477 72q130 0 232 86.5t102 199.5v144h-268q-312 0 -312 -228 q0 -89 69 -145.5t177 -56.5z" />
<glyph unicode="&#xe4;" horiz-adv-x="1114" d="M408 1298q-29 0 -50.5 20.5t-21.5 51.5q0 33 21.5 53.5t50.5 20.5q30 0 51.5 -20.5t21.5 -53.5q0 -31 -21.5 -51.5t-51.5 -20.5zM741 1298q-30 0 -50.5 20t-20.5 52q0 33 20.5 53.5t50.5 20.5q29 0 50.5 -20.5t21.5 -53.5q0 -31 -21.5 -51.5t-50.5 -20.5zM451 -27 q-147 0 -239.5 80.5t-92.5 212.5q0 159 108.5 240.5t313.5 81.5h270v170q0 118 -76 193t-194 75q-98 0 -174.5 -51.5t-108.5 -138.5l-102 30q37 110 140.5 185t242.5 75q172 0 277.5 -100t105.5 -268v-469q0 -197 45 -289h-117q-34 66 -37 172q-51 -90 -150 -144.5 t-212 -54.5zM477 72q130 0 232 86.5t102 199.5v144h-268q-312 0 -312 -228q0 -89 69 -145.5t177 -56.5z" />
<glyph unicode="&#xe5;" horiz-adv-x="1114" d="M575 1579q76 0 127.5 -51.5t51.5 -126.5t-51.5 -125.5t-127.5 -50.5t-126 50.5t-50 125.5q0 76 50 127t126 51zM575 1511q-44 0 -74 -30.5t-30 -79.5q0 -48 30 -78.5t74 -30.5q45 0 76 30.5t31 78.5q0 49 -31 79.5t-76 30.5zM451 -27q-147 0 -239.5 80.5t-92.5 212.5 q0 159 108.5 240.5t313.5 81.5h270v170q0 118 -76 193t-194 75q-98 0 -174.5 -51.5t-108.5 -138.5l-102 30q37 110 140.5 185t242.5 75q172 0 277.5 -100t105.5 -268v-469q0 -197 45 -289h-117q-34 66 -37 172q-51 -90 -150 -144.5t-212 -54.5zM477 72q130 0 232 86.5 t102 199.5v144h-268q-312 0 -312 -228q0 -89 69 -145.5t177 -56.5z" />
<glyph unicode="&#xe6;" horiz-adv-x="1810" d="M1616 281l96 -33q-52 -127 -169 -201t-261 -74q-134 0 -238 68t-163 190q-132 -258 -416 -258q-154 0 -250 84t-96 222q0 157 108 245t316 88h268v148q0 117 -75.5 191.5t-194.5 74.5q-98 0 -174.5 -51.5t-108.5 -138.5l-102 30q39 110 142.5 185t242.5 75 q126 0 219.5 -57t134.5 -158q59 104 153.5 159.5t215.5 55.5q201 0 321.5 -133.5t120.5 -339.5v-90h-780v-12q0 -210 100 -344.5t256 -134.5q116 0 203 53t131 156zM1262 1028q-133 0 -220 -95.5t-110 -266.5h659q0 161 -90 261.5t-239 100.5zM811 410v98h-268 q-158 0 -235 -56.5t-77 -172.5q0 -90 69 -147.5t177 -57.5q134 0 234 94.5t100 241.5z" />
<glyph unicode="&#xe7;" horiz-adv-x="1021" d="M950 250q-43 -118 -145 -193.5t-230 -83.5l-75 -102q34 12 75 12q81 0 129 -43t48 -102q0 -67 -58 -114.5t-164 -47.5q-111 0 -186 53l25 62q80 -47 157 -47q62 0 96.5 27t34.5 63q0 34 -29 58t-83 24q-50 0 -101 -23l-51 35l99 149q-178 22 -290 176.5t-112 397.5 q0 260 129.5 417.5t329.5 157.5q144 0 247.5 -77t133.5 -195l-101 -33q-33 94 -108 149.5t-176 55.5q-151 0 -246.5 -131t-95.5 -344q0 -215 95.5 -346t246.5 -131q104 0 186.5 54t120.5 148z" />
<glyph unicode="&#xe8;" horiz-adv-x="1087" d="M776 1335l-39 -80l-487 234l41 86zM893 281l96 -33q-50 -125 -168.5 -200t-257.5 -75q-214 0 -343.5 161t-129.5 429q0 258 124.5 410.5t332.5 152.5q129 0 229 -63.5t152.5 -170.5t52.5 -237v-86h-778v-6q0 -222 99 -356.5t267 -134.5q107 0 196 55t128 154zM545 1028 q-137 0 -225.5 -96.5t-110.5 -265.5h661q-2 159 -91.5 260.5t-233.5 101.5z" />
<glyph unicode="&#xe9;" horiz-adv-x="1087" d="M786 1489l-487 -234l-39 80l485 240zM893 281l96 -33q-50 -125 -168.5 -200t-257.5 -75q-214 0 -343.5 161t-129.5 429q0 258 124.5 410.5t332.5 152.5q129 0 229 -63.5t152.5 -170.5t52.5 -237v-86h-778v-6q0 -222 99 -356.5t267 -134.5q107 0 196 55t128 154zM545 1028 q-137 0 -225.5 -96.5t-110.5 -265.5h661q-2 159 -91.5 260.5t-233.5 101.5z" />
<glyph unicode="&#xea;" horiz-adv-x="1087" d="M537 1448l-185 -223l-78 39l215 274h95l215 -274l-78 -39zM893 281l96 -33q-50 -125 -168.5 -200t-257.5 -75q-214 0 -343.5 161t-129.5 429q0 258 124.5 410.5t332.5 152.5q129 0 229 -63.5t152.5 -170.5t52.5 -237v-86h-778v-6q0 -222 99 -356.5t267 -134.5 q107 0 196 55t128 154zM545 1028q-137 0 -225.5 -96.5t-110.5 -265.5h661q-2 159 -91.5 260.5t-233.5 101.5z" />
<glyph unicode="&#xeb;" horiz-adv-x="1087" d="M369 1298q-29 0 -50.5 20.5t-21.5 51.5q0 33 21.5 53.5t50.5 20.5q30 0 51.5 -20.5t21.5 -53.5q0 -31 -21.5 -51.5t-51.5 -20.5zM702 1298q-30 0 -50.5 20t-20.5 52q0 33 20.5 53.5t50.5 20.5q29 0 50.5 -20.5t21.5 -53.5q0 -31 -21.5 -51.5t-50.5 -20.5zM893 281l96 -33 q-50 -125 -168.5 -200t-257.5 -75q-214 0 -343.5 161t-129.5 429q0 258 124.5 410.5t332.5 152.5q129 0 229 -63.5t152.5 -170.5t52.5 -237v-86h-778v-6q0 -222 99 -356.5t267 -134.5q107 0 196 55t128 154zM545 1028q-137 0 -225.5 -96.5t-110.5 -265.5h661 q-2 159 -91.5 260.5t-233.5 101.5z" />
<glyph unicode="&#xec;" horiz-adv-x="495" d="M451 1255l-488 234l41 86l485 -240zM193 0v1100h110v-1100h-110z" />
<glyph unicode="&#xed;" horiz-adv-x="495" d="M12 1255l-39 80l486 240l41 -86zM193 0v1100h110v-1100h-110z" />
<glyph unicode="&#xee;" horiz-adv-x="495" d="M66 1225l-78 39l215 274h94l215 -274l-78 -39l-184 223zM193 0v1100h110v-1100h-110z" />
<glyph unicode="&#xef;" horiz-adv-x="495" d="M82 1298q-29 0 -50.5 20.5t-21.5 51.5q0 33 21.5 53.5t50.5 20.5q30 0 52 -20.5t22 -53.5q0 -31 -22 -51.5t-52 -20.5zM416 1298q-30 0 -51 20t-21 52q0 33 21 53.5t51 20.5q29 0 50 -20.5t21 -53.5q0 -31 -21 -51.5t-50 -20.5zM193 0v1100h110v-1100h-110z" />
<glyph unicode="&#xf0;" horiz-adv-x="1073" d="M983 526v-2q0 -258 -122 -404.5t-326 -146.5q-202 0 -323.5 147t-121.5 404q0 256 121.5 401.5t323.5 145.5q127 0 227 -59q-73 146 -174 256l-226 -94l-36 69l204 86q-114 114 -223 162l86 65q134 -70 242 -184l223 94l37 -69l-203 -86q132 -156 211.5 -358t79.5 -427z M535 72q160 0 247.5 117t87.5 335q0 215 -87.5 332t-247.5 117q-158 0 -245 -117t-87 -332q0 -218 86.5 -335t245.5 -117z" />
<glyph unicode="&#xf1;" horiz-adv-x="1198" d="M424 1296l-80 19q5 62 40 101.5t93 39.5q37 0 114.5 -15.5t104.5 -15.5q68 0 74 82l82 -16q-6 -65 -45.5 -107.5t-106.5 -42.5q-41 0 -115 15.5t-96 15.5q-33 0 -47.5 -18t-17.5 -58zM193 0v1100h108v-178q37 82 122 143t202 61q167 0 273 -111t106 -317v-698h-109v682 q0 163 -83 251.5t-210 88.5q-57 0 -110 -22.5t-95.5 -65.5t-68 -113t-25.5 -157v-664h-110z" />
<glyph unicode="&#xf2;" horiz-adv-x="1110" d="M758 1255l-488 234l41 86l486 -240zM555 -27q-217 0 -341 151.5t-124 426.5q0 274 124 424.5t341 150.5t341 -150.5t124 -424.5q0 -275 -124 -426.5t-341 -151.5zM555 74q166 0 259 125t93 352q0 225 -93 350t-259 125q-167 0 -259.5 -124.5t-92.5 -350.5 q0 -227 92.5 -352t259.5 -125z" />
<glyph unicode="&#xf3;" horiz-adv-x="1110" d="M319 1255l-38 80l485 240l41 -86zM555 -27q-217 0 -341 151.5t-124 426.5q0 274 124 424.5t341 150.5t341 -150.5t124 -424.5q0 -275 -124 -426.5t-341 -151.5zM555 74q166 0 259 125t93 352q0 225 -93 350t-259 125q-167 0 -259.5 -124.5t-92.5 -350.5q0 -227 92.5 -352 t259.5 -125z" />
<glyph unicode="&#xf4;" horiz-adv-x="1110" d="M373 1225l-78 39l215 274h94l215 -274l-78 -39l-184 223zM555 -27q-217 0 -341 151.5t-124 426.5q0 274 124 424.5t341 150.5t341 -150.5t124 -424.5q0 -275 -124 -426.5t-341 -151.5zM555 74q166 0 259 125t93 352q0 225 -93 350t-259 125q-167 0 -259.5 -124.5 t-92.5 -350.5q0 -227 92.5 -352t259.5 -125z" />
<glyph unicode="&#xf5;" horiz-adv-x="1110" d="M383 1296l-80 19q5 62 40 101.5t93 39.5q37 0 114.5 -15.5t104.5 -15.5q68 0 74 82l82 -16q-6 -65 -45.5 -107.5t-106.5 -42.5q-41 0 -114.5 15.5t-95.5 15.5q-33 0 -48 -18.5t-18 -57.5zM555 -27q-217 0 -341 151.5t-124 426.5q0 274 124 424.5t341 150.5t341 -150.5 t124 -424.5q0 -275 -124 -426.5t-341 -151.5zM555 74q166 0 259 125t93 352q0 225 -93 350t-259 125q-167 0 -259.5 -124.5t-92.5 -350.5q0 -227 92.5 -352t259.5 -125z" />
<glyph unicode="&#xf6;" horiz-adv-x="1110" d="M389 1298q-29 0 -50.5 20.5t-21.5 51.5q0 33 21.5 53.5t50.5 20.5q30 0 52 -20.5t22 -53.5q0 -31 -22 -51.5t-52 -20.5zM723 1298q-30 0 -51 20t-21 52q0 33 21 53.5t51 20.5q29 0 50.5 -20.5t21.5 -53.5q0 -31 -21.5 -51.5t-50.5 -20.5zM555 -27q-217 0 -341 151.5 t-124 426.5q0 274 124 424.5t341 150.5t341 -150.5t124 -424.5q0 -275 -124 -426.5t-341 -151.5zM555 74q166 0 259 125t93 352q0 225 -93 350t-259 125q-167 0 -259.5 -124.5t-92.5 -350.5q0 -227 92.5 -352t259.5 -125z" />
<glyph unicode="&#xf7;" horiz-adv-x="1146" d="M547 1016q-34 0 -57 23t-23 59q0 35 23 57.5t57 22.5q35 0 58.5 -22.5t23.5 -57.5q0 -36 -23 -59t-59 -23zM123 664v100h901v-100h-901zM547 248q-34 0 -57 23t-23 59q0 35 23 57.5t57 22.5q35 0 58.5 -22.5t23.5 -57.5q0 -36 -23 -59t-59 -23z" />
<glyph unicode="&#xf8;" horiz-adv-x="1110" d="M848 1026q172 -149 172 -475q0 -275 -124 -426.5t-341 -151.5q-135 0 -238 62l-57 -107l-61 37l59 113q-168 152 -168 473q0 274 124 424.5t341 150.5q129 0 231 -57l66 121l63 -37zM203 551q0 -250 108 -373l426 797q-79 51 -182 51q-167 0 -259.5 -124.5t-92.5 -350.5z M555 74q166 0 259 125t93 352q0 251 -112 375l-428 -797q76 -55 188 -55z" />
<glyph unicode="&#xf9;" horiz-adv-x="1112" d="M725 1255l-487 234l41 86l485 -240zM473 -27q-159 0 -254.5 101.5t-95.5 259.5v766h108v-750q0 -130 72 -202t193 -72q127 0 220 94t93 252v678h111v-805q0 -195 47 -295h-111q-36 70 -39 186q-39 -87 -130.5 -150t-213.5 -63z" />
<glyph unicode="&#xfa;" horiz-adv-x="1112" d="M287 1255l-39 80l485 240l41 -86zM473 -27q-159 0 -254.5 101.5t-95.5 259.5v766h108v-750q0 -130 72 -202t193 -72q127 0 220 94t93 252v678h111v-805q0 -195 47 -295h-111q-36 70 -39 186q-39 -87 -130.5 -150t-213.5 -63z" />
<glyph unicode="&#xfb;" horiz-adv-x="1112" d="M340 1225l-78 39l215 274h94l215 -274l-77 -39l-185 223zM473 -27q-159 0 -254.5 101.5t-95.5 259.5v766h108v-750q0 -130 72 -202t193 -72q127 0 220 94t93 252v678h111v-805q0 -195 47 -295h-111q-36 70 -39 186q-39 -87 -130.5 -150t-213.5 -63z" />
<glyph unicode="&#xfc;" horiz-adv-x="1112" d="M356 1298q-29 0 -50 20.5t-21 51.5q0 33 21 53.5t50 20.5q30 0 52 -20.5t22 -53.5q0 -31 -22 -51.5t-52 -20.5zM690 1298q-30 0 -51 20t-21 52q0 33 21 53.5t51 20.5q29 0 50.5 -20.5t21.5 -53.5q0 -31 -21.5 -51.5t-50.5 -20.5zM473 -27q-159 0 -254.5 101.5 t-95.5 259.5v766h108v-750q0 -130 72 -202t193 -72q127 0 220 94t93 252v678h111v-805q0 -195 47 -295h-111q-36 70 -39 186q-39 -87 -130.5 -150t-213.5 -63z" />
<glyph unicode="&#xfd;" horiz-adv-x="1062" d="M762 1489l-488 -234l-38 80l485 240zM866 1100h117l-442 -1184q-35 -95 -88.5 -163.5t-118 -106.5t-130.5 -55t-138 -17l-11 104q56 0 109.5 13.5t106.5 43t96.5 83t70.5 125.5l21 55l-439 1102h121l373 -953z" />
<glyph unicode="&#xfe;" horiz-adv-x="1210" d="M672 1126q209 0 328.5 -149t119.5 -426t-119.5 -427.5t-328.5 -150.5q-77 0 -143 24.5t-110 64t-71.5 78.5t-44.5 79v-618h-110v1935h110v-666q15 44 42.5 85t71 81.5t110 65t145.5 24.5zM653 72q166 0 260.5 126.5t94.5 352.5t-94 351.5t-261 125.5q-166 0 -258 -125 t-92 -352t92 -353t258 -126z" />
<glyph unicode="&#xff;" horiz-adv-x="1062" d="M344 1298q-29 0 -50.5 20.5t-21.5 51.5q0 33 21.5 53.5t50.5 20.5q30 0 52 -20.5t22 -53.5q0 -31 -22 -51.5t-52 -20.5zM678 1298q-30 0 -51 20t-21 52q0 33 21 53.5t51 20.5q29 0 50.5 -20.5t21.5 -53.5q0 -31 -21.5 -51.5t-50.5 -20.5zM866 1100h117l-442 -1184 q-35 -95 -88.5 -163.5t-118 -106.5t-130.5 -55t-138 -17l-11 104q56 0 109.5 13.5t106.5 43t96.5 83t70.5 125.5l21 55l-439 1102h121l373 -953z" />
<glyph unicode="&#x100;" horiz-adv-x="1212" d="M864 1749v-88h-516v88h516zM1051 0l-131 381h-633l-129 -381h-115l494 1423h139l493 -1423h-118zM322 481h563l-283 828z" />
<glyph unicode="&#x101;" horiz-adv-x="1114" d="M834 1425v-88h-517v88h517zM451 -27q-147 0 -239.5 80.5t-92.5 212.5q0 159 108.5 240.5t313.5 81.5h270v170q0 118 -76 193t-194 75q-98 0 -174.5 -51.5t-108.5 -138.5l-102 30q37 110 140.5 185t242.5 75q172 0 277.5 -100t105.5 -268v-469q0 -197 45 -289h-117 q-34 66 -37 172q-51 -90 -150 -144.5t-212 -54.5zM477 72q130 0 232 86.5t102 199.5v144h-268q-312 0 -312 -228q0 -89 69 -145.5t177 -56.5z" />
<glyph unicode="&#x102;" horiz-adv-x="1212" d="M606 1583q-107 0 -174 64.5t-67 191.5h90q0 -82 41 -127t110 -45t111.5 45.5t42.5 126.5h90q-1 -127 -68.5 -191.5t-175.5 -64.5zM1051 0l-131 381h-633l-129 -381h-115l494 1423h139l493 -1423h-118zM322 481h563l-283 828z" />
<glyph unicode="&#x103;" horiz-adv-x="1114" d="M575 1260q-107 0 -174 64.5t-67 191.5h90q0 -82 41 -127.5t110 -45.5t111.5 45.5t42.5 127.5h90q-1 -127 -68.5 -191.5t-175.5 -64.5zM451 -27q-147 0 -239.5 80.5t-92.5 212.5q0 159 108.5 240.5t313.5 81.5h270v170q0 118 -76 193t-194 75q-98 0 -174.5 -51.5 t-108.5 -138.5l-102 30q37 110 140.5 185t242.5 75q172 0 277.5 -100t105.5 -268v-469q0 -197 45 -289h-117q-34 66 -37 172q-51 -90 -150 -144.5t-212 -54.5zM477 72q130 0 232 86.5t102 199.5v144h-268q-312 0 -312 -228q0 -89 69 -145.5t177 -56.5z" />
<glyph unicode="&#x104;" horiz-adv-x="1212" d="M1049 -168q0 -53 33 -82t92 -31l-17 -77q-90 1 -142 49t-52 125q0 91 88 184l-131 381h-633l-129 -381h-115l494 1423h139l493 -1423h-32q-29 -34 -43.5 -54t-29.5 -52.5t-15 -61.5zM322 481h563l-283 828z" />
<glyph unicode="&#x105;" horiz-adv-x="1114" d="M848 -168q0 -53 33 -82t92 -31l-17 -77q-90 1 -142 49t-52 125q0 91 88 184q-34 66 -37 172q-51 -90 -150 -144.5t-212 -54.5q-147 0 -239.5 80.5t-92.5 212.5q0 159 108.5 240.5t313.5 81.5h270v170q0 118 -76 193t-194 75q-98 0 -174.5 -51.5t-108.5 -138.5l-102 30 q37 110 140.5 185t242.5 75q172 0 277.5 -100t105.5 -268v-469q0 -197 45 -289h-31q-29 -34 -43.5 -54t-29.5 -52.5t-15 -61.5zM811 358v144h-268q-312 0 -312 -228q0 -89 69 -145.5t177 -56.5q130 0 232 86.5t102 199.5z" />
<glyph unicode="&#x106;" horiz-adv-x="1308" d="M498 1579l-39 80l485 239l41 -86zM739 -27q-133 0 -245 48t-195 139t-129.5 232.5t-46.5 320.5q0 178 46.5 319t129.5 232t194.5 138.5t243.5 47.5q178 0 299 -78.5t172 -195.5l-106 -39q-109 209 -363 209q-227 0 -364 -161.5t-137 -471.5q0 -158 37.5 -280t105.5 -199 t159 -116.5t201 -39.5q260 0 369 209l100 -39q-49 -116 -171 -195.5t-300 -79.5z" />
<glyph unicode="&#x107;" horiz-adv-x="1021" d="M313 1255l-39 80l486 240l41 -86zM549 -27q-200 0 -329.5 158t-129.5 420q0 260 129.5 417.5t329.5 157.5q144 0 247.5 -77t133.5 -195l-101 -33q-33 94 -108 149.5t-176 55.5q-151 0 -246.5 -131t-95.5 -344q0 -215 95.5 -346t246.5 -131q104 0 186.5 54t120.5 148 l98 -26q-44 -124 -155 -200.5t-246 -76.5z" />
<glyph unicode="&#x108;" horiz-adv-x="1308" d="M551 1548l-78 39l215 275h94l215 -275l-77 -39l-185 224zM739 -27q-133 0 -245 48t-195 139t-129.5 232.5t-46.5 320.5q0 178 46.5 319t129.5 232t194.5 138.5t243.5 47.5q178 0 299 -78.5t172 -195.5l-106 -39q-109 209 -363 209q-227 0 -364 -161.5t-137 -471.5 q0 -158 37.5 -280t105.5 -199t159 -116.5t201 -39.5q260 0 369 209l100 -39q-49 -116 -171 -195.5t-300 -79.5z" />
<glyph unicode="&#x109;" horiz-adv-x="1021" d="M367 1225l-78 39l215 274h94l215 -274l-78 -39l-184 223zM549 -27q-200 0 -329.5 158t-129.5 420q0 260 129.5 417.5t329.5 157.5q144 0 247.5 -77t133.5 -195l-101 -33q-33 94 -108 149.5t-176 55.5q-151 0 -246.5 -131t-95.5 -344q0 -215 95.5 -346t246.5 -131 q104 0 186.5 54t120.5 148l98 -26q-44 -124 -155 -200.5t-246 -76.5z" />
<glyph unicode="&#x10a;" horiz-adv-x="1308" d="M735 1616q-30 0 -50.5 20t-20.5 52t20.5 51.5t50.5 19.5t51 -20t21 -51q0 -32 -21 -52t-51 -20zM739 -27q-133 0 -245 48t-195 139t-129.5 232.5t-46.5 320.5q0 178 46.5 319t129.5 232t194.5 138.5t243.5 47.5q178 0 299 -78.5t172 -195.5l-106 -39q-109 209 -363 209 q-227 0 -364 -161.5t-137 -471.5q0 -158 37.5 -280t105.5 -199t159 -116.5t201 -39.5q260 0 369 209l100 -39q-49 -116 -171 -195.5t-300 -79.5z" />
<glyph unicode="&#x10b;" horiz-adv-x="1021" d="M551 1311q-32 0 -54 20t-22 53t22 53.5t54 20.5q30 0 52 -20.5t22 -53.5t-22 -53t-52 -20zM549 -27q-200 0 -329.5 158t-129.5 420q0 260 129.5 417.5t329.5 157.5q144 0 247.5 -77t133.5 -195l-101 -33q-33 94 -108 149.5t-176 55.5q-151 0 -246.5 -131t-95.5 -344 q0 -215 95.5 -346t246.5 -131q104 0 186.5 54t120.5 148l98 -26q-44 -124 -155 -200.5t-246 -76.5z" />
<glyph unicode="&#x10c;" horiz-adv-x="1308" d="M698 1559l-233 251l82 37l190 -205l191 205l82 -37l-234 -251h-78zM739 -27q-133 0 -245 48t-195 139t-129.5 232.5t-46.5 320.5q0 178 46.5 319t129.5 232t194.5 138.5t243.5 47.5q178 0 299 -78.5t172 -195.5l-106 -39q-109 209 -363 209q-227 0 -364 -161.5 t-137 -471.5q0 -158 37.5 -280t105.5 -199t159 -116.5t201 -39.5q260 0 369 209l100 -39q-49 -116 -171 -195.5t-300 -79.5z" />
<glyph unicode="&#x10d;" horiz-adv-x="1021" d="M514 1235l-233 252l81 37l191 -205l190 205l82 -37l-233 -252h-78zM549 -27q-200 0 -329.5 158t-129.5 420q0 260 129.5 417.5t329.5 157.5q144 0 247.5 -77t133.5 -195l-101 -33q-33 94 -108 149.5t-176 55.5q-151 0 -246.5 -131t-95.5 -344q0 -215 95.5 -346 t246.5 -131q104 0 186.5 54t120.5 148l98 -26q-44 -124 -155 -200.5t-246 -76.5z" />
<glyph unicode="&#x10e;" horiz-adv-x="1388" d="M594 1559l-234 251l82 37l191 -205l190 205l82 -37l-233 -251h-78zM217 0v1423h375q109 0 206.5 -25t183.5 -80t148.5 -136.5t99 -202t36.5 -268.5t-36.5 -268t-99 -201.5t-148.5 -136.5t-183.5 -80t-206.5 -25h-375zM330 100h250q89 0 169 19.5t154.5 65t128.5 114.5 t86.5 174.5t32.5 237.5q0 133 -32.5 239t-86.5 174.5t-128.5 114t-154.5 65t-169 19.5h-250v-1223z" />
<glyph unicode="&#x10f;" horiz-adv-x="1202" d="M539 -27q-218 0 -333.5 158t-115.5 424q0 263 116.5 417t332.5 154q145 0 238.5 -71.5t129.5 -169.5v651h111v-1284q0 -140 37 -252h-111q-31 79 -31 223q-18 -48 -47.5 -90t-74 -79t-109.5 -59t-143 -22zM1227 1159h-84l37 377h96zM557 74q165 0 257.5 125.5t92.5 351.5 q0 227 -92 351t-258 124q-167 0 -260.5 -124.5t-93.5 -350.5t94 -351.5t260 -125.5z" />
<glyph unicode="&#x110;" horiz-adv-x="1388" d="M592 1423q109 0 206.5 -25t183.5 -80t148.5 -136.5t99 -202t36.5 -268.5t-36.5 -268t-99 -201.5t-148.5 -136.5t-183.5 -80t-206.5 -25h-375v666h-190v94h190v663h375zM580 100q89 0 169 19.5t154.5 65t128.5 114.5t86.5 174.5t32.5 237.5q0 133 -32.5 239t-86.5 174.5 t-128.5 114t-154.5 65t-169 19.5h-250v-563h379v-94h-379v-566h250z" />
<glyph unicode="&#x111;" horiz-adv-x="1202" d="M1159 1288h-141v-1036q0 -140 37 -252h-111q-31 79 -31 223q-18 -48 -47.5 -90t-74 -79t-109.5 -59t-143 -22q-218 0 -333.5 158t-115.5 424q0 263 116.5 417t332.5 154q145 0 238.5 -71.5t129.5 -169.5v403h-309v86h309v162h111v-162h141v-86zM557 74q165 0 257.5 125.5 t92.5 351.5q0 227 -92 351t-258 124q-167 0 -260.5 -124.5t-93.5 -350.5t94 -351.5t260 -125.5z" />
<glyph unicode="&#x112;" horiz-adv-x="1210" d="M874 1749v-88h-516v88h516zM217 0v1423h789v-100h-676v-553h592v-102h-592v-568h733v-100h-846z" />
<glyph unicode="&#x113;" horiz-adv-x="1087" d="M795 1425v-88h-516v88h516zM893 281l96 -33q-50 -125 -168.5 -200t-257.5 -75q-214 0 -343.5 161t-129.5 429q0 258 124.5 410.5t332.5 152.5q129 0 229 -63.5t152.5 -170.5t52.5 -237v-86h-778v-6q0 -222 99 -356.5t267 -134.5q107 0 196 55t128 154zM545 1028 q-137 0 -225.5 -96.5t-110.5 -265.5h661q-2 159 -91.5 260.5t-233.5 101.5z" />
<glyph unicode="&#x114;" horiz-adv-x="1210" d="M616 1583q-107 0 -174 64.5t-67 191.5h90q0 -82 41 -127t110 -45t111.5 45.5t42.5 126.5h90q-1 -127 -68.5 -191.5t-175.5 -64.5zM217 0v1423h789v-100h-676v-553h592v-102h-592v-568h733v-100h-846z" />
<glyph unicode="&#x115;" horiz-adv-x="1087" d="M537 1260q-108 0 -175 64.5t-67 191.5h90q0 -82 41.5 -127.5t110.5 -45.5t111 45.5t42 127.5h90q-1 -128 -68.5 -192t-174.5 -64zM893 281l96 -33q-50 -125 -168.5 -200t-257.5 -75q-214 0 -343.5 161t-129.5 429q0 258 124.5 410.5t332.5 152.5q129 0 229 -63.5 t152.5 -170.5t52.5 -237v-86h-778v-6q0 -222 99 -356.5t267 -134.5q107 0 196 55t128 154zM545 1028q-137 0 -225.5 -96.5t-110.5 -265.5h661q-2 159 -91.5 260.5t-233.5 101.5z" />
<glyph unicode="&#x116;" horiz-adv-x="1210" d="M616 1616q-30 0 -50.5 20t-20.5 52t20.5 51.5t50.5 19.5t51 -20t21 -51q0 -32 -21 -52t-51 -20zM217 0v1423h789v-100h-676v-553h592v-102h-592v-568h733v-100h-846z" />
<glyph unicode="&#x117;" horiz-adv-x="1087" d="M537 1311q-32 0 -54 20t-22 53t22 53.5t54 20.5q30 0 51.5 -20.5t21.5 -53.5t-21.5 -53t-51.5 -20zM893 281l96 -33q-50 -125 -168.5 -200t-257.5 -75q-214 0 -343.5 161t-129.5 429q0 258 124.5 410.5t332.5 152.5q129 0 229 -63.5t152.5 -170.5t52.5 -237v-86h-778v-6 q0 -222 99 -356.5t267 -134.5q107 0 196 55t128 154zM545 1028q-137 0 -225.5 -96.5t-110.5 -265.5h661q-2 159 -91.5 260.5t-233.5 101.5z" />
<glyph unicode="&#x118;" horiz-adv-x="1210" d="M975 -168q0 -53 33 -82t92 -31l-17 -77q-90 1 -142 49t-52 125q0 91 88 184h-760v1423h789v-100h-676v-553h592v-102h-592v-568h733v-100q-29 -34 -43.5 -54t-29.5 -52.5t-15 -61.5z" />
<glyph unicode="&#x119;" horiz-adv-x="1087" d="M989 248q-36 -91 -110.5 -156.5t-171.5 -95.5q-29 -36 -42 -54t-27.5 -50t-14.5 -60q0 -53 33 -82t92 -31l-17 -77q-90 1 -142 49t-52 125q0 73 65 159q-12 -2 -39 -2q-214 0 -343.5 161t-129.5 429q0 258 124.5 410.5t332.5 152.5q129 0 229 -63.5t152.5 -170.5 t52.5 -237v-86h-778v-6q0 -222 99 -356.5t267 -134.5q107 0 196 55t128 154zM545 1028q-137 0 -225.5 -96.5t-110.5 -265.5h661q-2 159 -91.5 260.5t-233.5 101.5z" />
<glyph unicode="&#x11a;" horiz-adv-x="1210" d="M580 1559l-234 251l82 37l190 -205l191 205l82 -37l-234 -251h-77zM217 0v1423h789v-100h-676v-553h592v-102h-592v-568h733v-100h-846z" />
<glyph unicode="&#x11b;" horiz-adv-x="1087" d="M578 1235h-78l-234 252l82 37l191 -205l190 205l82 -37zM893 281l96 -33q-50 -125 -168.5 -200t-257.5 -75q-214 0 -343.5 161t-129.5 429q0 258 124.5 410.5t332.5 152.5q129 0 229 -63.5t152.5 -170.5t52.5 -237v-86h-778v-6q0 -222 99 -356.5t267 -134.5q107 0 196 55 t128 154zM545 1028q-137 0 -225.5 -96.5t-110.5 -265.5h661q-2 159 -91.5 260.5t-233.5 101.5z" />
<glyph unicode="&#x11c;" horiz-adv-x="1456" d="M545 1548l-78 39l215 275h94l215 -275l-78 -39l-184 224zM1217 1171l-109 -34q-48 93 -142.5 151t-226.5 58q-223 0 -362 -172.5t-139 -460.5q0 -282 150 -458.5t382 -176.5q132 0 237.5 43t172.5 125v370h-467v101h579v-522q-85 -106 -222 -164t-300 -58 q-138 0 -258 55.5t-205.5 152.5t-134.5 234.5t-49 297.5q0 336 168 536.5t446 200.5q180 0 304.5 -79.5t175.5 -199.5z" />
<glyph unicode="&#x11d;" horiz-adv-x="1095" d="M543 1452l-185 -223l-77 39l215 274h94l215 -274l-78 -39zM750 195q138 0 221.5 -76t83.5 -199q0 -157 -138 -251.5t-372 -94.5q-203 0 -332 91t-129 239q0 134 125 243q-66 51 -66 134q0 51 31.5 99t89.5 79q-137 105 -137 291q0 169 114.5 272.5t301.5 103.5 q171 0 282 -88q90 64 90 181h99q0 -138 -131 -234q78 -100 78 -235q0 -168 -115.5 -272.5t-302.5 -104.5q-120 0 -205 43q-44 -22 -67 -53.5t-23 -63.5q0 -44 37 -74t106 -30h359zM543 1034q-138 0 -222.5 -78t-84.5 -206q0 -127 84 -206t223 -79t224 79t85 206t-85.5 205.5 t-223.5 78.5zM545 -330q174 0 286.5 67.5t112.5 180.5q0 80 -55.5 131t-143.5 51h-378q-38 0 -84 11q-95 -86 -95 -193q0 -110 99.5 -179t257.5 -69z" />
<glyph unicode="&#x11e;" horiz-adv-x="1456" d="M729 1583q-108 0 -175 64.5t-67 191.5h91q0 -82 41 -127t110 -45t111.5 45.5t42.5 126.5h90q-1 -127 -68.5 -191.5t-175.5 -64.5zM1217 1171l-109 -34q-48 93 -142.5 151t-226.5 58q-223 0 -362 -172.5t-139 -460.5q0 -282 150 -458.5t382 -176.5q132 0 237.5 43 t172.5 125v370h-467v101h579v-522q-85 -106 -222 -164t-300 -58q-138 0 -258 55.5t-205.5 152.5t-134.5 234.5t-49 297.5q0 336 168 536.5t446 200.5q180 0 304.5 -79.5t175.5 -199.5z" />
<glyph unicode="&#x11f;" horiz-adv-x="1095" d="M543 1264q-108 0 -175 64.5t-67 191.5h90q0 -82 41.5 -127t110.5 -45t111 45t42 127h90q-1 -128 -68.5 -192t-174.5 -64zM750 195q138 0 221.5 -76t83.5 -199q0 -157 -138 -251.5t-372 -94.5q-203 0 -332 91t-129 239q0 134 125 243q-66 51 -66 134q0 51 31.5 99t89.5 79 q-137 105 -137 291q0 169 114.5 272.5t301.5 103.5q171 0 282 -88q90 64 90 181h99q0 -138 -131 -234q78 -100 78 -235q0 -168 -115.5 -272.5t-302.5 -104.5q-120 0 -205 43q-44 -22 -67 -53.5t-23 -63.5q0 -44 37 -74t106 -30h359zM543 1034q-138 0 -222.5 -78t-84.5 -206 q0 -127 84 -206t223 -79t224 79t85 206t-85.5 205.5t-223.5 78.5zM545 -330q174 0 286.5 67.5t112.5 180.5q0 80 -55.5 131t-143.5 51h-378q-38 0 -84 11q-95 -86 -95 -193q0 -110 99.5 -179t257.5 -69z" />
<glyph unicode="&#x120;" horiz-adv-x="1456" d="M729 1616q-30 0 -51 20t-21 52q0 31 21 51t51 20t51 -20t21 -51q0 -32 -21 -52t-51 -20zM1217 1171l-109 -34q-48 93 -142.5 151t-226.5 58q-223 0 -362 -172.5t-139 -460.5q0 -282 150 -458.5t382 -176.5q132 0 237.5 43t172.5 125v370h-467v101h579v-522 q-85 -106 -222 -164t-300 -58q-138 0 -258 55.5t-205.5 152.5t-134.5 234.5t-49 297.5q0 336 168 536.5t446 200.5q180 0 304.5 -79.5t175.5 -199.5z" />
<glyph unicode="&#x121;" horiz-adv-x="1095" d="M543 1315q-32 0 -54 20.5t-22 53.5t22 53t54 20q30 0 51.5 -20t21.5 -53t-21.5 -53.5t-51.5 -20.5zM750 195q138 0 221.5 -76t83.5 -199q0 -157 -138 -251.5t-372 -94.5q-203 0 -332 91t-129 239q0 134 125 243q-66 51 -66 134q0 51 31.5 99t89.5 79q-137 105 -137 291 q0 169 114.5 272.5t301.5 103.5q171 0 282 -88q90 64 90 181h99q0 -138 -131 -234q78 -100 78 -235q0 -168 -115.5 -272.5t-302.5 -104.5q-120 0 -205 43q-44 -22 -67 -53.5t-23 -63.5q0 -44 37 -74t106 -30h359zM543 1034q-138 0 -222.5 -78t-84.5 -206q0 -127 84 -206 t223 -79t224 79t85 206t-85.5 205.5t-223.5 78.5zM545 -330q174 0 286.5 67.5t112.5 180.5q0 80 -55.5 131t-143.5 51h-378q-38 0 -84 11q-95 -86 -95 -193q0 -110 99.5 -179t257.5 -69z" />
<glyph unicode="&#x122;" horiz-adv-x="1456" d="M1217 1171l-109 -34q-48 93 -142.5 151t-226.5 58q-223 0 -362 -172.5t-139 -460.5q0 -282 150 -458.5t382 -176.5q132 0 237.5 43t172.5 125v370h-467v101h579v-522q-85 -106 -222 -164t-300 -58q-138 0 -258 55.5t-205.5 152.5t-134.5 234.5t-49 297.5q0 336 168 536.5 t446 200.5q180 0 304.5 -79.5t175.5 -199.5zM727 -471l-43 53q103 56 113 178q-17 -14 -41 -14q-38 0 -59 22t-21 52q0 31 23.5 54.5t62.5 23.5q52 0 82 -34t30 -89q0 -74 -37 -139.5t-110 -106.5z" />
<glyph unicode="&#x123;" horiz-adv-x="1095" d="M551 1262q-52 0 -82.5 33.5t-30.5 88.5q0 74 37 139.5t111 106.5l43 -53q-103 -56 -113 -178q17 14 41 14q38 0 59 -22t21 -52q0 -31 -23.5 -54t-62.5 -23zM750 195q138 0 221.5 -76t83.5 -199q0 -157 -138 -251.5t-372 -94.5q-203 0 -332 91t-129 239q0 134 125 243 q-66 51 -66 134q0 51 31.5 99t89.5 79q-137 105 -137 291q0 169 114.5 272.5t301.5 103.5q171 0 282 -88q90 64 90 181h99q0 -138 -131 -234q78 -100 78 -235q0 -168 -115.5 -272.5t-302.5 -104.5q-120 0 -205 43q-44 -22 -67 -53.5t-23 -63.5q0 -44 37 -74t106 -30h359z M543 1034q-138 0 -222.5 -78t-84.5 -206q0 -127 84 -206t223 -79t224 79t85 206t-85.5 205.5t-223.5 78.5zM545 -330q174 0 286.5 67.5t112.5 180.5q0 80 -55.5 131t-143.5 51h-378q-38 0 -84 11q-95 -86 -95 -193q0 -110 99.5 -179t257.5 -69z" />
<glyph unicode="&#x124;" horiz-adv-x="1513" d="M573 1548l-77 39l215 275h94l215 -275l-78 -39l-184 224zM217 0v1423h113v-653h854v653h112v-1423h-112v670h-854v-670h-113z" />
<glyph unicode="&#x125;" horiz-adv-x="1198" d="M420 1593l-184 224l-185 -224l-78 39l215 275h95l215 -275zM625 1126q167 0 273 -111t106 -317v-698h-109v682q0 163 -83 251.5t-210 88.5q-57 0 -110 -22.5t-95.5 -65.5t-68 -113t-25.5 -157v-664h-110v1536h110v-610q39 81 122.5 140.5t199.5 59.5z" />
<glyph unicode="&#x126;" horiz-adv-x="1513" d="M1464 1174v-95h-168v-1079h-112v670h-854v-670h-113v1079h-168v95h168v249h113v-249h854v249h112v-249h168zM1184 770v309h-854v-309h854z" />
<glyph unicode="&#x127;" horiz-adv-x="1198" d="M625 1126q167 0 273 -111t106 -317v-698h-109v682q0 163 -83 251.5t-210 88.5q-57 0 -110 -22.5t-95.5 -65.5t-68 -113t-25.5 -157v-664h-110v1337h-175v86h175v113h110v-113h277v-86h-277v-411q39 81 122.5 140.5t199.5 59.5z" />
<glyph unicode="&#x128;" horiz-adv-x="546" d="M100 1620l-80 18q5 62 40.5 102t93.5 40q37 0 114.5 -15.5t104.5 -15.5q67 0 73 82l82 -16q-6 -66 -45 -108t-106 -42q-41 0 -115 15.5t-96 15.5q-33 0 -48 -18.5t-18 -57.5zM217 0v1423h113v-1423h-113z" />
<glyph unicode="&#x129;" horiz-adv-x="495" d="M76 1296l-80 19q5 62 40 101.5t93 39.5q37 0 114.5 -15.5t104.5 -15.5q68 0 74 82l82 -16q-6 -65 -45.5 -107.5t-106.5 -42.5q-41 0 -115 15.5t-96 15.5q-33 0 -47.5 -18t-17.5 -58zM193 0v1100h110v-1100h-110z" />
<glyph unicode="&#x12a;" horiz-adv-x="546" d="M532 1749v-88h-516v88h516zM217 0v1423h113v-1423h-113z" />
<glyph unicode="&#x12b;" horiz-adv-x="495" d="M508 1425v-88h-516v88h516zM193 0v1100h110v-1100h-110z" />
<glyph unicode="&#x12c;" horiz-adv-x="546" d="M274 1583q-107 0 -174 64.5t-67 191.5h90q0 -82 41 -127t110 -45t111.5 45.5t42.5 126.5h90q-1 -127 -68.5 -191.5t-175.5 -64.5zM217 0v1423h113v-1423h-113z" />
<glyph unicode="&#x12d;" horiz-adv-x="495" d="M250 1260q-108 0 -175 64.5t-67 191.5h90q0 -82 41.5 -127.5t110.5 -45.5t111 45.5t42 127.5h91q-1 -127 -68.5 -191.5t-175.5 -64.5zM193 0v1100h110v-1100h-110z" />
<glyph unicode="&#x12e;" horiz-adv-x="546" d="M225 -168q0 -53 33 -82t92 -31l-16 -77q-90 1 -142.5 49t-52.5 125q0 91 88 184h-10v1423h113v-1423h-17q-29 -34 -43.5 -54t-29.5 -52.5t-15 -61.5z" />
<glyph unicode="&#x12f;" horiz-adv-x="495" d="M250 1389q-32 0 -55 21.5t-23 55.5q0 33 23 54.5t55 21.5t55 -21.5t23 -54.5q0 -34 -23 -55.5t-55 -21.5zM201 -168q0 -53 33 -82t92 -31l-17 -77q-90 1 -142 49t-52 125q0 91 88 184h-10v1100h110v-1100h-14q-29 -34 -43.5 -54t-29.5 -52.5t-15 -61.5z" />
<glyph unicode="&#x130;" horiz-adv-x="546" d="M274 1616q-30 0 -50.5 20t-20.5 52t20.5 51.5t50.5 19.5t51 -20t21 -51q0 -32 -21 -52t-51 -20zM217 0v1423h113v-1423h-113z" />
<glyph unicode="&#x131;" horiz-adv-x="495" d="M193 0v1100h110v-1100h-110z" />
<glyph unicode="&#x132;" horiz-adv-x="1476" d="M217 0v1423h113v-1423h-113zM657 0v100h123q190 0 286.5 106.5t96.5 303.5v813h-426v100h539v-913q0 -248 -126 -379t-370 -131h-123z" />
<glyph unicode="&#x133;" horiz-adv-x="1034" d="M250 1389q-32 0 -55 21.5t-23 55.5q0 33 23 54.5t55 21.5t55 -21.5t23 -54.5q0 -34 -23 -55.5t-55 -21.5zM786 1389q-32 0 -54.5 21.5t-22.5 55.5q0 33 22.5 54.5t54.5 21.5t55 -21.5t23 -54.5q0 -34 -23 -55.5t-55 -21.5zM193 0v1100h110v-1100h-110zM508 -426v96 q112 0 167.5 53.5t55.5 192.5v1184h109v-1178q0 -102 -23.5 -171.5t-69.5 -107.5t-103 -53.5t-136 -15.5z" />
<glyph unicode="&#x134;" horiz-adv-x="942" d="M336 1548l-78 39l215 275h94l215 -275l-77 -39l-185 224zM123 0v100h123q190 0 286.5 106.5t96.5 303.5v813h-426v100h538v-913q0 -248 -125.5 -379t-369.5 -131h-123z" />
<glyph unicode="&#x135;" horiz-adv-x="499" d="M68 1225l-78 39l215 274h94l215 -274l-78 -39l-184 223zM-27 -426v96q112 0 168 53.5t56 192.5v1184h108v-1178q0 -102 -23.5 -171.5t-69.5 -107.5t-103 -53.5t-136 -15.5z" />
<glyph unicode="&#x136;" horiz-adv-x="1230" d="M559 791l617 -791h-146l-549 698l-151 -178v-520h-113v1423h113v-733l624 733h140zM668 -102q52 0 82 -34t30 -89q0 -74 -37 -139.5t-110 -106.5l-43 53q102 55 112 178q-17 -14 -40 -14q-38 0 -59 22t-21 52q0 31 23.5 54.5t62.5 23.5z" />
<glyph unicode="&#x137;" horiz-adv-x="1124" d="M571 649l478 -649h-140l-420 567l-186 -188v-379h-110v1536h110v-1001l569 565h148zM535 -102q52 0 82 -34t30 -89q0 -74 -37 -139.5t-110 -106.5l-43 53q102 55 112 178q-17 -14 -41 -14q-38 0 -58.5 22t-20.5 52q0 31 23.5 54.5t62.5 23.5z" />
<glyph unicode="&#x138;" horiz-adv-x="1001" d="M946 0h-135l-389 524l-119 -143v-381h-110v1100h110v-557l465 557h129l-397 -482z" />
<glyph unicode="&#x139;" horiz-adv-x="1171" d="M74 1579l-39 80l485 239l41 -86zM217 0v1423h113v-1323h706v-100h-819z" />
<glyph unicode="&#x13a;" horiz-adv-x="583" d="M-6 1683l-39 80l485 240l41 -86zM496 -6q-151 0 -235.5 89t-84.5 247v1206h111v-1186q0 -121 57 -188.5t160 -67.5z" />
<glyph unicode="&#x13b;" horiz-adv-x="1171" d="M217 0v1423h113v-1323h706v-100h-819zM590 -471l-43 53q102 55 112 178q-17 -14 -41 -14q-38 0 -58.5 22t-20.5 52q0 31 23.5 54.5t62.5 23.5q52 0 82 -34t30 -89q0 -74 -37 -139.5t-110 -106.5z" />
<glyph unicode="&#x13c;" horiz-adv-x="583" d="M496 -6q-151 0 -235.5 89t-84.5 247v1206h111v-1186q0 -121 57 -188.5t160 -67.5zM293 -471l-43 53q102 55 112 178q-17 -14 -40 -14q-38 0 -59 22t-21 52q0 31 23.5 54.5t62.5 23.5q52 0 82 -34t30 -89q0 -74 -37 -139.5t-110 -106.5z" />
<glyph unicode="&#x13d;" horiz-adv-x="1171" d="M217 0v1423h113v-1323h706v-100h-819zM618 1047h-83l36 376h97z" />
<glyph unicode="&#x13e;" horiz-adv-x="583" d="M496 -6q-151 0 -235.5 89t-84.5 247v1206h111v-1186q0 -121 57 -188.5t160 -67.5zM496 1159h-84l37 377h96z" />
<glyph unicode="&#x13f;" horiz-adv-x="1171" d="M217 0v1423h113v-1323h706v-100h-819zM686 662q-34 0 -57 22.5t-23 58.5q0 35 23 57.5t57 22.5q35 0 58.5 -22.5t23.5 -57.5q0 -36 -23 -58.5t-59 -22.5z" />
<glyph unicode="&#x140;" horiz-adv-x="622" d="M496 -6q-151 0 -235.5 89t-84.5 247v1206h111v-1186q0 -121 57 -188.5t160 -67.5zM498 729q-34 0 -57 23t-23 59q0 35 23 57.5t57 22.5q35 0 58.5 -22.5t23.5 -57.5q0 -36 -23 -59t-59 -23z" />
<glyph unicode="&#x141;" horiz-adv-x="1171" d="M330 100h706v-100h-819v625l-197 -35v102l197 35v696h113v-675l272 47v-103l-272 -47v-545z" />
<glyph unicode="&#x142;" horiz-adv-x="583" d="M287 350q0 -121 57 -188.5t160 -67.5l-8 -100q-151 0 -235.5 89t-84.5 247v399l-153 -53v100l153 53v707h111v-668l215 76v-100l-215 -76v-418z" />
<glyph unicode="&#x143;" horiz-adv-x="1478" d="M485 1579l-39 80l486 239l41 -86zM217 0v1423h115l817 -1233v1233h113v-1423h-113l-819 1235v-1235h-113z" />
<glyph unicode="&#x144;" horiz-adv-x="1198" d="M360 1255l-38 80l485 240l41 -86zM193 0v1100h108v-178q37 82 122 143t202 61q167 0 273 -111t106 -317v-698h-109v682q0 163 -83 251.5t-210 88.5q-57 0 -110 -22.5t-95.5 -65.5t-68 -113t-25.5 -157v-664h-110z" />
<glyph unicode="&#x145;" horiz-adv-x="1478" d="M217 0v1423h115l817 -1233v1233h113v-1423h-113l-819 1235v-1235h-113zM686 -471l-43 53q103 56 113 178q-17 -14 -41 -14q-38 0 -59 22t-21 52q0 31 23.5 54.5t62.5 23.5q52 0 82.5 -34t30.5 -89q0 -74 -37 -139.5t-111 -106.5z" />
<glyph unicode="&#x146;" horiz-adv-x="1198" d="M193 0v1100h108v-178q37 82 122 143t202 61q167 0 273 -111t106 -317v-698h-109v682q0 163 -83 251.5t-210 88.5q-57 0 -110 -22.5t-95.5 -65.5t-68 -113t-25.5 -157v-664h-110zM561 -471l-43 53q103 56 113 178q-17 -14 -41 -14q-38 0 -59 22t-21 52q0 31 23.5 54.5 t62.5 23.5q52 0 82.5 -34t30.5 -89q0 -74 -37 -139.5t-111 -106.5z" />
<glyph unicode="&#x147;" horiz-adv-x="1478" d="M686 1559l-233 251l82 37l190 -205l190 205l82 -37l-233 -251h-78zM217 0v1423h115l817 -1233v1233h113v-1423h-113l-819 1235v-1235h-113z" />
<glyph unicode="&#x148;" horiz-adv-x="1198" d="M561 1235l-233 252l82 37l190 -205l191 205l81 -37l-233 -252h-78zM193 0v1100h108v-178q37 82 122 143t202 61q167 0 273 -111t106 -317v-698h-109v682q0 163 -83 251.5t-210 88.5q-57 0 -110 -22.5t-95.5 -65.5t-68 -113t-25.5 -157v-664h-110z" />
<glyph unicode="&#x14a;" horiz-adv-x="1478" d="M926 -399v96q112 0 167.5 53t55.5 187v77l-819 1221v-1235h-113v1423h115l817 -1228v1228h113v-1480q0 -99 -24 -167.5t-71 -106t-105 -53t-136 -15.5z" />
<glyph unicode="&#x14b;" horiz-adv-x="1167" d="M616 -399v96q64 0 110 12t85 41.5t58.5 86.5t19.5 140v705q0 164 -82.5 252t-206.5 88q-122 0 -209.5 -93.5t-87.5 -264.5v-664h-110v1100h108v-178q33 80 116.5 142t203.5 62q165 0 270.5 -110t105.5 -324v-708q0 -92 -19.5 -160t-52.5 -110t-82.5 -68t-103.5 -35.5 t-123 -9.5z" />
<glyph unicode="&#x14c;" horiz-adv-x="1388" d="M952 1749v-88h-516v88h516zM694 -27q-270 0 -420.5 186t-150.5 554q0 366 150.5 551.5t420.5 185.5t422 -185.5t152 -551.5q0 -367 -152 -553.5t-422 -186.5zM694 78q218 0 337.5 154t119.5 481q0 325 -119.5 479t-337.5 154q-456 0 -456 -633q0 -635 456 -635z" />
<glyph unicode="&#x14d;" horiz-adv-x="1110" d="M815 1425v-88h-516v88h516zM555 -27q-217 0 -341 151.5t-124 426.5q0 274 124 424.5t341 150.5t341 -150.5t124 -424.5q0 -275 -124 -426.5t-341 -151.5zM555 74q166 0 259 125t93 352q0 225 -93 350t-259 125q-167 0 -259.5 -124.5t-92.5 -350.5q0 -227 92.5 -352 t259.5 -125z" />
<glyph unicode="&#x14e;" horiz-adv-x="1388" d="M694 1583q-107 0 -174 64.5t-67 191.5h90q0 -82 41 -127t110 -45t111.5 45.5t42.5 126.5h90q-1 -127 -68.5 -191.5t-175.5 -64.5zM694 -27q-270 0 -420.5 186t-150.5 554q0 366 150.5 551.5t420.5 185.5t422 -185.5t152 -551.5q0 -367 -152 -553.5t-422 -186.5zM694 78 q218 0 337.5 154t119.5 481q0 325 -119.5 479t-337.5 154q-456 0 -456 -633q0 -635 456 -635z" />
<glyph unicode="&#x14f;" horiz-adv-x="1110" d="M557 1260q-108 0 -175 64.5t-67 191.5h91q0 -82 41 -127.5t110 -45.5t111.5 45.5t42.5 127.5h90q-1 -127 -68.5 -191.5t-175.5 -64.5zM555 -27q-217 0 -341 151.5t-124 426.5q0 274 124 424.5t341 150.5t341 -150.5t124 -424.5q0 -275 -124 -426.5t-341 -151.5zM555 74 q166 0 259 125t93 352q0 225 -93 350t-259 125q-167 0 -259.5 -124.5t-92.5 -350.5q0 -227 92.5 -352t259.5 -125z" />
<glyph unicode="&#x150;" horiz-adv-x="1388" d="M532 1569l179 325h104l-184 -325h-99zM750 1569l184 325h108l-190 -325h-102zM694 -27q-270 0 -420.5 186t-150.5 554q0 366 150.5 551.5t420.5 185.5t422 -185.5t152 -551.5q0 -367 -152 -553.5t-422 -186.5zM694 78q218 0 337.5 154t119.5 481q0 325 -119.5 479 t-337.5 154q-456 0 -456 -633q0 -635 456 -635z" />
<glyph unicode="&#x151;" horiz-adv-x="1110" d="M395 1245l178 326h105l-184 -326h-99zM612 1245l185 326h108l-190 -326h-103zM555 -27q-217 0 -341 151.5t-124 426.5q0 274 124 424.5t341 150.5t341 -150.5t124 -424.5q0 -275 -124 -426.5t-341 -151.5zM555 74q166 0 259 125t93 352q0 225 -93 350t-259 125 q-167 0 -259.5 -124.5t-92.5 -350.5q0 -227 92.5 -352t259.5 -125z" />
<glyph unicode="&#x152;" horiz-adv-x="1843" d="M698 -27q-270 0 -422.5 186.5t-152.5 553.5q0 366 152.5 551.5t422.5 185.5q115 0 197 -27h752v-100h-662v-553h578v-98h-578v-572h713v-100h-803q-110 -27 -197 -27zM698 78q95 0 174 26v1213q-69 29 -174 29q-221 0 -340.5 -153.5t-119.5 -479.5q0 -635 460 -635z" />
<glyph unicode="&#x153;" horiz-adv-x="1910" d="M1712 281l96 -33q-50 -125 -168.5 -200t-257.5 -75q-141 0 -247.5 73t-165.5 206q-54 -135 -160.5 -207t-253.5 -72q-217 0 -341 151.5t-124 426.5q0 274 124 424.5t341 150.5q144 0 249 -68.5t161 -197.5q56 127 159.5 196.5t241.5 69.5q129 0 229 -63.5t152.5 -170.5 t52.5 -237v-86h-778v-6q0 -222 99.5 -356.5t267.5 -134.5q107 0 195.5 55t127.5 154zM1364 1028q-137 0 -225.5 -96.5t-110.5 -265.5h662q-2 159 -92 260.5t-234 101.5zM555 74q166 0 259 125t93 352q0 225 -93 350t-259 125q-167 0 -259.5 -124.5t-92.5 -350.5 q0 -227 92.5 -352t259.5 -125z" />
<glyph unicode="&#x154;" horiz-adv-x="1183" d="M834 1812l-488 -233l-39 80l486 239zM1104 0h-135l-344 582h-33h-262v-582h-113v1423h408q55 0 109.5 -11.5t111 -40.5t98.5 -73.5t69 -117t27 -164.5q0 -163 -76.5 -271t-218.5 -145zM588 684q50 0 94 7.5t90 30t79 57.5t54 95t21 138q0 153 -84.5 232t-229.5 79h-282 v-639h258z" />
<glyph unicode="&#x155;" horiz-adv-x="847" d="M266 1255l-39 80l486 240l41 -86zM193 0v1100h110v-182q43 97 117.5 152.5t171.5 55.5q120 0 215 -82l-51 -94q-81 72 -176 72q-117 0 -197 -108t-80 -277v-637h-110z" />
<glyph unicode="&#x156;" horiz-adv-x="1183" d="M745 600l359 -600h-135l-344 582h-33h-262v-582h-113v1423h408q55 0 109.5 -11.5t111 -40.5t98.5 -73.5t69 -117t27 -164.5q0 -163 -76.5 -271t-218.5 -145zM588 684q50 0 94 7.5t90 30t79 57.5t54 95t21 138q0 153 -84.5 232t-229.5 79h-282v-639h258zM602 -102 q52 0 82.5 -34t30.5 -89q0 -74 -37 -139.5t-111 -106.5l-43 53q103 56 113 178q-17 -14 -41 -14q-38 0 -59 22t-21 52q0 31 23.5 54.5t62.5 23.5z" />
<glyph unicode="&#x157;" horiz-adv-x="847" d="M193 0v1100h110v-182q43 97 117.5 152.5t171.5 55.5q120 0 215 -82l-51 -94q-81 72 -176 72q-117 0 -197 -108t-80 -277v-637h-110zM213 -471l-43 53q103 56 113 178q-17 -14 -41 -14q-38 0 -59 22t-21 52q0 31 23.5 54.5t62.5 23.5q52 0 82 -34t30 -89q0 -74 -37 -139.5 t-110 -106.5z" />
<glyph unicode="&#x158;" horiz-adv-x="1183" d="M625 1559h-78l-234 251l82 37l191 -205l190 205l82 -37zM1104 0h-135l-344 582h-33h-262v-582h-113v1423h408q55 0 109.5 -11.5t111 -40.5t98.5 -73.5t69 -117t27 -164.5q0 -163 -76.5 -271t-218.5 -145zM588 684q50 0 94 7.5t90 30t79 57.5t54 95t21 138 q0 153 -84.5 232t-229.5 79h-282v-639h258z" />
<glyph unicode="&#x159;" horiz-adv-x="847" d="M467 1235l-234 252l82 37l191 -205l190 205l82 -37l-233 -252h-78zM193 0v1100h110v-182q43 97 117.5 152.5t171.5 55.5q120 0 215 -82l-51 -94q-81 72 -176 72q-117 0 -197 -108t-80 -277v-637h-110z" />
<glyph unicode="&#x15a;" horiz-adv-x="1136" d="M358 1579l-39 80l486 239l41 -86zM578 -27q-155 0 -277.5 68.5t-185.5 189.5l102 43q51 -93 146.5 -144.5t214.5 -51.5q147 0 236 73.5t89 198.5q0 61 -26 110t-70.5 82.5t-101.5 62t-120.5 53.5t-127 51t-120.5 60t-101.5 76t-70.5 103t-26 137q0 164 120.5 264.5 t309.5 100.5q153 0 264.5 -62t167.5 -176l-106 -38q-42 82 -128.5 127t-197.5 45q-137 0 -224 -71.5t-87 -187.5q0 -60 26 -108t70.5 -81.5t101.5 -62t120.5 -53.5t127 -51.5t120.5 -60.5t101.5 -76t70.5 -102.5t26 -135.5q0 -173 -122 -278t-322 -105z" />
<glyph unicode="&#x15b;" horiz-adv-x="962" d="M242 1255l-39 80l485 240l41 -86zM500 -27q-158 0 -264.5 71t-153.5 179l82 53q44 -92 130.5 -149t203.5 -57q104 0 177 57t73 143q0 53 -27 93.5t-71 65t-100 47.5t-114.5 40t-114.5 44t-100 59t-71 85t-27 121q0 136 98 218.5t260 82.5q131 0 230 -56t143 -146l-82 -58 q-40 76 -116.5 120t-172.5 44q-109 0 -178 -55t-69 -144q0 -59 34.5 -101.5t89.5 -69t121.5 -48.5t133 -48t121.5 -60t89.5 -92t34.5 -136q0 -133 -104 -218t-256 -85z" />
<glyph unicode="&#x15c;" horiz-adv-x="1136" d="M412 1548l-78 39l215 275h94l215 -275l-78 -39l-184 224zM578 -27q-155 0 -277.5 68.5t-185.5 189.5l102 43q51 -93 146.5 -144.5t214.5 -51.5q147 0 236 73.5t89 198.5q0 61 -26 110t-70.5 82.5t-101.5 62t-120.5 53.5t-127 51t-120.5 60t-101.5 76t-70.5 103t-26 137 q0 164 120.5 264.5t309.5 100.5q153 0 264.5 -62t167.5 -176l-106 -38q-42 82 -128.5 127t-197.5 45q-137 0 -224 -71.5t-87 -187.5q0 -60 26 -108t70.5 -81.5t101.5 -62t120.5 -53.5t127 -51.5t120.5 -60.5t101.5 -76t70.5 -102.5t26 -135.5q0 -173 -122 -278t-322 -105z " />
<glyph unicode="&#x15d;" horiz-adv-x="962" d="M295 1225l-78 39l215 274h94l215 -274l-77 -39l-185 223zM500 -27q-158 0 -264.5 71t-153.5 179l82 53q44 -92 130.5 -149t203.5 -57q104 0 177 57t73 143q0 53 -27 93.5t-71 65t-100 47.5t-114.5 40t-114.5 44t-100 59t-71 85t-27 121q0 136 98 218.5t260 82.5 q131 0 230 -56t143 -146l-82 -58q-40 76 -116.5 120t-172.5 44q-109 0 -178 -55t-69 -144q0 -59 34.5 -101.5t89.5 -69t121.5 -48.5t133 -48t121.5 -60t89.5 -92t34.5 -136q0 -133 -104 -218t-256 -85z" />
<glyph unicode="&#x15e;" horiz-adv-x="1136" d="M1022 356q0 -165 -111.5 -268.5t-296.5 -114.5l-75 -102q35 12 75 12q81 0 129 -43t48 -102q0 -67 -58 -114.5t-164 -47.5q-111 0 -186 53l25 62q80 -47 157 -47q62 0 96.5 27t34.5 63q0 34 -29 58t-83 24q-50 0 -101 -23l-51 35l98 147q-139 10 -247.5 77.5 t-167.5 178.5l102 43q51 -93 146.5 -144.5t214.5 -51.5q147 0 236 73.5t89 198.5q0 61 -26 110t-70.5 82.5t-101.5 62t-120.5 53.5t-127 51t-120.5 60t-101.5 76t-70.5 103t-26 137q0 164 120.5 264.5t309.5 100.5q153 0 264.5 -62t167.5 -176l-106 -38q-42 82 -128.5 127 t-197.5 45q-137 0 -224 -71.5t-87 -187.5q0 -60 26 -108t70.5 -81.5t101.5 -62t120.5 -53.5t127 -51.5t120.5 -60.5t101.5 -76t70.5 -102.5t26 -135.5z" />
<glyph unicode="&#x15f;" horiz-adv-x="962" d="M860 276q0 -129 -99 -213.5t-245 -89.5l-76 -102q34 12 76 12q81 0 128.5 -43t47.5 -102q0 -67 -57.5 -114.5t-163.5 -47.5q-111 0 -186 53l24 62q80 -47 158 -47q62 0 96.5 27t34.5 63q0 33 -29.5 57.5t-83.5 24.5q-49 0 -100 -23l-51 35l100 149q-131 14 -220.5 82 t-131.5 164l82 53q44 -92 130.5 -149t203.5 -57q104 0 177 57t73 143q0 53 -27 93.5t-71 65t-100 47.5t-114.5 40t-114.5 44t-100 59t-71 85t-27 121q0 136 98 218.5t260 82.5q131 0 230 -56t143 -146l-82 -58q-40 76 -116.5 120t-172.5 44q-109 0 -178 -55t-69 -144 q0 -59 34.5 -101.5t89.5 -69t121.5 -48.5t133 -48t121.5 -60t89.5 -92t34.5 -136z" />
<glyph unicode="&#x160;" horiz-adv-x="1136" d="M559 1559l-233 251l82 37l190 -205l190 205l82 -37l-233 -251h-78zM578 -27q-155 0 -277.5 68.5t-185.5 189.5l102 43q51 -93 146.5 -144.5t214.5 -51.5q147 0 236 73.5t89 198.5q0 61 -26 110t-70.5 82.5t-101.5 62t-120.5 53.5t-127 51t-120.5 60t-101.5 76t-70.5 103 t-26 137q0 164 120.5 264.5t309.5 100.5q153 0 264.5 -62t167.5 -176l-106 -38q-42 82 -128.5 127t-197.5 45q-137 0 -224 -71.5t-87 -187.5q0 -60 26 -108t70.5 -81.5t101.5 -62t120.5 -53.5t127 -51.5t120.5 -60.5t101.5 -76t70.5 -102.5t26 -135.5q0 -173 -122 -278 t-322 -105z" />
<glyph unicode="&#x161;" horiz-adv-x="962" d="M442 1235l-233 252l82 37l190 -205l191 205l82 -37l-234 -252h-78zM500 -27q-158 0 -264.5 71t-153.5 179l82 53q44 -92 130.5 -149t203.5 -57q104 0 177 57t73 143q0 53 -27 93.5t-71 65t-100 47.5t-114.5 40t-114.5 44t-100 59t-71 85t-27 121q0 136 98 218.5t260 82.5 q131 0 230 -56t143 -146l-82 -58q-40 76 -116.5 120t-172.5 44q-109 0 -178 -55t-69 -144q0 -59 34.5 -101.5t89.5 -69t121.5 -48.5t133 -48t121.5 -60t89.5 -92t34.5 -136q0 -133 -104 -218t-256 -85z" />
<glyph unicode="&#x162;" horiz-adv-x="1251" d="M674 0h-15l-94 -129q34 12 76 12q81 0 128.5 -43t47.5 -102q0 -67 -57.5 -114.5t-163.5 -47.5q-111 0 -186 53l24 62q80 -47 158 -47q62 0 96.5 27t34.5 63q0 33 -29.5 57.5t-83.5 24.5q-49 0 -100 -23l-51 35l114 172h-12v1323h-498v100h1108v-100h-497v-1323z" />
<glyph unicode="&#x163;" horiz-adv-x="780" d="M502 -117q81 0 128.5 -43t47.5 -102q0 -67 -57.5 -114.5t-163.5 -47.5q-112 0 -187 53l25 62q80 -47 158 -47q62 0 96.5 27t34.5 63q0 33 -29.5 57.5t-83.5 24.5q-49 0 -100 -23l-52 35l105 156q-180 48 -180 299v716h-207v101h207v330l110 20v-350h297v-101h-297v-696 q0 -118 41 -170.5t131 -52.5q82 0 164 47l21 -102q-96 -52 -197 -52h-12l-76 -102q34 12 76 12z" />
<glyph unicode="&#x164;" horiz-adv-x="1251" d="M588 1559l-234 251l82 37l191 -205l190 205l82 -37l-233 -251h-78zM561 0v1323h-498v100h1108v-100h-497v-1323h-113z" />
<glyph unicode="&#x165;" horiz-adv-x="780" d="M563 1159h-84l37 377h96zM514 -27q-132 0 -201 77.5t-69 232.5v716h-207v101h207v330l110 20v-350h297v-101h-297v-696q0 -118 41 -170.5t131 -52.5q82 0 164 47l21 -102q-96 -52 -197 -52z" />
<glyph unicode="&#x166;" horiz-adv-x="1251" d="M1171 1323h-497v-537h282v-94h-282v-692h-113v692h-287v94h287v537h-498v100h1108v-100z" />
<glyph unicode="&#x167;" horiz-adv-x="780" d="M690 127l21 -102q-96 -52 -197 -52q-132 0 -201 77.5t-69 232.5v297h-140v86h140v333h-207v101h207v330l110 20v-350h297v-101h-297v-333h203v-86h-203v-277q0 -118 41 -170.5t131 -52.5q82 0 164 47z" />
<glyph unicode="&#x168;" horiz-adv-x="1361" d="M506 1620l-80 18q5 62 40 102t93 40q37 0 114.5 -15.5t104.5 -15.5q68 0 74 82l82 -16q-6 -65 -45.5 -107.5t-106.5 -42.5q-41 0 -115 15.5t-96 15.5q-33 0 -47.5 -18t-17.5 -58zM678 -27q-219 0 -348 139.5t-129 405.5v905h112v-905q0 -95 19.5 -171.5t60.5 -138.5 t113.5 -96t171.5 -34q100 0 173.5 34t116 96t62 138.5t19.5 171.5v905h112v-905q0 -266 -131 -405.5t-352 -139.5z" />
<glyph unicode="&#x169;" horiz-adv-x="1112" d="M350 1296l-80 19q5 62 40 101.5t93 39.5q37 0 115 -15.5t105 -15.5q67 0 73 82l82 -16q-6 -66 -45 -108t-106 -42q-41 0 -115 15.5t-96 15.5q-33 0 -48 -18.5t-18 -57.5zM473 -27q-159 0 -254.5 101.5t-95.5 259.5v766h108v-750q0 -130 72 -202t193 -72q127 0 220 94 t93 252v678h111v-805q0 -195 47 -295h-111q-36 70 -39 186q-39 -87 -130.5 -150t-213.5 -63z" />
<glyph unicode="&#x16a;" horiz-adv-x="1361" d="M938 1749v-88h-516v88h516zM678 -27q-219 0 -348 139.5t-129 405.5v905h112v-905q0 -95 19.5 -171.5t60.5 -138.5t113.5 -96t171.5 -34q100 0 173.5 34t116 96t62 138.5t19.5 171.5v905h112v-905q0 -266 -131 -405.5t-352 -139.5z" />
<glyph unicode="&#x16b;" horiz-adv-x="1112" d="M782 1425v-88h-516v88h516zM473 -27q-159 0 -254.5 101.5t-95.5 259.5v766h108v-750q0 -130 72 -202t193 -72q127 0 220 94t93 252v678h111v-805q0 -195 47 -295h-111q-36 70 -39 186q-39 -87 -130.5 -150t-213.5 -63z" />
<glyph unicode="&#x16c;" horiz-adv-x="1361" d="M680 1583q-108 0 -175 64.5t-67 191.5h90q0 -82 41.5 -127t110.5 -45t111.5 45.5t42.5 126.5h90q-1 -127 -68.5 -191.5t-175.5 -64.5zM678 -27q-219 0 -348 139.5t-129 405.5v905h112v-905q0 -95 19.5 -171.5t60.5 -138.5t113.5 -96t171.5 -34q100 0 173.5 34t116 96 t62 138.5t19.5 171.5v905h112v-905q0 -266 -131 -405.5t-352 -139.5z" />
<glyph unicode="&#x16d;" horiz-adv-x="1112" d="M524 1260q-107 0 -174 64.5t-67 191.5h90q0 -82 41 -127.5t110 -45.5t111.5 45.5t42.5 127.5h90q-1 -127 -68.5 -191.5t-175.5 -64.5zM473 -27q-159 0 -254.5 101.5t-95.5 259.5v766h108v-750q0 -130 72 -202t193 -72q127 0 220 94t93 252v678h111v-805q0 -195 47 -295 h-111q-36 70 -39 186q-39 -87 -130.5 -150t-213.5 -63z" />
<glyph unicode="&#x16e;" horiz-adv-x="1361" d="M680 1903q76 0 127 -52t51 -127t-51 -125.5t-127 -50.5t-126 50.5t-50 125.5q0 76 50 127.5t126 51.5zM680 1835q-44 0 -74.5 -31t-30.5 -80q0 -48 30.5 -78t74.5 -30q45 0 75.5 30t30.5 78q0 49 -30.5 80t-75.5 31zM678 -27q-219 0 -348 139.5t-129 405.5v905h112v-905 q0 -95 19.5 -171.5t60.5 -138.5t113.5 -96t171.5 -34q100 0 173.5 34t116 96t62 138.5t19.5 171.5v905h112v-905q0 -266 -131 -405.5t-352 -139.5z" />
<glyph unicode="&#x16f;" horiz-adv-x="1112" d="M524 1579q76 0 127 -51.5t51 -126.5t-51 -125.5t-127 -50.5t-126 50.5t-50 125.5q0 76 50 127t126 51zM524 1511q-44 0 -74 -30.5t-30 -79.5q0 -48 30 -78.5t74 -30.5q45 0 76 30.5t31 78.5q0 49 -31 79.5t-76 30.5zM473 -27q-159 0 -254.5 101.5t-95.5 259.5v766h108 v-750q0 -130 72 -202t193 -72q127 0 220 94t93 252v678h111v-805q0 -195 47 -295h-111q-36 70 -39 186q-39 -87 -130.5 -150t-213.5 -63z" />
<glyph unicode="&#x170;" horiz-adv-x="1361" d="M518 1569l178 325h105l-185 -325h-98zM735 1569l185 325h108l-190 -325h-103zM678 -27q-219 0 -348 139.5t-129 405.5v905h112v-905q0 -95 19.5 -171.5t60.5 -138.5t113.5 -96t171.5 -34q100 0 173.5 34t116 96t62 138.5t19.5 171.5v905h112v-905q0 -266 -131 -405.5 t-352 -139.5z" />
<glyph unicode="&#x171;" horiz-adv-x="1112" d="M362 1245l179 326h104l-184 -326h-99zM580 1245l184 326h108l-190 -326h-102zM473 -27q-159 0 -254.5 101.5t-95.5 259.5v766h108v-750q0 -130 72 -202t193 -72q127 0 220 94t93 252v678h111v-805q0 -195 47 -295h-111q-36 70 -39 186q-39 -87 -130.5 -150t-213.5 -63z " />
<glyph unicode="&#x172;" horiz-adv-x="1361" d="M1049 1423h112v-905q0 -246 -113 -384t-309 -159q-67 -82 -67 -143q0 -53 33 -82t92 -31l-17 -77q-90 1 -142 49t-52 125q0 76 65 157q-207 9 -328.5 148.5t-121.5 396.5v905h112v-905q0 -95 19.5 -171.5t60.5 -138.5t113.5 -96t171.5 -34q100 0 173.5 34t116 96 t62 138.5t19.5 171.5v905z" />
<glyph unicode="&#x173;" horiz-adv-x="1112" d="M854 -168q0 -53 33 -82t92 -31l-16 -77q-90 1 -142.5 49t-52.5 125q0 91 88 184q-36 70 -39 186q-39 -87 -130.5 -150t-213.5 -63q-159 0 -254.5 101.5t-95.5 259.5v766h108v-750q0 -130 72 -202t193 -72q127 0 220 94t93 252v678h111v-805q0 -195 47 -295h-25 q-29 -34 -43.5 -54t-29.5 -52.5t-15 -61.5z" />
<glyph unicode="&#x174;" horiz-adv-x="1939" d="M786 1548l-77 39l215 275h94l215 -275l-78 -39l-184 224zM477 0l-381 1423h121l334 -1286l346 1286h145l347 -1286l333 1286h121l-381 -1423h-143l-348 1274l-350 -1274h-144z" />
<glyph unicode="&#x175;" horiz-adv-x="1705" d="M670 1225l-78 39l215 274h94l215 -274l-78 -39l-184 223zM426 0l-342 1100h111l297 -963l301 963h129l295 -963l294 963h111l-342 -1100h-125l-299 973l-305 -973h-125z" />
<glyph unicode="&#x176;" horiz-adv-x="1220" d="M428 1548l-78 39l215 275h94l215 -275l-77 -39l-185 224zM553 0v530l-479 893h127l409 -766l410 766h127l-481 -893v-530h-113z" />
<glyph unicode="&#x177;" horiz-adv-x="1062" d="M512 1448l-184 -223l-78 39l215 274h94l215 -274l-78 -39zM866 1100h117l-442 -1184q-35 -95 -88.5 -163.5t-118 -106.5t-130.5 -55t-138 -17l-11 104q56 0 109.5 13.5t106.5 43t96.5 83t70.5 125.5l21 55l-439 1102h121l373 -953z" />
<glyph unicode="&#x178;" horiz-adv-x="1220" d="M444 1622q-29 0 -50 20.5t-21 51.5q0 33 21 53t50 20q30 0 52 -20t22 -53q0 -31 -22 -51.5t-52 -20.5zM778 1622q-30 0 -50.5 20t-20.5 52q0 33 20.5 53t50.5 20q29 0 50.5 -20.5t21.5 -52.5q0 -31 -21.5 -51.5t-50.5 -20.5zM553 0v530l-479 893h127l409 -766l410 766 h127l-481 -893v-530h-113z" />
<glyph unicode="&#x179;" horiz-adv-x="1241" d="M418 1579l-39 80l485 239l41 -86zM123 0v92l840 1231h-820v100h955v-88l-844 -1235h866v-100h-997z" />
<glyph unicode="&#x17a;" horiz-adv-x="993" d="M252 1255l-39 80l485 240l41 -86zM84 0l-4 92l670 905h-660v103h797v-86l-670 -912h676v-102h-809z" />
<glyph unicode="&#x17b;" horiz-adv-x="1241" d="M655 1616q-30 0 -50.5 20t-20.5 52t20.5 51.5t50.5 19.5t51 -20t21 -51q0 -32 -21 -52t-51 -20zM123 0v92l840 1231h-820v100h955v-88l-844 -1235h866v-100h-997z" />
<glyph unicode="&#x17c;" horiz-adv-x="993" d="M489 1311q-32 0 -53.5 20t-21.5 53t21.5 53.5t53.5 20.5q30 0 52 -20.5t22 -53.5t-22 -53t-52 -20zM84 0l-4 92l670 905h-660v103h797v-86l-670 -912h676v-102h-809z" />
<glyph unicode="&#x17d;" horiz-adv-x="1241" d="M618 1559l-233 251l82 37l190 -205l191 205l82 -37l-234 -251h-78zM123 0v92l840 1231h-820v100h955v-88l-844 -1235h866v-100h-997z" />
<glyph unicode="&#x17e;" horiz-adv-x="993" d="M453 1235l-234 252l82 37l191 -205l190 205l82 -37l-234 -252h-77zM84 0l-4 92l670 905h-660v103h797v-86l-670 -912h676v-102h-809z" />
<glyph unicode="&#x18f;" horiz-adv-x="1366" d="M670 1450q269 0 421 -185.5t152 -543.5q0 -359 -152 -553.5t-415 -194.5q-255 0 -405 176.5t-150 464.5v70h1007v37q0 313 -121.5 469t-334.5 156q-151 0 -260.5 -73.5t-163.5 -199.5l-96 37q69 162 203.5 251t314.5 89zM676 78q190 0 306 129.5t140 384.5h-889 q3 -230 122.5 -372t320.5 -142z" />
<glyph unicode="&#x192;" horiz-adv-x="880" d="M168 -27q-69 0 -141 29l26 94q53 -22 101 -22q106 0 163.5 64t57.5 194v356h-297v78h297v326q0 180 83 269t234 89q87 0 162 -35l-31 -92q-59 27 -114 27q-220 0 -220 -256v-328h295v-78h-295v-354q0 -173 -82 -267t-239 -94z" />
<glyph unicode="&#x19d;" horiz-adv-x="1478" d="M-6 -399v96q112 0 167.5 53.5t55.5 192.5v1480h117l815 -1233v1233h113v-1423h-117l-815 1235v-1286q0 -102 -24 -171.5t-71 -107.5t-104.5 -53.5t-136.5 -15.5z" />
<glyph unicode="&#x1e6;" horiz-adv-x="1456" d="M692 1559l-233 251l82 37l190 -205l191 205l82 -37l-234 -251h-78zM1217 1171l-109 -34q-48 93 -142.5 151t-226.5 58q-223 0 -362 -172.5t-139 -460.5q0 -282 150 -458.5t382 -176.5q132 0 237.5 43t172.5 125v370h-467v101h579v-522q-85 -106 -222 -164t-300 -58 q-138 0 -258 55.5t-205.5 152.5t-134.5 234.5t-49 297.5q0 336 168 536.5t446 200.5q180 0 304.5 -79.5t175.5 -199.5z" />
<glyph unicode="&#x1e7;" horiz-adv-x="1095" d="M584 1239h-78l-234 252l82 37l191 -205l190 205l82 -37zM750 195q138 0 221.5 -76t83.5 -199q0 -157 -138 -251.5t-372 -94.5q-203 0 -332 91t-129 239q0 134 125 243q-66 51 -66 134q0 51 31.5 99t89.5 79q-137 105 -137 291q0 169 114.5 272.5t301.5 103.5 q171 0 282 -88q90 64 90 181h99q0 -138 -131 -234q78 -100 78 -235q0 -168 -115.5 -272.5t-302.5 -104.5q-120 0 -205 43q-44 -22 -67 -53.5t-23 -63.5q0 -44 37 -74t106 -30h359zM543 1034q-138 0 -222.5 -78t-84.5 -206q0 -127 84 -206t223 -79t224 79t85 206t-85.5 205.5 t-223.5 78.5zM545 -330q174 0 286.5 67.5t112.5 180.5q0 80 -55.5 131t-143.5 51h-378q-38 0 -84 11q-95 -86 -95 -193q0 -110 99.5 -179t257.5 -69z" />
<glyph unicode="&#x1ea;" horiz-adv-x="1388" d="M1268 713q0 -346 -136 -531.5t-380 -206.5q-64 -83 -64 -139q0 -53 33 -81.5t92 -30.5l-16 -78q-90 1 -142.5 49t-52.5 125q0 75 62 153q-256 11 -398.5 197t-142.5 543q0 366 150.5 551.5t420.5 185.5t422 -185.5t152 -551.5zM238 713q0 -635 456 -635q218 0 337.5 154 t119.5 481q0 325 -119.5 479t-337.5 154q-456 0 -456 -633z" />
<glyph unicode="&#x1eb;" horiz-adv-x="1110" d="M1020 551q0 -249 -103 -398t-286 -176q-68 -79 -68 -141q0 -53 33 -81.5t92 -30.5l-16 -78q-90 1 -142.5 49t-52.5 125q0 71 62 153q-209 6 -329 157.5t-120 420.5q0 274 124 424.5t341 150.5t341 -150.5t124 -424.5zM203 551q0 -227 92.5 -352t259.5 -125q166 0 259 125 t93 352q0 225 -93 350t-259 125q-167 0 -259.5 -124.5t-92.5 -350.5z" />
<glyph unicode="&#x1fa;" horiz-adv-x="1212" d="M874 2159l-487 -234l-39 80l486 240zM430 1724q0 76 50 127.5t126 51.5t127 -52t51 -127t-51 -125.5t-127 -50.5t-126 50.5t-50 125.5zM713 1724q0 49 -31 80t-76 31q-44 0 -74 -31t-30 -80q0 -48 30 -78t74 -30q45 0 76 30t31 78zM1051 0l-131 381h-633l-129 -381h-115 l494 1423h139l493 -1423h-118zM322 481h563l-283 828z" />
<glyph unicode="&#x1fb;" horiz-adv-x="1114" d="M356 1602l-39 79l486 240l41 -86zM575 1579q76 0 127.5 -51.5t51.5 -126.5t-51.5 -125.5t-127.5 -50.5t-126 50.5t-50 125.5q0 76 50 127t126 51zM575 1511q-44 0 -74 -30.5t-30 -79.5q0 -48 30 -78.5t74 -30.5q45 0 76 30.5t31 78.5q0 49 -31 79.5t-76 30.5zM451 -27 q-147 0 -239.5 80.5t-92.5 212.5q0 159 108.5 240.5t313.5 81.5h270v170q0 118 -76 193t-194 75q-98 0 -174.5 -51.5t-108.5 -138.5l-102 30q37 110 140.5 185t242.5 75q172 0 277.5 -100t105.5 -268v-469q0 -197 45 -289h-117q-34 66 -37 172q-51 -90 -150 -144.5 t-212 -54.5zM477 72q130 0 232 86.5t102 199.5v144h-268q-312 0 -312 -228q0 -89 69 -145.5t177 -56.5z" />
<glyph unicode="&#x1fc;" horiz-adv-x="1951" d="M1538 1812l-487 -233l-39 80l485 239zM1071 100h733v-100h-846v436h-497l-248 -436h-117l811 1423h840v-100h-676v-553h592v-102h-592v-568zM520 539h438v772z" />
<glyph unicode="&#x1fd;" horiz-adv-x="1810" d="M1171 1489l-487 -234l-39 80l485 240zM1616 281l96 -33q-52 -127 -169 -201t-261 -74q-134 0 -238 68t-163 190q-132 -258 -416 -258q-154 0 -250 84t-96 222q0 157 108 245t316 88h268v148q0 117 -75.5 191.5t-194.5 74.5q-98 0 -174.5 -51.5t-108.5 -138.5l-102 30 q39 110 142.5 185t242.5 75q126 0 219.5 -57t134.5 -158q59 104 153.5 159.5t215.5 55.5q201 0 321.5 -133.5t120.5 -339.5v-90h-780v-12q0 -210 100 -344.5t256 -134.5q116 0 203 53t131 156zM1262 1028q-133 0 -220 -95.5t-110 -266.5h659q0 161 -90 261.5t-239 100.5z M811 410v98h-268q-158 0 -235 -56.5t-77 -172.5q0 -90 69 -147.5t177 -57.5q134 0 234 94.5t100 241.5z" />
<glyph unicode="&#x1fe;" horiz-adv-x="1388" d="M958 1812l-487 -233l-39 80l486 239zM1018 1358q250 -176 250 -645q0 -367 -152 -553.5t-422 -186.5q-135 0 -241 47l-62 -143l-84 29l68 157q-252 178 -252 650q0 366 150.5 551.5t420.5 185.5q139 0 246 -49l57 137l84 -29zM238 713q0 -398 180 -545l479 1135 q-87 43 -203 43q-456 0 -456 -633zM694 78q218 0 337.5 154t119.5 481q0 389 -178 540l-479 -1134q83 -41 200 -41z" />
<glyph unicode="&#x1ff;" horiz-adv-x="1110" d="M803 1489l-488 -234l-39 80l486 240zM848 1026q172 -149 172 -475q0 -275 -124 -426.5t-341 -151.5q-135 0 -238 62l-57 -107l-61 37l59 113q-168 152 -168 473q0 274 124 424.5t341 150.5q129 0 231 -57l66 121l63 -37zM203 551q0 -250 108 -373l426 797q-79 51 -182 51 q-167 0 -259.5 -124.5t-92.5 -350.5zM555 74q166 0 259 125t93 352q0 251 -112 375l-428 -797q76 -55 188 -55z" />
<glyph unicode="&#x218;" horiz-adv-x="1136" d="M578 -27q-155 0 -277.5 68.5t-185.5 189.5l102 43q51 -93 146.5 -144.5t214.5 -51.5q147 0 236 73.5t89 198.5q0 61 -26 110t-70.5 82.5t-101.5 62t-120.5 53.5t-127 51t-120.5 60t-101.5 76t-70.5 103t-26 137q0 164 120.5 264.5t309.5 100.5q153 0 264.5 -62 t167.5 -176l-106 -38q-42 82 -128.5 127t-197.5 45q-137 0 -224 -71.5t-87 -187.5q0 -60 26 -108t70.5 -81.5t101.5 -62t120.5 -53.5t127 -51.5t120.5 -60.5t101.5 -76t70.5 -102.5t26 -135.5q0 -173 -122 -278t-322 -105zM549 -471l-43 53q102 55 112 178q-17 -14 -40 -14 q-38 0 -59 22t-21 52q0 31 23.5 54.5t62.5 23.5q52 0 82 -34t30 -89q0 -74 -37 -139.5t-110 -106.5z" />
<glyph unicode="&#x219;" horiz-adv-x="962" d="M500 -27q-158 0 -264.5 71t-153.5 179l82 53q44 -92 130.5 -149t203.5 -57q104 0 177 57t73 143q0 53 -27 93.5t-71 65t-100 47.5t-114.5 40t-114.5 44t-100 59t-71 85t-27 121q0 136 98 218.5t260 82.5q131 0 230 -56t143 -146l-82 -58q-40 76 -116.5 120t-172.5 44 q-109 0 -178 -55t-69 -144q0 -59 34.5 -101.5t89.5 -69t121.5 -48.5t133 -48t121.5 -60t89.5 -92t34.5 -136q0 -133 -104 -218t-256 -85zM451 -471l-43 53q102 55 112 178q-17 -14 -41 -14q-38 0 -59 22t-21 52q0 31 23.5 54.5t62.5 23.5q52 0 82.5 -34t30.5 -89 q0 -74 -37 -139.5t-110 -106.5z" />
<glyph unicode="&#x21a;" horiz-adv-x="1251" d="M561 0v1323h-498v100h1108v-100h-497v-1323h-113zM575 -471l-43 53q103 56 113 178q-17 -14 -41 -14q-38 0 -59 22t-21 52q0 31 23.5 54.5t62.5 23.5q52 0 82.5 -34t30.5 -89q0 -74 -37 -139.5t-111 -106.5z" />
<glyph unicode="&#x21b;" horiz-adv-x="780" d="M514 -27q-132 0 -201 77.5t-69 232.5v716h-207v101h207v330l110 20v-350h297v-101h-297v-696q0 -118 41 -170.5t131 -52.5q82 0 164 47l21 -102q-96 -52 -197 -52zM436 -471l-43 53q103 56 113 178q-17 -14 -41 -14q-38 0 -59 22t-21 52q0 31 23.5 54.5t62.5 23.5 q52 0 82.5 -34t30.5 -89q0 -74 -37 -139.5t-111 -106.5z" />
<glyph unicode="&#x232;" horiz-adv-x="1220" d="M870 1749v-88h-516v88h516zM553 0v530l-479 893h127l409 -766l410 766h127l-481 -893v-530h-113z" />
<glyph unicode="&#x233;" horiz-adv-x="1062" d="M770 1425v-88h-516v88h516zM866 1100h117l-442 -1184q-35 -95 -88.5 -163.5t-118 -106.5t-130.5 -55t-138 -17l-11 104q56 0 109.5 13.5t106.5 43t96.5 83t70.5 125.5l21 55l-439 1102h121l373 -953z" />
<glyph unicode="&#x237;" horiz-adv-x="499" d="M-27 -426v96q112 0 168 53.5t56 192.5v1184h108v-1178q0 -102 -23.5 -171.5t-69.5 -107.5t-103 -53.5t-136 -15.5z" />
<glyph unicode="&#x259;" horiz-adv-x="1056" d="M500 1126q215 0 341 -152t126 -423t-126.5 -424.5t-340.5 -153.5q-129 0 -230.5 70.5t-155 185t-53.5 250.5v76h793q-1 225 -94 348t-258 123q-110 0 -189 -55.5t-120 -151.5l-103 33q53 129 160 201.5t250 72.5zM500 72q150 0 241.5 101.5t108.5 289.5h-678 q0 -162 91 -276.5t237 -114.5z" />
<glyph unicode="&#x272;" horiz-adv-x="1177" d="M-23 -399v96q104 0 153.5 57.5t49.5 188.5v1157h107v-178q33 80 116 142t203 62q165 0 271 -110t106 -324v-692h-109v682q0 164 -82 252t-206 88q-122 0 -209.5 -93.5t-87.5 -264.5v-715q0 -188 -79.5 -268t-232.5 -80z" />
<glyph unicode="&#x2c6;" horiz-adv-x="1241" d="M383 1227l-78 39l215 274h94l215 -274l-77 -39l-185 223z" />
<glyph unicode="&#x2c7;" horiz-adv-x="1241" d="M530 1235l-233 252l82 37l190 -205l191 205l82 -37l-234 -252h-78z" />
<glyph unicode="&#x2d8;" horiz-adv-x="1241" d="M567 1260q-107 0 -174 64.5t-67 191.5h90q0 -82 41 -127.5t110 -45.5t111.5 45.5t42.5 127.5h90q-1 -127 -68.5 -191.5t-175.5 -64.5z" />
<glyph unicode="&#x2d9;" horiz-adv-x="1241" d="M567 1389q-32 0 -55 21.5t-23 55.5q0 33 23 54.5t55 21.5t55 -21.5t23 -54.5q0 -34 -23 -55.5t-55 -21.5z" />
<glyph unicode="&#x2da;" horiz-adv-x="1241" d="M567 1579q76 0 127 -51.5t51 -126.5t-51 -125.5t-127 -50.5t-126 50.5t-50 125.5q0 76 50 127t126 51zM567 1511q-44 0 -74 -30.5t-30 -79.5q0 -48 30 -78.5t74 -30.5q45 0 76 30.5t31 78.5q0 49 -31 79.5t-76 30.5z" />
<glyph unicode="&#x2db;" horiz-adv-x="1241" d="M639 0q-29 -34 -43.5 -54t-29.5 -52.5t-15 -61.5q0 -53 33 -82t92 -31l-17 -77q-90 1 -142 49t-52 125q0 91 88 184h86z" />
<glyph unicode="&#x2dc;" horiz-adv-x="1241" d="M393 1296l-80 19q5 62 40 101.5t93 39.5q37 0 115 -15.5t105 -15.5q67 0 73 82l82 -16q-6 -66 -45 -108t-106 -42q-41 0 -115 15.5t-96 15.5q-33 0 -48 -18.5t-18 -57.5z" />
<glyph unicode="&#x2dd;" horiz-adv-x="1241" d="M313 1245l179 326h104l-184 -326h-99zM530 1245l185 326h108l-190 -326h-103z" />
<glyph unicode="&#x300;" d="M-342 1255l-487 234l41 86l485 -240z" />
<glyph unicode="&#x301;" d="M-791 1255l-38 80l485 240l41 -86z" />
<glyph unicode="&#x302;" d="M-752 1227l-77 39l215 274h94l215 -274l-78 -39l-184 223z" />
<glyph unicode="&#x303;" d="M-741 1296l-80 19q5 62 40 101.5t93 39.5q37 0 114.5 -15.5t104.5 -15.5q68 0 74 82l82 -16q-6 -65 -45.5 -107.5t-106.5 -42.5q-41 0 -115 15.5t-96 15.5q-33 0 -47.5 -18t-17.5 -58z" />
<glyph unicode="&#x304;" d="M-309 1425v-88h-516v88h516z" />
<glyph unicode="&#x306;" d="M-569 1260q-108 0 -175 64.5t-67 191.5h90q0 -82 41.5 -127.5t110.5 -45.5t111 45.5t42 127.5h90q-1 -128 -68.5 -192t-174.5 -64z" />
<glyph unicode="&#x307;" d="M-567 1389q-32 0 -55 21.5t-23 55.5q0 33 23 54.5t55 21.5t55 -21.5t23 -54.5q0 -34 -23 -55.5t-55 -21.5z" />
<glyph unicode="&#x308;" d="M-733 1298q-29 0 -50.5 20.5t-21.5 51.5q0 33 21.5 53.5t50.5 20.5q30 0 52 -20.5t22 -53.5q0 -31 -22 -51.5t-52 -20.5zM-399 1298q-30 0 -51 20t-21 52q0 33 21 53.5t51 20.5q29 0 50 -20.5t21 -53.5q0 -31 -21 -51.5t-50 -20.5z" />
<glyph unicode="&#x30a;" d="M-569 1579q76 0 127 -51.5t51 -126.5t-51 -125.5t-127 -50.5t-126 50.5t-50 125.5q0 76 50 127t126 51zM-569 1511q-44 0 -74.5 -31t-30.5 -79t30.5 -78.5t74.5 -30.5q45 0 75.5 30t30.5 79t-30.5 79.5t-75.5 30.5z" />
<glyph unicode="&#x30b;" d="M-821 1245l178 326h104l-184 -326h-98zM-604 1245l184 326h109l-191 -326h-102z" />
<glyph unicode="&#x30c;" d="M-604 1235l-234 252l82 37l191 -205l190 205l82 -37l-233 -252h-78z" />
<glyph unicode="&#x312;" d="M-520 1626l43 -53q-103 -56 -113 -178q17 14 41 14q38 0 59 -22t21 -52q0 -31 -23.5 -54.5t-62.5 -23.5q-52 0 -82.5 34t-30.5 89q0 74 37 139.5t111 106.5z" />
<glyph unicode="&#x323;" d="M-580 -313q-32 0 -53.5 20t-21.5 53t21.5 53.5t53.5 20.5q30 0 52 -20.5t22 -53.5t-22 -53t-52 -20z" />
<glyph unicode="&#x326;" d="M-616 -471l-43 53q102 55 112 178q-17 -14 -41 -14q-38 0 -59 22t-21 52q0 31 23.5 54.5t62.5 23.5q52 0 82.5 -34t30.5 -89q0 -74 -37 -139.5t-110 -106.5z" />
<glyph unicode="&#x327;" d="M-578 -424q-111 0 -186 53l25 62q80 -47 157 -47q62 0 96.5 27t34.5 63q0 34 -29 58t-83 24q-50 0 -101 -23l-51 35l115 172h86l-94 -129q34 12 76 12q81 0 128.5 -43t47.5 -102q0 -67 -58 -114.5t-164 -47.5z" />
<glyph unicode="&#x328;" d="M-496 0q-29 -34 -43.5 -54t-29.5 -52.5t-15 -61.5q0 -53 33 -82t92 -31l-16 -77q-90 1 -142.5 49t-52.5 125q0 91 88 184h86z" />
<glyph unicode="&#x335;" d="M-793 434v86h453v-86h-453z" />
<glyph unicode="&#x336;" d="M-848 453v86h561v-86h-561z" />
<glyph unicode="&#x337;" d="M-807 602v100l479 168v-100z" />
<glyph unicode="&#x338;" d="M-926 -115l654 1225l63 -37l-655 -1225z" />
<glyph unicode="&#x384;" horiz-adv-x="1241" d="M571 1210l76 367h115l-90 -367h-101z" />
<glyph unicode="&#x385;" horiz-adv-x="1241" d="M573 1210l78 367h103l-90 -367h-91zM465 1329q-29 0 -50.5 21.5t-21.5 52.5t21.5 51.5t50.5 20.5q30 0 52 -20.5t22 -51.5q0 -32 -22 -53t-52 -21zM846 1329q-30 0 -51 21t-21 53t21 52t51 20t51 -20t21 -52t-21 -53t-51 -21z" />
<glyph unicode="&#x386;" horiz-adv-x="1212" d="M1051 0l-131 381h-633l-129 -381h-115l494 1423h139l493 -1423h-118zM375 1423l-123 -426h-88l115 426h96zM322 481h563l-283 828z" />
<glyph unicode="&#x388;" horiz-adv-x="1333" d="M37 997l115 426h96l-123 -426h-88zM340 0v1423h788v-100h-675v-553h591v-102h-591v-568h733v-100h-846z" />
<glyph unicode="&#x389;" horiz-adv-x="1636" d="M37 997l115 426h96l-123 -426h-88zM340 0v1423h113v-653h854v653h112v-1423h-112v670h-854v-670h-113z" />
<glyph unicode="&#x38a;" horiz-adv-x="669" d="M37 997l115 426h96l-123 -426h-88zM340 0v1423h113v-1423h-113z" />
<glyph unicode="&#x38c;" horiz-adv-x="1417" d="M723 -27q-270 0 -420.5 186t-150.5 554q0 366 150.5 551.5t420.5 185.5t421.5 -185.5t151.5 -551.5q0 -368 -151.5 -554t-421.5 -186zM-14 997l114 426h97l-123 -426h-88zM723 78q218 0 337.5 154t119.5 481q0 325 -119.5 479t-337.5 154q-219 0 -338 -153.5t-119 -479.5 q0 -635 457 -635z" />
<glyph unicode="&#x38e;" horiz-adv-x="1269" d="M-125 997l115 426h96l-123 -426h-88zM602 0v530l-479 893h127l409 -766l410 766h127l-481 -893v-530h-113z" />
<glyph unicode="&#x38f;" horiz-adv-x="1386" d="M115 0v92l366 -4q-197 86 -308.5 265t-111.5 409q0 105 25 204t77.5 187t127.5 154t182 104.5t234 38.5t235 -38.5t182.5 -104.5t127 -154.5t77.5 -187t25 -203.5q0 -230 -111.5 -409t-308.5 -265l364 4v-92h-528v98q228 83 350.5 261.5t122.5 402.5q0 114 -34 217.5 t-99 186t-169 131.5t-234 49q-129 0 -233 -49t-168.5 -131.5t-99 -186t-34.5 -217.5q0 -225 122 -403t351 -261v-98h-530zM-90 997l115 426h96l-123 -426h-88z" />
<glyph unicode="&#x390;" horiz-adv-x="532" d="M184 1210l78 367h103l-91 -367h-90zM76 1329q-29 0 -50.5 21.5t-21.5 52.5t21.5 51.5t50.5 20.5q30 0 52 -20.5t22 -51.5q0 -32 -22 -53t-52 -21zM457 1329q-30 0 -51 21t-21 53t21 52t51 20t50.5 -20t20.5 -52t-20.5 -53t-50.5 -21zM174 299v801h111v-799 q0 -106 42 -160.5t124 -54.5q13 0 53 4l-6 -102q-40 -4 -60 -4q-120 0 -192 77t-72 238z" />
<glyph unicode="&#x391;" horiz-adv-x="1212" d="M1051 0l-131 381h-633l-129 -381h-115l494 1423h139l493 -1423h-118zM322 481h563l-283 828z" />
<glyph unicode="&#x392;" horiz-adv-x="1245" d="M217 0v1423h408q34 0 64 -2t73.5 -10t78.5 -21.5t72 -39.5t62 -61t41 -88t16 -118q0 -146 -63 -231.5t-162 -118.5v-2q47 -13 90 -38t83.5 -65.5t64.5 -103t24 -139.5q0 -88 -22.5 -155.5t-61 -110.5t-94.5 -70t-118 -38t-138 -11h-418zM330 774h276q150 0 229.5 74.5 t79.5 218.5q0 74 -24 125.5t-68.5 78.5t-95.5 38.5t-117 11.5h-280v-547zM330 100h295q164 0 244.5 69t80.5 218q0 139 -85 212t-247 73h-288v-572z" />
<glyph unicode="&#x393;" horiz-adv-x="1093" d="M217 0v1423h778v-100h-665v-1323h-113z" />
<glyph unicode="&#x394;" horiz-adv-x="1134" d="M47 0l449 1423h145l446 -1423h-1040zM184 98h768l-385 1215z" />
<glyph unicode="&#x395;" horiz-adv-x="1210" d="M217 0v1423h789v-100h-676v-553h592v-102h-592v-568h733v-100h-846z" />
<glyph unicode="&#x396;" horiz-adv-x="1241" d="M123 0v92l840 1231h-820v100h955v-88l-844 -1235h866v-100h-997z" />
<glyph unicode="&#x397;" horiz-adv-x="1513" d="M217 0v1423h113v-653h854v653h112v-1423h-112v670h-854v-670h-113z" />
<glyph unicode="&#x398;" horiz-adv-x="1388" d="M694 -27q-270 0 -420.5 186t-150.5 554q0 366 150.5 551.5t420.5 185.5t422 -185.5t152 -551.5q0 -367 -152 -553.5t-422 -186.5zM694 78q218 0 337.5 154t119.5 481q0 325 -119.5 479t-337.5 154q-456 0 -456 -633q0 -635 456 -635zM993 758v-88h-600v88h600z" />
<glyph unicode="&#x399;" horiz-adv-x="546" d="M217 0v1423h113v-1423h-113z" />
<glyph unicode="&#x39a;" horiz-adv-x="1230" d="M1176 0h-146l-549 698l-151 -178v-520h-113v1423h113v-733l624 733h140l-535 -632z" />
<glyph unicode="&#x39b;" horiz-adv-x="1212" d="M43 0l494 1423h139l493 -1423h-118l-449 1309l-444 -1309h-115z" />
<glyph unicode="&#x39c;" horiz-adv-x="1708" d="M217 0v1423h125l510 -938l514 938h125v-1423h-113v1221l-477 -877h-96l-475 877v-1221h-113z" />
<glyph unicode="&#x39d;" horiz-adv-x="1478" d="M217 0v1423h115l817 -1233v1233h113v-1423h-113l-819 1235v-1235h-113z" />
<glyph unicode="&#x39e;" horiz-adv-x="1251" d="M164 1323v100h923v-100h-923zM252 668v102h745v-102h-745zM164 0v100h923v-100h-923z" />
<glyph unicode="&#x39f;" horiz-adv-x="1388" d="M694 -27q-270 0 -420.5 186t-150.5 554q0 366 150.5 551.5t420.5 185.5t422 -185.5t152 -551.5q0 -367 -152 -553.5t-422 -186.5zM694 78q218 0 337.5 154t119.5 481q0 325 -119.5 479t-337.5 154q-456 0 -456 -633q0 -635 456 -635z" />
<glyph unicode="&#x3a0;" horiz-adv-x="1513" d="M217 0v1423h1079v-1423h-112v1323h-854v-1323h-113z" />
<glyph unicode="&#x3a1;" horiz-adv-x="1150" d="M217 0v1423h404q199 0 314.5 -111.5t115.5 -303.5q0 -206 -121.5 -325.5t-331.5 -119.5h-268v-563h-113zM330 664h266q158 0 249 91t91 246q0 150 -88.5 236t-243.5 86h-274v-659z" />
<glyph unicode="&#x3a3;" horiz-adv-x="1314" d="M184 0v94l426 619l-417 616v94h931v-100h-805l406 -610l-416 -613h821v-100h-946z" />
<glyph unicode="&#x3a4;" horiz-adv-x="1251" d="M561 0v1323h-498v100h1108v-100h-497v-1323h-113z" />
<glyph unicode="&#x3a5;" horiz-adv-x="1220" d="M553 0v530l-479 893h127l409 -766l410 766h127l-481 -893v-530h-113z" />
<glyph unicode="&#x3a6;" horiz-adv-x="1540" d="M713 -23v175h-29q-162 0 -293.5 68.5t-209 197.5t-77.5 295t77.5 295t209 197.5t293.5 68.5h29v172h112v-172h31q162 0 293.5 -68.5t209 -197.5t77.5 -295t-77.5 -295t-209 -197.5t-293.5 -68.5h-31v-175h-112zM686 252h27v922h-27q-130 0 -235 -55t-167.5 -161 t-62.5 -245t62.5 -245t167.5 -161t235 -55zM825 252h29q130 0 235 55t167.5 161t62.5 245t-62.5 245t-167.5 161t-235 55h-29v-922z" />
<glyph unicode="&#x3a7;" horiz-adv-x="1345" d="M1231 0h-137l-428 623l-430 -623h-125l491 717l-485 706h137l422 -614l411 614h123l-469 -708z" />
<glyph unicode="&#x3a8;" horiz-adv-x="1540" d="M713 0v328h-29q-153 0 -276 64t-196 189t-73 291v551h113v-551q0 -206 123 -325t311 -119h27v995h112v-995h29q188 0 311 119t123 325v551h113v-551q0 -166 -73 -291t-196 -189t-276 -64h-31v-328h-112z" />
<glyph unicode="&#x3a9;" horiz-adv-x="1357" d="M86 0v92l367 -4q-197 86 -308.5 265t-111.5 409q0 105 24.5 204t77 187t127.5 154t182 104.5t234 38.5t235 -38.5t182.5 -104.5t127 -154.5t77.5 -187t25 -203.5q0 -230 -111.5 -409t-308.5 -265l365 4v-92h-529v98q228 83 350.5 261.5t122.5 402.5q0 114 -34 217.5 t-99 186t-169 131.5t-234 49q-129 0 -233 -49t-168.5 -131.5t-99 -186t-34.5 -217.5q0 -225 122 -403t351 -261v-98h-530z" />
<glyph unicode="&#x3aa;" horiz-adv-x="546" d="M106 1622q-29 0 -50 20.5t-21 51.5q0 33 21 53t50 20q30 0 52 -20t22 -53q0 -31 -22 -51.5t-52 -20.5zM440 1622q-30 0 -50.5 20t-20.5 52q0 33 20.5 53t50.5 20q29 0 50.5 -20.5t21.5 -52.5q0 -31 -21.5 -51.5t-50.5 -20.5zM217 0v1423h113v-1423h-113z" />
<glyph unicode="&#x3ab;" horiz-adv-x="1220" d="M442 1622q-29 0 -50 20.5t-21 51.5q0 33 21 53t50 20q30 0 52 -20t22 -53q0 -31 -22 -51.5t-52 -20.5zM776 1622q-30 0 -50.5 20t-20.5 52q0 33 20.5 53t50.5 20q29 0 50.5 -20.5t21.5 -52.5q0 -31 -21.5 -51.5t-50.5 -20.5zM553 0v530l-479 893h127l409 -766l410 766 h127l-481 -893v-530h-113z" />
<glyph unicode="&#x3ac;" horiz-adv-x="1320" d="M508 1210l76 367h114l-90 -367h-100zM537 -27q-207 0 -327 152.5t-120 425.5q0 271 121 423t326 152q132 0 230 -63.5t146 -161.5v199h105v-752q0 -122 57.5 -188t159.5 -66l-6 -100q-124 0 -201 60.5t-98 168.5q-55 -120 -155 -185t-238 -65zM555 74q166 0 259 125 t93 352q0 225 -93 350t-259 125q-167 0 -259.5 -124.5t-92.5 -350.5q0 -227 92.5 -352t259.5 -125z" />
<glyph unicode="&#x3ad;" horiz-adv-x="978" d="M420 1210l76 367h114l-90 -367h-100zM477 -27q-173 0 -283 90.5t-110 237.5q0 62 23.5 113t61 82t76 50t77.5 27v2q-96 25 -153.5 92t-57.5 173q0 128 105.5 207t258.5 79q125 0 222.5 -59t144.5 -154l-107 -34q-36 69 -105.5 107t-154.5 38q-101 0 -175.5 -55 t-74.5 -144q0 -60 24 -104.5t65 -68.5t88 -35t100 -11h172v-80h-166q-57 0 -110 -13.5t-98 -39.5t-72 -70t-27 -100q0 -106 83 -167.5t193 -61.5q115 0 196.5 48t119.5 118l100 -41q-43 -95 -149 -160.5t-267 -65.5z" />
<glyph unicode="&#x3ae;" horiz-adv-x="1198" d="M549 1210l76 367h114l-90 -367h-100zM895 -399v1081q0 163 -83 251.5t-210 88.5q-57 0 -110 -22.5t-95.5 -65.5t-68 -113t-25.5 -157v-664h-110v854q0 99 -32 138.5t-91 39.5q-29 0 -60 -8v90q54 12 78 12q84 0 137 -47t60 -153q41 84 128.5 142t207.5 58 q81 0 149.5 -26.5t121 -78t82.5 -134.5t30 -189v-1097h-109z" />
<glyph unicode="&#x3af;" horiz-adv-x="532" d="M182 1210l76 367h115l-90 -367h-101zM174 299v801h111v-799q0 -106 42 -160.5t124 -54.5q13 0 53 4l-6 -102q-40 -4 -60 -4q-120 0 -192 77t-72 238z" />
<glyph unicode="&#x3b0;" horiz-adv-x="1056" d="M424 1210l78 367h102l-90 -367h-90zM315 1329q-29 0 -50 21.5t-21 52.5t21 51.5t50 20.5q30 0 52 -20.5t22 -51.5q0 -32 -22 -53t-52 -21zM696 1329q-30 0 -50.5 21t-20.5 53t20.5 52t50.5 20t51 -20t21 -52t-21 -53t-51 -21zM506 -27q-170 0 -276.5 100.5t-106.5 282.5 v744h108v-738q0 -137 74.5 -212.5t200.5 -75.5q152 0 234.5 125t82.5 364q0 121 -26.5 265t-71.5 272h109q102 -291 102 -537q0 -281 -112 -435.5t-318 -154.5z" />
<glyph unicode="&#x3b1;" horiz-adv-x="1320" d="M537 -27q-207 0 -327 152.5t-120 425.5q0 271 121 423t326 152q132 0 230 -63.5t146 -161.5v199h105v-752q0 -122 57.5 -188t159.5 -66l-6 -100q-124 0 -201 60.5t-98 168.5q-55 -120 -155 -185t-238 -65zM555 74q166 0 259 125t93 352q0 225 -93 350t-259 125 q-167 0 -259.5 -124.5t-92.5 -350.5q0 -227 92.5 -352t259.5 -125z" />
<glyph unicode="&#x3b2;" horiz-adv-x="1216" d="M193 -399v1456q0 180 112.5 286.5t290.5 106.5q171 0 273 -96t102 -248q0 -95 -48 -173.5t-126 -113.5q135 -34 219 -145.5t84 -259.5q0 -195 -127.5 -318t-319.5 -123q-121 0 -215.5 53.5t-134.5 135.5v-561h-110zM643 74q149 0 243.5 94.5t94.5 245.5q0 148 -94 239.5 t-250 91.5h-80v99h76q103 0 166 69.5t63 180.5q0 114 -73 185t-193 71q-134 0 -213.5 -80t-79.5 -213v-608q0 -172 91 -273.5t249 -101.5z" />
<glyph unicode="&#x3b3;" horiz-adv-x="1114" d="M469 -399v424l-408 1075h123l359 -957q133 120 231 364.5t98 477.5q0 57 -6 115h123q4 -58 4 -88q0 -268 -115.5 -546t-297.5 -441v-424h-111z" />
<glyph unicode="&#x3b4;" horiz-adv-x="1060" d="M530 -25q-203 0 -321.5 128.5t-118.5 359.5q0 208 95 329.5t270 143.5q-112 24 -183 87t-71 165q0 123 98 192.5t240 69.5q175 0 317 -92l-33 -84q-131 86 -272 86q-104 0 -171 -47.5t-67 -124.5q0 -49 22.5 -84.5t60.5 -57t87.5 -39t104 -35.5t109 -41t104 -61t87.5 -89 t60.5 -132.5t22.5 -185.5q0 -231 -118 -359.5t-323 -128.5zM530 76q157 0 242.5 101.5t85.5 287.5t-85.5 288.5t-242.5 102.5q-156 0 -241.5 -102.5t-85.5 -288.5t85 -287.5t242 -101.5z" />
<glyph unicode="&#x3b5;" horiz-adv-x="978" d="M477 -27q-173 0 -283 90.5t-110 237.5q0 62 23.5 113t61 82t76 50t77.5 27v2q-96 25 -153.5 92t-57.5 173q0 128 105.5 207t258.5 79q125 0 222.5 -59t144.5 -154l-107 -34q-36 69 -105.5 107t-154.5 38q-101 0 -175.5 -55t-74.5 -144q0 -60 24 -104.5t65 -68.5t88 -35 t100 -11h172v-80h-166q-57 0 -110 -13.5t-98 -39.5t-72 -70t-27 -100q0 -106 83 -167.5t193 -61.5q115 0 196.5 48t119.5 118l100 -41q-43 -95 -149 -160.5t-267 -65.5z" />
<glyph unicode="&#x3b6;" horiz-adv-x="950" d="M682 -406l-90 33q61 45 95 101t34 112q0 50 -28.5 87t-74.5 57.5t-105 40.5t-121 35t-121 42.5t-105 61.5t-74.5 93.5t-28.5 137.5q0 63 18.5 129.5t46 126t78 131.5t96 128.5t120.5 135.5t130.5 134.5t145.5 142.5h-444v100h594l-2 -98q-101 -93 -157.5 -146.5 t-138.5 -134.5t-127.5 -134.5t-99.5 -125t-81.5 -127.5t-46.5 -120t-19 -125q0 -71 36.5 -122t94.5 -79.5t128.5 -50.5l141 -44t128.5 -51.5t94.5 -82t36.5 -125.5t-41 -143t-113 -120z" />
<glyph unicode="&#x3b7;" horiz-adv-x="1198" d="M895 -399v1081q0 163 -83 251.5t-210 88.5q-57 0 -110 -22.5t-95.5 -65.5t-68 -113t-25.5 -157v-664h-110v854q0 99 -32 138.5t-91 39.5q-29 0 -60 -8v90q54 12 78 12q84 0 137 -47t60 -153q41 84 128.5 142t207.5 58q81 0 149.5 -26.5t121 -78t82.5 -134.5t30 -189 v-1097h-109z" />
<glyph unicode="&#x3b8;" horiz-adv-x="1177" d="M588 -27q-220 0 -342.5 186t-122.5 554q0 366 122.5 551.5t342.5 185.5t343.5 -185.5t123.5 -551.5q0 -367 -123.5 -553.5t-343.5 -186.5zM240 760h698q-6 300 -97.5 443t-252.5 143t-251.5 -142.5t-96.5 -443.5zM588 78q161 0 252.5 143.5t97.5 444.5h-698 q6 -301 96.5 -444.5t251.5 -143.5z" />
<glyph unicode="&#x3b9;" horiz-adv-x="532" d="M174 299v801h111v-799q0 -106 42 -160.5t124 -54.5q13 0 53 4l-6 -102q-40 -4 -60 -4q-120 0 -192 77t-72 238z" />
<glyph unicode="&#x3ba;" horiz-adv-x="1159" d="M1026 0h-143l-459 545l-119 -142v-403h-112v1100h112v-537l387 461q82 102 207 102q68 0 125 -24l-16 -105q-51 21 -99 21q-84 0 -147 -76l-260 -305z" />
<glyph unicode="&#x3bb;" horiz-adv-x="1103" d="M1061 0h-115l-405 932l-383 -932h-115l442 1057l-51 119q-39 92 -85.5 135t-112.5 43q-40 0 -89 -17l-18 99q62 20 119 20q93 0 162.5 -54t121.5 -179z" />
<glyph unicode="&#x3bc;" horiz-adv-x="1112" d="M920 295q0 -195 47 -295h-111q-36 70 -39 186q-39 -87 -130.5 -150t-213.5 -63q-156 0 -256 103l12 -475h-106v1499h108v-750q0 -130 72 -202t193 -72q127 0 220 94t93 252v678h111v-805z" />
<glyph unicode="&#x3bd;" horiz-adv-x="1144" d="M483 0l-422 1100h115l381 -983q132 127 232 384.5t100 495.5q0 68 -4 103h116q5 -73 5 -84q0 -275 -114.5 -560.5t-293.5 -455.5h-115z" />
<glyph unicode="&#x3be;" horiz-adv-x="944" d="M756 -403l-94 32q69 30 108 83.5t39 111.5q0 47 -29.5 83t-78 57t-110.5 42.5t-127 39.5t-127 48.5t-110.5 68.5t-78 101t-29.5 144q0 112 59.5 199t171.5 132q-182 82 -182 262q0 103 61.5 193t167.5 129h-288v100h706v-100h-186q-82 0 -150 -27t-110.5 -70.5t-66 -96 t-23.5 -107.5q0 -95 73 -161t193 -66h153v-88h-157q-138 0 -220.5 -79t-82.5 -194q0 -68 29.5 -120t78 -83t110.5 -58t126 -45t126 -43t110.5 -53t78 -74.5t29.5 -107.5q0 -76 -43.5 -144.5t-126.5 -108.5z" />
<glyph unicode="&#x3bf;" horiz-adv-x="1110" d="M555 -27q-217 0 -341 151.5t-124 426.5q0 274 124 424.5t341 150.5t341 -150.5t124 -424.5q0 -275 -124 -426.5t-341 -151.5zM555 74q166 0 259 125t93 352q0 225 -93 350t-259 125q-167 0 -259.5 -124.5t-92.5 -350.5q0 -227 92.5 -352t259.5 -125z" />
<glyph unicode="&#x3c0;" horiz-adv-x="1191" d="M1116 -14q-149 -6 -212.5 64.5t-63.5 207.5v746h-496v-1004h-111v1004h-172v96h1072v-99h-183v-747q0 -102 42.5 -140t123.5 -38v-90z" />
<glyph unicode="&#x3c1;" horiz-adv-x="1159" d="M139 -399v950q0 274 123 424.5t340 150.5q219 0 343 -150.5t124 -424.5q0 -273 -124 -425.5t-331 -152.5q-128 0 -222 62t-144 178v-612h-109zM602 74q168 0 261 125t93 352q0 225 -93.5 350t-260.5 125q-166 0 -258 -124.5t-92 -350.5q0 -227 92 -352t258 -125z" />
<glyph unicode="&#x3c2;" horiz-adv-x="956" d="M723 -406l-96 33q55 43 86.5 97.5t31.5 107.5q0 54 -23.5 100.5t-63.5 82t-91.5 67.5t-108.5 63.5t-114 64.5t-108.5 75.5t-91.5 92t-63.5 118t-23.5 149.5q0 229 127.5 355t329.5 126q145 0 249 -77t134 -195l-102 -33q-31 94 -106.5 149.5t-176.5 55.5 q-154 0 -248 -98.5t-94 -278.5q0 -87 38.5 -157t99.5 -117.5t135 -89.5t148 -83t135 -87t99.5 -112.5t38.5 -149.5q0 -67 -37 -135.5t-104 -123.5z" />
<glyph unicode="&#x3c3;" horiz-adv-x="1140" d="M1139 1126v-100h-291q172 -149 172 -475q0 -275 -124 -426.5t-341 -151.5t-341 151.5t-124 426.5q0 274 124 424.5t341 150.5h584zM907 551q0 225 -93 350t-259 125q-167 0 -259.5 -124.5t-92.5 -350.5q0 -227 92.5 -352t259.5 -125q166 0 259 125t93 352z" />
<glyph unicode="&#x3c4;" horiz-adv-x="780" d="M514 -27q-132 0 -201 77.5t-69 232.5v716h-207v101h614v-101h-297v-696q0 -118 41 -170.5t131 -52.5q82 0 164 47l21 -102q-96 -52 -197 -52z" />
<glyph unicode="&#x3c5;" horiz-adv-x="1056" d="M506 -27q-170 0 -276.5 100.5t-106.5 282.5v744h108v-738q0 -137 74.5 -212.5t200.5 -75.5q152 0 234.5 125t82.5 364q0 121 -26.5 265t-71.5 272h109q102 -291 102 -537q0 -281 -112 -435.5t-318 -154.5z" />
<glyph unicode="&#x3c6;" horiz-adv-x="1380" d="M635 -399v372q-245 15 -395 173.5t-150 404.5q0 245 150 402.5t395 172.5v283h110v-283q245 -15 395 -172.5t150 -402.5q0 -246 -150 -404.5t-395 -173.5v-372h-110zM635 72v956q-197 -15 -314.5 -143.5t-117.5 -333.5q0 -211 117 -337.5t315 -141.5zM745 72 q198 15 315.5 141.5t117.5 337.5q0 205 -118 333.5t-315 143.5v-956z" />
<glyph unicode="&#x3c7;" horiz-adv-x="1312" d="M1194 -313q29 0 53 6l-2 -109q-42 -10 -76 -10q-139 0 -237 162l-307 514l-416 -649h-123l477 753l-317 535q-74 125 -148 125q-27 0 -59 -8l-14 106q54 14 94 14q126 0 223 -161l301 -502l420 637h123l-481 -742l331 -555q41 -69 75.5 -92.5t82.5 -23.5z" />
<glyph unicode="&#x3c8;" horiz-adv-x="1294" d="M1171 567q0 -265 -134 -419t-351 -173v-374h-111v374q-207 14 -329.5 135.5t-122.5 335.5v654h108v-649q0 -170 93 -266.5t251 -108.5v1265h111v-1263q169 19 271 145.5t102 343.5q0 129 -29.5 270.5t-89.5 262.5h111q120 -254 120 -533z" />
<glyph unicode="&#x3c9;" horiz-adv-x="1763" d="M547 -27q-88 0 -159 29.5t-120 81.5t-82 125t-48 159t-15 185q0 259 102 547h109q-98 -276 -98 -547q0 -103 17.5 -187.5t53.5 -151t97.5 -103.5t144.5 -37q125 0 201.5 85.5t76.5 229.5v680h109v-680q0 -144 76.5 -229.5t201.5 -85.5q83 0 145 37t98.5 103.5t54.5 151 t18 187.5q0 274 -100 547h108q104 -280 104 -547q0 -124 -25 -227.5t-75 -183.5t-132.5 -124.5t-190.5 -44.5q-119 0 -207 62.5t-131 165.5q-41 -102 -129 -165t-205 -63z" />
<glyph unicode="&#x3ca;" horiz-adv-x="532" d="M63 1298q-29 0 -50 20.5t-21 51.5q0 33 21 53.5t50 20.5q30 0 52 -20.5t22 -53.5q0 -31 -22 -51.5t-52 -20.5zM397 1298q-30 0 -50.5 20t-20.5 52q0 33 20.5 53.5t50.5 20.5q29 0 50.5 -20.5t21.5 -53.5q0 -31 -21.5 -51.5t-50.5 -20.5zM174 299v801h111v-799 q0 -106 42 -160.5t124 -54.5q13 0 53 4l-6 -102q-40 -4 -60 -4q-120 0 -192 77t-72 238z" />
<glyph unicode="&#x3cb;" horiz-adv-x="1056" d="M303 1298q-29 0 -50.5 20.5t-21.5 51.5q0 33 21.5 53.5t50.5 20.5q30 0 52 -20.5t22 -53.5q0 -31 -22 -51.5t-52 -20.5zM637 1298q-30 0 -51 20t-21 52q0 33 21 53.5t51 20.5q29 0 50.5 -20.5t21.5 -53.5q0 -31 -21.5 -51.5t-50.5 -20.5zM506 -27q-170 0 -276.5 100.5 t-106.5 282.5v744h108v-738q0 -137 74.5 -212.5t200.5 -75.5q152 0 234.5 125t82.5 364q0 121 -26.5 265t-71.5 272h109q102 -291 102 -537q0 -281 -112 -435.5t-318 -154.5z" />
<glyph unicode="&#x3cc;" horiz-adv-x="1110" d="M508 1210l76 367h114l-90 -367h-100zM555 -27q-217 0 -341 151.5t-124 426.5q0 274 124 424.5t341 150.5t341 -150.5t124 -424.5q0 -275 -124 -426.5t-341 -151.5zM555 74q166 0 259 125t93 352q0 225 -93 350t-259 125q-167 0 -259.5 -124.5t-92.5 -350.5 q0 -227 92.5 -352t259.5 -125z" />
<glyph unicode="&#x3cd;" horiz-adv-x="1056" d="M422 1210l76 367h114l-90 -367h-100zM506 -27q-170 0 -276.5 100.5t-106.5 282.5v744h108v-738q0 -137 74.5 -212.5t200.5 -75.5q152 0 234.5 125t82.5 364q0 121 -26.5 265t-71.5 272h109q102 -291 102 -537q0 -281 -112 -435.5t-318 -154.5z" />
<glyph unicode="&#x3ce;" horiz-adv-x="1763" d="M834 1210l75 367h115l-90 -367h-100zM547 -27q-88 0 -159 29.5t-120 81.5t-82 125t-48 159t-15 185q0 259 102 547h109q-98 -276 -98 -547q0 -103 17.5 -187.5t53.5 -151t97.5 -103.5t144.5 -37q125 0 201.5 85.5t76.5 229.5v680h109v-680q0 -144 76.5 -229.5 t201.5 -85.5q83 0 145 37t98.5 103.5t54.5 151t18 187.5q0 274 -100 547h108q104 -280 104 -547q0 -124 -25 -227.5t-75 -183.5t-132.5 -124.5t-190.5 -44.5q-119 0 -207 62.5t-131 165.5q-41 -102 -129 -165t-205 -63z" />
<glyph unicode="&#x401;" horiz-adv-x="1210" d="M449 1622q-29 0 -50.5 20.5t-21.5 51.5q0 32 21.5 52.5t50.5 20.5q30 0 51.5 -20t21.5 -53q0 -31 -21.5 -51.5t-51.5 -20.5zM782 1622q-30 0 -50.5 20t-20.5 52q0 33 20.5 53t50.5 20q29 0 50.5 -20.5t21.5 -52.5q0 -31 -21.5 -51.5t-50.5 -20.5zM217 0v1423h789v-100 h-676v-553h592v-102h-592v-568h733v-100h-846z" />
<glyph unicode="&#x402;" horiz-adv-x="1531" d="M1018 854q198 0 311 -121t113 -303q0 -86 -30 -162.5t-86 -136.5t-146.5 -95.5t-202.5 -35.5v98q90 0 159 28t109 76t60 105.5t20 122.5q0 86 -34 157.5t-109 118t-181 46.5q-140 0 -233.5 -101.5t-93.5 -259.5v-391h-113v1323h-498v100h1108v-100h-497v-674 q43 92 136.5 148.5t207.5 56.5z" />
<glyph unicode="&#x403;" horiz-adv-x="1093" d="M369 1579l-39 80l485 239l41 -86zM217 0v1423h778v-100h-665v-1323h-113z" />
<glyph unicode="&#x404;" horiz-adv-x="1308" d="M1110 287l100 -39q-49 -116 -171 -195.5t-300 -79.5q-133 0 -245 48t-195 139t-129.5 232.5t-46.5 320.5q0 178 46.5 319t129.5 232t194.5 138.5t243.5 47.5q178 0 299 -78.5t172 -195.5l-106 -39q-109 209 -363 209q-218 0 -353.5 -149.5t-147.5 -436.5h624v-94h-624 q12 -288 148.5 -438t354.5 -150q260 0 369 209z" />
<glyph unicode="&#x405;" horiz-adv-x="1136" d="M578 -27q-155 0 -277.5 68.5t-185.5 189.5l102 43q51 -93 146.5 -144.5t214.5 -51.5q147 0 236 73.5t89 198.5q0 61 -26 110t-70.5 82.5t-101.5 62t-120.5 53.5t-127 51t-120.5 60t-101.5 76t-70.5 103t-26 137q0 164 120.5 264.5t309.5 100.5q153 0 264.5 -62 t167.5 -176l-106 -38q-42 82 -128.5 127t-197.5 45q-137 0 -224 -71.5t-87 -187.5q0 -60 26 -108t70.5 -81.5t101.5 -62t120.5 -53.5t127 -51.5t120.5 -60.5t101.5 -76t70.5 -102.5t26 -135.5q0 -173 -122 -278t-322 -105z" />
<glyph unicode="&#x406;" horiz-adv-x="546" d="M217 0v1423h113v-1423h-113z" />
<glyph unicode="&#x407;" horiz-adv-x="546" d="M106 1622q-29 0 -50 20.5t-21 51.5q0 33 21 53t50 20q30 0 52 -20t22 -53q0 -31 -22 -51.5t-52 -20.5zM440 1622q-30 0 -50.5 20t-20.5 52q0 33 20.5 53t50.5 20q29 0 50.5 -20.5t21.5 -52.5q0 -31 -21.5 -51.5t-50.5 -20.5zM217 0v1423h113v-1423h-113z" />
<glyph unicode="&#x408;" horiz-adv-x="942" d="M123 0v100h123q190 0 286.5 106.5t96.5 303.5v813h-426v100h538v-913q0 -248 -125.5 -379t-369.5 -131h-123z" />
<glyph unicode="&#x409;" horiz-adv-x="2142" d="M1620 770q104 0 187.5 -33t135 -87.5t78.5 -122.5t27 -142t-27 -142t-78.5 -122.5t-135 -87.5t-187.5 -33h-543v1323h-674l-61 -952q-13 -202 -94.5 -286.5t-237.5 -84.5v100q107 0 162 63t64 210l63 1050h891v-653h430zM1608 100q154 0 239.5 85.5t85.5 201.5 q0 114 -86 198.5t-239 84.5h-418v-570h418z" />
<glyph unicode="&#x40a;" horiz-adv-x="2248" d="M1726 770q104 0 187.5 -33t135 -87.5t78.5 -122.5t27 -142t-27 -142t-78.5 -122.5t-135 -87.5t-187.5 -33h-542v670h-854v-670h-113v1423h113v-653h854v653h112v-653h430zM1714 100q154 0 240 85.5t86 201.5q0 114 -86.5 198.5t-239.5 84.5h-418v-570h418z" />
<glyph unicode="&#x40b;" horiz-adv-x="1597" d="M1022 852q162 0 271.5 -104t109.5 -269v-479h-113v465q0 126 -82.5 205.5t-210.5 79.5q-130 0 -219.5 -87t-103.5 -225v-438h-115v1323h-496v100h1108v-100h-497v-672q46 90 140.5 145.5t207.5 55.5z" />
<glyph unicode="&#x40c;" horiz-adv-x="1196" d="M868 1812l-487 -233l-39 80l485 239zM588 774q91 -17 161.5 -77t119 -148.5t86.5 -178.5t85.5 -196.5t94.5 -173.5h-131q-31 44 -61.5 108.5t-55 125.5t-52.5 127.5t-60 122t-71 100.5t-92.5 70.5t-117.5 25.5h-164v-680h-113v1423h113v-643h151l256 475q42 77 88 121.5 t86.5 59t89.5 14.5q55 0 113 -20l-22 -101q-55 19 -82 19q-49 0 -91 -30t-85 -108z" />
<glyph unicode="&#x40e;" horiz-adv-x="1208" d="M604 1583q-108 0 -175 64.5t-67 191.5h91q0 -82 41 -127t110 -45t111.5 45.5t42.5 126.5h90q-1 -127 -68.5 -191.5t-175.5 -64.5zM1012 1423h121l-488 -1124q-81 -182 -181 -247.5t-259 -65.5l-8 102q57 0 100 10t89 36.5t86 80t75 135.5l-471 1073h121l407 -940z" />
<glyph unicode="&#x40f;" horiz-adv-x="1478" d="M1262 1423v-1423h-471v-367h-103v367h-471v1423h113v-1323h819v1323h113z" />
<glyph unicode="&#x410;" horiz-adv-x="1212" d="M1051 0l-131 381h-633l-129 -381h-115l494 1423h139l493 -1423h-118zM322 481h563l-283 828z" />
<glyph unicode="&#x411;" horiz-adv-x="1282" d="M760 770q104 0 187.5 -33t135 -87.5t78.5 -122.5t27 -142t-27 -142t-78.5 -122.5t-135 -87.5t-187.5 -33h-543v1423h623v-100h-510v-553h430zM748 100q154 0 239.5 85.5t85.5 201.5q0 114 -86 198.5t-239 84.5h-418v-570h418z" />
<glyph unicode="&#x412;" horiz-adv-x="1245" d="M217 0v1423h408q34 0 64 -2t73.5 -10t78.5 -21.5t72 -39.5t62 -61t41 -88t16 -118q0 -146 -63 -231.5t-162 -118.5v-2q47 -13 90 -38t83.5 -65.5t64.5 -103t24 -139.5q0 -88 -22.5 -155.5t-61 -110.5t-94.5 -70t-118 -38t-138 -11h-418zM330 774h276q150 0 229.5 74.5 t79.5 218.5q0 74 -24 125.5t-68.5 78.5t-95.5 38.5t-117 11.5h-280v-547zM330 100h295q164 0 244.5 69t80.5 218q0 139 -85 212t-247 73h-288v-572z" />
<glyph unicode="&#x413;" horiz-adv-x="1093" d="M217 0v1423h778v-100h-665v-1323h-113z" />
<glyph unicode="&#x414;" horiz-adv-x="1529" d="M1395 100v-467h-103v367h-1147v-367h-102v467h123q56 69 87 146.5t38 191.5l63 985h891v-1323h150zM283 100h850v1223h-676l-62 -885q-8 -121 -36.5 -198.5t-75.5 -139.5z" />
<glyph unicode="&#x415;" horiz-adv-x="1210" d="M217 0v1423h789v-100h-676v-553h592v-102h-592v-568h733v-100h-846z" />
<glyph unicode="&#x416;" horiz-adv-x="1843" d="M1235 774q91 -17 161.5 -77t119 -148.5t86.5 -178.5t85.5 -196.5t94.5 -173.5h-131q-31 44 -61.5 108.5t-55 125.5t-52.5 127.5t-60 122t-71 100.5t-92.5 70.5t-117.5 25.5h-162v-680h-115v680h-162q-74 0 -135 -35.5t-100 -90t-77 -130.5t-64 -147t-62 -149t-71 -128 h-132q47 67 94.5 173.5t85.5 196.5t86.5 178.5t119 148.5t161.5 77l-246 436q-43 78 -85 108t-91 30q-27 0 -82 -19l-22 101q58 20 113 20q49 0 89.5 -14.5t86.5 -59t88 -121.5l256 -475h149v643h115v-643h149l256 475q61 111 125 153t140 42q54 0 112 -20l-22 -101 q-55 19 -82 19q-49 0 -91 -30t-85 -108z" />
<glyph unicode="&#x417;" horiz-adv-x="1124" d="M555 -27q-96 0 -179 24t-141 65t-98.5 88t-64.5 100l102 43q45 -93 143.5 -154t241.5 -61q63 0 122 19t108 55.5t78.5 96t29.5 134.5q0 62 -22 113.5t-58.5 86t-85.5 58.5t-101.5 34.5t-107.5 10.5h-194v96h192q67 0 125 15t109 47.5t80.5 93t29.5 143.5q0 121 -91 193 t-216 72q-101 0 -185.5 -51.5t-129.5 -147.5l-107 41q57 123 170 192.5t254 69.5q177 0 299.5 -97.5t122.5 -260.5q0 -142 -69.5 -231t-184.5 -118v-2q47 -11 92.5 -34t91.5 -64t74.5 -108.5t28.5 -151.5q0 -185 -128.5 -297.5t-330.5 -112.5z" />
<glyph unicode="&#x418;" horiz-adv-x="1478" d="M1262 0h-113v1235l-819 -1235h-113v1423h113v-1233l817 1233h115v-1423z" />
<glyph unicode="&#x419;" horiz-adv-x="1478" d="M756 1583q-108 0 -175 64.5t-67 191.5h90q0 -82 41.5 -127t110.5 -45t111 45t42 127h90q-1 -128 -68.5 -192t-174.5 -64zM1262 0h-113v1235l-819 -1235h-113v1423h113v-1233l817 1233h115v-1423z" />
<glyph unicode="&#x41a;" horiz-adv-x="1196" d="M588 774q91 -17 161.5 -77t119 -148.5t86.5 -178.5t85.5 -196.5t94.5 -173.5h-131q-31 44 -61.5 108.5t-55 125.5t-52.5 127.5t-60 122t-71 100.5t-92.5 70.5t-117.5 25.5h-164v-680h-113v1423h113v-643h151l256 475q42 77 88 121.5t86.5 59t89.5 14.5q55 0 113 -20 l-22 -101q-55 19 -82 19q-49 0 -91 -30t-85 -108z" />
<glyph unicode="&#x41b;" horiz-adv-x="1406" d="M10 0v100q107 0 162 63t64 210l63 1050h891v-1423h-113v1323h-674l-61 -952q-13 -202 -94.5 -286.5t-237.5 -84.5z" />
<glyph unicode="&#x41c;" horiz-adv-x="1708" d="M217 0v1423h125l510 -938l514 938h125v-1423h-113v1221l-477 -877h-96l-475 877v-1221h-113z" />
<glyph unicode="&#x41d;" horiz-adv-x="1513" d="M217 0v1423h113v-653h854v653h112v-1423h-112v670h-854v-670h-113z" />
<glyph unicode="&#x41e;" horiz-adv-x="1388" d="M694 -27q-270 0 -420.5 186t-150.5 554q0 366 150.5 551.5t420.5 185.5t422 -185.5t152 -551.5q0 -367 -152 -553.5t-422 -186.5zM694 78q218 0 337.5 154t119.5 481q0 325 -119.5 479t-337.5 154q-456 0 -456 -633q0 -635 456 -635z" />
<glyph unicode="&#x41f;" horiz-adv-x="1478" d="M217 0v1423h1045v-1423h-113v1323h-819v-1323h-113z" />
<glyph unicode="&#x420;" horiz-adv-x="1150" d="M217 0v1423h404q199 0 314.5 -111.5t115.5 -303.5q0 -206 -121.5 -325.5t-331.5 -119.5h-268v-563h-113zM330 664h266q158 0 249 91t91 246q0 150 -88.5 236t-243.5 86h-274v-659z" />
<glyph unicode="&#x421;" horiz-adv-x="1308" d="M739 -27q-133 0 -245 48t-195 139t-129.5 232.5t-46.5 320.5q0 178 46.5 319t129.5 232t194.5 138.5t243.5 47.5q178 0 299 -78.5t172 -195.5l-106 -39q-109 209 -363 209q-227 0 -364 -161.5t-137 -471.5q0 -158 37.5 -280t105.5 -199t159 -116.5t201 -39.5 q260 0 369 209l100 -39q-49 -116 -171 -195.5t-300 -79.5z" />
<glyph unicode="&#x422;" horiz-adv-x="1251" d="M561 0v1323h-498v100h1108v-100h-497v-1323h-113z" />
<glyph unicode="&#x423;" horiz-adv-x="1208" d="M1012 1423h121l-488 -1124q-81 -182 -181 -247.5t-259 -65.5l-8 102q57 0 100 10t89 36.5t86 80t75 135.5l-471 1073h121l407 -940z" />
<glyph unicode="&#x424;" horiz-adv-x="1540" d="M713 -23v175h-29q-162 0 -293.5 68.5t-209 197.5t-77.5 295t77.5 295t209 197.5t293.5 68.5h29v172h112v-172h31q162 0 293.5 -68.5t209 -197.5t77.5 -295t-77.5 -295t-209 -197.5t-293.5 -68.5h-31v-175h-112zM686 252h27v922h-27q-130 0 -235 -55t-167.5 -161 t-62.5 -245t62.5 -245t167.5 -161t235 -55zM825 252h29q130 0 235 55t167.5 161t62.5 245t-62.5 245t-167.5 161t-235 55h-29v-922z" />
<glyph unicode="&#x425;" horiz-adv-x="1345" d="M1231 0h-137l-428 623l-430 -623h-125l491 717l-485 706h137l422 -614l411 614h123l-469 -708z" />
<glyph unicode="&#x426;" horiz-adv-x="1488" d="M1262 100h92v-467h-103v367h-1034v1423h113v-1323h819v1323h113v-1323z" />
<glyph unicode="&#x427;" horiz-adv-x="1216" d="M887 0v776q-45 -92 -140.5 -148.5t-209.5 -56.5q-162 0 -271.5 104t-109.5 269v479h112v-465q0 -125 82.5 -204.5t210.5 -79.5q141 0 233.5 99.5t92.5 254.5v395h112v-1423h-112z" />
<glyph unicode="&#x428;" horiz-adv-x="2410" d="M217 0v1423h113v-1323h819v1323h113v-1323h819v1323h112v-1423h-1976z" />
<glyph unicode="&#x429;" horiz-adv-x="2420" d="M2193 100h93v-467h-103v367h-1966v1423h113v-1323h819v1323h113v-1323h819v1323h112v-1323z" />
<glyph unicode="&#x42a;" horiz-adv-x="1515" d="M993 770q104 0 187.5 -33t135 -87.5t78.5 -122.5t27 -142t-27 -142t-78.5 -122.5t-135 -87.5t-187.5 -33h-542v1323h-426v100h538v-653h430zM981 100q154 0 240 85.5t86 201.5q0 114 -86.5 198.5t-239.5 84.5h-418v-570h418z" />
<glyph unicode="&#x42b;" horiz-adv-x="1687" d="M760 770q104 0 187.5 -33t135 -87.5t78.5 -122.5t27 -142t-27 -142t-78.5 -122.5t-135 -87.5t-187.5 -33h-543v1423h113v-653h430zM1356 1423h112v-1423h-112v1423zM748 100q154 0 239.5 85.5t85.5 201.5q0 114 -86 198.5t-239 84.5h-418v-570h418z" />
<glyph unicode="&#x42c;" horiz-adv-x="1282" d="M760 770q104 0 187.5 -33t135 -87.5t78.5 -122.5t27 -142t-27 -142t-78.5 -122.5t-135 -87.5t-187.5 -33h-543v1423h113v-653h430zM748 100q154 0 239.5 85.5t85.5 201.5q0 114 -86 198.5t-239 84.5h-418v-570h418z" />
<glyph unicode="&#x42d;" horiz-adv-x="1308" d="M571 1450q132 0 244 -47.5t195 -138.5t129.5 -232t46.5 -319q0 -179 -46.5 -320.5t-130 -232.5t-195.5 -139t-245 -48q-178 0 -300 79.5t-171 195.5l101 39q109 -209 368 -209q218 0 355 150t149 438h-625v94h625q-12 287 -147.5 436.5t-354.5 149.5q-253 0 -362 -209 l-107 39q51 117 172 195.5t299 78.5z" />
<glyph unicode="&#x42e;" horiz-adv-x="1929" d="M1235 1450q270 0 421.5 -185.5t151.5 -551.5q0 -368 -151.5 -554t-421.5 -186q-262 0 -412 175t-159 522h-334v-670h-113v1423h113v-653h334q13 338 163 509t408 171zM1235 78q218 0 337.5 154t119.5 481q0 325 -119.5 479t-337.5 154q-219 0 -338 -153.5t-119 -479.5 q0 -635 457 -635z" />
<glyph unicode="&#x42f;" horiz-adv-x="1222" d="M616 1423h390v-1423h-113v616h-127q-89 0 -161 -42.5t-125 -116t-93.5 -148.5t-88 -166t-87.5 -143h-129q42 59 94 157t91.5 176t100.5 162t126 134q-156 34 -241 144t-85 247q0 78 28.5 149t82.5 128.5t141.5 91.5t195.5 34zM893 717v606h-279q-156 0 -242.5 -89.5 t-86.5 -213.5t86.5 -213.5t242.5 -89.5h279z" />
<glyph unicode="&#x430;" horiz-adv-x="1114" d="M451 -27q-147 0 -239.5 80.5t-92.5 212.5q0 159 108.5 240.5t313.5 81.5h270v170q0 118 -76 193t-194 75q-98 0 -174.5 -51.5t-108.5 -138.5l-102 30q37 110 140.5 185t242.5 75q172 0 277.5 -100t105.5 -268v-469q0 -197 45 -289h-117q-34 66 -37 172 q-51 -90 -150 -144.5t-212 -54.5zM477 72q130 0 232 86.5t102 199.5v144h-268q-312 0 -312 -228q0 -89 69 -145.5t177 -56.5z" />
<glyph unicode="&#x431;" horiz-adv-x="1069" d="M535 1061q203 0 323.5 -144t120.5 -399t-120.5 -400t-323.5 -145t-324 145.5t-121 399.5q0 156 11 269.5t40.5 216.5t80 170.5t131.5 112.5t194 61q139 21 208 61t83 131l100 -18q-26 -125 -114 -183t-257 -86q-145 -21 -223 -98.5t-106 -208.5q115 115 297 115zM535 72 q150 0 241.5 118t91.5 328q0 208 -92 326.5t-241 118.5q-150 0 -241 -118t-91 -327q0 -210 91.5 -328t240.5 -118z" />
<glyph unicode="&#x432;" horiz-adv-x="1122" d="M193 0v1100h417q160 0 246 -81t86 -204q0 -54 -18 -99.5t-48 -75t-61 -48.5t-65 -29v-2q89 -22 151 -91.5t62 -170.5q0 -128 -95 -213.5t-274 -85.5h-401zM303 602h283q124 0 184.5 59t60.5 144q0 82 -57.5 140.5t-169.5 58.5h-301v-402zM303 96h283q131 0 197.5 61.5 t66.5 149.5q0 85 -67 146t-197 61h-283v-418z" />
<glyph unicode="&#x433;" horiz-adv-x="974" d="M193 0v1100h714v-96h-604v-1004h-110z" />
<glyph unicode="&#x434;" horiz-adv-x="1318" d="M1057 96h129v-458h-103v362h-956v-362h-102v458h106q46 55 71 113.5t31 144.5l54 746h770v-1004zM244 96h704v910h-559l-49 -654q-7 -91 -31 -149.5t-65 -106.5z" />
<glyph unicode="&#x435;" horiz-adv-x="1087" d="M893 281l96 -33q-50 -125 -168.5 -200t-257.5 -75q-214 0 -343.5 161t-129.5 429q0 258 124.5 410.5t332.5 152.5q129 0 229 -63.5t152.5 -170.5t52.5 -237v-86h-778v-6q0 -222 99 -356.5t267 -134.5q107 0 196 55t128 154zM545 1028q-137 0 -225.5 -96.5t-110.5 -265.5 h661q-2 159 -91.5 260.5t-233.5 101.5z" />
<glyph unicode="&#x436;" horiz-adv-x="1636" d="M1104 604q74 -16 131.5 -63t98 -115.5t72.5 -138.5t72.5 -152t80.5 -135h-132q-29 37 -59.5 96t-53 112.5t-53.5 111t-63.5 99t-82 68.5t-109.5 27h-132v-514h-112v514h-131q-71 0 -126.5 -36t-93.5 -97.5t-67.5 -125.5t-65 -138t-69.5 -117h-131q40 53 80.5 135 t72.5 152t72 138.5t97.5 115.5t131.5 63l-200 322q-35 58 -71 80t-77 22q-13 0 -25.5 -2.5t-27 -7t-16.5 -4.5l-23 92q54 20 98 20q69 0 127 -34t111 -123l213 -357h121v488h112v-488h121l213 357q53 89 111 123t127 34q44 0 98 -20l-22 -92q-56 14 -70 14q-41 0 -76 -21.5 t-71 -80.5z" />
<glyph unicode="&#x437;" horiz-adv-x="1028" d="M498 -27q-161 0 -267 65.5t-149 160.5l100 41q38 -70 119.5 -118t196.5 -48q110 0 193 61.5t83 167.5q0 56 -27 100t-72 70t-98 39.5t-110 13.5h-166v80h172q53 0 100 11t88 35t65 68.5t24 104.5q0 89 -74.5 144t-175.5 55q-85 0 -154.5 -38t-105.5 -107l-107 34 q47 95 145 154t222 59q153 0 258.5 -79t105.5 -207q0 -106 -57.5 -173t-153.5 -92v-2q39 -8 77.5 -27t76 -50t61 -82t23.5 -113q0 -147 -110 -237.5t-283 -90.5z" />
<glyph unicode="&#x438;" horiz-adv-x="1308" d="M1114 0h-108v938l-699 -938h-114v1100h110v-938l698 938h113v-1100z" />
<glyph unicode="&#x439;" horiz-adv-x="1308" d="M655 1260q-107 0 -174 64.5t-67 191.5h90q0 -82 41 -127.5t110 -45.5t111.5 45.5t42.5 127.5h90q-1 -127 -68.5 -191.5t-175.5 -64.5zM1114 0h-108v938l-699 -938h-114v1100h110v-938l698 938h113v-1100z" />
<glyph unicode="&#x43a;" horiz-adv-x="1067" d="M535 604q74 -16 131.5 -63t97.5 -115.5t72 -138.5t72.5 -152t80.5 -135h-131q-34 43 -69.5 117t-65 138t-67.5 125.5t-93.5 97.5t-126.5 36h-133v-514h-110v1100h110v-488h123l213 357q53 89 111 123t127 34q44 0 98 -20l-23 -92q-2 0 -16.5 4.5t-27 7t-25.5 2.5 q-41 0 -77 -22t-71 -80z" />
<glyph unicode="&#x43b;" horiz-adv-x="1222" d="M18 -8v96q91 0 137.5 47.5t53.5 157.5l53 807h768v-1100h-110v1004h-555l-52 -711q-12 -162 -84.5 -231.5t-210.5 -69.5z" />
<glyph unicode="&#x43c;" horiz-adv-x="1456" d="M193 0v1100h135l399 -719l403 719h132v-1100h-111v928l-377 -682h-94l-375 682v-928h-112z" />
<glyph unicode="&#x43d;" horiz-adv-x="1308" d="M193 0v1100h110v-494h703v494h110v-1100h-110v510h-703v-510h-110z" />
<glyph unicode="&#x43e;" horiz-adv-x="1110" d="M555 -27q-217 0 -341 151.5t-124 426.5q0 274 124 424.5t341 150.5t341 -150.5t124 -424.5q0 -275 -124 -426.5t-341 -151.5zM555 74q166 0 259 125t93 352q0 225 -93 350t-259 125q-167 0 -259.5 -124.5t-92.5 -350.5q0 -227 92.5 -352t259.5 -125z" />
<glyph unicode="&#x43f;" horiz-adv-x="1265" d="M193 0v1100h880v-1100h-110v1004h-660v-1004h-110z" />
<glyph unicode="&#x440;" horiz-adv-x="1210" d="M193 -399v1499h110v-230q15 44 42.5 85t71 81.5t110 65t145.5 24.5q209 0 328.5 -149t119.5 -426t-119.5 -427.5t-328.5 -150.5q-77 0 -143 24.5t-110 64t-71.5 78.5t-44.5 79v-618h-110zM653 72q166 0 260.5 126.5t94.5 352.5t-94 351.5t-261 125.5q-166 0 -258 -125 t-92 -352t92 -353t258 -126z" />
<glyph unicode="&#x441;" horiz-adv-x="1021" d="M549 -27q-200 0 -329.5 158t-129.5 420q0 260 129.5 417.5t329.5 157.5q144 0 247.5 -77t133.5 -195l-101 -33q-33 94 -108 149.5t-176 55.5q-151 0 -246.5 -131t-95.5 -344q0 -215 95.5 -346t246.5 -131q104 0 186.5 54t120.5 148l98 -26q-44 -124 -155 -200.5 t-246 -76.5z" />
<glyph unicode="&#x442;" horiz-adv-x="1073" d="M481 0v1004h-420v96h951v-96h-420v-1004h-111z" />
<glyph unicode="&#x443;" horiz-adv-x="1062" d="M866 1100h117l-442 -1184q-35 -95 -88.5 -163.5t-118 -106.5t-130.5 -55t-138 -17l-11 104q56 0 109.5 13.5t106.5 43t96.5 83t70.5 125.5l21 55l-439 1102h121l373 -953z" />
<glyph unicode="&#x444;" horiz-adv-x="1333" d="M612 -399v399q-232 15 -377 162.5t-145 388.5t144.5 387.5t377.5 161.5v436h109v-436q232 -15 376 -161.5t144 -387.5t-144 -388.5t-376 -162.5v-399h-109zM612 98v903q-186 -12 -297.5 -130t-111.5 -320q0 -208 111 -324.5t298 -128.5zM721 98q186 12 296.5 128.5 t110.5 324.5q0 202 -111 320t-296 130v-903z" />
<glyph unicode="&#x445;" horiz-adv-x="1001" d="M938 0h-131l-311 463l-310 -463h-125l373 553l-368 547h131l307 -455l303 455h125l-371 -543z" />
<glyph unicode="&#x446;" horiz-adv-x="1277" d="M1057 96h88v-458h-103v362h-849v1100h110v-1004h643v1004h111v-1004z" />
<glyph unicode="&#x447;" horiz-adv-x="1030" d="M725 0v557q-49 -74 -132 -112.5t-175 -38.5q-126 0 -216.5 75t-90.5 215v404h110v-389q0 -102 63.5 -156.5t157.5 -54.5q71 0 134 29t106 91t43 144v336h113v-1100h-113z" />
<glyph unicode="&#x448;" horiz-adv-x="2019" d="M193 0v1100h110v-1004h660v1004h110v-1004h643v1004h109v-1100h-1632z" />
<glyph unicode="&#x449;" horiz-adv-x="2045" d="M1825 96h90v-458h-103v362h-1619v1100h110v-1004h660v1004h110v-1004h643v1004h109v-1004z" />
<glyph unicode="&#x44a;" horiz-adv-x="1310" d="M858 614q158 0 247 -91t89 -216q0 -58 -21.5 -112t-62 -98t-106 -70.5t-146.5 -26.5h-465v1004h-350v96h461v-486h354zM844 96q113 0 175 63.5t62 147.5q0 85 -62 148t-175 63h-340v-422h340z" />
<glyph unicode="&#x44b;" horiz-adv-x="1441" d="M657 614q158 0 247 -91t89 -216q0 -58 -21.5 -112t-62 -98t-106 -70.5t-146.5 -26.5h-464v1100h110v-486h354zM1139 1100h110v-1100h-110v1100zM643 96q113 0 175.5 63.5t62.5 147.5q0 85 -62.5 148t-175.5 63h-340v-422h340z" />
<glyph unicode="&#x44c;" horiz-adv-x="1107" d="M657 614q158 0 247 -91t89 -216q0 -58 -21.5 -112t-62 -98t-106 -70.5t-146.5 -26.5h-464v1100h110v-486h354zM643 96q113 0 175.5 63.5t62.5 147.5q0 85 -62.5 148t-175.5 63h-340v-422h340z" />
<glyph unicode="&#x44d;" horiz-adv-x="1075" d="M463 1126q112 0 207 -37.5t165.5 -108.5t110 -181t39.5 -248q0 -274 -146 -426t-378 -152q-149 0 -257.5 66t-150.5 158l99 41q39 -69 120 -116.5t189 -47.5q174 0 285.5 110t123.5 318h-520v94h520q-10 207 -122 318.5t-287 111.5q-108 0 -186 -46t-117 -116l-99 41 q43 90 149.5 155.5t254.5 65.5z" />
<glyph unicode="&#x44e;" horiz-adv-x="1613" d="M1059 1126q217 0 341 -150.5t124 -424.5q0 -275 -124 -426.5t-341 -151.5q-207 0 -331 140t-134 393h-291v-506h-110v1100h110v-498h293q10 250 133.5 387t329.5 137zM1059 74q166 0 259 125t93 352q0 225 -93 350t-259 125q-167 0 -259.5 -124.5t-92.5 -350.5 q0 -227 92.5 -352t259.5 -125z" />
<glyph unicode="&#x44f;" horiz-adv-x="1071" d="M537 1100h340v-1100h-111v461h-102q-74 0 -133.5 -31.5t-103 -86.5t-76.5 -111t-72.5 -124.5t-71.5 -107.5h-131q34 43 76 114.5t74 130.5t81 124t101 106q-123 31 -189.5 116t-66.5 189q0 61 24.5 117.5t70.5 102t121.5 73t168.5 27.5zM766 559v442h-234 q-125 0 -195.5 -65.5t-70.5 -155.5t70.5 -155.5t195.5 -65.5h234z" />
<glyph unicode="&#x451;" horiz-adv-x="1087" d="M369 1298q-29 0 -50.5 20.5t-21.5 51.5q0 33 21.5 53.5t50.5 20.5q30 0 51.5 -20.5t21.5 -53.5q0 -31 -21.5 -51.5t-51.5 -20.5zM702 1298q-30 0 -50.5 20t-20.5 52q0 33 20.5 53.5t50.5 20.5q29 0 50.5 -20.5t21.5 -53.5q0 -31 -21.5 -51.5t-50.5 -20.5zM893 281l96 -33 q-50 -125 -168.5 -200t-257.5 -75q-214 0 -343.5 161t-129.5 429q0 258 124.5 410.5t332.5 152.5q129 0 229 -63.5t152.5 -170.5t52.5 -237v-86h-778v-6q0 -222 99 -356.5t267 -134.5q107 0 196 55t128 154zM545 1028q-137 0 -225.5 -96.5t-110.5 -265.5h661 q-2 159 -91.5 260.5t-233.5 101.5z" />
<glyph unicode="&#x452;" horiz-adv-x="1126" d="M610 1126q165 0 271 -110t106 -324v-743q0 -102 -23.5 -171.5t-69.5 -107.5t-102.5 -53.5t-134.5 -15.5v96q111 0 166.5 54t55.5 192v739q0 164 -82.5 252t-206.5 88q-122 0 -209.5 -93.5t-87.5 -264.5v-664h-111v1337h-127v86h127v113h111v-113h323v-86h-323v-413 q33 79 115.5 140.5t201.5 61.5z" />
<glyph unicode="&#x453;" horiz-adv-x="974" d="M252 1255l-39 80l485 240l41 -86zM193 0v1100h714v-96h-604v-1004h-110z" />
<glyph unicode="&#x454;" horiz-adv-x="1075" d="M924 238l98 -41q-42 -92 -150.5 -158t-257.5 -66q-232 0 -378 152t-146 426q0 138 39.5 248t110 181t165.5 108.5t207 37.5q148 0 254.5 -65.5t149.5 -155.5l-98 -41q-39 69 -117.5 115.5t-186.5 46.5q-175 0 -287 -111.5t-122 -318.5h520v-94h-520q12 -208 123.5 -318 t285.5 -110q108 0 189.5 47.5t120.5 116.5z" />
<glyph unicode="&#x455;" horiz-adv-x="962" d="M500 -27q-158 0 -264.5 71t-153.5 179l82 53q44 -92 130.5 -149t203.5 -57q104 0 177 57t73 143q0 53 -27 93.5t-71 65t-100 47.5t-114.5 40t-114.5 44t-100 59t-71 85t-27 121q0 136 98 218.5t260 82.5q131 0 230 -56t143 -146l-82 -58q-40 76 -116.5 120t-172.5 44 q-109 0 -178 -55t-69 -144q0 -59 34.5 -101.5t89.5 -69t121.5 -48.5t133 -48t121.5 -60t89.5 -92t34.5 -136q0 -133 -104 -218t-256 -85z" />
<glyph unicode="&#x456;" horiz-adv-x="495" d="M250 1389q-32 0 -55 21.5t-23 55.5q0 33 23 54.5t55 21.5t55 -21.5t23 -54.5q0 -34 -23 -55.5t-55 -21.5zM193 0v1100h110v-1100h-110z" />
<glyph unicode="&#x457;" horiz-adv-x="495" d="M82 1298q-29 0 -50.5 20.5t-21.5 51.5q0 33 21.5 53.5t50.5 20.5q30 0 52 -20.5t22 -53.5q0 -31 -22 -51.5t-52 -20.5zM416 1298q-30 0 -51 20t-21 52q0 33 21 53.5t51 20.5q29 0 50 -20.5t21 -53.5q0 -31 -21 -51.5t-50 -20.5zM193 0v1100h110v-1100h-110z" />
<glyph unicode="&#x458;" horiz-adv-x="499" d="M252 1389q-32 0 -55 21.5t-23 55.5q0 33 23 54.5t55 21.5t55 -21.5t23 -54.5q0 -34 -23 -55.5t-55 -21.5zM-27 -426v96q112 0 168 53.5t56 192.5v1184h108v-1178q0 -102 -23.5 -171.5t-69.5 -107.5t-103 -53.5t-136 -15.5z" />
<glyph unicode="&#x459;" horiz-adv-x="1835" d="M1384 614q158 0 247 -91t89 -216q0 -58 -21.5 -112t-62 -98t-106 -70.5t-146.5 -26.5h-464v1004h-555l-52 -711q-12 -162 -84.5 -231.5t-210.5 -69.5v96q91 0 137.5 47.5t53.5 157.5l53 807h768v-486h354zM1370 96q113 0 175.5 63.5t62.5 147.5q0 85 -62.5 148t-175.5 63 h-340v-422h340z" />
<glyph unicode="&#x45a;" horiz-adv-x="1921" d="M1470 614q158 0 247 -91t89 -216q0 -58 -21.5 -112t-62 -98t-106 -70.5t-146.5 -26.5h-464v510h-703v-510h-110v1100h110v-494h703v494h110v-486h354zM1456 96q113 0 175.5 63.5t62.5 147.5q0 85 -62.5 148t-175.5 63h-340v-422h340z" />
<glyph unicode="&#x45b;" horiz-adv-x="1198" d="M625 1126q167 0 273 -111t106 -317v-698h-109v682q0 163 -83 251.5t-210 88.5q-57 0 -110 -22.5t-95.5 -65.5t-68 -113t-25.5 -157v-664h-110v1337h-175v86h175v113h110v-113h277v-86h-277v-411q39 81 122.5 140.5t199.5 59.5z" />
<glyph unicode="&#x45c;" horiz-adv-x="1067" d="M795 1489l-488 -234l-39 80l486 240zM535 604q74 -16 131.5 -63t97.5 -115.5t72 -138.5t72.5 -152t80.5 -135h-131q-34 43 -69.5 117t-65 138t-67.5 125.5t-93.5 97.5t-126.5 36h-133v-514h-110v1100h110v-488h123l213 357q53 89 111 123t127 34q44 0 98 -20l-23 -92 q-2 0 -16.5 4.5t-27 7t-25.5 2.5q-41 0 -77 -22t-71 -80z" />
<glyph unicode="&#x45e;" horiz-adv-x="1062" d="M512 1260q-108 0 -175 64.5t-67 191.5h90q0 -82 41.5 -127.5t110.5 -45.5t111.5 45.5t42.5 127.5h90q-1 -127 -68.5 -191.5t-175.5 -64.5zM866 1100h117l-442 -1184q-35 -95 -88.5 -163.5t-118 -106.5t-130.5 -55t-138 -17l-11 104q56 0 109.5 13.5t106.5 43t96.5 83 t70.5 125.5l21 55l-439 1102h121l373 -953z" />
<glyph unicode="&#x45f;" horiz-adv-x="1265" d="M1073 1100v-1100h-387v-362h-102v362h-391v1100h110v-1004h660v1004h110z" />
<glyph unicode="&#x462;" horiz-adv-x="1343" d="M821 770q104 0 187.5 -33t135 -87.5t78.5 -122.5t27 -142t-27 -142t-78.5 -122.5t-135 -87.5t-187.5 -33h-542v1149h-297v94h297v180h112v-180h330v-94h-330v-379h430zM809 100q154 0 240 85.5t86 201.5q0 114 -86.5 198.5t-239.5 84.5h-418v-570h418z" />
<glyph unicode="&#x463;" horiz-adv-x="1120" d="M672 608q81 0 146.5 -26t105.5 -69.5t61 -96.5t21 -111t-21 -112t-61 -97.5t-105.5 -69.5t-146.5 -26h-336v1004h-293v96h293v436h108v-436h291v-96h-291v-396h228zM662 96q110 0 170.5 62.5t60.5 146.5q0 83 -60.5 145t-170.5 62h-218v-416h218z" />
<glyph unicode="&#x472;" horiz-adv-x="1388" d="M694 1450q270 0 422 -185.5t152 -551.5q0 -367 -152 -553.5t-422 -186.5t-420.5 186t-150.5 554q0 366 150.5 551.5t420.5 185.5zM694 1346q-217 0 -336 -151.5t-120 -471.5q77 80 196 80q98 0 254 -40t252 -40q79 0 135.5 34t69.5 93q-50 496 -451 496zM694 78 q214 0 333.5 148.5t123.5 463.5q-78 -72 -211 -72q-106 0 -262 40t-240 40q-75 0 -128 -38t-66 -93q25 -251 141.5 -370t308.5 -119z" />
<glyph unicode="&#x473;" horiz-adv-x="1105" d="M555 1126q217 0 341 -150.5t124 -424.5q0 -275 -124 -426.5t-341 -151.5t-341 151.5t-124 426.5q0 274 124 424.5t341 150.5zM555 1026q-164 0 -256.5 -120.5t-95.5 -338.5q62 58 147 58q75 -1 195.5 -32.5t197.5 -31.5q59 0 102.5 25t55.5 69q-20 179 -110 275t-236 96z M555 74q163 0 255.5 119t96.5 337q-58 -55 -164 -55q-82 0 -203 32.5t-186 31.5q-53 -1 -92 -25.5t-55 -60.5q20 -182 109.5 -280.5t238.5 -98.5z" />
<glyph unicode="&#x474;" horiz-adv-x="1327" d="M557 0l-522 1423h125l465 -1282l393 1080q43 121 93.5 169t123.5 48q36 0 86 -15l-16 -104q-27 8 -52 8q-42 0 -70.5 -30t-62.5 -121l-432 -1176h-131z" />
<glyph unicode="&#x475;" horiz-adv-x="1187" d="M479 0l-418 1100h125l357 -946l299 780q37 99 83 138.5t113 39.5q33 0 80 -14l-16 -105q-24 8 -45 8q-36 0 -61.5 -24t-53.5 -92l-342 -885h-121z" />
<glyph unicode="&#x490;" horiz-adv-x="1093" d="M893 1679h102v-356h-665v-1323h-113v1423h676v256z" />
<glyph unicode="&#x491;" horiz-adv-x="974" d="M811 1341h96v-337h-604v-1004h-110v1100h618v241z" />
<glyph unicode="&#x492;" horiz-adv-x="1093" d="M995 1323h-665v-563h360v-94h-360v-666h-113v666h-231v94h231v663h778v-100z" />
<glyph unicode="&#x493;" horiz-adv-x="901" d="M799 1004h-420v-396h242v-86h-242v-522h-111v522h-209v86h209v492h531v-96z" />
<glyph unicode="&#x496;" horiz-adv-x="1843" d="M1722 100h105v-467h-103v367h-73q-31 44 -61.5 108.5t-55 125.5t-52.5 127.5t-60 122t-71 100.5t-92.5 70.5t-117.5 25.5h-162v-680h-115v680h-162q-74 0 -135 -35.5t-100 -90t-77 -130.5t-64 -147t-62 -149t-71 -128h-132q47 67 94.5 173.5t85.5 196.5t86.5 178.5 t119 148.5t161.5 77l-246 436q-43 78 -85 108t-91 30q-27 0 -82 -19l-22 101q58 20 113 20q49 0 89.5 -14.5t86.5 -59t88 -121.5l256 -475h149v643h115v-643h149l256 475q61 111 125 153t140 42q54 0 112 -20l-22 -101q-55 19 -82 19q-49 0 -91 -30t-85 -108l-246 -436 q68 -13 125 -51.5t96 -87.5t77.5 -120.5t64 -133.5t61 -144.5t63.5 -136.5z" />
<glyph unicode="&#x497;" horiz-adv-x="1636" d="M1497 96h100v-458h-102v362h-68q-29 37 -59.5 96t-53 112.5t-53.5 111t-63.5 99t-82 68.5t-109.5 27h-132v-514h-112v514h-131q-71 0 -126.5 -36t-93.5 -97.5t-67.5 -125.5t-65 -138t-69.5 -117h-131q40 53 80.5 135t72.5 152t72 138.5t97.5 115.5t131.5 63l-200 322 q-35 58 -71 80t-77 22q-13 0 -25.5 -2.5t-27 -7t-16.5 -4.5l-23 92q54 20 98 20q69 0 127 -34t111 -123l213 -357h121v488h112v-488h121l213 357q53 89 111 123t127 34q44 0 98 -20l-22 -92q-56 14 -70 14q-41 0 -76 -21.5t-71 -80.5l-201 -322q54 -11 99.5 -40.5t76.5 -66 t62.5 -90t52.5 -99t50.5 -108.5t51.5 -104z" />
<glyph unicode="&#x498;" horiz-adv-x="1124" d="M1014 383q0 -165 -103.5 -273t-273.5 -130q-2 -68 -16 -120t-45.5 -97t-90 -69t-141.5 -24v90q52 0 89 16t57.5 47t30 66.5t11.5 83.5q-176 6 -292.5 86t-167.5 191l102 43q45 -93 143.5 -154t241.5 -61q63 0 122 19t108 55.5t78.5 96t29.5 134.5q0 62 -22 113.5 t-58.5 86t-85.5 58.5t-101.5 34.5t-107.5 10.5h-194v96h192q67 0 125 15t109 47.5t80.5 93t29.5 143.5q0 121 -91 193t-216 72q-101 0 -185.5 -51.5t-129.5 -147.5l-107 41q57 123 170 192.5t254 69.5q177 0 299.5 -97.5t122.5 -260.5q0 -142 -69.5 -231t-184.5 -118v-2 q47 -11 92.5 -34t91.5 -64t74.5 -108.5t28.5 -151.5z" />
<glyph unicode="&#x499;" horiz-adv-x="1028" d="M891 301q0 -131 -90 -219t-236 -105q-3 -54 -11.5 -96.5t-29 -83t-52 -67.5t-82.5 -43.5t-118 -16.5v90q52 0 89.5 16t57.5 47t30 67t12 83q-146 8 -242 72.5t-137 153.5l100 41q38 -70 119.5 -118t196.5 -48q110 0 193 61.5t83 167.5q0 56 -27 100t-72 70t-98 39.5 t-110 13.5h-166v80h172q53 0 100 11t88 35t65 68.5t24 104.5q0 89 -74.5 144t-175.5 55q-85 0 -154.5 -38t-105.5 -107l-107 34q47 95 145 154t222 59q153 0 258.5 -79t105.5 -207q0 -106 -57.5 -173t-153.5 -92v-2q39 -8 77.5 -27t76 -50t61 -82t23.5 -113z" />
<glyph unicode="&#x49a;" horiz-adv-x="1196" d="M1075 100h109v-467h-103v367h-77q-31 44 -61.5 108.5t-55 125.5t-52.5 127.5t-60 122t-71 100.5t-92.5 70.5t-117.5 25.5h-164v-680h-113v1423h113v-643h151l256 475q42 77 88 121.5t86.5 59t89.5 14.5q55 0 113 -20l-22 -101q-55 19 -82 19q-49 0 -91 -30t-85 -108 l-246 -436q68 -13 125 -51.5t96 -87.5t77.5 -120.5t64 -133.5t61 -144.5t63.5 -136.5z" />
<glyph unicode="&#x49b;" horiz-adv-x="1067" d="M928 96h102v-458h-102v362h-70q-34 43 -69.5 117t-65 138t-67.5 125.5t-93.5 97.5t-126.5 36h-133v-514h-110v1100h110v-488h123l213 357q53 89 111 123t127 34q44 0 98 -20l-23 -92q-2 0 -16.5 4.5t-27 7t-25.5 2.5q-41 0 -77 -22t-71 -80l-200 -322q54 -11 99.5 -40.5 t76.5 -66t62.5 -90t52.5 -99t50.5 -108.5t51.5 -104z" />
<glyph unicode="&#x4a0;" horiz-adv-x="1429" d="M821 774q91 -17 161.5 -77t119 -148.5t86.5 -178.5t85.5 -196.5t94.5 -173.5h-131q-31 44 -61.5 108.5t-55 125.5t-52.5 127.5t-60 122t-71 100.5t-92.5 70.5t-117.5 25.5h-164v-680h-112v1323h-426v100h538v-643h152l256 475q42 77 88 121.5t86.5 59t89.5 14.5 q55 0 113 -20l-23 -101q-55 19 -82 19q-49 0 -91 -30t-85 -108z" />
<glyph unicode="&#x4a1;" horiz-adv-x="1247" d="M715 604q74 -16 131.5 -63t97.5 -115.5t72 -138.5t72.5 -152t80.5 -135h-131q-34 43 -69.5 117t-65 138t-67.5 125.5t-93.5 97.5t-126.5 36h-133v-514h-110v1004h-336v96h446v-488h123l213 357q53 89 111 123t127 34q44 0 98 -20l-22 -92q-56 14 -70 14q-41 0 -77 -22 t-71 -80z" />
<glyph unicode="&#x4a2;" horiz-adv-x="1513" d="M1296 100h111v-467h-102v367h-121v670h-854v-670h-113v1423h113v-653h854v653h112v-1323z" />
<glyph unicode="&#x4a3;" horiz-adv-x="1308" d="M1116 96h92v-458h-102v362h-100v510h-703v-510h-110v1100h110v-494h703v494h110v-1004z" />
<glyph unicode="&#x4aa;" horiz-adv-x="1308" d="M1210 248q-29 -70 -84 -127.5t-146 -98.5t-200 -47q-3 -68 -17 -118.5t-45 -95t-89.5 -68t-141.5 -23.5v90q52 0 89.5 16.5t58.5 47.5t31 67.5t12 83.5q-122 11 -223 63.5t-175.5 143.5t-115.5 226.5t-41 304.5q0 178 46.5 319t129.5 232t194.5 138.5t243.5 47.5 q178 0 299 -78.5t172 -195.5l-106 -39q-109 209 -363 209q-227 0 -364 -161.5t-137 -471.5q0 -158 37.5 -280t105.5 -199t159 -116.5t201 -39.5q260 0 369 209z" />
<glyph unicode="&#x4ab;" horiz-adv-x="1021" d="M950 250q-39 -113 -135 -187t-217 -88q-3 -53 -11.5 -95t-29 -82.5t-52 -67.5t-82.5 -43.5t-118 -16.5v90q53 0 90 16.5t58 48t31 68t12 84.5q-181 21 -293.5 175t-112.5 399q0 260 129.5 417.5t329.5 157.5q144 0 247.5 -77t133.5 -195l-101 -33q-33 94 -108 149.5 t-176 55.5q-151 0 -246.5 -131t-95.5 -344q0 -215 95.5 -346t246.5 -131q104 0 186.5 54t120.5 148z" />
<glyph unicode="&#x4ae;" horiz-adv-x="1220" d="M553 0v530l-479 893h127l409 -766l410 766h127l-481 -893v-530h-113z" />
<glyph unicode="&#x4af;" horiz-adv-x="1036" d="M487 -399v485l-409 1014h127l338 -905l338 905h125l-408 -1014v-485h-111z" />
<glyph unicode="&#x4b0;" horiz-adv-x="1220" d="M666 530v-98h319v-94h-319v-338h-113v338h-322v94h322v98l-479 893h127l409 -766l410 766h127z" />
<glyph unicode="&#x4b1;" horiz-adv-x="1036" d="M1006 1100l-408 -1014h317v-86h-317v-399h-111v399h-319v86h319l-409 1014h127l338 -905l338 905h125z" />
<glyph unicode="&#x4b2;" horiz-adv-x="1345" d="M1161 100h109v-467h-103v367h-73l-428 623l-430 -623h-125l491 717l-485 706h137l422 -614l411 614h123l-469 -708z" />
<glyph unicode="&#x4b3;" horiz-adv-x="1001" d="M872 96h97v-458h-103v362h-59l-311 463l-310 -463h-125l373 553l-368 547h131l307 -455l303 455h125l-371 -543z" />
<glyph unicode="&#x4b6;" horiz-adv-x="1216" d="M999 100h103v-467h-103v367h-112v776q-45 -92 -140.5 -148.5t-209.5 -56.5q-162 0 -271.5 104t-109.5 269v479h112v-465q0 -125 82.5 -204.5t210.5 -79.5q141 0 233.5 99.5t92.5 254.5v395h112v-1323z" />
<glyph unicode="&#x4b7;" horiz-adv-x="1030" d="M838 96h49v-458h-103v362h-59v557q-49 -74 -132 -112.5t-175 -38.5q-126 0 -216.5 75t-90.5 215v404h110v-389q0 -102 63.5 -156.5t157.5 -54.5q71 0 134 29t106 91t43 144v336h113v-1004z" />
<glyph unicode="&#x4ba;" horiz-adv-x="1228" d="M305 1423v-776q45 92 140.5 148.5t209.5 56.5q162 0 271.5 -104t109.5 -269v-479h-112v465q0 126 -82.5 205.5t-210.5 79.5q-141 0 -233.5 -100t-92.5 -255v-395h-112v1423h112z" />
<glyph unicode="&#x4bb;" horiz-adv-x="1198" d="M625 1126q167 0 273 -111t106 -317v-698h-109v682q0 163 -83 251.5t-210 88.5q-57 0 -110 -22.5t-95.5 -65.5t-68 -113t-25.5 -157v-664h-110v1536h110v-610q39 81 122.5 140.5t199.5 59.5z" />
<glyph unicode="&#x4c0;" horiz-adv-x="546" d="M217 0v1423h113v-1423h-113z" />
<glyph unicode="&#x4c9;" horiz-adv-x="1513" d="M1296 100h115l-135 -467h-96l98 367h-94v670h-854v-670h-113v1423h113v-653h854v653h112v-1323z" />
<glyph unicode="&#x4ca;" horiz-adv-x="1316" d="M1116 100h119l-135 -467h-96l98 367h-96v510h-703v-510h-110v1100h110v-494h703v494h110v-1000z" />
<glyph unicode="&#x4cf;" horiz-adv-x="495" d="M193 0v1100h110v-1100h-110z" />
<glyph unicode="&#x4d8;" horiz-adv-x="1366" d="M670 1450q269 0 421 -185.5t152 -543.5q0 -359 -152 -553.5t-415 -194.5q-255 0 -405 176.5t-150 464.5v70h1007v37q0 313 -121.5 469t-334.5 156q-151 0 -260.5 -73.5t-163.5 -199.5l-96 37q69 162 203.5 251t314.5 89zM676 78q190 0 306 129.5t140 384.5h-889 q3 -230 122.5 -372t320.5 -142z" />
<glyph unicode="&#x4d9;" horiz-adv-x="1056" d="M500 1126q215 0 341 -152t126 -423t-126.5 -424.5t-340.5 -153.5q-129 0 -230.5 70.5t-155 185t-53.5 250.5v76h793q-1 225 -94 348t-258 123q-110 0 -189 -55.5t-120 -151.5l-103 33q53 129 160 201.5t250 72.5zM500 72q150 0 241.5 101.5t108.5 289.5h-678 q0 -162 91 -276.5t237 -114.5z" />
<glyph unicode="&#x4e2;" horiz-adv-x="1478" d="M1014 1749v-88h-516v88h516zM1262 0h-113v1235l-819 -1235h-113v1423h113v-1233l817 1233h115v-1423z" />
<glyph unicode="&#x4e3;" horiz-adv-x="1308" d="M913 1425v-88h-516v88h516zM1114 0h-108v938l-699 -938h-114v1100h110v-938l698 938h113v-1100z" />
<glyph unicode="&#x4e8;" horiz-adv-x="1388" d="M694 1450q270 0 422 -185.5t152 -551.5q0 -367 -152 -553.5t-422 -186.5t-420.5 186t-150.5 554q0 366 150.5 551.5t420.5 185.5zM694 1346q-210 0 -328.5 -142.5t-127.5 -443.5h913q-9 300 -128.5 443t-328.5 143zM694 78q209 0 328.5 143t128.5 445h-913 q9 -302 127.5 -445t328.5 -143z" />
<glyph unicode="&#x4e9;" horiz-adv-x="1110" d="M555 1126q217 0 341 -150.5t124 -424.5q0 -275 -124 -426.5t-341 -151.5t-341 151.5t-124 426.5q0 274 124 424.5t341 150.5zM555 1026q-159 0 -251 -113t-101 -319h704q-9 205 -101.5 318.5t-250.5 113.5zM555 74q158 0 250.5 113.5t101.5 320.5h-704 q9 -207 100.5 -320.5t251.5 -113.5z" />
<glyph unicode="&#x4ee;" horiz-adv-x="1208" d="M862 1749v-88h-516v88h516zM1012 1423h121l-488 -1124q-81 -182 -181 -247.5t-259 -65.5l-8 102q57 0 100 10t89 36.5t86 80t75 135.5l-471 1073h121l407 -940z" />
<glyph unicode="&#x4ef;" horiz-adv-x="1062" d="M770 1425v-88h-516v88h516zM866 1100h117l-442 -1184q-35 -95 -88.5 -163.5t-118 -106.5t-130.5 -55t-138 -17l-11 104q56 0 109.5 13.5t106.5 43t96.5 83t70.5 125.5l21 55l-439 1102h121l373 -953z" />
<glyph unicode="&#x1e80;" horiz-adv-x="1939" d="M1171 1579l-487 233l41 86l485 -239zM477 0l-381 1423h121l334 -1286l346 1286h145l347 -1286l333 1286h121l-381 -1423h-143l-348 1274l-350 -1274h-144z" />
<glyph unicode="&#x1e81;" horiz-adv-x="1705" d="M1055 1255l-488 234l41 86l486 -240zM426 0l-342 1100h111l297 -963l301 963h129l295 -963l294 963h111l-342 -1100h-125l-299 973l-305 -973h-125z" />
<glyph unicode="&#x1e82;" horiz-adv-x="1939" d="M733 1579l-39 80l486 239l41 -86zM477 0l-381 1423h121l334 -1286l346 1286h145l347 -1286l333 1286h121l-381 -1423h-143l-348 1274l-350 -1274h-144z" />
<glyph unicode="&#x1e83;" horiz-adv-x="1705" d="M616 1255l-38 80l485 240l41 -86zM426 0l-342 1100h111l297 -963l301 963h129l295 -963l294 963h111l-342 -1100h-125l-299 973l-305 -973h-125z" />
<glyph unicode="&#x1e84;" horiz-adv-x="1939" d="M803 1622q-29 0 -50.5 20.5t-21.5 51.5q0 32 21.5 52.5t50.5 20.5q30 0 52 -20t22 -53q0 -31 -22 -51.5t-52 -20.5zM1137 1622q-30 0 -51 20t-21 52q0 33 21 53t51 20q29 0 50 -20t21 -53q0 -31 -21 -51.5t-50 -20.5zM477 0l-381 1423h121l334 -1286l346 1286h145 l347 -1286l333 1286h121l-381 -1423h-143l-348 1274l-350 -1274h-144z" />
<glyph unicode="&#x1e85;" horiz-adv-x="1705" d="M686 1298q-29 0 -50.5 20.5t-21.5 51.5q0 33 21.5 53.5t50.5 20.5q30 0 52 -20.5t22 -53.5q0 -31 -22 -51.5t-52 -20.5zM1020 1298q-30 0 -51 20t-21 52q0 33 21 53.5t51 20.5q29 0 50.5 -20.5t21.5 -53.5q0 -31 -21.5 -51.5t-50.5 -20.5zM426 0l-342 1100h111l297 -963 l301 963h129l295 -963l294 963h111l-342 -1100h-125l-299 973l-305 -973h-125z" />
<glyph unicode="&#x1e9e;" horiz-adv-x="1421" d="M883 -27q-109 0 -202 54.5t-146 154.5l79 64q40 -81 113.5 -124.5t155.5 -43.5q124 0 208.5 91.5t84.5 242.5q0 142 -97.5 240t-273.5 98q-47 0 -82 -21l-45 80l350 395q-120 142 -334 142q-70 0 -133.5 -23.5t-116 -69.5t-83.5 -122t-31 -173v-958h-113v961 q0 120 40.5 215t109 154t154 89.5t181.5 30.5q155 0 280 -60.5t194 -162.5l-349 -385q113 2 204 -34t146.5 -98t85 -138.5t29.5 -159.5q0 -195 -116.5 -317t-292.5 -122z" />
<glyph unicode="&#x1ea0;" horiz-adv-x="1212" d="M1169 0h-118l-131 381h-633l-129 -381h-115l494 1423h139zM322 481h563l-283 828zM606 -166q30 0 52 -20.5t22 -53.5t-22 -53t-52 -20q-32 0 -54 20t-22 53t22 53.5t54 20.5z" />
<glyph unicode="&#x1ea1;" horiz-adv-x="1114" d="M451 -27q-147 0 -239.5 80.5t-92.5 212.5q0 159 108.5 240.5t313.5 81.5h270v170q0 118 -76 193t-194 75q-98 0 -174.5 -51.5t-108.5 -138.5l-102 30q37 110 140.5 185t242.5 75q172 0 277.5 -100t105.5 -268v-469q0 -197 45 -289h-117q-34 66 -37 172 q-51 -90 -150 -144.5t-212 -54.5zM477 72q130 0 232 86.5t102 199.5v144h-268q-312 0 -312 -228q0 -89 69 -145.5t177 -56.5zM580 -313q-32 0 -54 20t-22 53t22 53.5t54 20.5q30 0 51.5 -20.5t21.5 -53.5t-21.5 -53t-51.5 -20z" />
<glyph unicode="&#x1eb8;" horiz-adv-x="1210" d="M217 0v1423h789v-100h-676v-553h592v-102h-592v-568h733v-100h-846zM641 -313q-32 0 -54 20t-22 53t22 53.5t54 20.5q30 0 52 -20.5t22 -53.5t-22 -53t-52 -20z" />
<glyph unicode="&#x1eb9;" horiz-adv-x="1087" d="M893 281l96 -33q-50 -125 -168.5 -200t-257.5 -75q-214 0 -343.5 161t-129.5 429q0 258 124.5 410.5t332.5 152.5q129 0 229 -63.5t152.5 -170.5t52.5 -237v-86h-778v-6q0 -222 99 -356.5t267 -134.5q107 0 196 55t128 154zM545 1028q-137 0 -225.5 -96.5t-110.5 -265.5 h661q-2 159 -91.5 260.5t-233.5 101.5zM543 -166q30 0 51.5 -20.5t21.5 -53.5t-21.5 -53t-51.5 -20q-32 0 -54 20t-22 53t22 53.5t54 20.5z" />
<glyph unicode="&#x1ebc;" horiz-adv-x="1210" d="M442 1620l-80 18q5 62 40.5 102t93.5 40q37 0 114.5 -15.5t104.5 -15.5q67 0 73 82l82 -16q-6 -66 -45 -108t-106 -42q-41 0 -115 15.5t-96 15.5q-33 0 -48 -18.5t-18 -57.5zM217 0v1423h789v-100h-676v-553h592v-102h-592v-568h733v-100h-846z" />
<glyph unicode="&#x1ebd;" horiz-adv-x="1087" d="M428 1372q-33 0 -48 -18.5t-18 -57.5l-79 19q5 62 40 101.5t93 39.5q37 0 114.5 -15.5t104.5 -15.5q68 0 74 82l82 -16q-6 -65 -45.5 -107.5t-106.5 -42.5q-41 0 -115 15.5t-96 15.5zM893 281l96 -33q-50 -125 -168.5 -200t-257.5 -75q-214 0 -343.5 161t-129.5 429 q0 258 124.5 410.5t332.5 152.5q129 0 229 -63.5t152.5 -170.5t52.5 -237v-86h-778v-6q0 -222 99 -356.5t267 -134.5q107 0 196 55t128 154zM545 1028q-137 0 -225.5 -96.5t-110.5 -265.5h661q-2 159 -91.5 260.5t-233.5 101.5z" />
<glyph unicode="&#x1eca;" horiz-adv-x="546" d="M217 0v1423h113v-1423h-113zM274 -313q-32 0 -53.5 20t-21.5 53t21.5 53.5t53.5 20.5q30 0 52 -20.5t22 -53.5t-22 -53t-52 -20z" />
<glyph unicode="&#x1ecb;" horiz-adv-x="495" d="M250 1389q-32 0 -55 21.5t-23 55.5q0 33 23 54.5t55 21.5t55 -21.5t23 -54.5q0 -34 -23 -55.5t-55 -21.5zM193 0v1100h110v-1100h-110zM250 -313q-32 0 -54 20t-22 53t22 53.5t54 20.5q30 0 52 -20.5t22 -53.5t-22 -53t-52 -20z" />
<glyph unicode="&#x1ecc;" horiz-adv-x="1388" d="M694 -27q-270 0 -420.5 186t-150.5 554q0 366 150.5 551.5t420.5 185.5t422 -185.5t152 -551.5q0 -367 -152 -553.5t-422 -186.5zM694 78q218 0 337.5 154t119.5 481q0 325 -119.5 479t-337.5 154q-456 0 -456 -633q0 -635 456 -635zM696 -313q-32 0 -53.5 20t-21.5 53 t21.5 53.5t53.5 20.5q30 0 52 -20.5t22 -53.5t-22 -53t-52 -20z" />
<glyph unicode="&#x1ecd;" horiz-adv-x="1110" d="M555 -27q-217 0 -341 151.5t-124 426.5q0 274 124 424.5t341 150.5t341 -150.5t124 -424.5q0 -275 -124 -426.5t-341 -151.5zM555 74q166 0 259 125t93 352q0 225 -93 350t-259 125q-167 0 -259.5 -124.5t-92.5 -350.5q0 -227 92.5 -352t259.5 -125zM557 -313 q-32 0 -54 20t-22 53t22 53.5t54 20.5q30 0 52 -20.5t22 -53.5t-22 -53t-52 -20z" />
<glyph unicode="&#x1ee4;" horiz-adv-x="1361" d="M678 -27q-219 0 -348 139.5t-129 405.5v905h112v-905q0 -95 19.5 -171.5t60.5 -138.5t113.5 -96t171.5 -34q100 0 173.5 34t116 96t62 138.5t19.5 171.5v905h112v-905q0 -266 -131 -405.5t-352 -139.5zM678 -313q-32 0 -54 20t-22 53t22 53.5t54 20.5q30 0 52 -20.5 t22 -53.5t-22 -53t-52 -20z" />
<glyph unicode="&#x1ee5;" horiz-adv-x="1112" d="M473 -27q-159 0 -254.5 101.5t-95.5 259.5v766h108v-750q0 -130 72 -202t193 -72q127 0 220 94t93 252v678h111v-805q0 -195 47 -295h-111q-36 70 -39 186q-39 -87 -130.5 -150t-213.5 -63zM510 -313q-32 0 -54 20t-22 53t22 53.5t54 20.5q30 0 52 -20.5t22 -53.5 t-22 -53t-52 -20z" />
<glyph unicode="&#x1ef2;" horiz-adv-x="1220" d="M813 1579l-487 233l41 86l485 -239zM553 0v530l-479 893h127l409 -766l410 766h127l-481 -893v-530h-113z" />
<glyph unicode="&#x1ef3;" horiz-adv-x="1062" d="M752 1335l-39 -80l-488 234l41 86zM866 1100h117l-442 -1184q-35 -95 -88.5 -163.5t-118 -106.5t-130.5 -55t-138 -17l-11 104q56 0 109.5 13.5t106.5 43t96.5 83t70.5 125.5l21 55l-439 1102h121l373 -953z" />
<glyph unicode="&#x1ef8;" horiz-adv-x="1220" d="M438 1620l-80 18q5 62 40.5 102t93.5 40q37 0 114.5 -15.5t104.5 -15.5q67 0 73 82l82 -16q-6 -66 -45 -108t-106 -42q-41 0 -115 15.5t-96 15.5q-33 0 -48 -18.5t-18 -57.5zM553 0v530l-479 893h127l409 -766l410 766h127l-481 -893v-530h-113z" />
<glyph unicode="&#x1ef9;" horiz-adv-x="1062" d="M403 1372q-33 0 -47.5 -18t-17.5 -58l-80 19q5 62 40 101.5t93 39.5q37 0 114.5 -15.5t104.5 -15.5q68 0 74 82l82 -16q-6 -65 -45.5 -107.5t-106.5 -42.5q-41 0 -115 15.5t-96 15.5zM866 1100h117l-442 -1184q-35 -95 -88.5 -163.5t-118 -106.5t-130.5 -55t-138 -17 l-11 104q56 0 109.5 13.5t106.5 43t96.5 83t70.5 125.5l21 55l-439 1102h121l373 -953z" />
<glyph unicode="&#x1f74;" horiz-adv-x="1198" d="M641 1210h-100l-90 367h114zM895 -399v1081q0 163 -83 251.5t-210 88.5q-57 0 -110 -22.5t-95.5 -65.5t-68 -113t-25.5 -157v-664h-110v854q0 99 -32 138.5t-91 39.5q-29 0 -60 -8v90q54 12 78 12q84 0 137 -47t60 -153q41 84 128.5 142t207.5 58q81 0 149.5 -26.5 t121 -78t82.5 -134.5t30 -189v-1097h-109z" />
<glyph unicode="&#x1fef;" horiz-adv-x="1241" d="M725 1210h-100l-90 367h114z" />
<glyph unicode="&#x2000;" horiz-adv-x="1122" />
<glyph unicode="&#x2001;" horiz-adv-x="2245" />
<glyph unicode="&#x2002;" horiz-adv-x="1122" />
<glyph unicode="&#x2003;" horiz-adv-x="2245" />
<glyph unicode="&#x2004;" horiz-adv-x="748" />
<glyph unicode="&#x2005;" horiz-adv-x="561" />
<glyph unicode="&#x2006;" horiz-adv-x="374" />
<glyph unicode="&#x2007;" horiz-adv-x="374" />
<glyph unicode="&#x2008;" horiz-adv-x="280" />
<glyph unicode="&#x2009;" horiz-adv-x="449" />
<glyph unicode="&#x200a;" horiz-adv-x="124" />
<glyph unicode="&#x2010;" horiz-adv-x="950" d="M143 623v118h666v-118h-666z" />
<glyph unicode="&#x2011;" horiz-adv-x="950" d="M143 623v118h666v-118h-666z" />
<glyph unicode="&#x2012;" horiz-adv-x="950" d="M143 623v118h666v-118h-666z" />
<glyph unicode="&#x2013;" horiz-adv-x="1312" d="M143 633v100h1028v-100h-1028z" />
<glyph unicode="&#x2014;" horiz-adv-x="1753" d="M143 633v100h1469v-100h-1469z" />
<glyph unicode="&#x2018;" horiz-adv-x="471" d="M305 1546l39 -59q-57 -29 -97 -92.5t-40 -122.5q0 -19 2 -27q21 15 45 15q31 0 53.5 -22.5t22.5 -57.5q0 -33 -22 -57.5t-60 -24.5q-62 0 -93.5 43t-31.5 110q0 89 48 173t134 122z" />
<glyph unicode="&#x2019;" horiz-adv-x="471" d="M166 1112l-39 59q57 29 97 92.5t40 122.5q0 19 -2 27q-20 -14 -45 -14q-31 0 -53.5 22.5t-22.5 57.5q0 33 22 57.5t60 24.5q61 0 93 -43.5t32 -110.5q0 -89 -48 -173t-134 -122z" />
<glyph unicode="&#x201a;" horiz-adv-x="436" d="M150 -88l-39 59q57 29 97 92.5t40 122.5q0 19 -2 27q-20 -14 -45 -14q-31 0 -53.5 22.5t-22.5 57.5q0 33 22 57t60 24q62 0 93.5 -43t31.5 -110q0 -89 -48 -173t-134 -122z" />
<glyph unicode="&#x201c;" horiz-adv-x="759" d="M305 1546l39 -59q-57 -29 -97 -92.5t-40 -122.5q0 -19 2 -27q21 15 45 15q31 0 53.5 -22.5t22.5 -57.5q0 -33 -22 -57.5t-60 -24.5q-62 0 -93.5 43t-31.5 110q0 89 48 173t134 122zM594 1546l39 -59q-57 -29 -97 -92.5t-40 -122.5q0 -19 2 -27q21 15 45 15q31 0 53 -22 t22 -58q0 -33 -21.5 -57.5t-59.5 -24.5q-62 0 -93.5 43t-31.5 110q0 89 48 173t134 122z" />
<glyph unicode="&#x201d;" horiz-adv-x="759" d="M166 1112l-39 59q57 29 97 92.5t40 122.5q0 19 -2 27q-20 -14 -45 -14q-31 0 -53.5 22.5t-22.5 57.5q0 33 22 57.5t60 24.5q61 0 93 -43.5t32 -110.5q0 -89 -48 -173t-134 -122zM455 1112l-39 59q57 29 97 92.5t40 122.5q0 19 -2 27q-20 -14 -45 -14q-31 0 -53.5 22.5 t-22.5 57.5q0 33 22 57.5t60 24.5q61 0 93 -43.5t32 -110.5q0 -89 -48 -173t-134 -122z" />
<glyph unicode="&#x201e;" horiz-adv-x="727" d="M150 -88l-39 59q57 29 97 92.5t40 122.5q0 19 -2 27q-20 -14 -45 -14q-31 0 -53.5 22.5t-22.5 57.5q0 33 22 57t60 24q62 0 93.5 -43t31.5 -110q0 -89 -48 -173t-134 -122zM438 -88l-39 59q57 29 97.5 92.5t40.5 122.5q0 19 -2 27q-20 -14 -46 -14q-31 0 -53 22.5 t-22 57.5q0 33 22 57t60 24q62 0 93.5 -43t31.5 -110q0 -89 -48.5 -173t-134.5 -122z" />
<glyph unicode="&#x2020;" horiz-adv-x="1019" d="M483 0l-2 246q-3 245 -12 328q-7 55 -18 108q32 95 32 315q-90 -2 -187.5 -13t-121.5 -11q-51 0 -51 51q0 21 12.5 35t38.5 14q22 0 120 -9.5t189 -10.5q-2 106 -12 211.5t-10 126.5q0 25 14.5 38t36.5 13q19 0 33 -13t14 -38q0 -21 -10 -126.5t-12 -211.5 q92 1 189.5 10.5t119.5 9.5q26 0 39.5 -14.5t13.5 -36.5q0 -21 -13.5 -35t-39.5 -14q-24 0 -121 11t-188 13q0 -221 34 -315q-15 -64 -21.5 -138t-7.5 -124.5t-1 -173.5l-4 -246h-54z" />
<glyph unicode="&#x2021;" horiz-adv-x="1142" d="M573 -14q-22 0 -36.5 13t-14.5 38q0 21 10.5 126.5t12.5 211.5q-91 -1 -189 -11t-120 -10q-26 0 -39 14t-13 35q0 22 13 37t39 15q24 0 121.5 -11.5t187.5 -13.5q0 187 -33 285q33 95 33 282q-90 -2 -187.5 -13t-121.5 -11q-26 0 -39 14.5t-13 36.5q0 21 13 35t39 14 q22 0 120 -9.5t189 -10.5q-2 106 -12.5 211.5t-10.5 126.5q0 25 14.5 38t36.5 13q19 0 33.5 -13t14.5 -38q0 -21 -10.5 -126.5t-12.5 -211.5q92 1 189.5 10.5t119.5 9.5q26 0 40 -14.5t14 -36.5q0 -20 -14 -34.5t-40 -14.5q-24 0 -121 11t-188 13q0 -188 35 -282 q-35 -97 -35 -285q91 2 188.5 13.5t120.5 11.5q26 0 40 -14.5t14 -34.5q0 -22 -14 -37t-40 -15q-22 0 -119.5 10t-189.5 11q2 -106 12.5 -211.5t10.5 -126.5q0 -25 -14.5 -38t-33.5 -13z" />
<glyph unicode="&#x2022;" horiz-adv-x="462" d="M231 838q57 0 93 -35.5t36 -91.5t-36 -91.5t-93 -35.5t-93 35.5t-36 91.5t36 91.5t93 35.5z" />
<glyph unicode="&#x2026;" horiz-adv-x="1036" d="M199 -14q-34 0 -57 23t-23 59q0 35 23 57t57 22q36 0 59 -22t23 -57q0 -36 -23 -59t-59 -23zM516 -14q-34 0 -57 23t-23 59q0 35 23 57t57 22q36 0 59 -22t23 -57q0 -36 -23 -59t-59 -23zM836 -14q-34 0 -57 23t-23 59q0 35 23 57t57 22q36 0 59 -22t23 -57 q0 -36 -23 -59t-59 -23z" />
<glyph unicode="&#x202f;" horiz-adv-x="290" />
<glyph unicode="&#x2030;" horiz-adv-x="2097" d="M311 1436q122 0 187 -95.5t65 -273.5t-65 -274.5t-187 -96.5q-121 0 -184.5 96.5t-63.5 274.5t63.5 273.5t184.5 95.5zM459 0h-94l659 1423h96zM311 1364q-81 0 -122.5 -77.5t-41.5 -219.5q0 -143 41.5 -220t122.5 -77q82 0 125 77t43 220q0 141 -43 219t-125 78z M1167 725q122 0 187 -95.5t65 -273.5t-65 -274t-187 -96q-121 0 -184 96t-63 274t63 273.5t184 95.5zM1782 725q122 0 187 -95.5t65 -273.5t-65 -274t-187 -96q-121 0 -184.5 96t-63.5 274t63.5 273.5t184.5 95.5zM1167 653q-80 0 -121.5 -77.5t-41.5 -219.5q0 -143 41 -220 t122 -77q82 0 125 77t43 220q0 141 -43 219t-125 78zM1782 653q-81 0 -122.5 -77.5t-41.5 -219.5q0 -143 41.5 -220t122.5 -77q82 0 125 77t43 220q0 141 -43 219t-125 78z" />
<glyph unicode="&#x2039;" horiz-adv-x="559" d="M352 295l-229 367l229 366l86 -31l-209 -335l209 -336z" />
<glyph unicode="&#x203a;" horiz-adv-x="559" d="M207 295l-86 31l209 336l-209 335l86 31l229 -366z" />
<glyph unicode="&#x2044;" horiz-adv-x="253" d="M-156 0h-94l660 1423h96z" />
<glyph unicode="&#x205f;" horiz-adv-x="561" />
<glyph unicode="&#x20ac;" horiz-adv-x="1185" d="M721 78q191 0 278 209l101 -35q-16 -51 -44.5 -97t-73.5 -88.5t-112.5 -68t-148.5 -25.5q-199 0 -319.5 141t-151.5 404h-168v78h162q-4 74 -4 115q0 71 2 104h-160v78h168q30 270 149.5 413.5t321.5 143.5q83 0 150 -24t111 -66t72 -88.5t46 -100.5l-103 -34 q-82 209 -276 209q-150 0 -240.5 -116t-115.5 -337h565l-15 -78h-559q-2 -33 -2 -104q0 -41 4 -115h510l-12 -78h-491q28 -215 118.5 -327.5t237.5 -112.5z" />
<glyph unicode="&#x20bd;" horiz-adv-x="1103" d="M578 659h-226v-243h291v-101h-291v-315h-112v315h-189v101h189v243h-189v101h189v663h338q104 0 187 -32.5t134 -87t78 -122t27 -141.5q0 -73 -27 -140t-78 -121.5t-134 -87t-187 -32.5zM352 1323v-563h213q153 0 238.5 83.5t85.5 196.5q0 115 -85.5 199t-238.5 84h-213z " />
<glyph unicode="&#x2113;" horiz-adv-x="792" d="M287 344q0 -61 14.5 -107.5t37 -73t53.5 -42.5t59 -21.5t59 -5.5l-6 -100q-51 0 -96.5 9.5t-89 34t-74 62.5t-49.5 99t-19 139v860q0 115 63 183.5t160 68.5q101 0 161.5 -68.5t60.5 -177.5q0 -151 -43 -285t-113 -240t-178 -218v-117zM287 575q75 88 125 172t85 202.5 t35 248.5q0 71 -33.5 115.5t-88.5 44.5q-56 0 -89.5 -41.5t-33.5 -110.5v-631z" />
<glyph unicode="&#x2116;" horiz-adv-x="2052" d="M1638 944q-106 0 -181 74t-75 180q0 103 75.5 177.5t180.5 74.5q103 0 177.5 -74.5t74.5 -177.5q0 -105 -74.5 -179.5t-177.5 -74.5zM217 0v1423h115l817 -1233v1233h113v-1423h-113l-819 1235v-1235h-113zM1638 1018q74 0 125.5 52.5t51.5 127.5q0 74 -52 126t-125 52 q-75 0 -127.5 -52t-52.5 -126q0 -75 52.5 -127.5t127.5 -52.5zM1413 776v74h447v-74h-447z" />
<glyph unicode="&#x2122;" horiz-adv-x="1480" d="M360 791v557h-196v75h471v-75h-199v-557h-76zM735 791v632h107l184 -391l182 391h109v-632h-76v520l-178 -381h-74l-178 381v-520h-76z" />
<glyph unicode="&#x212e;" horiz-adv-x="1697" d="M1577 766h-1094v-629q181 -110 418 -110q199 0 376 105.5t253 270.5l45 -28q-92 -177 -281 -289.5t-393 -112.5q-226 0 -403.5 92.5t-276 259t-98.5 377.5q0 216 93 387t260 266t378 95q210 0 374.5 -80.5t256.5 -225.5t92 -329v-49zM1217 1315q-158 82 -363 82 q-204 0 -371 -101v-479h734v498z" />
<glyph unicode="&#x2190;" horiz-adv-x="1806" d="M745 84l-587 612l587 615l76 -72l-473 -491h1299v-103h-1299l473 -489z" />
<glyph unicode="&#x2191;" horiz-adv-x="1470" d="M684 0v1255l-481 -462l-72 73l604 580l602 -580l-69 -73l-482 462v-1255h-102z" />
<glyph unicode="&#x2192;" horiz-adv-x="1806" d="M1061 84l-76 72l473 489h-1298v103h1298l-473 491l76 72l588 -615z" />
<glyph unicode="&#x2193;" horiz-adv-x="1470" d="M684 1423h102v-1255l482 463l69 -74l-602 -580l-604 580l72 74l481 -463v1255z" />
<glyph unicode="&#x2194;" horiz-adv-x="2232" d="M1487 1311l588 -615l-588 -612l-76 72l473 489h-1536l473 -489l-76 -72l-587 612l587 615l76 -72l-473 -491h1536l-473 491z" />
<glyph unicode="&#x2195;" horiz-adv-x="1470" d="M786 -137l482 463l69 -74l-602 -580l-604 580l72 74l481 -463v1505l-481 -463l-72 74l604 580l602 -580l-69 -74l-482 463v-1505z" />
<glyph unicode="&#x2196;" horiz-adv-x="1400" d="M160 254v901h903v-100h-727l915 -918l-73 -71l-916 915v-727h-102z" />
<glyph unicode="&#x2197;" horiz-adv-x="1400" d="M1241 365h-102v727l-916 -916l-73 72l915 917h-727v101h903v-901z" />
<glyph unicode="&#x2198;" horiz-adv-x="1400" d="M1241 1061v-901h-903v100h727l-915 918l73 71l916 -915v727h102z" />
<glyph unicode="&#x2199;" horiz-adv-x="1400" d="M160 926h102v-727l916 915l73 -72l-915 -917h727v-100h-903v901z" />
<glyph unicode="&#x2202;" horiz-adv-x="1044" d="M389 -27q-153 0 -240.5 107t-87.5 280q0 128 34.5 226t94 155.5t133.5 86t160 28.5q104 0 192 -47.5t136 -114.5q18 108 18 264q0 187 -66.5 287.5t-203.5 100.5q-157 0 -272 -121l-58 78q144 147 346 147q102 0 175.5 -40.5t114 -112.5t59 -157.5t18.5 -189.5 q0 -202 -35 -377.5t-102.5 -310t-174 -212t-241.5 -77.5zM397 74q103 0 187.5 73t135 187t71.5 256q-41 68 -123 118t-181 50q-141 0 -228 -98t-87 -300q0 -126 63.5 -206t161.5 -80z" />
<glyph unicode="&#x2205;" horiz-adv-x="1716" d="M1401 1210q93 -102 144.5 -230.5t51.5 -270.5q0 -150 -58.5 -286t-157.5 -234.5t-236 -157t-287 -58.5q-136 0 -260.5 47.5t-224.5 133.5l-174 -181l-58 58l174 178q-196 212 -196 500q0 150 58.5 287.5t157.5 236.5t236 158t287 59q136 0 260 -48t223 -134l179 182 l57 -57zM225 709q0 -240 164 -422l879 903q-177 153 -410 153q-171 0 -317 -85t-231 -231t-85 -318zM858 80q171 0 317 84.5t231 229.5t85 315q0 242 -166 426l-876 -906q180 -149 409 -149z" />
<glyph unicode="&#x220f;" horiz-adv-x="1310" d="M1247 1423v-100h-180v-1323h-113v1323h-596v-1323h-112v1323h-183v100h1184z" />
<glyph unicode="&#x2211;" horiz-adv-x="1007" d="M84 -340v94l410 789l-402 786v94h840v-100h-715l383 -756v-49l-393 -758h754v-100h-877z" />
<glyph unicode="&#x2212;" horiz-adv-x="1146" d="M123 664v100h901v-100h-901z" />
<glyph unicode="&#x221a;" horiz-adv-x="1220" d="M582 0l-375 1012l-180 -45l-17 94l279 65l362 -1003l418 1327l107 -16l-463 -1434h-131z" />
<glyph unicode="&#x221e;" horiz-adv-x="1400" d="M395 475q-100 0 -171.5 67t-71.5 169t71.5 169.5t171.5 67.5q50 0 97 -16.5t89 -48t64.5 -52t54.5 -53.5q31 32 54 53t65 52.5t89.5 48t97.5 16.5q101 0 172 -67t71 -170t-70.5 -169.5t-172.5 -66.5q-50 0 -97.5 16.5t-89.5 48t-65 52.5t-54 53q-32 -33 -54.5 -53.5 t-64.5 -52t-89 -48t-97 -16.5zM401 565q29 0 60.5 11t52 22t52.5 37.5t42 36t41 39.5q-33 33 -52.5 50.5t-54.5 44.5t-70 39.5t-71 12.5q-66 0 -109.5 -40.5t-43.5 -106.5q0 -65 43.5 -105.5t109.5 -40.5zM999 565q66 0 110 40.5t44 105.5q0 66 -44 106.5t-110 40.5 q-44 0 -91.5 -24t-75.5 -48t-69 -64l-11 -11q80 -78 122 -104q65 -42 125 -42z" />
<glyph unicode="&#x222b;" horiz-adv-x="403" d="M12 -426q-58 0 -91.5 31.5t-33.5 72.5q0 35 23 60.5t61 25.5q37 0 56.5 -19t19.5 -48q0 -51 -37 -72q46 0 79.5 47.5t33.5 139.5v1300q0 94 19.5 162.5t53 105.5t70.5 53.5t78 16.5q58 0 90.5 -31t32.5 -73q0 -35 -22.5 -60.5t-59.5 -25.5q-38 0 -58 19.5t-20 47.5 q0 51 37 72q-46 0 -78.5 -47.5t-32.5 -139.5v-1300q0 -94 -20 -163t-53.5 -105.5t-70 -53t-77.5 -16.5z" />
<glyph unicode="&#x2248;" horiz-adv-x="1130" d="M786 836q-48 0 -110.5 21.5t-113 47t-110.5 47t-104 21.5q-60 0 -98.5 -38t-38.5 -101h-88q0 98 59 164.5t162 66.5q47 0 110 -21.5t114.5 -47t111.5 -47t102 -21.5q60 0 99 38t39 101h88q0 -98 -59.5 -164.5t-162.5 -66.5zM786 469q-48 0 -110.5 21.5t-113 47t-110.5 47 t-104 21.5q-60 0 -98.5 -37.5t-38.5 -99.5h-88q0 97 59 163t162 66q47 0 110 -21t114.5 -46.5t111.5 -46.5t102 -21q60 0 99 37t39 100h88q0 -98 -59.5 -164.5t-162.5 -66.5z" />
<glyph unicode="&#x2260;" horiz-adv-x="1146" d="M1024 950h-285l-250 -473h535v-100h-588l-151 -285h-82l151 285h-231v100h285l249 473h-534v101h588l151 286h82l-151 -286h231v-101z" />
<glyph unicode="&#x2264;" horiz-adv-x="1146" d="M1024 268l-901 428v95l901 428v-107l-786 -369l786 -368v-107zM123 0v100h901v-100h-901z" />
<glyph unicode="&#x2265;" horiz-adv-x="1146" d="M123 268v107l786 368l-786 369v107l901 -428v-95zM1024 0h-901v100h901v-100z" />
<glyph unicode="&#x25ca;" horiz-adv-x="1103" d="M494 0l-396 713l396 710h116l396 -710l-396 -713h-116zM553 100l340 613l-340 612l-342 -612z" />
<glyph unicode="&#x25fc;" horiz-adv-x="1095" d="M0 1096h1096v-1096h-1096v1096z" />
<glyph unicode="&#xfb00;" horiz-adv-x="1200" d="M219 0v999h-182v101h182v98q0 85 27 149t91.5 105t162.5 41q90 0 174 -43l-19 -96q-71 37 -139 37q-88 0 -137 -43t-49 -152v-96h454v170q0 134 70 214.5t213 80.5q105 0 184 -43l-20 -97q-76 39 -152 39q-88 0 -137 -43t-49 -153v-168h278v-101h-278v-999h-109v999h-454 v-999h-111z" />
<glyph unicode="&#xfb03;" horiz-adv-x="1650" d="M219 0v999h-182v101h182v98q0 85 27 149t91.5 105t162.5 41q90 0 174 -43l-19 -96q-71 37 -139 37q-88 0 -137 -43t-49 -152v-96h454v170q0 131 66 213t209 82q90 0 174 -43l-19 -92q-71 34 -135 34q-88 0 -137 -43t-49 -153v-168h563v-1100h-108v999h-455v-999h-109v999 h-454v-999h-111zM1403 1284q-32 0 -55 21.5t-23 54.5q0 34 23 56t55 22t55 -22t23 -56q0 -33 -23 -54.5t-55 -21.5z" />
<glyph unicode="&#xfb04;" horiz-adv-x="1771" d="M219 0v999h-182v101h182v98q0 85 27 149t91.5 105t162.5 41q90 0 174 -43l-19 -96q-71 37 -139 37q-88 0 -137 -43t-49 -152v-96h454v170q0 130 68.5 212.5t212.5 82.5q90 0 174 -43l-18 -95q-62 35 -138 35q-89 0 -139.5 -43t-50.5 -153v-166h278v-101h-278v-999h-109 v999h-454v-999h-111zM1683 -6q-151 0 -235 89t-84 247v1206h111v-1186q0 -121 57 -188.5t160 -67.5z" />
<glyph horiz-adv-x="495" d="M250 1389q-32 0 -55 21.5t-23 55.5q0 33 23 54.5t55 21.5t55 -21.5t23 -54.5q0 -34 -23 -55.5t-55 -21.5zM193 0v1100h110v-1100h-110z" />
<glyph horiz-adv-x="495" d="M250 1389q-32 0 -55 21.5t-23 55.5q0 33 23 54.5t55 21.5t55 -21.5t23 -54.5q0 -34 -23 -55.5t-55 -21.5zM193 0v1100h110v-1100h-110z" />
<glyph horiz-adv-x="626" d="M311 725q122 0 187 -95.5t65 -273.5t-65 -274t-187 -96q-121 0 -184.5 96t-63.5 274t63.5 273.5t184.5 95.5zM311 653q-81 0 -122.5 -77.5t-41.5 -219.5q0 -143 41.5 -220t122.5 -77q82 0 125 77t43 220q0 141 -43 219t-125 78z" />
<glyph horiz-adv-x="358" d="M193 0v621l-150 -91l-8 76l166 107h71v-713h-79z" />
<glyph horiz-adv-x="542" d="M39 0v74l242 239q73 73 99 114t26 93q0 59 -40 96t-106 37q-109 0 -149 -84l-78 25q24 58 83.5 94.5t143.5 36.5q106 0 169 -55.5t63 -143.5q0 -67 -32.5 -122t-113.5 -136l-194 -192h358v-76h-471z" />
<glyph horiz-adv-x="575" d="M287 -14q-97 0 -160.5 42t-89.5 105l74 29q20 -45 65.5 -74t110.5 -29q61 0 106 36.5t45 101.5q0 66 -50 100.5t-120 34.5h-80v67h82q66 0 110 31.5t44 101.5q0 54 -40 87.5t-99 33.5q-105 0 -148 -84l-78 25q24 58 83 94.5t143 36.5q98 0 160.5 -49.5t62.5 -132.5 q0 -68 -33 -111t-88 -57v-2q52 -13 93.5 -57t41.5 -119q0 -95 -65.5 -153t-169.5 -58z" />
<glyph horiz-adv-x="555" d="M354 0v160h-321v67l229 486h82l-223 -482h233v199h78v-199h88v-71h-88v-160h-78z" />
<glyph horiz-adv-x="581" d="M289 -14q-99 0 -162.5 42t-89.5 105l74 29q20 -45 64.5 -74t109.5 -29q68 0 113.5 47t45.5 121q0 83 -47 128.5t-118 45.5q-70 0 -121 -39l-64 15l25 336h364v-76h-301l-16 -195q62 27 127 27q100 0 167.5 -63t67.5 -179q0 -106 -69 -173.5t-170 -67.5z" />
<glyph horiz-adv-x="593" d="M315 -14q-120 0 -186 85.5t-66 243.5q0 195 74 302.5t199 107.5q72 0 121 -33.5t65 -83.5l-71 -22q-35 65 -115 65q-87 0 -138.5 -80.5t-52.5 -220.5q25 49 75.5 79t111.5 30q96 0 161.5 -66.5t65.5 -167.5q0 -102 -68 -170.5t-176 -68.5zM317 59q68 0 113 46t45 120 q0 69 -45.5 116.5t-112.5 47.5t-112 -47.5t-45 -116.5q0 -74 44.5 -120t112.5 -46z" />
<glyph horiz-adv-x="483" d="M465 713v-70l-281 -643h-84l277 641h-357v72h445z" />
<glyph horiz-adv-x="589" d="M293 -10q-105 0 -174.5 54t-69.5 146q0 124 135 175q-118 54 -118 170q0 85 64 135.5t163 50.5q101 0 164 -50.5t63 -135.5q0 -65 -29.5 -103.5t-91.5 -66.5q140 -48 140 -175q0 -93 -69.5 -146.5t-176.5 -53.5zM293 395q72 0 110.5 39.5t38.5 93.5q0 61 -43 96t-106 35 q-60 0 -104 -35.5t-44 -95.5q0 -54 39.5 -93.5t108.5 -39.5zM293 51q69 0 117.5 39t48.5 105q0 60 -46.5 99.5t-119.5 39.5q-70 0 -116 -39.5t-46 -99.5q0 -66 47 -105t115 -39z" />
<glyph horiz-adv-x="602" d="M287 727q120 0 186 -86t66 -244q0 -195 -74 -302t-199 -107q-72 0 -121 33t-65 83l72 23q36 -66 114 -66q87 0 138.5 80.5t52.5 220.5q-25 -48 -75 -78t-112 -30q-96 0 -161.5 66.5t-65.5 166.5q0 102 68 171t176 69zM285 653q-68 0 -113 -46t-45 -120q0 -69 45.5 -116 t112.5 -47t112 47t45 116q0 74 -44.5 120t-112.5 46z" />
<glyph horiz-adv-x="626" d="M311 1436q122 0 187 -95.5t65 -273.5t-65 -274.5t-187 -96.5q-121 0 -184.5 96.5t-63.5 274.5t63.5 273.5t184.5 95.5zM311 1364q-81 0 -122.5 -77.5t-41.5 -219.5q0 -143 41.5 -220t122.5 -77q82 0 125 77t43 220q0 141 -43 219t-125 78z" />
<glyph horiz-adv-x="358" d="M193 711v620l-150 -90l-8 76l166 106h71v-712h-79z" />
<glyph horiz-adv-x="542" d="M39 711v73l242 240q73 73 99 114t26 93q0 59 -40 96t-106 37q-109 0 -149 -84l-78 25q24 58 83.5 94.5t143.5 36.5q106 0 169 -55.5t63 -143.5q0 -67 -32.5 -122t-113.5 -136l-194 -193h358v-75h-471z" />
<glyph horiz-adv-x="575" d="M287 696q-97 0 -160.5 42.5t-89.5 105.5l74 28q20 -45 65.5 -73.5t110.5 -28.5q61 0 106 36t45 101q0 66 -50 100.5t-120 34.5h-80v68h82q66 0 110 31.5t44 101.5q0 54 -40 87.5t-99 33.5q-105 0 -148 -84l-78 25q24 58 83 94.5t143 36.5q98 0 160.5 -50t62.5 -133 q0 -68 -33 -111t-88 -57v-2q52 -13 93.5 -57t41.5 -119q0 -95 -65.5 -153t-169.5 -58z" />
<glyph horiz-adv-x="555" d="M354 711v159h-321v68l229 485h82l-223 -481h233v199h78v-199h88v-72h-88v-159h-78z" />
<glyph horiz-adv-x="581" d="M289 696q-99 0 -162.5 42t-89.5 106l74 28q20 -45 64.5 -73.5t109.5 -28.5q68 0 113.5 47t45.5 121q0 83 -47 128.5t-118 45.5q-70 0 -121 -39l-64 14l25 336h364v-75h-301l-16 -195q62 27 127 27q100 0 167.5 -63t67.5 -179q0 -106 -69 -174t-170 -68z" />
<glyph horiz-adv-x="593" d="M315 696q-120 0 -186 86t-66 244q0 195 74 302.5t199 107.5q72 0 121 -33.5t65 -83.5l-71 -23q-36 66 -115 66q-87 0 -138.5 -80.5t-52.5 -220.5q25 48 75 78t112 30q96 0 161.5 -66.5t65.5 -166.5q0 -102 -68 -171t-176 -69zM317 770q68 0 113 46t45 120 q0 69 -45.5 116.5t-112.5 47.5t-112 -47.5t-45 -116.5q0 -74 44.5 -120t112.5 -46z" />
<glyph horiz-adv-x="483" d="M465 1423v-69l-281 -643h-84l277 641h-357v71h445z" />
<glyph horiz-adv-x="589" d="M293 700q-105 0 -174.5 54t-69.5 147q0 123 135 174q-118 54 -118 170q0 85 64 136t163 51q101 0 164 -51t63 -136q0 -65 -29.5 -103.5t-91.5 -66.5q140 -48 140 -174q0 -93 -69.5 -147t-176.5 -54zM293 1106q72 0 110.5 39.5t38.5 93.5q0 61 -43 96t-106 35 q-60 0 -104 -35.5t-44 -95.5q0 -54 39.5 -93.5t108.5 -39.5zM293 762q69 0 117.5 38.5t48.5 104.5q0 60 -46.5 99.5t-119.5 39.5q-70 0 -116 -39.5t-46 -99.5q0 -66 47 -104.5t115 -38.5z" />
<glyph horiz-adv-x="602" d="M287 1438q120 0 186 -86t66 -244q0 -195 -74 -302.5t-199 -107.5q-72 0 -121 33.5t-65 83.5l72 23q36 -66 114 -66q87 0 138.5 80.5t52.5 220.5q-25 -48 -75 -78t-112 -30q-96 0 -161.5 66.5t-65.5 166.5q0 102 68 171t176 69zM285 1364q-68 0 -113 -46t-45 -120 q0 -69 45.5 -116.5t112.5 -47.5t112 47.5t45 116.5q0 74 -44.5 120t-112.5 46z" />
<glyph d="M-549 1159h-84l37 377h96z" />
<glyph d="M-567 1311q-32 0 -54 20t-22 53t22 53.5t54 20.5q30 0 51.5 -20.5t21.5 -53.5t-21.5 -53t-51.5 -20z" />
<glyph d="M-567 1292q-30 0 -51 20t-21 52t21 52t51 20t50.5 -20t20.5 -52t-20.5 -52t-50.5 -20z" />
<glyph d="M-489 0q-32 -36 -48.5 -57t-32.5 -55.5t-16 -67.5q0 -54 32 -82.5t91 -30.5l-16 -74q-93 1 -145 47.5t-52 126.5q0 54 28.5 106.5t65.5 86.5h93z" />
<glyph d="M-901 430v94h682v-94h-682z" />
<glyph d="M-1483 449v94h1415v-94h-1415z" />
<glyph d="M-858 485v103l582 102v-102z" />
<glyph d="M-264 1501l84 -28l-690 -1633l-84 29z" />
<glyph horiz-adv-x="1241" d="M498 997l114 426h97l-123 -426h-88z" />
<glyph d="M-580 1260q-107 0 -174 64.5t-67 191.5h90q0 -82 41 -127.5t110 -45.5t111.5 45.5t42.5 127.5h90q-1 -127 -68.5 -191.5t-175.5 -64.5z" />
<glyph horiz-adv-x="1505" d="M672 -362v362h-43v96h145v-458h-102z" />
<glyph horiz-adv-x="1241" d="M537 -367l98 367h-37v100h170l-135 -467h-96z" />
<glyph horiz-adv-x="1505" d="M606 -330v90q58 0 97.5 20t59 58t27 80t7.5 98h102q0 -60 -6.5 -106.5t-25 -93.5t-50 -77.5t-85 -49.5t-126.5 -19z" />
<glyph horiz-adv-x="1505" d="M672 -367v367h-43v100h145v-467h-102z" />
</font>
</defs>
</svg>
