<?xml version="1.0" standalone="no"?>
<!DOCTYPE svg PUBLIC "-//W3C//DTD SVG 1.1//EN" "http://www.w3.org/Graphics/SVG/1.1/DTD/svg11.dtd" >
<svg xmlns="http://www.w3.org/2000/svg" xmlns:xlink="http://www.w3.org/1999/xlink" version="1.1">
<metadata></metadata>
<defs>
<font id="leroy_merlin_sansregular" horiz-adv-x="0" >
<font-face units-per-em="2048" ascent="1577" descent="-471" />
<missing-glyph horiz-adv-x="425" />
<glyph unicode="fi" horiz-adv-x="1200" d="M1030 1100v-1100h-188v928h-447v-928h-188v928h-170v172h170v123q0 150 81 247t232 97q91 0 187 -41l-19 -162q-55 31 -123 31q-76 0 -123 -44t-47 -139v-112h635zM936 1321q-48 0 -82.5 32t-34.5 85t34 83.5t83 30.5q47 0 82 -30.5t35 -83.5t-35 -85t-82 -32z" />
<glyph unicode="fl" horiz-adv-x="1290" d="M207 0v928h-170v172h170v123q0 150 81 247t232 97q91 0 187 -41l-19 -162q-55 31 -123 31q-76 0 -123 -44t-47 -139v-112h258v-172h-258v-928h-188zM1208 -12q-180 0 -279.5 96.5t-99.5 269.5v1182h189v-1149q0 -107 53.5 -167t147.5 -60z" />
<glyph unicode="&#xd;" horiz-adv-x="1130" />
<glyph unicode=" "  horiz-adv-x="425" />
<glyph unicode="&#x09;" horiz-adv-x="425" />
<glyph unicode="&#xa0;" horiz-adv-x="425" />
<glyph unicode="!" horiz-adv-x="626" d="M225 395l-10 1028h199l-8 -1028h-181zM313 -14q-48 0 -81 31.5t-33 84.5q0 52 33 83.5t81 31.5q49 0 83 -31.5t34 -83.5q0 -54 -34 -85t-83 -31z" />
<glyph unicode="&#x22;" horiz-adv-x="772" d="M160 1006l-10 530h169l-12 -530h-147zM465 1006l-10 530h170l-13 -530h-147z" />
<glyph unicode="#" horiz-adv-x="1243" d="M1171 866h-188l-29 -311h191l-15 -149h-188l-35 -406h-170l35 406h-354l-35 -406h-170l35 406h-189l13 149h188l29 311h-189l13 152h188l35 405h170l-35 -405h354l35 405h170l-35 -405h189zM784 555l29 311h-354l-29 -311h354z" />
<glyph unicode="$" horiz-adv-x="1136" d="M1055 379q0 -177 -120 -287t-319 -119v-155h-96v157q-154 13 -268 90.5t-168 202.5l176 62q78 -153 260 -178v485q-53 21 -85.5 35t-81 38.5t-78.5 46t-65 55t-54.5 69t-33 83t-13.5 101.5q0 167 114 269.5t297 113.5v129h96v-129q155 -10 260.5 -82t155.5 -197l-186 -59 q-31 69 -91 111t-139 51v-467q171 -67 238 -106q170 -100 196 -257q5 -30 5 -63zM315 1067q0 -77 53 -128.5t152 -94.5v430q-92 -12 -148.5 -67.5t-56.5 -139.5zM616 150q103 8 166.5 65.5t63.5 151.5q0 43 -17 78t-51.5 63t-71 48t-90.5 42v-448z" />
<glyph unicode="%" horiz-adv-x="1533" d="M315 1436q127 0 195 -95t68 -274t-68 -275t-195 -96q-124 0 -191 96t-67 275q0 178 66.5 273.5t191.5 95.5zM502 0h-142l672 1423h142zM315 1331q-66 0 -100.5 -68.5t-34.5 -195.5q0 -128 34.5 -196t100.5 -68q69 0 105.5 68t36.5 196q0 127 -36.5 195.5t-105.5 68.5z M1212 725q127 0 195 -95t68 -274t-68 -274.5t-195 -95.5q-124 0 -191 95.5t-67 274.5q0 178 66.5 273.5t191.5 95.5zM1212 621q-66 0 -100.5 -69t-34.5 -196q0 -128 34.5 -196t100.5 -68q69 0 105.5 68t36.5 196q0 127 -36.5 196t-105.5 69z" />
<glyph unicode="&#x26;" horiz-adv-x="1337" d="M1266 96l-136 -123l-149 154q-165 -154 -418 -154q-199 0 -324.5 107.5t-125.5 294.5q0 66 18.5 125t54 108.5t75.5 87.5t93 78q-74 86 -113.5 167t-39.5 173q0 82 31.5 147.5t84 106t117 61.5t135.5 21t135 -19.5t114.5 -56.5t80 -97t29.5 -134q0 -41 -11 -79 t-35.5 -73.5t-48 -63.5t-65.5 -62.5t-69.5 -55.5t-77.5 -57l329 -336q45 109 45 248h187q0 -226 -88 -392zM399 1122q0 -112 109 -243q43 29 69.5 48t58.5 46.5t50 50.5t30.5 51.5t12.5 57.5q0 72 -47.5 112.5t-112.5 40.5q-69 0 -119.5 -43t-50.5 -121zM567 147 q165 0 283 115l-354 363q-17 17 -21 20q-79 -67 -121.5 -129.5t-42.5 -134.5q0 -104 74 -169t182 -65z" />
<glyph unicode="'" horiz-adv-x="468" d="M160 1006l-10 530h169l-12 -530h-147z" />
<glyph unicode="(" horiz-adv-x="632" d="M477 -438q-65 90 -122 201t-109 250t-82.5 306.5t-30.5 337.5t30.5 338t82 307.5t109.5 250.5t122 200l121 -57q-132 -202 -212.5 -466.5t-80.5 -572.5t80.5 -570.5t212.5 -467.5z" />
<glyph unicode=")" horiz-adv-x="632" d="M156 -438l-121 57q132 205 212.5 467.5t80.5 570.5t-80.5 572.5t-212.5 466.5l121 57q64 -89 122 -200t109.5 -250.5t82 -307.5t30.5 -338t-30.5 -337.5t-82.5 -306.5t-109 -250t-122 -201z" />
<glyph unicode="*" horiz-adv-x="960" d="M375 766q-19 -25 -46 -31.5t-50 4t-41.5 29.5t-19.5 45.5t15 52.5q15 20 45.5 43.5t67 55.5t66.5 71q-60 19 -139.5 22t-104.5 11q-55 20 -55 78q0 43 31.5 71.5t76.5 14.5q24 -7 91 -52t128 -65q0 64 -21.5 139.5t-21.5 102.5q0 39 26.5 61t57.5 22t57.5 -22t26.5 -61 q0 -27 -20.5 -102.5t-20.5 -139.5q61 20 127 64t90 51q43 16 75 -14t32 -72q0 -26 -13.5 -47.5t-39.5 -28.5q-25 -8 -104 -12t-140 -23q28 -40 63 -70.5t65.5 -54t45.5 -43.5q16 -26 15 -52.5t-19 -46t-40.5 -30t-49 -3.5t-43.5 32q-15 21 -43 95t-64 126 q-39 -53 -65.5 -127t-40.5 -94z" />
<glyph unicode="+" horiz-adv-x="1171" d="M1059 799v-170h-385v-414h-176v414h-385v170h385v411h176v-411h385z" />
<glyph unicode="," horiz-adv-x="485" d="M162 -336l-58 88q65 32 113.5 96t48.5 125q0 13 -4 29q-22 -14 -51 -14q-43 0 -75 30.5t-32 79.5q0 48 32 83.5t89 35.5q81 0 125.5 -59.5t44.5 -147.5q0 -109 -58 -203.5t-175 -142.5z" />
<glyph unicode="-" horiz-adv-x="946" d="M133 588v188h680v-188h-680z" />
<glyph unicode="." horiz-adv-x="438" d="M219 -14q-48 0 -81.5 31.5t-33.5 84.5q0 52 33.5 83.5t81.5 31.5q49 0 83 -31.5t34 -83.5q0 -54 -34 -85t-83 -31z" />
<glyph unicode="/" horiz-adv-x="755" d="M664 1589l139 -55l-697 -1690l-141 58z" />
<glyph unicode="0" horiz-adv-x="1241" d="M618 1450q247 0 378.5 -191.5t131.5 -547.5q0 -354 -131.5 -546t-378.5 -192q-246 0 -375.5 191.5t-129.5 546.5q0 357 129.5 548t375.5 191zM618 1278q-149 0 -228 -148t-79 -419q0 -270 79.5 -418t227.5 -148q151 0 231.5 148t80.5 418q0 272 -80.5 419.5t-231.5 147.5 z" />
<glyph unicode="1" horiz-adv-x="761" d="M369 0v1208l-299 -174l-19 180l338 209h174v-1423h-194z" />
<glyph unicode="2" horiz-adv-x="1185" d="M117 0v174l491 473q133 134 180.5 211.5t47.5 171.5q0 110 -73.5 178t-195.5 68q-98 0 -171.5 -43.5t-110.5 -122.5l-187 59q49 123 171.5 202t299.5 79q219 0 347 -114.5t128 -291.5q0 -130 -63.5 -237.5t-218.5 -259.5l-375 -367h684v-180h-954z" />
<glyph unicode="3" horiz-adv-x="1204" d="M602 -27q-199 0 -328.5 87.5t-177.5 222.5l176 59q40 -85 125.5 -140t206.5 -55q113 0 197 66.5t84 185.5q0 122 -92 186t-222 64h-161v160h163q57 0 105.5 12.5t89.5 40t64.5 77t23.5 116.5q0 101 -74 161t-182 60q-100 0 -169 -44.5t-103 -121.5l-187 59 q45 123 165.5 202t295.5 79q202 0 329.5 -100.5t127.5 -270.5q0 -129 -62 -213t-168 -116v-2q45 -12 88 -38t82.5 -67t63.5 -104.5t24 -139.5q0 -192 -135 -309t-350 -117z" />
<glyph unicode="4" horiz-adv-x="1161" d="M719 0v317h-635v158l432 948h203l-426 -938h426v379h186v-379h172v-168h-172v-317h-186z" />
<glyph unicode="5" horiz-adv-x="1216" d="M610 -27q-202 0 -334 87.5t-180 222.5l176 59q42 -86 125 -140.5t203 -54.5q130 0 215.5 88.5t85.5 225.5q0 152 -89.5 236.5t-225.5 84.5q-132 0 -232 -84l-149 35l49 690h772v-178h-623l-28 -354q126 55 252 55q94 0 178 -31t150.5 -90t105.5 -153t39 -211 q0 -144 -66.5 -256.5t-177.5 -172t-246 -59.5z" />
<glyph unicode="6" horiz-adv-x="1214" d="M629 -27q-245 0 -380.5 174t-135.5 490q0 391 150.5 602t402.5 211q154 0 255.5 -71.5t137.5 -184.5l-168 -53q-40 66 -93.5 100.5t-135.5 34.5q-160 0 -254.5 -147t-102.5 -398q52 90 148 144.5t211 54.5q94 0 178 -34.5t146 -95.5t98 -150.5t36 -194.5 q0 -98 -34.5 -185.5t-96.5 -153.5t-156 -104.5t-206 -38.5zM631 147q127 0 210 84.5t83 221.5q0 131 -83.5 218t-209.5 87q-125 0 -208 -87.5t-83 -217.5q0 -136 82.5 -221t208.5 -85z" />
<glyph unicode="7" horiz-adv-x="1046" d="M975 1423v-161l-551 -1262h-201l547 1253h-698v170h903z" />
<glyph unicode="8" horiz-adv-x="1206" d="M590 -27q-220 0 -359 111.5t-139 298.5q0 123 70 211t186 135q-229 110 -229 330q0 172 132 281.5t339 109.5t339 -109.5t132 -281.5q0 -220 -230 -330q116 -47 186 -135t70 -211q0 -187 -138.5 -298.5t-358.5 -111.5zM590 805q130 0 201 72.5t71 175.5q0 112 -79 177.5 t-193 65.5t-193.5 -65.5t-79.5 -177.5q0 -103 71 -175.5t202 -72.5zM590 129q127 0 213 70.5t86 193.5q0 113 -82.5 185.5t-216.5 72.5t-216.5 -72.5t-82.5 -185.5q0 -123 85.5 -193.5t213.5 -70.5z" />
<glyph unicode="9" horiz-adv-x="1214" d="M586 1450q245 0 380.5 -174t135.5 -490q0 -391 -150.5 -602t-402.5 -211q-154 0 -255.5 71.5t-137.5 184.5l168 54q40 -66 93.5 -101t135.5 -35q160 0 254 147t102 398q-52 -90 -147.5 -144t-210.5 -54q-94 0 -178 34.5t-146 95.5t-98.5 151t-36.5 194q0 132 58.5 240.5 t172.5 174.5t263 66zM584 1276q-128 0 -210.5 -84.5t-82.5 -220.5q0 -131 83.5 -218t209.5 -87q124 0 207 87t83 218q0 136 -82 220.5t-208 84.5z" />
<glyph unicode=":" horiz-adv-x="438" d="M219 885q-48 0 -81.5 31.5t-33.5 84.5q0 52 33.5 83.5t81.5 31.5q49 0 83 -31.5t34 -83.5q0 -54 -34 -85t-83 -31zM219 -14q-48 0 -81.5 31.5t-33.5 84.5q0 52 33.5 83.5t81.5 31.5q49 0 83 -31.5t34 -83.5q0 -54 -34 -85t-83 -31z" />
<glyph unicode=";" horiz-adv-x="485" d="M231 883q-48 0 -81 31.5t-33 84.5q0 52 33 83.5t81 31.5q49 0 83 -31.5t34 -83.5q0 -54 -34 -85t-83 -31zM162 -336l-58 88q65 32 113.5 96t48.5 125q0 13 -4 29q-22 -14 -51 -14q-43 0 -75 30.5t-32 79.5q0 48 32 83.5t89 35.5q81 0 125.5 -59.5t44.5 -147.5 q0 -109 -58 -203.5t-175 -142.5z" />
<glyph unicode="&#x3c;" horiz-adv-x="1171" d="M1059 186l-946 451v151l946 451v-182l-740 -344l740 -344v-183z" />
<glyph unicode="=" horiz-adv-x="1171" d="M113 915v170h946v-170h-946zM113 342v170h946v-170h-946z" />
<glyph unicode="&#x3e;" horiz-adv-x="1171" d="M113 195v182l739 344l-739 344v182l946 -450v-152z" />
<glyph unicode="?" horiz-adv-x="997" d="M338 395v97q0 72 21 130t54.5 95.5t74.5 69.5t81.5 59t74 56t54.5 70t21 91q0 97 -71 155t-171 58q-84 0 -153 -43.5t-105 -122.5l-186 59q57 137 173 209t279 72q114 0 211 -41.5t160.5 -129t63.5 -206.5q0 -63 -21.5 -115.5t-55.5 -88.5t-75.5 -68t-83 -63t-75.5 -65 t-55.5 -82t-21.5 -106v-90h-194zM436 -14q-48 0 -81 31.5t-33 84.5q0 52 33 83.5t81 31.5q49 0 83 -31.5t34 -83.5q0 -54 -34 -85t-83 -31z" />
<glyph unicode="@" horiz-adv-x="1376" d="M715 -190q-283 0 -453 187t-170 513q0 145 41 270.5t116 219t189 147t252 53.5q145 0 259 -49t186.5 -136.5t110.5 -205.5t38 -260q0 -187 -73.5 -296.5t-194.5 -109.5q-135 0 -185 103q-68 -94 -176 -94q-107 0 -182.5 86.5t-75.5 257.5q0 161 85 248t216 87 q119 0 226 -69v-393q0 -115 96 -115q74 0 115 78t41 213q0 254 -128 401.5t-360 147.5q-145 0 -257 -78.5t-171 -212t-59 -297.5q0 -140 39.5 -253t109.5 -185.5t163.5 -111t203.5 -38.5q181 0 303 82l41 -102q-143 -88 -346 -88zM678 266q67 0 113 78v350q-46 27 -97 27 q-69 0 -112 -56t-43 -169q0 -119 39.5 -174.5t99.5 -55.5z" />
<glyph unicode="A" horiz-adv-x="1259" d="M1014 0l-107 334h-563l-106 -334h-199l469 1423h246l467 -1423h-207zM395 502h457l-229 717z" />
<glyph unicode="B" horiz-adv-x="1269" d="M199 0v1423h450q46 0 87.5 -4.5t94 -16t94.5 -36.5t78.5 -62t57 -96t20.5 -135q0 -255 -217 -342v-2q33 -9 65 -25.5t66 -45.5t59.5 -65t41.5 -88.5t16 -113.5q0 -111 -35 -189.5t-100 -121t-144.5 -61.5t-181.5 -19h-452zM393 805h232q124 0 189 60.5t65 178.5 q0 209 -250 209h-236v-448zM393 170h250q266 0 266 231q0 116 -70 175t-202 59h-244v-465z" />
<glyph unicode="C" horiz-adv-x="1316" d="M739 -27q-135 0 -248.5 47.5t-198 138.5t-132 233t-47.5 321q0 178 47.5 319t131.5 232t197 138.5t248 47.5q189 0 318 -89t176 -218l-180 -58q-94 191 -312 191q-196 0 -312 -142t-116 -421q0 -280 118 -423t314 -143q220 0 314 191l178 -57q-47 -130 -176.5 -219 t-319.5 -89z" />
<glyph unicode="D" horiz-adv-x="1394" d="M199 0v1423h422q110 0 207 -25t181 -80t144 -136.5t94.5 -201.5t34.5 -269q0 -184 -52 -323.5t-144 -222.5t-209 -124t-256 -41h-422zM393 170h207q77 0 145 16t131 55t108 99.5t72 155t27 215.5t-27 216t-72 155.5t-108 99.5t-130.5 55t-145.5 16h-207v-1083z" />
<glyph unicode="E" horiz-adv-x="1224" d="M199 0v1423h831v-170h-637v-454h555v-168h-555v-461h692v-170h-886z" />
<glyph unicode="F" horiz-adv-x="1122" d="M199 0v1423h854v-170h-660v-477h553v-166h-553v-610h-194z" />
<glyph unicode="G" horiz-adv-x="1452" d="M1249 1139l-182 -56q-40 88 -123 140.5t-201 52.5q-191 0 -311.5 -149.5t-120.5 -413.5q0 -260 126 -413t321 -153q226 0 344 136v299h-397v170h591v-570q-92 -99 -233.5 -154t-304.5 -55q-283 0 -464 205.5t-181 534.5q0 338 172.5 537.5t453.5 199.5q196 0 328 -86 t182 -225z" />
<glyph unicode="H" horiz-adv-x="1519" d="M199 0v1423h194v-620h733v620h195v-1423h-195v633h-733v-633h-194z" />
<glyph unicode="I" horiz-adv-x="589" d="M199 0v1423h194v-1423h-194z" />
<glyph unicode="J" horiz-adv-x="985" d="M113 0v170h125q186 0 276 93.5t90 281.5v708h-409v170h604v-878q0 -277 -140 -411t-421 -134h-125z" />
<glyph unicode="K" horiz-adv-x="1292" d="M1249 0h-243l-480 635l-133 -162v-473h-194v1423h194v-653l549 653h236l-523 -632z" />
<glyph unicode="L" horiz-adv-x="1198" d="M199 0v1423h194v-1253h660v-170h-854z" />
<glyph unicode="M" horiz-adv-x="1740" d="M199 0v1423h209l460 -850l463 850h211v-1423h-194v1079l-398 -745h-162l-395 745v-1079h-194z" />
<glyph unicode="N" horiz-adv-x="1482" d="M199 0v1423h186l707 -1081v1081h194v-1423h-186l-707 1083v-1083h-194z" />
<glyph unicode="O" horiz-adv-x="1394" d="M696 -27q-271 0 -427 188.5t-156 551.5q0 362 156 549.5t427 187.5q274 0 430 -187.5t156 -549.5q0 -364 -156 -552t-430 -188zM696 147q182 0 284.5 137t102.5 429q0 290 -102.5 426.5t-284.5 136.5t-283.5 -136t-101.5 -427q0 -293 101.5 -429.5t283.5 -136.5z" />
<glyph unicode="P" horiz-adv-x="1183" d="M199 0v1423h432q211 0 338 -117t127 -319q0 -214 -130.5 -336.5t-349.5 -122.5h-223v-528h-194zM393 696h213q135 0 213 76.5t78 208.5q0 129 -75.5 200.5t-207.5 71.5h-221v-557z" />
<glyph unicode="Q" horiz-adv-x="1394" d="M1282 713q0 -254 -78.5 -424t-222.5 -250l250 -289l-144 -110l-280 342q-53 -9 -111 -9q-271 0 -427 188.5t-156 551.5q0 362 156 549.5t427 187.5q274 0 430 -187.5t156 -549.5zM311 713q0 -293 101.5 -429.5t283.5 -136.5t284.5 137t102.5 429q0 290 -102.5 426.5 t-284.5 136.5t-283.5 -136t-101.5 -427z" />
<glyph unicode="R" horiz-adv-x="1228" d="M1159 0h-231l-299 541h-6h-230v-541h-194v1423h446q67 0 129.5 -14t123 -46.5t105 -81t72 -122.5t27.5 -166q0 -157 -71.5 -264.5t-201.5 -155.5zM393 711h217q45 0 84 7t78 26t66.5 49t45 80t17.5 116q0 132 -72.5 198t-197.5 66h-238v-542z" />
<glyph unicode="S" horiz-adv-x="1161" d="M594 -27q-177 0 -308 78.5t-190 216.5l176 62q44 -87 128.5 -135t193.5 -48q117 0 190.5 59.5t73.5 160.5q0 51 -25 91.5t-68 69t-98 53.5t-116 48.5t-122.5 49.5t-116.5 61t-98 78t-68 106.5t-25 140.5q0 177 128.5 281t328.5 104q175 0 293 -73t173 -208l-186 -59 q-35 79 -108.5 122.5t-169.5 43.5q-110 0 -181 -57.5t-71 -151.5q0 -57 32 -102t83.5 -74t118 -58.5t136 -54t136 -61t118 -79t83.5 -109t32 -150.5q0 -185 -130 -295.5t-343 -110.5z" />
<glyph unicode="T" horiz-adv-x="1247" d="M520 0v1253h-461v170h1117v-170h-461v-1253h-195z" />
<glyph unicode="U" horiz-adv-x="1380" d="M688 -27q-227 0 -364.5 139.5t-137.5 411.5v899h195v-901q0 -82 16.5 -148t51.5 -118t95.5 -80.5t143.5 -28.5q162 0 236.5 102t74.5 273v901h195v-899q0 -138 -38 -244.5t-107 -173t-160 -100t-201 -33.5z" />
<glyph unicode="V" horiz-adv-x="1359" d="M567 0l-504 1423h211l412 -1210l410 1210h200l-501 -1423h-228z" />
<glyph unicode="W" horiz-adv-x="2017" d="M465 0l-385 1423h211l301 -1192l291 1192h252l290 -1192l301 1192h211l-385 -1423h-247l-295 1171l-299 -1171h-246z" />
<glyph unicode="X" horiz-adv-x="1366" d="M1274 0h-238l-362 549l-373 -549h-213l475 717l-467 706h238l358 -542l357 542h215l-461 -710z" />
<glyph unicode="Y" horiz-adv-x="1269" d="M539 0v518l-484 905h219l363 -698l358 698h219l-481 -905v-518h-194z" />
<glyph unicode="Z" horiz-adv-x="1245" d="M113 0v152l764 1101h-746v170h981v-149l-772 -1104h793v-170h-1020z" />
<glyph unicode="[" horiz-adv-x="571" d="M549 1782v-146h-193v-1888h193v-145h-350v2179h350z" />
<glyph unicode="\" horiz-adv-x="755" d="M104 1589l699 -1687l-141 -58l-697 1690z" />
<glyph unicode="]" horiz-adv-x="571" d="M23 1782h350v-2179h-350v145h192v1888h-192v146z" />
<glyph unicode="^" horiz-adv-x="956" d="M219 399l-110 54l297 647h145l297 -647l-111 -54l-258 574z" />
<glyph unicode="_" horiz-adv-x="1445" d="M1440 -68v-153h-1434v153h1434z" />
<glyph unicode="`" horiz-adv-x="1241" d="M799 1229l-529 239l66 142l522 -254z" />
<glyph unicode="a" horiz-adv-x="1132" d="M434 -27q-144 0 -237 84t-93 226q0 161 115 246t320 85h225v125q0 98 -60.5 158.5t-156.5 60.5q-79 0 -140 -43t-88 -114l-176 47q16 50 49.5 97.5t83 89t120 66.5t149.5 25q186 0 298.5 -103.5t112.5 -285.5v-422q0 -210 48 -315h-203q-30 65 -33 147q-45 -78 -136 -126 t-198 -48zM496 135q104 0 186 69.5t82 162.5v112h-219q-246 0 -246 -182q0 -71 55.5 -116.5t141.5 -45.5z" />
<glyph unicode="b" horiz-adv-x="1202" d="M684 -27q-134 0 -220.5 63t-119.5 152q0 -118 -27 -188h-188q18 64 28.5 147t10.5 140v1249h188v-600q36 77 119.5 133.5t208.5 56.5q202 0 320 -152t118 -415q0 -270 -113.5 -428t-324.5 -158zM643 141q136 0 210.5 106.5t74.5 303.5q0 196 -74.5 301.5t-210.5 105.5 q-138 0 -212.5 -105.5t-74.5 -301.5q0 -197 75 -303.5t212 -106.5z" />
<glyph unicode="c" horiz-adv-x="1050" d="M561 -27q-103 0 -191 39t-152.5 111t-101 182.5t-36.5 245.5q0 264 135.5 419.5t345.5 155.5q162 0 274 -86.5t138 -210.5l-176 -53q-29 84 -91.5 133t-150.5 49q-127 0 -204 -111t-77 -296q0 -186 77 -298t204 -112q90 0 158.5 47t103.5 127l172 -36 q-41 -135 -160 -220.5t-268 -85.5z" />
<glyph unicode="d" horiz-adv-x="1202" d="M518 -27q-211 0 -324.5 158t-113.5 428q0 263 118 415t320 152q125 0 208.5 -56.5t119.5 -133.5v600h190v-1249q0 -154 37 -287h-186q-26 63 -29 180q-99 -207 -340 -207zM561 141q136 0 210.5 106.5t74.5 303.5q0 196 -74 301.5t-211 105.5t-212 -105.5t-75 -301.5 q0 -197 75 -303.5t212 -106.5z" />
<glyph unicode="e" horiz-adv-x="1107" d="M858 319l170 -43q-44 -131 -171 -217t-279 -86q-226 0 -362 159.5t-136 428.5q0 257 132 411t349 154q137 0 243.5 -68t161 -178.5t54.5 -242.5v-125h-744q9 -176 91 -275.5t215 -99.5q95 0 169 48t107 134zM559 963q-111 0 -183.5 -76.5t-92.5 -216.5h544 q-3 130 -76.5 211.5t-191.5 81.5z" />
<glyph unicode="f" horiz-adv-x="724" d="M215 0v928h-178v172h178v117q0 157 90 250.5t242 93.5q59 0 124.5 -13.5t100.5 -29.5l-29 -162q-86 37 -165 37q-74 0 -124.5 -43.5t-50.5 -137.5v-112h304v-172h-304v-928h-188z" />
<glyph unicode="g" horiz-adv-x="1112" d="M745 227q154 0 245 -79t91 -209q0 -164 -138 -264.5t-392 -100.5q-206 0 -339.5 89t-133.5 237q0 62 31.5 121t85.5 104q-72 60 -72 151q0 56 33.5 110t97.5 89q-127 105 -127 277q0 166 119 270t313 104q152 0 258 -65q66 66 66 164h161q0 -142 -135 -242 q80 -96 80 -231q0 -167 -118 -272t-312 -105q-114 0 -201 37q-61 -40 -61 -95q0 -38 32.5 -64t90.5 -26h325zM559 979q-113 0 -180.5 -63t-67.5 -164q0 -103 67 -166.5t181 -63.5q113 0 180.5 64t67.5 166q0 101 -68 164t-180 63zM553 -266q146 0 241 52.5t95 143.5 q0 63 -43 102.5t-111 39.5h-364q-24 0 -56 4q-61 -61 -61 -142q0 -92 82 -146t217 -54z" />
<glyph unicode="h" horiz-adv-x="1216" d="M664 1126q170 0 277.5 -111t107.5 -308v-707h-191v668q0 131 -70 203.5t-178 72.5q-103 0 -177.5 -77.5t-74.5 -213.5v-653h-188v1536h188v-580q44 72 123.5 121t182.5 49z" />
<glyph unicode="i" horiz-adv-x="528" d="M264 1321q-48 0 -82.5 32t-34.5 85t34 83.5t83 30.5q47 0 82 -30.5t35 -83.5t-35 -85t-82 -32zM170 0v1100h188v-1100h-188z" />
<glyph unicode="j" horiz-adv-x="526" d="M266 1321q-48 0 -82 32t-34 85t34 83.5t82 30.5q47 0 82 -30.5t35 -83.5t-35 -85t-82 -32zM-43 -426v164q108 0 160.5 49t52.5 176v1137h190v-1131q0 -112 -28 -190.5t-83.5 -122.5t-126 -63t-165.5 -19z" />
<glyph unicode="k" horiz-adv-x="1183" d="M1120 0h-243l-361 500l-158 -162v-338h-188v1536h188v-934l490 498h250l-445 -457z" />
<glyph unicode="l" horiz-adv-x="618" d="M537 -12q-180 0 -279.5 96.5t-99.5 269.5v1182h188v-1149q0 -107 53.5 -167t147.5 -60z" />
<glyph unicode="m" horiz-adv-x="1830" d="M170 0v1100h184v-150q41 74 119.5 125t183.5 51q100 0 177 -45.5t120 -140.5q47 86 132.5 136t193.5 50q77 0 145 -25.5t121.5 -76t85 -132.5t31.5 -187v-705h-190v668q0 134 -65 205t-163 71q-99 0 -166 -75t-67 -214v-655h-191v668q0 133 -65 204.5t-162 71.5 q-100 0 -168 -75.5t-68 -215.5v-653h-188z" />
<glyph unicode="n" horiz-adv-x="1216" d="M170 0v1100h184v-150q43 74 123.5 125t186.5 51q170 0 277.5 -111t107.5 -308v-707h-191v668q0 131 -70 203.5t-178 72.5q-103 0 -177.5 -77.5t-74.5 -213.5v-653h-188z" />
<glyph unicode="o" horiz-adv-x="1120" d="M559 -27q-221 0 -350 150t-129 428q0 277 129 426t350 149q223 0 352 -148.5t129 -426.5t-129.5 -428t-351.5 -150zM559 141q137 0 212 106.5t75 303.5q0 196 -75 301.5t-212 105.5t-211 -105.5t-74 -301.5q0 -198 74 -304t211 -106z" />
<glyph unicode="p" horiz-adv-x="1204" d="M170 -399v1499h188v-187q15 37 41.5 72.5t66 68t97.5 52.5t125 20q197 0 316.5 -148.5t119.5 -426.5q0 -279 -119.5 -428.5t-316.5 -149.5q-121 0 -204.5 59t-125.5 136v-567h-188zM643 141q137 0 212 106.5t75 303.5q0 196 -75 301.5t-212 105.5t-211 -105.5t-74 -301.5 q0 -197 74.5 -303.5t210.5 -106.5z" />
<glyph unicode="q" horiz-adv-x="1204" d="M846 -399v571q-15 -34 -41 -66t-65.5 -63.5t-97.5 -50.5t-126 -19q-198 0 -317 151.5t-119 426.5q0 273 119 424t317 151q69 0 128 -20.5t98.5 -53t64.5 -63.5t39 -61v172h190v-1499h-190zM561 141q136 0 210.5 106.5t74.5 303.5q0 196 -74 301.5t-211 105.5t-212 -105.5 t-75 -301.5q0 -197 75 -303.5t212 -106.5z" />
<glyph unicode="r" horiz-adv-x="892" d="M170 0v1100h188v-158q42 86 115.5 135t165.5 49q126 0 219 -75l-78 -172q-74 65 -168 65q-107 0 -180.5 -93t-73.5 -239v-612h-188z" />
<glyph unicode="s" horiz-adv-x="991" d="M508 -27q-169 0 -279 71t-157 173l127 96q43 -79 121 -129.5t180 -50.5q84 0 143 43.5t59 110.5q0 48 -33 83.5t-85.5 58t-116 43.5t-127 46.5t-116 59.5t-85.5 91t-33 132q0 146 107 235.5t279 89.5q147 0 253 -61.5t150 -149.5l-127 -98q-40 67 -112 108.5t-160 41.5 q-86 0 -140.5 -42t-54.5 -110q0 -41 25.5 -73.5t67.5 -52.5t95.5 -40.5t109.5 -37.5t109.5 -45t95.5 -61t67.5 -86.5t25.5 -121.5q0 -146 -112.5 -235t-276.5 -89z" />
<glyph unicode="t" horiz-adv-x="829" d="M549 -27q-146 0 -228.5 83.5t-82.5 246.5v625h-201v172h201v313l190 35v-348h291v-172h-291v-588q0 -95 38 -138.5t114 -43.5q73 0 157 43l21 -181q-107 -47 -209 -47z" />
<glyph unicode="u" horiz-adv-x="1144" d="M473 -27q-158 0 -259 104t-101 265v758h190v-725q0 -108 60 -170t159 -62q104 0 181 78.5t77 208.5v670h191v-783q0 -187 45 -317h-187q-28 62 -34 154q-39 -75 -127 -128t-195 -53z" />
<glyph unicode="v" horiz-adv-x="1138" d="M465 0l-414 1100h197l323 -897l324 897h192l-415 -1100h-207z" />
<glyph unicode="w" horiz-adv-x="1759" d="M406 0l-326 1100h186l248 -879l264 879h207l258 -879l250 879h186l-325 -1100h-209l-264 874l-267 -874h-208z" />
<glyph unicode="x" horiz-adv-x="1075" d="M1020 0h-229l-265 395l-256 -395h-219l373 549l-369 551h228l260 -387l258 387h217l-375 -539z" />
<glyph unicode="y" horiz-adv-x="1120" d="M848 1100h201l-414 -1149q-36 -103 -95.5 -178t-133 -117.5t-153 -62t-167.5 -19.5l-12 174q59 0 112.5 12t105.5 38t94.5 74t68.5 114l-441 1114h209l324 -852z" />
<glyph unicode="z" horiz-adv-x="1038" d="M84 0l-2 156l602 772h-592v172h828v-144l-603 -784h619v-172h-852z" />
<glyph unicode="{" horiz-adv-x="618" d="M473 -410q-125 0 -206 75t-81 220q0 92 51.5 312.5t51.5 277.5q0 67 -37.5 97.5t-110.5 35.5v146q73 5 110.5 35t37.5 96q0 58 -51.5 279t-51.5 313q0 144 81.5 219.5t205.5 75.5q71 0 148 -25l-19 -133q-50 16 -100 16q-73 0 -117.5 -41t-44.5 -123q0 -81 50 -292.5 t50 -278.5q0 -46 -13 -84t-30 -59.5t-41.5 -37.5t-40 -22t-32.5 -10v-2q16 -4 32.5 -10.5t40.5 -22.5t41 -37.5t30 -59t13 -83.5q0 -67 -50 -279.5t-50 -293.5q0 -82 44.5 -122t117.5 -40q57 0 100 14l19 -133q-80 -23 -148 -23z" />
<glyph unicode="|" horiz-adv-x="557" d="M199 -471v2048h159v-2048h-159z" />
<glyph unicode="}" horiz-adv-x="618" d="M145 -410q-67 0 -147 23l18 133q43 -14 101 -14q73 0 117.5 40t44.5 122q0 81 -50.5 293.5t-50.5 279.5q0 57 18 99.5t47 65t50 33t43 15.5v2q-22 5 -43 15t-50 32.5t-47 65.5t-18 100q0 67 50.5 278.5t50.5 292.5q0 82 -44.5 123t-117.5 41q-51 0 -101 -16l-18 133 q77 25 147 25q124 0 205.5 -75.5t81.5 -219.5q0 -92 -51 -313t-51 -279q0 -66 37 -96t110 -35v-146q-73 -5 -110 -35.5t-37 -97.5q0 -57 51 -277.5t51 -312.5q0 -145 -81 -220t-206 -75z" />
<glyph unicode="~" horiz-adv-x="1110" d="M242 657l-138 29q0 98 57.5 165t153.5 67q71 0 229.5 -23t215.5 -23q101 0 108 115l138 -29q-3 -98 -63 -164.5t-167 -66.5q-69 0 -228 22.5t-206 22.5q-50 0 -75 -30.5t-25 -84.5z" />
<glyph unicode="&#xa1;" horiz-adv-x="626" d="M313 1126q49 0 83 -31t34 -85q0 -52 -34 -83.5t-83 -31.5q-48 0 -81 31.5t-33 83.5q0 53 33 84.5t81 31.5zM225 717h181l8 -1028h-199z" />
<glyph unicode="&#xa2;" horiz-adv-x="1091" d="M1006 444q-38 -127 -147 -210.5t-247 -92.5v-141h-96v143q-188 22 -304 173.5t-116 400.5q0 245 116 397t304 174v135h96v-133q149 -9 250.5 -94t126.5 -201l-176 -53q-25 73 -77 120.5t-124 59.5v-813q76 10 134 56t88 116zM291 717q0 -164 60.5 -272.5t164.5 -131.5 v805q-104 -23 -164.5 -130.5t-60.5 -270.5z" />
<glyph unicode="&#xa3;" horiz-adv-x="1161" d="M379 170h665v-170h-890v164q84 51 134 155.5t50 212.5q0 51 -10 109h-215v119h186q-1 4 -9.5 32.5t-10 35t-9 32t-9.5 35.5t-7 32.5t-7 36t-4.5 33t-3.5 37t-1 35.5q0 180 107 280.5t278 100.5q167 0 271 -76t148 -205l-184 -59q-37 80 -90.5 123t-138.5 43 q-81 0 -137 -53.5t-56 -153.5q0 -31 3 -61.5t11.5 -67t13.5 -56.5t18.5 -65.5t17.5 -58.5h348v-119h-322q11 -64 11 -109q0 -104 -48.5 -207t-109.5 -155z" />
<glyph unicode="&#xa4;" horiz-adv-x="1067" d="M158 315l-66 66l162 164q-53 73 -53 182q0 108 53 184l-162 162l66 66l155 -160q94 84 219 84q130 0 220 -84l157 160l66 -66l-162 -162q53 -80 53 -184q0 -109 -53 -182l162 -164l-66 -66l-157 160q-90 -84 -220 -84q-125 0 -219 84zM532 545q76 0 130.5 53.5 t54.5 128.5t-54.5 129.5t-130.5 54.5q-75 0 -128.5 -54.5t-53.5 -129.5t53.5 -128.5t128.5 -53.5z" />
<glyph unicode="&#xa5;" horiz-adv-x="1269" d="M1214 1423l-430 -809h312v-116h-363v-168h363v-117h-363v-213h-194v213h-365v117h365v168h-365v116h313l-432 809h219l363 -698l358 698h219z" />
<glyph unicode="&#xa6;" horiz-adv-x="557" d="M199 774v803h159v-803h-159zM199 -471v803h159v-803h-159z" />
<glyph unicode="&#xa7;" horiz-adv-x="886" d="M383 -332q-137 0 -203 90q-48 67 -31 140q15 66 75 85q18 5 38 5q40 0 68 -20.5t35 -50t1 -59.5t-34.5 -50.5t-71.5 -20.5q21 -28 63 -39.5t84 -3.5t73.5 46t31.5 101q0 34 -11.5 75.5t-24 74t-43.5 87.5t-47.5 82t-59 94t-56.5 89q-50 78 -80.5 131t-64.5 127t-50 149 t-16 154q0 217 127 356.5t314 139.5q137 0 203 -90q48 -67 31 -140q-15 -66 -75 -85q-18 -5 -38 -5q-40 0 -68 20.5t-34.5 50t0 59.5t34.5 50.5t70 20.5q-21 28 -63.5 37t-85 -1.5t-74 -52t-31.5 -104.5q0 -25 5 -51t18 -56.5t23.5 -53.5t34 -61t36.5 -58.5t43.5 -66.5 t43.5 -66q58 -89 92.5 -147t78 -145.5t64.5 -173.5t21 -171q0 -132 -64 -246.5t-166.5 -180t-215.5 -65.5zM594 -115q45 38 82 113.5t37 161.5q0 119 -61.5 252t-168.5 301q-6 9 -27 43t-27.5 44t-24.5 40t-25 42t-21.5 38.5t-20.5 40.5t-16.5 37t-15.5 39t-10 35.5t-8 37.5 q-15 72 2 129q-45 -35 -79 -115.5t-34 -162.5q0 -69 13 -131.5t44 -128.5t60 -116t82 -132q35 -54 48 -74.5t44.5 -71.5t44.5 -77t36 -71t31 -75t17 -67.5t8 -69.5t-10 -62z" />
<glyph unicode="&#xa8;" horiz-adv-x="1241" d="M379 1278q-43 0 -74 27.5t-31 74.5q0 48 31 76.5t74 28.5q44 0 74 -28t30 -77q0 -47 -30 -74.5t-74 -27.5zM750 1278q-44 0 -74.5 27.5t-30.5 74.5q0 49 30.5 77t74.5 28q42 0 73 -28t31 -77q0 -47 -31 -74.5t-73 -27.5z" />
<glyph unicode="&#xa9;" horiz-adv-x="1425" d="M713 -27q-186 0 -329.5 93t-221.5 261t-78 386q0 334 173 536.5t456 202.5t455.5 -202.5t172.5 -536.5q0 -218 -78 -386t-221 -261t-329 -93zM713 82q233 0 375.5 174.5t142.5 456.5q0 285 -142 456.5t-376 171.5t-376 -171.5t-142 -456.5q0 -282 142.5 -456.5 t375.5 -174.5zM729 258q-165 0 -260.5 127t-95.5 326q0 200 96 328t260 128q72 0 145.5 -34.5t110.5 -100.5l-80 -84q-31 45 -74.5 70.5t-91.5 25.5q-106 0 -166.5 -89.5t-60.5 -243.5q0 -152 60.5 -240t166.5 -88q52 0 99.5 24t79.5 68l79 -84q-44 -65 -117 -99t-151 -34z " />
<glyph unicode="&#xaa;" horiz-adv-x="751" d="M299 743q-87 0 -143 51t-56 138q0 98 68 147t192 49h127v74q0 52 -32.5 84.5t-83.5 32.5q-44 0 -76.5 -24t-48.5 -64l-121 33q21 66 84.5 119t161.5 53q113 0 183.5 -63.5t70.5 -174.5v-242q0 -134 26 -196h-141q-15 32 -18 78q-27 -41 -79.5 -68t-113.5 -27zM330 848 q59 0 108 38.5t49 92.5v63h-127q-137 0 -137 -102q0 -41 30 -66.5t77 -25.5z" />
<glyph unicode="&#xab;" horiz-adv-x="958" d="M354 268l-241 394l241 393l127 -43l-202 -350l202 -351zM719 268l-242 394l242 393l127 -43l-203 -350l203 -351z" />
<glyph unicode="&#xac;" horiz-adv-x="1171" d="M1059 799v-527h-158v357h-788v170h946z" />
<glyph unicode="&#xad;" horiz-adv-x="946" d="M133 588v188h680v-188h-680z" />
<glyph unicode="&#xae;" horiz-adv-x="1126" d="M563 571q-195 0 -314.5 119.5t-119.5 317.5q0 199 119.5 320.5t314.5 121.5t314.5 -121.5t119.5 -320.5q0 -198 -119.5 -317.5t-314.5 -119.5zM563 655q156 0 251 96t95 257q0 165 -95 261.5t-251 96.5t-250 -96.5t-94 -261.5q0 -162 94 -257.5t250 -95.5zM426 799v438 h141q73 0 116.5 -39.5t43.5 -103.5q0 -47 -20.5 -79.5t-53.5 -45.5l84 -170l-94 -2l-68 153h-61v-151h-88zM514 1020h49q74 0 74 74q0 34 -19.5 52.5t-54.5 18.5h-49v-145z" />
<glyph unicode="&#xaf;" horiz-adv-x="1241" d="M838 1450v-143h-547v143h547z" />
<glyph unicode="&#xb0;" horiz-adv-x="831" d="M418 926q-109 0 -186.5 76.5t-77.5 185.5q0 107 77.5 184.5t186.5 77.5q107 0 183.5 -77.5t76.5 -184.5q0 -109 -76.5 -185.5t-183.5 -76.5zM418 1028q64 0 109.5 47t45.5 113t-45.5 113t-109.5 47q-67 0 -113.5 -47t-46.5 -113t46.5 -113t113.5 -47z" />
<glyph unicode="&#xb1;" horiz-adv-x="1171" d="M674 872h385v-170h-385v-380h-176v380h-385v170h385v377h176v-377zM113 0v170h946v-170h-946z" />
<glyph unicode="&#xb2;" horiz-adv-x="563" d="M43 711v106l248 234q58 57 80 92.5t22 77.5q0 48 -33 79t-88 31q-44 0 -79 -22t-50 -60l-114 33q22 66 85.5 110t159.5 44q115 0 180.5 -58t65.5 -147q0 -65 -30.5 -120t-102.5 -122l-176 -168h319v-110h-487z" />
<glyph unicode="&#xb3;" horiz-adv-x="587" d="M293 696q-102 0 -168.5 46t-91.5 118l110 37q16 -43 55 -68.5t97 -25.5q50 0 87.5 29.5t37.5 82.5q0 54 -40.5 82.5t-100.5 28.5h-80v96h80q57 0 92 26t35 83q0 45 -33.5 72.5t-79.5 27.5q-90 0 -123 -82l-115 33q20 66 82 110t156 44q104 0 169.5 -51t65.5 -138 q0 -63 -28.5 -103.5t-77.5 -56.5v-2q48 -14 84.5 -58t36.5 -114q0 -97 -69.5 -157t-180.5 -60z" />
<glyph unicode="&#xb4;" horiz-adv-x="1241" d="M334 1225l-62 127l519 262l67 -141z" />
<glyph unicode="&#xb5;" horiz-adv-x="1144" d="M971 317q0 -187 45 -317h-187q-28 62 -34 154q-39 -75 -127 -128t-195 -53q-105 0 -192 52l16 -424h-184v1499h190v-725q0 -108 60 -170t159 -62q104 0 181 78.5t77 208.5v670h191v-783z" />
<glyph unicode="&#xb6;" horiz-adv-x="993" d="M526 -242v756q-110 0 -198.5 39t-143 104t-83.5 145t-29 167q0 69 18 134.5t55 123.5t90 101.5t128 69t163 25.5h133v-1665h-133zM770 -242v1665h133v-1665h-133z" />
<glyph unicode="&#xb7;" horiz-adv-x="520" d="M260 592q-48 0 -81.5 32t-33.5 85q0 52 33.5 83t81.5 31q49 0 83 -31t34 -83q0 -54 -34 -85.5t-83 -31.5z" />
<glyph unicode="&#xb8;" horiz-adv-x="1241" d="M551 -424q-112 0 -193 51l35 82q73 -45 150 -45q50 0 78 22.5t28 51.5t-24 49t-68 20q-48 0 -84 -22l-78 43l117 172h127l-86 -113q33 11 63 11q82 0 130.5 -46t48.5 -108q0 -69 -62.5 -118.5t-181.5 -49.5z" />
<glyph unicode="&#xb9;" horiz-adv-x="393" d="M193 711v581l-150 -86l-12 111l174 106h106v-712h-118z" />
<glyph unicode="&#xba;" horiz-adv-x="718" d="M358 743q-133 0 -211.5 90.5t-78.5 256.5t78.5 256t211.5 90q135 0 214 -90t79 -256t-79 -256.5t-214 -90.5zM358 860q75 0 116.5 60t41.5 170t-41.5 169.5t-116.5 59.5t-115 -59.5t-40 -169.5q0 -111 40 -170.5t115 -59.5z" />
<glyph unicode="&#xbb;" horiz-adv-x="958" d="M240 268l-127 43l202 351l-202 350l127 43l241 -393zM604 268l-127 43l203 351l-203 350l127 43l242 -393z" />
<glyph unicode="&#xbc;" horiz-adv-x="1230" d="M193 711v581l-150 -86l-12 111l174 106h106v-712h-118zM258 0h-141l671 1423h142zM1001 0v156h-313v96l203 461h123l-197 -455h184v176h113v-176h84v-102h-84v-156h-113z" />
<glyph unicode="&#xbd;" horiz-adv-x="1216" d="M193 711v581l-150 -86l-12 111l174 106h106v-712h-118zM258 0h-141l671 1423h142zM696 0v106l248 234q59 57 81 92.5t22 77.5q0 48 -33 79.5t-88 31.5q-44 0 -79 -22t-50 -60l-115 32q22 66 86 110t160 44q115 0 180.5 -58t65.5 -147q0 -65 -31 -119t-103 -122l-176 -168 h320v-111h-488z" />
<glyph unicode="&#xbe;" horiz-adv-x="1425" d="M293 696q-102 0 -168.5 46t-91.5 118l110 37q16 -43 55 -68.5t97 -25.5q50 0 87.5 29.5t37.5 82.5q0 54 -40.5 82.5t-100.5 28.5h-80v96h80q57 0 92 26t35 83q0 45 -33.5 72.5t-79.5 27.5q-90 0 -123 -82l-115 33q20 66 82 110t156 44q104 0 169.5 -51t65.5 -138 q0 -63 -28.5 -103.5t-77.5 -56.5v-2q48 -14 84.5 -58t36.5 -114q0 -97 -69.5 -157t-180.5 -60zM453 0h-142l672 1423h141zM1196 0v156h-313v96l202 461h123l-196 -455h184v176h113v-176h84v-102h-84v-156h-113z" />
<glyph unicode="&#xbf;" horiz-adv-x="944" d="M522 1126q48 0 81.5 -31.5t33.5 -84.5q0 -52 -33.5 -83.5t-81.5 -31.5q-49 0 -82.5 31.5t-33.5 83.5q0 54 33.5 85t82.5 31zM621 717v-96q0 -72 -21 -130t-54.5 -96t-74.5 -69.5t-81.5 -59t-74 -56.5t-54.5 -70t-21 -91q0 -97 70.5 -155t170.5 -58q84 0 153 43.5 t105 122.5l187 -59q-57 -136 -173.5 -208.5t-279.5 -72.5q-84 0 -161 24.5t-138.5 70.5t-98 119t-36.5 163q0 63 21.5 115.5t55.5 88.5t75 68t82.5 63t75.5 65t55.5 82t21.5 106v90h195z" />
<glyph unicode="&#xc0;" horiz-adv-x="1259" d="M913 1679l-59 -127l-528 240l65 141zM1014 0l-107 334h-563l-106 -334h-199l469 1423h246l467 -1423h-207zM395 502h457l-229 717z" />
<glyph unicode="&#xc1;" horiz-adv-x="1259" d="M909 1792l-528 -240l-59 127l522 254zM1014 0l-107 334h-563l-106 -334h-199l469 1423h246l467 -1423h-207zM395 502h457l-229 717z" />
<glyph unicode="&#xc2;" horiz-adv-x="1259" d="M631 1753l-195 -211l-117 57l240 297h143l240 -297l-117 -57zM1014 0l-107 334h-563l-106 -334h-199l469 1423h246l467 -1423h-207zM395 502h457l-229 717z" />
<glyph unicode="&#xc3;" horiz-adv-x="1259" d="M526 1667q-34 0 -50 -19.5t-19 -60.5l-127 31q8 84 52.5 134t117.5 50q42 0 123.5 -14t107.5 -14q69 0 72 90l129 -29q-9 -90 -59 -143.5t-134 -53.5q-44 0 -118 14.5t-95 14.5zM1014 0l-107 334h-563l-106 -334h-199l469 1423h246l467 -1423h-207zM395 502h457l-229 717 z" />
<glyph unicode="&#xc4;" horiz-adv-x="1259" d="M444 1602q-42 0 -73 27.5t-31 74.5q0 48 30.5 76t73.5 28q44 0 74.5 -27.5t30.5 -76.5q0 -47 -30.5 -74.5t-74.5 -27.5zM815 1602q-44 0 -74 27.5t-30 74.5q0 49 30 76.5t74 27.5q43 0 74 -28t31 -76q0 -47 -31 -74.5t-74 -27.5zM1014 0l-107 334h-563l-106 -334h-199 l469 1423h246l467 -1423h-207zM395 502h457l-229 717z" />
<glyph unicode="&#xc5;" horiz-adv-x="1259" d="M631 1546q-86 0 -140.5 53.5t-54.5 137.5q0 83 54.5 136.5t140.5 53.5t141 -53.5t55 -136.5t-55 -137t-141 -54zM631 1833q-40 0 -66 -27t-26 -69q0 -44 26 -71.5t66 -27.5t67 27.5t27 71.5q0 42 -27 69t-67 27zM1014 0l-107 334h-563l-106 -334h-199l469 1423h246 l467 -1423h-207zM395 502h457l-229 717z" />
<glyph unicode="&#xc6;" horiz-adv-x="1955" d="M1122 170h693v-170h-887v377h-459l-199 -377h-200l761 1423h928v-170h-637v-454h557v-168h-557v-461zM557 545h371v700z" />
<glyph unicode="&#xc7;" horiz-adv-x="1316" d="M1235 281q-21 -58 -60 -109.5t-95 -94.5t-134 -70.5t-168 -31.5l-65 -88q33 11 63 11q82 0 130 -46t48 -108q0 -69 -62 -118.5t-181 -49.5q-112 0 -193 51l35 82q73 -45 149 -45q50 0 78.5 22.5t28.5 51.5t-24 49t-68 20q-48 0 -84 -22l-78 43l102 149q-246 29 -395 219 t-149 517q0 178 47.5 319t131.5 232t197 138.5t248 47.5q189 0 318 -89t176 -218l-180 -58q-94 191 -312 191q-196 0 -312 -142t-116 -421q0 -280 118 -423t314 -143q220 0 314 191z" />
<glyph unicode="&#xc8;" horiz-adv-x="1224" d="M842 1552l-529 240l66 141l522 -254zM199 0v1423h831v-170h-637v-454h555v-168h-555v-461h692v-170h-886z" />
<glyph unicode="&#xc9;" horiz-adv-x="1224" d="M369 1552l-60 127l522 254l66 -141zM199 0v1423h831v-170h-637v-454h555v-168h-555v-461h692v-170h-886z" />
<glyph unicode="&#xca;" horiz-adv-x="1224" d="M424 1542l-117 57l240 297h143l240 -297l-117 -57l-195 211zM199 0v1423h831v-170h-637v-454h555v-168h-555v-461h692v-170h-886z" />
<glyph unicode="&#xcb;" horiz-adv-x="1224" d="M432 1602q-42 0 -73 27.5t-31 74.5q0 48 30.5 76t73.5 28q44 0 74.5 -27.5t30.5 -76.5q0 -47 -30.5 -74.5t-74.5 -27.5zM803 1602q-44 0 -74.5 27.5t-30.5 74.5q0 49 30.5 76.5t74.5 27.5q43 0 73.5 -28t30.5 -76q0 -47 -31 -74.5t-73 -27.5zM199 0v1423h831v-170h-637 v-454h555v-168h-555v-461h692v-170h-886z" />
<glyph unicode="&#xcc;" horiz-adv-x="589" d="M518 1552l-528 240l65 141l523 -254zM199 0v1423h194v-1423h-194z" />
<glyph unicode="&#xcd;" horiz-adv-x="589" d="M45 1552l-59 127l522 254l65 -141zM199 0v1423h194v-1423h-194z" />
<glyph unicode="&#xce;" horiz-adv-x="589" d="M100 1542l-116 57l239 297h144l239 -297l-117 -57l-194 211zM199 0v1423h194v-1423h-194z" />
<glyph unicode="&#xcf;" horiz-adv-x="589" d="M109 1602q-43 0 -74 27.5t-31 74.5q0 48 31 76t74 28q44 0 74 -27.5t30 -76.5q0 -47 -30 -74.5t-74 -27.5zM479 1602q-44 0 -74 27.5t-30 74.5q0 49 30 76.5t74 27.5q43 0 74 -28t31 -76q0 -47 -31 -74.5t-74 -27.5zM199 0v1423h194v-1423h-194z" />
<glyph unicode="&#xd0;" horiz-adv-x="1394" d="M621 1423q110 0 207 -25t181 -80t144 -136.5t94.5 -201.5t34.5 -269q0 -184 -52 -323.5t-144 -222.5t-209 -124t-256 -41h-422v637h-172v154h172v632h422zM600 170q77 0 145 16t131 55t108 99.5t72 155t27 215.5t-27 216t-72 155.5t-108 99.5t-130.5 55t-145.5 16h-207 v-462h316v-154h-316v-467h207z" />
<glyph unicode="&#xd1;" horiz-adv-x="1482" d="M557 1587l-127 31q8 84 52.5 134t117.5 50q42 0 123.5 -14t107.5 -14q69 0 72 90l129 -29q-9 -91 -58.5 -144t-133.5 -53q-44 0 -118 14.5t-95 14.5q-34 0 -50.5 -19.5t-19.5 -60.5zM199 0v1423h186l707 -1081v1081h194v-1423h-186l-707 1083v-1083h-194z" />
<glyph unicode="&#xd2;" horiz-adv-x="1394" d="M922 1552l-529 240l66 141l522 -254zM696 -27q-271 0 -427 188.5t-156 551.5q0 362 156 549.5t427 187.5q274 0 430 -187.5t156 -549.5q0 -364 -156 -552t-430 -188zM696 147q182 0 284.5 137t102.5 429q0 290 -102.5 426.5t-284.5 136.5t-283.5 -136t-101.5 -427 q0 -293 101.5 -429.5t283.5 -136.5z" />
<glyph unicode="&#xd3;" horiz-adv-x="1394" d="M449 1552l-60 127l522 254l66 -141zM696 -27q-271 0 -427 188.5t-156 551.5q0 362 156 549.5t427 187.5q274 0 430 -187.5t156 -549.5q0 -364 -156 -552t-430 -188zM696 147q182 0 284.5 137t102.5 429q0 290 -102.5 426.5t-284.5 136.5t-283.5 -136t-101.5 -427 q0 -293 101.5 -429.5t283.5 -136.5z" />
<glyph unicode="&#xd4;" horiz-adv-x="1394" d="M504 1542l-117 57l240 297h143l240 -297l-117 -57l-195 211zM696 -27q-271 0 -427 188.5t-156 551.5q0 362 156 549.5t427 187.5q274 0 430 -187.5t156 -549.5q0 -364 -156 -552t-430 -188zM696 147q182 0 284.5 137t102.5 429q0 290 -102.5 426.5t-284.5 136.5 t-283.5 -136t-101.5 -427q0 -293 101.5 -429.5t283.5 -136.5z" />
<glyph unicode="&#xd5;" horiz-adv-x="1394" d="M524 1587l-127 31q8 84 52.5 134t117.5 50q42 0 124 -14t108 -14q68 0 71 90l129 -29q-9 -91 -58.5 -144t-133.5 -53q-44 0 -118 14.5t-95 14.5q-34 0 -50.5 -19.5t-19.5 -60.5zM696 -27q-271 0 -427 188.5t-156 551.5q0 362 156 549.5t427 187.5q274 0 430 -187.5 t156 -549.5q0 -364 -156 -552t-430 -188zM696 147q182 0 284.5 137t102.5 429q0 290 -102.5 426.5t-284.5 136.5t-283.5 -136t-101.5 -427q0 -293 101.5 -429.5t283.5 -136.5z" />
<glyph unicode="&#xd6;" horiz-adv-x="1394" d="M512 1602q-42 0 -73 27.5t-31 74.5q0 48 30.5 76t73.5 28q44 0 74 -27.5t30 -76.5q0 -47 -30 -74.5t-74 -27.5zM883 1602q-44 0 -74.5 27.5t-30.5 74.5q0 49 30.5 76.5t74.5 27.5q43 0 73.5 -28t30.5 -76q0 -47 -31 -74.5t-73 -27.5zM696 -27q-271 0 -427 188.5 t-156 551.5q0 362 156 549.5t427 187.5q274 0 430 -187.5t156 -549.5q0 -364 -156 -552t-430 -188zM696 147q182 0 284.5 137t102.5 429q0 290 -102.5 426.5t-284.5 136.5t-283.5 -136t-101.5 -427q0 -293 101.5 -429.5t283.5 -136.5z" />
<glyph unicode="&#xd7;" horiz-adv-x="1159" d="M1047 1036l-347 -346l347 -348l-121 -121l-346 348l-349 -348l-118 121l346 346l-346 348l120 119l347 -346l346 346z" />
<glyph unicode="&#xd8;" horiz-adv-x="1394" d="M1044 1341q238 -183 238 -628q0 -364 -156 -552t-430 -188q-115 0 -215 35l-61 -145l-133 43l71 170q-245 181 -245 637q0 362 156 549.5t427 187.5q130 0 228 -39l53 127l133 -43zM311 713q0 -318 123 -457l420 989q-73 31 -158 31q-182 0 -283.5 -136t-101.5 -427z M696 147q182 0 284.5 137t102.5 429q0 303 -116 444l-416 -983q65 -27 145 -27z" />
<glyph unicode="&#xd9;" horiz-adv-x="1380" d="M913 1552l-528 240l66 141l522 -254zM688 -27q-227 0 -364.5 139.5t-137.5 411.5v899h195v-901q0 -82 16.5 -148t51.5 -118t95.5 -80.5t143.5 -28.5q162 0 236.5 102t74.5 273v901h195v-899q0 -138 -38 -244.5t-107 -173t-160 -100t-201 -33.5z" />
<glyph unicode="&#xda;" horiz-adv-x="1380" d="M440 1552l-59 127l522 254l66 -141zM688 -27q-227 0 -364.5 139.5t-137.5 411.5v899h195v-901q0 -82 16.5 -148t51.5 -118t95.5 -80.5t143.5 -28.5q162 0 236.5 102t74.5 273v901h195v-899q0 -138 -38 -244.5t-107 -173t-160 -100t-201 -33.5z" />
<glyph unicode="&#xdb;" horiz-adv-x="1380" d="M496 1542l-117 57l239 297h144l239 -297l-116 -57l-195 211zM688 -27q-227 0 -364.5 139.5t-137.5 411.5v899h195v-901q0 -82 16.5 -148t51.5 -118t95.5 -80.5t143.5 -28.5q162 0 236.5 102t74.5 273v901h195v-899q0 -138 -38 -244.5t-107 -173t-160 -100t-201 -33.5z " />
<glyph unicode="&#xdc;" horiz-adv-x="1380" d="M504 1602q-43 0 -74 27.5t-31 74.5q0 48 31 76t74 28q44 0 74 -27.5t30 -76.5q0 -47 -30 -74.5t-74 -27.5zM874 1602q-44 0 -74 27.5t-30 74.5q0 49 30 76.5t74 27.5q43 0 74 -28t31 -76q0 -47 -31 -74.5t-74 -27.5zM688 -27q-227 0 -364.5 139.5t-137.5 411.5v899h195 v-901q0 -82 16.5 -148t51.5 -118t95.5 -80.5t143.5 -28.5q162 0 236.5 102t74.5 273v901h195v-899q0 -138 -38 -244.5t-107 -173t-160 -100t-201 -33.5z" />
<glyph unicode="&#xdd;" horiz-adv-x="1269" d="M387 1552l-59 127l522 254l65 -141zM539 0v518l-484 905h219l363 -698l358 698h219l-481 -905v-518h-194z" />
<glyph unicode="&#xde;" horiz-adv-x="1153" d="M199 0v1423h194v-262h225q219 0 342 -114t123 -316q0 -215 -131 -333.5t-348 -118.5h-211v-279h-194zM393 434h201q135 0 213 77.5t78 215.5q0 129 -74.5 203t-208.5 74h-209v-570z" />
<glyph unicode="&#xdf;" horiz-adv-x="1312" d="M852 -27q-131 0 -235.5 63.5t-165.5 151.5l98 119q46 -74 122.5 -125t176.5 -51q84 0 140 45.5t56 114.5q0 49 -26 86.5t-67.5 61.5t-92 45t-100.5 44.5t-91.5 53t-67.5 77t-26 109.5q0 53 21.5 96t54.5 69.5t70.5 53.5t70.5 50t54.5 57.5t21.5 76.5q0 92 -69.5 144.5 t-165.5 52.5q-109 0 -189 -67.5t-80 -188.5v-1112h-192v1106q0 109 40.5 193.5t108 135t149 76t171.5 25.5q82 0 157 -23t135 -66t96 -111t36 -152q0 -54 -21.5 -97.5t-54 -69.5t-70 -52.5t-70 -48t-54 -55t-21.5 -73.5q0 -38 26 -68.5t67.5 -53.5t91.5 -45.5t100.5 -50.5 t92 -63t67.5 -89t26 -121q0 -145 -113 -234.5t-278 -89.5z" />
<glyph unicode="&#xe0;" horiz-adv-x="1132" d="M803 1229l-529 239l66 142l522 -254zM434 -27q-144 0 -237 84t-93 226q0 161 115 246t320 85h225v125q0 98 -60.5 158.5t-156.5 60.5q-79 0 -140 -43t-88 -114l-176 47q16 50 49.5 97.5t83 89t120 66.5t149.5 25q186 0 298.5 -103.5t112.5 -285.5v-422q0 -210 48 -315 h-203q-30 65 -33 147q-45 -78 -136 -126t-198 -48zM496 135q104 0 186 69.5t82 162.5v112h-219q-246 0 -246 -182q0 -71 55.5 -116.5t141.5 -45.5z" />
<glyph unicode="&#xe1;" horiz-adv-x="1132" d="M330 1229l-60 127l523 254l65 -142zM434 -27q-144 0 -237 84t-93 226q0 161 115 246t320 85h225v125q0 98 -60.5 158.5t-156.5 60.5q-79 0 -140 -43t-88 -114l-176 47q16 50 49.5 97.5t83 89t120 66.5t149.5 25q186 0 298.5 -103.5t112.5 -285.5v-422q0 -210 48 -315 h-203q-30 65 -33 147q-45 -78 -136 -126t-198 -48zM496 135q104 0 186 69.5t82 162.5v112h-219q-246 0 -246 -182q0 -71 55.5 -116.5t141.5 -45.5z" />
<glyph unicode="&#xe2;" horiz-adv-x="1132" d="M385 1219l-117 57l240 297h143l240 -297l-117 -57l-194 211zM434 -27q-144 0 -237 84t-93 226q0 161 115 246t320 85h225v125q0 98 -60.5 158.5t-156.5 60.5q-79 0 -140 -43t-88 -114l-176 47q16 50 49.5 97.5t83 89t120 66.5t149.5 25q186 0 298.5 -103.5t112.5 -285.5 v-422q0 -210 48 -315h-203q-30 65 -33 147q-45 -78 -136 -126t-198 -48zM496 135q104 0 186 69.5t82 162.5v112h-219q-246 0 -246 -182q0 -71 55.5 -116.5t141.5 -45.5z" />
<glyph unicode="&#xe3;" horiz-adv-x="1132" d="M406 1264l-127 30q8 84 52.5 134.5t117.5 50.5q42 0 123.5 -14.5t107.5 -14.5q69 0 72 90l129 -29q-9 -90 -59 -143t-134 -53q-44 0 -118 14t-95 14q-34 0 -50 -19t-19 -60zM434 -27q-144 0 -237 84t-93 226q0 161 115 246t320 85h225v125q0 98 -60.5 158.5t-156.5 60.5 q-79 0 -140 -43t-88 -114l-176 47q16 50 49.5 97.5t83 89t120 66.5t149.5 25q186 0 298.5 -103.5t112.5 -285.5v-422q0 -210 48 -315h-203q-30 65 -33 147q-45 -78 -136 -126t-198 -48zM496 135q104 0 186 69.5t82 162.5v112h-219q-246 0 -246 -182q0 -71 55.5 -116.5 t141.5 -45.5z" />
<glyph unicode="&#xe4;" horiz-adv-x="1132" d="M393 1278q-42 0 -73 27.5t-31 74.5q0 49 31 77t73 28q44 0 74.5 -28t30.5 -77q0 -47 -30.5 -74.5t-74.5 -27.5zM764 1278q-44 0 -74.5 27.5t-30.5 74.5q0 49 30.5 77t74.5 28q42 0 73 -28t31 -77q0 -47 -31 -74.5t-73 -27.5zM434 -27q-144 0 -237 84t-93 226 q0 161 115 246t320 85h225v125q0 98 -60.5 158.5t-156.5 60.5q-79 0 -140 -43t-88 -114l-176 47q16 50 49.5 97.5t83 89t120 66.5t149.5 25q186 0 298.5 -103.5t112.5 -285.5v-422q0 -210 48 -315h-203q-30 65 -33 147q-45 -78 -136 -126t-198 -48zM496 135q104 0 186 69.5 t82 162.5v112h-219q-246 0 -246 -182q0 -71 55.5 -116.5t141.5 -45.5z" />
<glyph unicode="&#xe5;" horiz-adv-x="1132" d="M580 1604q86 0 141 -54t55 -137t-55 -136.5t-141 -53.5t-140.5 53.5t-54.5 136.5q0 84 54.5 137.5t140.5 53.5zM580 1509q-40 0 -66.5 -27t-26.5 -69q0 -44 26.5 -71t66.5 -27t67 27t27 71q0 42 -27 69t-67 27zM434 -27q-144 0 -237 84t-93 226q0 161 115 246t320 85h225 v125q0 98 -60.5 158.5t-156.5 60.5q-79 0 -140 -43t-88 -114l-176 47q16 50 49.5 97.5t83 89t120 66.5t149.5 25q186 0 298.5 -103.5t112.5 -285.5v-422q0 -210 48 -315h-203q-30 65 -33 147q-45 -78 -136 -126t-198 -48zM496 135q104 0 186 69.5t82 162.5v112h-219 q-246 0 -246 -182q0 -71 55.5 -116.5t141.5 -45.5z" />
<glyph unicode="&#xe6;" horiz-adv-x="1794" d="M1544 319l170 -43q-46 -132 -172 -217.5t-278 -85.5q-127 0 -229 53.5t-167 151.5q-150 -205 -399 -205q-161 0 -263 92.5t-102 243.5q0 158 115.5 259.5t325.5 101.5h219v71q0 96 -60.5 156.5t-156.5 60.5q-78 0 -140 -43t-88 -114l-176 47q17 50 50.5 97.5t83 89 t120 66.5t150.5 25q114 0 203.5 -41t142.5 -118q131 159 352 159q140 0 246.5 -66.5t161.5 -177.5t55 -247v-141h-745q13 -163 95 -258t206 -95q99 0 171.5 45.5t108.5 132.5zM1243 958q-111 0 -181.5 -74t-92.5 -214h544q-2 130 -75 209t-195 79zM764 403v91h-219 q-246 0 -246 -185q0 -76 56 -123t141 -45q107 -2 187.5 71.5t80.5 190.5z" />
<glyph unicode="&#xe7;" horiz-adv-x="1050" d="M989 279q-38 -124 -142.5 -207t-238.5 -97l-67 -88q33 11 63 11q82 0 130 -46t48 -108q0 -69 -62 -118.5t-181 -49.5q-112 0 -193 51l35 82q73 -45 149 -45q50 0 78.5 22.5t28.5 51.5t-24 49t-68 20q-48 0 -84 -22l-78 43l102 152q-182 27 -293.5 177t-111.5 394 q0 264 135.5 419.5t345.5 155.5q162 0 274 -86.5t138 -210.5l-176 -53q-29 84 -91.5 133t-150.5 49q-127 0 -204 -111t-77 -296q0 -186 77 -298t204 -112q90 0 158.5 47t103.5 127z" />
<glyph unicode="&#xe8;" horiz-adv-x="1107" d="M831 1356l-59 -127l-528 239l65 142zM858 319l170 -43q-44 -131 -171 -217t-279 -86q-226 0 -362 159.5t-136 428.5q0 257 132 411t349 154q137 0 243.5 -68t161 -178.5t54.5 -242.5v-125h-744q9 -176 91 -275.5t215 -99.5q95 0 169 48t107 134zM559 963 q-111 0 -183.5 -76.5t-92.5 -216.5h544q-3 130 -76.5 211.5t-191.5 81.5z" />
<glyph unicode="&#xe9;" horiz-adv-x="1107" d="M827 1468l-528 -239l-59 127l522 254zM858 319l170 -43q-44 -131 -171 -217t-279 -86q-226 0 -362 159.5t-136 428.5q0 257 132 411t349 154q137 0 243.5 -68t161 -178.5t54.5 -242.5v-125h-744q9 -176 91 -275.5t215 -99.5q95 0 169 48t107 134zM559 963 q-111 0 -183.5 -76.5t-92.5 -216.5h544q-3 130 -76.5 211.5t-191.5 81.5z" />
<glyph unicode="&#xea;" horiz-adv-x="1107" d="M549 1430l-195 -211l-116 57l239 297h144l239 -297l-117 -57zM858 319l170 -43q-44 -131 -171 -217t-279 -86q-226 0 -362 159.5t-136 428.5q0 257 132 411t349 154q137 0 243.5 -68t161 -178.5t54.5 -242.5v-125h-744q9 -176 91 -275.5t215 -99.5q95 0 169 48t107 134z M559 963q-111 0 -183.5 -76.5t-92.5 -216.5h544q-3 130 -76.5 211.5t-191.5 81.5z" />
<glyph unicode="&#xeb;" horiz-adv-x="1107" d="M362 1278q-42 0 -73 27.5t-31 74.5q0 49 31 77t73 28q44 0 74.5 -28t30.5 -77q0 -47 -30.5 -74.5t-74.5 -27.5zM733 1278q-44 0 -74 27.5t-30 74.5q0 49 30 77t74 28q43 0 74 -28.5t31 -76.5q0 -47 -31 -74.5t-74 -27.5zM858 319l170 -43q-44 -131 -171 -217t-279 -86 q-226 0 -362 159.5t-136 428.5q0 257 132 411t349 154q137 0 243.5 -68t161 -178.5t54.5 -242.5v-125h-744q9 -176 91 -275.5t215 -99.5q95 0 169 48t107 134zM559 963q-111 0 -183.5 -76.5t-92.5 -216.5h544q-3 130 -76.5 211.5t-191.5 81.5z" />
<glyph unicode="&#xec;" horiz-adv-x="528" d="M487 1229l-528 239l66 142l522 -254zM170 0v1100h188v-1100h-188z" />
<glyph unicode="&#xed;" horiz-adv-x="528" d="M14 1229l-59 127l522 254l66 -142zM170 0v1100h188v-1100h-188z" />
<glyph unicode="&#xee;" horiz-adv-x="528" d="M70 1219l-117 57l240 297h143l239 -297l-116 -57l-195 211zM170 0v1100h188v-1100h-188z" />
<glyph unicode="&#xef;" horiz-adv-x="528" d="M78 1278q-43 0 -74 27.5t-31 74.5q0 48 31 76.5t74 28.5q44 0 74 -28t30 -77q0 -47 -30 -74.5t-74 -27.5zM449 1278q-44 0 -74.5 27.5t-30.5 74.5q0 49 30.5 77t74.5 28q42 0 73 -28t31 -77q0 -47 -31 -74.5t-73 -27.5zM170 0v1100h188v-1100h-188z" />
<glyph unicode="&#xf0;" horiz-adv-x="1089" d="M1010 526v-2q0 -261 -129 -406t-338 -145q-208 0 -335.5 145t-127.5 406q0 259 127.5 403t335.5 144q73 0 137 -18q-64 103 -143 186l-213 -98l-62 106l182 84q-97 85 -192 133l149 107q116 -65 217 -160l209 96l64 -104l-184 -84q137 -159 220 -361t83 -432zM543 135 q131 0 201.5 99.5t70.5 289.5q0 187 -70.5 286t-201.5 99q-129 0 -199 -99t-70 -286q0 -190 69.5 -289.5t199.5 -99.5z" />
<glyph unicode="&#xf1;" horiz-adv-x="1216" d="M434 1264l-127 30q8 84 52.5 134.5t117.5 50.5q42 0 124 -14.5t108 -14.5q68 0 71 90l129 -29q-9 -90 -58.5 -143t-133.5 -53q-44 0 -118 14t-95 14q-34 0 -50.5 -19t-19.5 -60zM170 0v1100h184v-150q43 74 123.5 125t186.5 51q170 0 277.5 -111t107.5 -308v-707h-191 v668q0 131 -70 203.5t-178 72.5q-103 0 -177.5 -77.5t-74.5 -213.5v-653h-188z" />
<glyph unicode="&#xf2;" horiz-adv-x="1120" d="M784 1229l-528 239l66 142l522 -254zM559 -27q-221 0 -350 150t-129 428q0 277 129 426t350 149q223 0 352 -148.5t129 -426.5t-129.5 -428t-351.5 -150zM559 141q137 0 212 106.5t75 303.5q0 196 -75 301.5t-212 105.5t-211 -105.5t-74 -301.5q0 -198 74 -304t211 -106z " />
<glyph unicode="&#xf3;" horiz-adv-x="1120" d="M311 1229l-59 127l522 254l66 -142zM559 -27q-221 0 -350 150t-129 428q0 277 129 426t350 149q223 0 352 -148.5t129 -426.5t-129.5 -428t-351.5 -150zM559 141q137 0 212 106.5t75 303.5q0 196 -75 301.5t-212 105.5t-211 -105.5t-74 -301.5q0 -198 74 -304t211 -106z " />
<glyph unicode="&#xf4;" horiz-adv-x="1120" d="M367 1219l-117 57l239 297h144l239 -297l-116 -57l-195 211zM559 -27q-221 0 -350 150t-129 428q0 277 129 426t350 149q223 0 352 -148.5t129 -426.5t-129.5 -428t-351.5 -150zM559 141q137 0 212 106.5t75 303.5q0 196 -75 301.5t-212 105.5t-211 -105.5t-74 -301.5 q0 -198 74 -304t211 -106z" />
<glyph unicode="&#xf5;" horiz-adv-x="1120" d="M387 1264l-127 30q8 84 52.5 134.5t117.5 50.5q42 0 124 -14.5t108 -14.5q68 0 71 90l129 -29q-9 -90 -58.5 -143t-133.5 -53q-44 0 -118 14t-95 14q-34 0 -50.5 -19t-19.5 -60zM559 -27q-221 0 -350 150t-129 428q0 277 129 426t350 149q223 0 352 -148.5t129 -426.5 t-129.5 -428t-351.5 -150zM559 141q137 0 212 106.5t75 303.5q0 196 -75 301.5t-212 105.5t-211 -105.5t-74 -301.5q0 -198 74 -304t211 -106z" />
<glyph unicode="&#xf6;" horiz-adv-x="1120" d="M375 1278q-43 0 -74 27.5t-31 74.5q0 48 31 76.5t74 28.5q44 0 74 -28t30 -77q0 -47 -30 -74.5t-74 -27.5zM745 1278q-44 0 -74 27.5t-30 74.5q0 49 30 77t74 28q43 0 74 -28.5t31 -76.5q0 -47 -31 -74.5t-74 -27.5zM559 -27q-221 0 -350 150t-129 428q0 277 129 426 t350 149q223 0 352 -148.5t129 -426.5t-129.5 -428t-351.5 -150zM559 141q137 0 212 106.5t75 303.5q0 196 -75 301.5t-212 105.5t-211 -105.5t-74 -301.5q0 -198 74 -304t211 -106z" />
<glyph unicode="&#xf7;" horiz-adv-x="1171" d="M567 1022q-48 0 -81 31.5t-33 85.5q0 52 33 83t81 31q49 0 83 -31t34 -83q0 -54 -34 -85.5t-83 -31.5zM113 629v170h946v-170h-946zM567 174q-48 0 -81 31.5t-33 85.5q0 52 33 83.5t81 31.5q49 0 83 -31.5t34 -83.5q0 -54 -34 -85.5t-83 -31.5z" />
<glyph unicode="&#xf8;" horiz-adv-x="1120" d="M868 1020q172 -148 172 -469q0 -278 -129.5 -428t-351.5 -150q-123 0 -223 50l-60 -111l-96 55l64 119q-164 151 -164 465q0 277 129 426t350 149q126 0 217 -45l68 127l96 -55zM274 551q0 -180 64 -289l354 664q-51 32 -133 32q-137 0 -211 -105.5t-74 -301.5zM559 141 q137 0 212 106.5t75 303.5q0 186 -70 295l-356 -668q58 -37 139 -37z" />
<glyph unicode="&#xf9;" horiz-adv-x="1144" d="M768 1229l-528 239l65 142l522 -254zM473 -27q-158 0 -259 104t-101 265v758h190v-725q0 -108 60 -170t159 -62q104 0 181 78.5t77 208.5v670h191v-783q0 -187 45 -317h-187q-28 62 -34 154q-39 -75 -127 -128t-195 -53z" />
<glyph unicode="&#xfa;" horiz-adv-x="1144" d="M295 1229l-59 127l522 254l65 -142zM473 -27q-158 0 -259 104t-101 265v758h190v-725q0 -108 60 -170t159 -62q104 0 181 78.5t77 208.5v670h191v-783q0 -187 45 -317h-187q-28 62 -34 154q-39 -75 -127 -128t-195 -53z" />
<glyph unicode="&#xfb;" horiz-adv-x="1144" d="M350 1219l-117 57l240 297h143l240 -297l-117 -57l-194 211zM473 -27q-158 0 -259 104t-101 265v758h190v-725q0 -108 60 -170t159 -62q104 0 181 78.5t77 208.5v670h191v-783q0 -187 45 -317h-187q-28 62 -34 154q-39 -75 -127 -128t-195 -53z" />
<glyph unicode="&#xfc;" horiz-adv-x="1144" d="M358 1278q-42 0 -73 27.5t-31 74.5q0 49 31 77t73 28q44 0 74.5 -28t30.5 -77q0 -47 -30.5 -74.5t-74.5 -27.5zM729 1278q-44 0 -74 27.5t-30 74.5q0 49 30 77t74 28q43 0 74 -28.5t31 -76.5q0 -47 -31 -74.5t-74 -27.5zM473 -27q-158 0 -259 104t-101 265v758h190v-725 q0 -108 60 -170t159 -62q104 0 181 78.5t77 208.5v670h191v-783q0 -187 45 -317h-187q-28 62 -34 154q-39 -75 -127 -128t-195 -53z" />
<glyph unicode="&#xfd;" horiz-adv-x="1120" d="M821 1468l-528 -239l-60 127l523 254zM848 1100h201l-414 -1149q-36 -103 -95.5 -178t-133 -117.5t-153 -62t-167.5 -19.5l-12 174q59 0 112.5 12t105.5 38t94.5 74t68.5 114l-441 1114h209l324 -852z" />
<glyph unicode="&#xfe;" horiz-adv-x="1204" d="M688 1126q197 0 316.5 -148.5t119.5 -426.5q0 -279 -119.5 -428.5t-316.5 -149.5q-121 0 -204.5 59t-125.5 136v-567h-188v1935h188v-623q15 37 41.5 72.5t66 68t97.5 52.5t125 20zM643 141q137 0 212 106.5t75 303.5q0 196 -75 301.5t-212 105.5t-211 -105.5t-74 -301.5 q0 -197 74.5 -303.5t210.5 -106.5z" />
<glyph unicode="&#xff;" horiz-adv-x="1120" d="M356 1278q-42 0 -73 27.5t-31 74.5q0 49 31 77t73 28q44 0 74.5 -28t30.5 -77q0 -47 -30.5 -74.5t-74.5 -27.5zM727 1278q-44 0 -74 27.5t-30 74.5q0 49 30 77t74 28q42 0 73 -28t31 -77q0 -47 -31 -74.5t-73 -27.5zM848 1100h201l-414 -1149q-36 -103 -95.5 -178 t-133 -117.5t-153 -62t-167.5 -19.5l-12 174q59 0 112.5 12t105.5 38t94.5 74t68.5 114l-441 1114h209l324 -852z" />
<glyph unicode="&#x100;" horiz-adv-x="1259" d="M903 1774v-144h-547v144h547zM1014 0l-107 334h-563l-106 -334h-199l469 1423h246l467 -1423h-207zM395 502h457l-229 717z" />
<glyph unicode="&#x101;" horiz-adv-x="1132" d="M852 1450v-143h-547v143h547zM434 -27q-144 0 -237 84t-93 226q0 161 115 246t320 85h225v125q0 98 -60.5 158.5t-156.5 60.5q-79 0 -140 -43t-88 -114l-176 47q16 50 49.5 97.5t83 89t120 66.5t149.5 25q186 0 298.5 -103.5t112.5 -285.5v-422q0 -210 48 -315h-203 q-30 65 -33 147q-45 -78 -136 -126t-198 -48zM496 135q104 0 186 69.5t82 162.5v112h-219q-246 0 -246 -182q0 -71 55.5 -116.5t141.5 -45.5z" />
<glyph unicode="&#x102;" horiz-adv-x="1259" d="M631 1569q-122 0 -197 71t-76 213h138q0 -74 37 -114.5t98 -40.5t97 40.5t36 114.5h139q-1 -142 -75.5 -213t-196.5 -71zM1014 0l-107 334h-563l-106 -334h-199l469 1423h246l467 -1423h-207zM395 502h457l-229 717z" />
<glyph unicode="&#x103;" horiz-adv-x="1132" d="M580 1245q-122 0 -197 71.5t-76 213.5h137q0 -74 37.5 -115t98.5 -41t97 41t36 115h139q-1 -142 -75.5 -213.5t-196.5 -71.5zM434 -27q-144 0 -237 84t-93 226q0 161 115 246t320 85h225v125q0 98 -60.5 158.5t-156.5 60.5q-79 0 -140 -43t-88 -114l-176 47 q16 50 49.5 97.5t83 89t120 66.5t149.5 25q186 0 298.5 -103.5t112.5 -285.5v-422q0 -210 48 -315h-203q-30 65 -33 147q-45 -78 -136 -126t-198 -48zM496 135q104 0 186 69.5t82 162.5v112h-219q-246 0 -246 -182q0 -71 55.5 -116.5t141.5 -45.5z" />
<glyph unicode="&#x104;" horiz-adv-x="1259" d="M1071 -145q0 -48 30 -77t85 -30l-27 -125q-106 1 -166.5 56t-60.5 139q0 92 82 182l-107 334h-563l-106 -334h-199l469 1423h246l467 -1423h-74q-76 -80 -76 -145zM395 502h457l-229 717z" />
<glyph unicode="&#x105;" horiz-adv-x="1132" d="M858 -145q0 -48 30 -77t85 -30l-27 -125q-106 1 -166.5 56t-60.5 139q0 92 82 182q-30 65 -33 147q-45 -78 -136 -126t-198 -48q-144 0 -237 84t-93 226q0 161 115 246t320 85h225v125q0 98 -60.5 158.5t-156.5 60.5q-79 0 -140 -43t-88 -114l-176 47q16 50 49.5 97.5 t83 89t120 66.5t149.5 25q186 0 298.5 -103.5t112.5 -285.5v-422q0 -210 48 -315h-70q-76 -80 -76 -145zM764 367v112h-219q-246 0 -246 -182q0 -71 55.5 -116.5t141.5 -45.5q104 0 186 69.5t82 162.5z" />
<glyph unicode="&#x106;" horiz-adv-x="1316" d="M485 1552l-59 127l522 254l66 -141zM739 -27q-135 0 -248.5 47.5t-198 138.5t-132 233t-47.5 321q0 178 47.5 319t131.5 232t197 138.5t248 47.5q189 0 318 -89t176 -218l-180 -58q-94 191 -312 191q-196 0 -312 -142t-116 -421q0 -280 118 -423t314 -143q220 0 314 191 l178 -57q-47 -130 -176.5 -219t-319.5 -89z" />
<glyph unicode="&#x107;" horiz-adv-x="1050" d="M313 1229l-59 127l522 254l66 -142zM561 -27q-103 0 -191 39t-152.5 111t-101 182.5t-36.5 245.5q0 264 135.5 419.5t345.5 155.5q162 0 274 -86.5t138 -210.5l-176 -53q-29 84 -91.5 133t-150.5 49q-127 0 -204 -111t-77 -296q0 -186 77 -298t204 -112q90 0 158.5 47 t103.5 127l172 -36q-41 -135 -160 -220.5t-268 -85.5z" />
<glyph unicode="&#x108;" horiz-adv-x="1316" d="M541 1542l-117 57l240 297h143l240 -297l-117 -57l-195 211zM739 -27q-135 0 -248.5 47.5t-198 138.5t-132 233t-47.5 321q0 178 47.5 319t131.5 232t197 138.5t248 47.5q189 0 318 -89t176 -218l-180 -58q-94 191 -312 191q-196 0 -312 -142t-116 -421q0 -280 118 -423 t314 -143q220 0 314 191l178 -57q-47 -130 -176.5 -219t-319.5 -89z" />
<glyph unicode="&#x109;" horiz-adv-x="1050" d="M369 1219l-117 57l240 297h143l239 -297l-116 -57l-195 211zM561 -27q-103 0 -191 39t-152.5 111t-101 182.5t-36.5 245.5q0 264 135.5 419.5t345.5 155.5q162 0 274 -86.5t138 -210.5l-176 -53q-29 84 -91.5 133t-150.5 49q-127 0 -204 -111t-77 -296q0 -186 77 -298 t204 -112q90 0 158.5 47t103.5 127l172 -36q-41 -135 -160 -220.5t-268 -85.5z" />
<glyph unicode="&#x10a;" horiz-adv-x="1316" d="M735 1597q-45 0 -76.5 29.5t-31.5 79.5t31.5 79.5t76.5 29.5q44 0 76.5 -29.5t32.5 -79.5t-32.5 -79.5t-76.5 -29.5zM739 -27q-135 0 -248.5 47.5t-198 138.5t-132 233t-47.5 321q0 178 47.5 319t131.5 232t197 138.5t248 47.5q189 0 318 -89t176 -218l-180 -58 q-94 191 -312 191q-196 0 -312 -142t-116 -421q0 -280 118 -423t314 -143q220 0 314 191l178 -57q-47 -130 -176.5 -219t-319.5 -89z" />
<glyph unicode="&#x10b;" horiz-adv-x="1050" d="M563 1274q-45 0 -76.5 29.5t-31.5 78.5t31.5 77t76.5 28q43 0 75 -28.5t32 -76.5q0 -49 -32.5 -78.5t-74.5 -29.5zM561 -27q-103 0 -191 39t-152.5 111t-101 182.5t-36.5 245.5q0 264 135.5 419.5t345.5 155.5q162 0 274 -86.5t138 -210.5l-176 -53q-29 84 -91.5 133 t-150.5 49q-127 0 -204 -111t-77 -296q0 -186 77 -298t204 -112q90 0 158.5 47t103.5 127l172 -36q-41 -135 -160 -220.5t-268 -85.5z" />
<glyph unicode="&#x10c;" horiz-adv-x="1316" d="M676 1561l-254 268l131 45l184 -186l183 186l131 -45l-254 -268h-121zM739 -27q-135 0 -248.5 47.5t-198 138.5t-132 233t-47.5 321q0 178 47.5 319t131.5 232t197 138.5t248 47.5q189 0 318 -89t176 -218l-180 -58q-94 191 -312 191q-196 0 -312 -142t-116 -421 q0 -280 118 -423t314 -143q220 0 314 191l178 -57q-47 -130 -176.5 -219t-319.5 -89z" />
<glyph unicode="&#x10d;" horiz-adv-x="1050" d="M504 1237l-254 268l131 45l184 -186l183 186l131 -45l-254 -268h-121zM561 -27q-103 0 -191 39t-152.5 111t-101 182.5t-36.5 245.5q0 264 135.5 419.5t345.5 155.5q162 0 274 -86.5t138 -210.5l-176 -53q-29 84 -91.5 133t-150.5 49q-127 0 -204 -111t-77 -296 q0 -186 77 -298t204 -112q90 0 158.5 47t103.5 127l172 -36q-41 -135 -160 -220.5t-268 -85.5z" />
<glyph unicode="&#x10e;" horiz-adv-x="1394" d="M580 1561l-254 268l131 45l184 -186l182 186l131 -45l-254 -268h-120zM199 0v1423h422q110 0 207 -25t181 -80t144 -136.5t94.5 -201.5t34.5 -269q0 -184 -52 -323.5t-144 -222.5t-209 -124t-256 -41h-422zM393 170h207q77 0 145 16t131 55t108 99.5t72 155t27 215.5 t-27 216t-72 155.5t-108 99.5t-130.5 55t-145.5 16h-207v-1083z" />
<glyph unicode="&#x10f;" horiz-adv-x="1202" d="M518 -27q-211 0 -324.5 158t-113.5 428q0 263 118 415t320 152q125 0 208.5 -56.5t119.5 -133.5v600h190v-1249q0 -154 37 -287h-186q-26 63 -29 180q-99 -207 -340 -207zM1274 1159h-137l39 377h157zM561 141q136 0 210.5 106.5t74.5 303.5q0 196 -74 301.5t-211 105.5 t-212 -105.5t-75 -301.5q0 -197 75 -303.5t212 -106.5z" />
<glyph unicode="&#x110;" horiz-adv-x="1394" d="M621 1423q110 0 207 -25t181 -80t144 -136.5t94.5 -201.5t34.5 -269q0 -184 -52 -323.5t-144 -222.5t-209 -124t-256 -41h-422v637h-172v154h172v632h422zM600 170q77 0 145 16t131 55t108 99.5t72 155t27 215.5t-27 216t-72 155.5t-108 99.5t-130.5 55t-145.5 16h-207 v-462h316v-154h-316v-467h207z" />
<glyph unicode="&#x111;" horiz-adv-x="1202" d="M1165 1264h-129v-977q0 -154 37 -287h-186q-26 63 -29 180q-99 -207 -340 -207q-211 0 -324.5 158t-113.5 428q0 263 118 415t320 152q125 0 208.5 -56.5t119.5 -133.5v328h-275v137h275v135h190v-135h129v-137zM561 141q136 0 210.5 106.5t74.5 303.5q0 196 -74 301.5 t-211 105.5t-212 -105.5t-75 -301.5q0 -197 75 -303.5t212 -106.5z" />
<glyph unicode="&#x112;" horiz-adv-x="1224" d="M891 1774v-144h-547v144h547zM199 0v1423h831v-170h-637v-454h555v-168h-555v-461h692v-170h-886z" />
<glyph unicode="&#x113;" horiz-adv-x="1107" d="M821 1450v-143h-547v143h547zM858 319l170 -43q-44 -131 -171 -217t-279 -86q-226 0 -362 159.5t-136 428.5q0 257 132 411t349 154q137 0 243.5 -68t161 -178.5t54.5 -242.5v-125h-744q9 -176 91 -275.5t215 -99.5q95 0 169 48t107 134zM559 963q-111 0 -183.5 -76.5 t-92.5 -216.5h544q-3 130 -76.5 211.5t-191.5 81.5z" />
<glyph unicode="&#x114;" horiz-adv-x="1224" d="M618 1569q-122 0 -196.5 71t-75.5 213h137q0 -74 37 -114.5t98 -40.5t97.5 40.5t36.5 114.5h139q-1 -142 -76 -213t-197 -71zM199 0v1423h831v-170h-637v-454h555v-168h-555v-461h692v-170h-886z" />
<glyph unicode="&#x115;" horiz-adv-x="1107" d="M549 1245q-122 0 -197 71.5t-76 213.5h138q0 -74 37 -115t98 -41t97 41t36 115h139q-1 -142 -75.5 -213.5t-196.5 -71.5zM858 319l170 -43q-44 -131 -171 -217t-279 -86q-226 0 -362 159.5t-136 428.5q0 257 132 411t349 154q137 0 243.5 -68t161 -178.5t54.5 -242.5 v-125h-744q9 -176 91 -275.5t215 -99.5q95 0 169 48t107 134zM559 963q-111 0 -183.5 -76.5t-92.5 -216.5h544q-3 130 -76.5 211.5t-191.5 81.5z" />
<glyph unicode="&#x116;" horiz-adv-x="1224" d="M618 1597q-45 0 -76.5 29.5t-31.5 79.5t31.5 79.5t76.5 29.5q44 0 76.5 -29.5t32.5 -79.5t-32.5 -79.5t-76.5 -29.5zM199 0v1423h831v-170h-637v-454h555v-168h-555v-461h692v-170h-886z" />
<glyph unicode="&#x117;" horiz-adv-x="1107" d="M549 1274q-45 0 -77 29.5t-32 78.5t32 77t77 28q43 0 74.5 -28.5t31.5 -76.5q0 -49 -32 -78.5t-74 -29.5zM858 319l170 -43q-44 -131 -171 -217t-279 -86q-226 0 -362 159.5t-136 428.5q0 257 132 411t349 154q137 0 243.5 -68t161 -178.5t54.5 -242.5v-125h-744 q9 -176 91 -275.5t215 -99.5q95 0 169 48t107 134zM559 963q-111 0 -183.5 -76.5t-92.5 -216.5h544q-3 130 -76.5 211.5t-191.5 81.5z" />
<glyph unicode="&#x118;" horiz-adv-x="1224" d="M1008 -145q0 -48 29.5 -77t84.5 -30l-26 -125q-106 1 -167 56t-61 139q0 92 82 182h-751v1423h831v-170h-637v-454h555v-168h-555v-461h692v-170h-2q-75 -79 -75 -145z" />
<glyph unicode="&#x119;" horiz-adv-x="1107" d="M1028 276q-33 -97 -114.5 -171.5t-188.5 -108.5q-72 -76 -72 -141q0 -48 30 -77t85 -30l-27 -125q-106 1 -166.5 56t-60.5 139q0 77 59 155q-225 2 -359 161t-134 427q0 257 132 411t349 154q137 0 243.5 -68t161 -178.5t54.5 -242.5v-125h-744q9 -176 91 -275.5 t215 -99.5q95 0 169 48t107 134zM559 963q-111 0 -183.5 -76.5t-92.5 -216.5h544q-3 130 -76.5 211.5t-191.5 81.5z" />
<glyph unicode="&#x11a;" horiz-adv-x="1224" d="M559 1561l-254 268l131 45l185 -186l182 186l131 -45l-254 -268h-121zM199 0v1423h831v-170h-637v-454h555v-168h-555v-461h692v-170h-886z" />
<glyph unicode="&#x11b;" horiz-adv-x="1107" d="M610 1237h-121l-253 268l131 45l184 -186l182 186l131 -45zM858 319l170 -43q-44 -131 -171 -217t-279 -86q-226 0 -362 159.5t-136 428.5q0 257 132 411t349 154q137 0 243.5 -68t161 -178.5t54.5 -242.5v-125h-744q9 -176 91 -275.5t215 -99.5q95 0 169 48t107 134z M559 963q-111 0 -183.5 -76.5t-92.5 -216.5h544q-3 130 -76.5 211.5t-191.5 81.5z" />
<glyph unicode="&#x11c;" horiz-adv-x="1452" d="M539 1542l-117 57l240 297h143l239 -297l-116 -57l-195 211zM1249 1139l-182 -56q-40 88 -123 140.5t-201 52.5q-191 0 -311.5 -149.5t-120.5 -413.5q0 -260 126 -413t321 -153q226 0 344 136v299h-397v170h591v-570q-92 -99 -233.5 -154t-304.5 -55q-283 0 -464 205.5 t-181 534.5q0 338 172.5 537.5t453.5 199.5q196 0 328 -86t182 -225z" />
<glyph unicode="&#x11d;" horiz-adv-x="1112" d="M559 1440l-194 -211l-117 57l239 297h144l239 -297l-116 -57zM745 227q154 0 245 -79t91 -209q0 -164 -138 -264.5t-392 -100.5q-206 0 -339.5 89t-133.5 237q0 62 31.5 121t85.5 104q-72 60 -72 151q0 56 33.5 110t97.5 89q-127 105 -127 277q0 166 119 270t313 104 q152 0 258 -65q66 66 66 164h161q0 -142 -135 -242q80 -96 80 -231q0 -167 -118 -272t-312 -105q-114 0 -201 37q-61 -40 -61 -95q0 -38 32.5 -64t90.5 -26h325zM559 979q-113 0 -180.5 -63t-67.5 -164q0 -103 67 -166.5t181 -63.5q113 0 180.5 64t67.5 166q0 101 -68 164 t-180 63zM553 -266q146 0 241 52.5t95 143.5q0 63 -43 102.5t-111 39.5h-364q-24 0 -56 4q-61 -61 -61 -142q0 -92 82 -146t217 -54z" />
<glyph unicode="&#x11e;" horiz-adv-x="1452" d="M733 1569q-122 0 -196.5 71t-75.5 213h137q0 -74 37 -114.5t98 -40.5t97 40.5t36 114.5h140q-1 -142 -76 -213t-197 -71zM1249 1139l-182 -56q-40 88 -123 140.5t-201 52.5q-191 0 -311.5 -149.5t-120.5 -413.5q0 -260 126 -413t321 -153q226 0 344 136v299h-397v170h591 v-570q-92 -99 -233.5 -154t-304.5 -55q-283 0 -464 205.5t-181 534.5q0 338 172.5 537.5t453.5 199.5q196 0 328 -86t182 -225z" />
<glyph unicode="&#x11f;" horiz-adv-x="1112" d="M559 1255q-122 0 -196.5 71.5t-75.5 213.5h137q0 -74 37 -115t98 -41t97 41t36 115h139q-1 -142 -75.5 -213.5t-196.5 -71.5zM745 227q154 0 245 -79t91 -209q0 -164 -138 -264.5t-392 -100.5q-206 0 -339.5 89t-133.5 237q0 62 31.5 121t85.5 104q-72 60 -72 151 q0 56 33.5 110t97.5 89q-127 105 -127 277q0 166 119 270t313 104q152 0 258 -65q66 66 66 164h161q0 -142 -135 -242q80 -96 80 -231q0 -167 -118 -272t-312 -105q-114 0 -201 37q-61 -40 -61 -95q0 -38 32.5 -64t90.5 -26h325zM559 979q-113 0 -180.5 -63t-67.5 -164 q0 -103 67 -166.5t181 -63.5q113 0 180.5 64t67.5 166q0 101 -68 164t-180 63zM553 -266q146 0 241 52.5t95 143.5q0 63 -43 102.5t-111 39.5h-364q-24 0 -56 4q-61 -61 -61 -142q0 -92 82 -146t217 -54z" />
<glyph unicode="&#x120;" horiz-adv-x="1452" d="M733 1597q-45 0 -76.5 29.5t-31.5 79.5t31.5 79.5t76.5 29.5q44 0 76.5 -29.5t32.5 -79.5t-32.5 -79.5t-76.5 -29.5zM1249 1139l-182 -56q-40 88 -123 140.5t-201 52.5q-191 0 -311.5 -149.5t-120.5 -413.5q0 -260 126 -413t321 -153q226 0 344 136v299h-397v170h591 v-570q-92 -99 -233.5 -154t-304.5 -55q-283 0 -464 205.5t-181 534.5q0 338 172.5 537.5t453.5 199.5q196 0 328 -86t182 -225z" />
<glyph unicode="&#x121;" horiz-adv-x="1112" d="M559 1284q-45 0 -76.5 30t-31.5 79t31.5 76.5t76.5 27.5q43 0 75 -28t32 -76q0 -49 -32.5 -79t-74.5 -30zM745 227q154 0 245 -79t91 -209q0 -164 -138 -264.5t-392 -100.5q-206 0 -339.5 89t-133.5 237q0 62 31.5 121t85.5 104q-72 60 -72 151q0 56 33.5 110t97.5 89 q-127 105 -127 277q0 166 119 270t313 104q152 0 258 -65q66 66 66 164h161q0 -142 -135 -242q80 -96 80 -231q0 -167 -118 -272t-312 -105q-114 0 -201 37q-61 -40 -61 -95q0 -38 32.5 -64t90.5 -26h325zM559 979q-113 0 -180.5 -63t-67.5 -164q0 -103 67 -166.5t181 -63.5 q113 0 180.5 64t67.5 166q0 101 -68 164t-180 63zM553 -266q146 0 241 52.5t95 143.5q0 63 -43 102.5t-111 39.5h-364q-24 0 -56 4q-61 -61 -61 -142q0 -92 82 -146t217 -54z" />
<glyph unicode="&#x122;" horiz-adv-x="1452" d="M1249 1139l-182 -56q-40 88 -123 140.5t-201 52.5q-191 0 -311.5 -149.5t-120.5 -413.5q0 -260 126 -413t321 -153q226 0 344 136v299h-397v170h591v-570q-92 -99 -233.5 -154t-304.5 -55q-283 0 -464 205.5t-181 534.5q0 338 172.5 537.5t453.5 199.5q196 0 328 -86 t182 -225zM721 -535l-62 70q106 57 123 182q-17 -14 -43 -14q-49 0 -76.5 29t-27.5 69q0 41 30.5 72t84.5 31q67 0 104 -42.5t37 -109.5q0 -87 -42.5 -163.5t-127.5 -123.5z" />
<glyph unicode="&#x123;" horiz-adv-x="1112" d="M565 1255q-67 0 -104 42.5t-37 109.5q0 87 42.5 163.5t127.5 123.5l61 -70q-106 -57 -123 -182q17 14 43 14q50 0 77.5 -29t27.5 -69q0 -41 -30.5 -72t-84.5 -31zM745 227q154 0 245 -79t91 -209q0 -164 -138 -264.5t-392 -100.5q-206 0 -339.5 89t-133.5 237 q0 62 31.5 121t85.5 104q-72 60 -72 151q0 56 33.5 110t97.5 89q-127 105 -127 277q0 166 119 270t313 104q152 0 258 -65q66 66 66 164h161q0 -142 -135 -242q80 -96 80 -231q0 -167 -118 -272t-312 -105q-114 0 -201 37q-61 -40 -61 -95q0 -38 32.5 -64t90.5 -26h325z M559 979q-113 0 -180.5 -63t-67.5 -164q0 -103 67 -166.5t181 -63.5q113 0 180.5 64t67.5 166q0 101 -68 164t-180 63zM553 -266q146 0 241 52.5t95 143.5q0 63 -43 102.5t-111 39.5h-364q-24 0 -56 4q-61 -61 -61 -142q0 -92 82 -146t217 -54z" />
<glyph unicode="&#x124;" horiz-adv-x="1519" d="M565 1542l-116 57l239 297h143l240 -297l-117 -57l-194 211zM199 0v1423h194v-620h733v620h195v-1423h-195v633h-733v-633h-194z" />
<glyph unicode="&#x125;" horiz-adv-x="1216" d="M442 1614l-194 211l-195 -211l-116 57l239 297h143l240 -297zM664 1126q170 0 277.5 -111t107.5 -308v-707h-191v668q0 131 -70 203.5t-178 72.5q-103 0 -177.5 -77.5t-74.5 -213.5v-653h-188v1536h188v-580q44 72 123.5 121t182.5 49z" />
<glyph unicode="&#x126;" horiz-adv-x="1519" d="M1475 1206v-153h-154v-1053h-195v633h-733v-633h-194v1053h-154v153h154v217h194v-217h733v217h195v-217h154zM1126 803v250h-733v-250h733z" />
<glyph unicode="&#x127;" horiz-adv-x="1216" d="M664 1126q170 0 277.5 -111t107.5 -308v-707h-191v668q0 131 -70 203.5t-178 72.5q-103 0 -177.5 -77.5t-74.5 -213.5v-653h-188v1288h-158v137h158v111h188v-111h248v-137h-248v-332q44 72 123.5 121t182.5 49z" />
<glyph unicode="&#x128;" horiz-adv-x="589" d="M121 1587l-127 31q8 84 52.5 134t117.5 50q42 0 123.5 -14t107.5 -14q69 0 72 90l129 -29q-9 -90 -59 -143.5t-134 -53.5q-44 0 -118 14.5t-95 14.5q-34 0 -50 -19.5t-19 -60.5zM199 0v1423h194v-1423h-194z" />
<glyph unicode="&#x129;" horiz-adv-x="528" d="M90 1264l-127 30q8 84 52.5 134.5t117.5 50.5q42 0 124 -14.5t108 -14.5q68 0 71 90l129 -29q-9 -90 -58.5 -143t-133.5 -53q-44 0 -118 14t-95 14q-34 0 -50.5 -19t-19.5 -60zM170 0v1100h188v-1100h-188z" />
<glyph unicode="&#x12a;" horiz-adv-x="589" d="M567 1774v-144h-547v144h547zM199 0v1423h194v-1423h-194z" />
<glyph unicode="&#x12b;" horiz-adv-x="528" d="M537 1450v-143h-547v143h547zM170 0v1100h188v-1100h-188z" />
<glyph unicode="&#x12c;" horiz-adv-x="589" d="M295 1569q-122 0 -196.5 71t-75.5 213h137q0 -74 37 -114.5t98 -40.5t97 40.5t36 114.5h139q-1 -142 -75.5 -213t-196.5 -71zM199 0v1423h194v-1423h-194z" />
<glyph unicode="&#x12d;" horiz-adv-x="528" d="M264 1245q-122 0 -196.5 71.5t-75.5 213.5h137q0 -74 37 -115t98 -41t97 41t36 115h140q-1 -142 -76 -213.5t-197 -71.5zM170 0v1100h188v-1100h-188z" />
<glyph unicode="&#x12e;" horiz-adv-x="589" d="M393 0h-41q-76 -80 -76 -145q0 -48 30 -77t85 -30l-26 -125q-106 1 -167 56t-61 139q0 92 82 182h-20v1423h194v-1423z" />
<glyph unicode="&#x12f;" horiz-adv-x="528" d="M264 1321q-48 0 -82.5 32t-34.5 85t34 83.5t83 30.5q47 0 82 -30.5t35 -83.5t-35 -85t-82 -32zM246 -145q0 -48 29.5 -77t84.5 -30l-26 -125q-106 1 -167 56t-61 139q0 92 82 182h-18v1100h188v-1100h-36q-76 -80 -76 -145z" />
<glyph unicode="&#x130;" horiz-adv-x="589" d="M295 1597q-45 0 -77 29.5t-32 79.5t32 79.5t77 29.5q44 0 76 -29.5t32 -79.5t-32 -79.5t-76 -29.5zM199 0v1423h194v-1423h-194z" />
<glyph unicode="&#x131;" horiz-adv-x="528" d="M170 0v1100h188v-1100h-188z" />
<glyph unicode="&#x132;" horiz-adv-x="1562" d="M199 0v1423h194v-1423h-194zM690 0v170h125q186 0 276.5 94t90.5 281v708h-410v170h604v-878q0 -277 -140 -411t-421 -134h-125z" />
<glyph unicode="&#x133;" horiz-adv-x="1079" d="M264 1321q-48 0 -82.5 32t-34.5 85t34 83.5t83 30.5q47 0 82 -30.5t35 -83.5t-35 -85t-82 -32zM819 1321q-48 0 -82.5 32t-34.5 85t34 83.5t83 30.5q47 0 82 -30.5t35 -83.5t-35 -85t-82 -32zM170 0v1100h188v-1100h-188zM510 -426v164q108 0 160.5 49t52.5 176v1137h190 v-1131q0 -112 -28 -190.5t-83.5 -122.5t-126 -63t-165.5 -19z" />
<glyph unicode="&#x134;" horiz-adv-x="985" d="M344 1542l-117 57l240 297h143l240 -297l-117 -57l-194 211zM113 0v170h125q186 0 276 93.5t90 281.5v708h-409v170h604v-878q0 -277 -140 -411t-421 -134h-125z" />
<glyph unicode="&#x135;" horiz-adv-x="526" d="M72 1219l-117 57l240 297h143l240 -297l-117 -57l-195 211zM-43 -426v164q108 0 160.5 49t52.5 176v1137h190v-1131q0 -112 -28 -190.5t-83.5 -122.5t-126 -63t-165.5 -19z" />
<glyph unicode="&#x136;" horiz-adv-x="1292" d="M655 791l594 -791h-243l-480 635l-133 -162v-473h-194v1423h194v-653l549 653h236zM680 -96q67 0 104 -42.5t37 -109.5q0 -87 -42.5 -163.5t-127.5 -123.5l-61 70q106 57 123 182q-17 -14 -43 -14q-50 0 -77.5 29t-27.5 69q0 41 30.5 72t84.5 31z" />
<glyph unicode="&#x137;" horiz-adv-x="1183" d="M653 643l467 -643h-243l-361 500l-158 -162v-338h-188v1536h188v-934l490 498h250zM549 -96q67 0 104 -42.5t37 -109.5q0 -87 -42.5 -163.5t-127.5 -123.5l-61 70q106 57 123 182q-17 -14 -43 -14q-50 0 -77.5 29t-27.5 69q0 41 30.5 72t84.5 31z" />
<glyph unicode="&#x138;" horiz-adv-x="1062" d="M1014 0h-230l-317 459l-109 -140v-319h-188v1100h188v-500l398 500h211l-371 -475z" />
<glyph unicode="&#x139;" horiz-adv-x="1198" d="M78 1552l-60 127l523 254l65 -141zM199 0v1423h194v-1253h660v-170h-854z" />
<glyph unicode="&#x13a;" horiz-adv-x="618" d="M4 1657l-59 127l522 254l65 -142zM537 -12q-180 0 -279.5 96.5t-99.5 269.5v1182h188v-1149q0 -107 53.5 -167t147.5 -60z" />
<glyph unicode="&#x13b;" horiz-adv-x="1198" d="M199 0v1423h194v-1253h660v-170h-854zM592 -535l-62 70q106 57 123 182q-17 -14 -43 -14q-50 0 -77 29t-27 69q0 41 30.5 72t84.5 31q67 0 104 -42.5t37 -109.5q0 -87 -42.5 -163.5t-127.5 -123.5z" />
<glyph unicode="&#x13c;" horiz-adv-x="618" d="M537 -12q-180 0 -279.5 96.5t-99.5 269.5v1182h188v-1149q0 -107 53.5 -167t147.5 -60zM311 -535l-61 70q106 57 123 182q-17 -14 -43 -14q-50 0 -77.5 29t-27.5 69q0 41 30.5 72t84.5 31q67 0 104 -42.5t37 -109.5q0 -87 -42.5 -163.5t-127.5 -123.5z" />
<glyph unicode="&#x13d;" horiz-adv-x="1198" d="M199 0v1423h194v-1253h660v-170h-854zM692 1047h-137l39 376h158z" />
<glyph unicode="&#x13e;" horiz-adv-x="618" d="M537 -12q-180 0 -279.5 96.5t-99.5 269.5v1182h188v-1149q0 -107 53.5 -167t147.5 -60zM586 1159h-137l38 377h158z" />
<glyph unicode="&#x13f;" horiz-adv-x="1198" d="M199 0v1423h194v-1253h660v-170h-854zM729 649q-48 0 -81.5 32t-33.5 85q0 52 33.5 83.5t81.5 31.5q49 0 83 -31.5t34 -83.5q0 -54 -34 -85.5t-83 -31.5z" />
<glyph unicode="&#x140;" horiz-adv-x="710" d="M537 -12q-180 0 -279.5 96.5t-99.5 269.5v1182h188v-1149q0 -107 53.5 -167t147.5 -60zM571 698q-48 0 -81 31.5t-33 85.5q0 52 33 83.5t81 31.5q49 0 83 -31.5t34 -83.5q0 -54 -34 -85.5t-83 -31.5z" />
<glyph unicode="&#x141;" horiz-adv-x="1198" d="M393 170h660v-170h-854v594l-183 -31v170l183 31v659h194v-624l252 43v-170l-252 -43v-459z" />
<glyph unicode="&#x142;" horiz-adv-x="618" d="M346 387q0 -107 53.5 -167t147.5 -60l-10 -172q-180 0 -279.5 96.5t-99.5 269.5v332l-142 -49v170l142 49v680h188v-616l195 67v-170l-195 -67v-363z" />
<glyph unicode="&#x143;" horiz-adv-x="1482" d="M481 1552l-59 127l522 254l66 -141zM199 0v1423h186l707 -1081v1081h194v-1423h-186l-707 1083v-1083h-194z" />
<glyph unicode="&#x144;" horiz-adv-x="1216" d="M358 1229l-59 127l522 254l66 -142zM170 0v1100h184v-150q43 74 123.5 125t186.5 51q170 0 277.5 -111t107.5 -308v-707h-191v668q0 131 -70 203.5t-178 72.5q-103 0 -177.5 -77.5t-74.5 -213.5v-653h-188z" />
<glyph unicode="&#x145;" horiz-adv-x="1482" d="M199 0v1423h186l707 -1081v1081h194v-1423h-186l-707 1083v-1083h-194zM696 -535l-61 70q106 57 123 182q-17 -14 -43 -14q-50 0 -77.5 29t-27.5 69q0 41 30.5 72t84.5 31q67 0 104 -42.5t37 -109.5q0 -87 -42.5 -163.5t-127.5 -123.5z" />
<glyph unicode="&#x146;" horiz-adv-x="1216" d="M170 0v1100h184v-150q43 74 123.5 125t186.5 51q170 0 277.5 -111t107.5 -308v-707h-191v668q0 131 -70 203.5t-178 72.5q-103 0 -177.5 -77.5t-74.5 -213.5v-653h-188zM573 -535l-61 70q106 57 123 182q-17 -14 -43 -14q-50 0 -77.5 29t-27.5 69q0 41 30.5 72t84.5 31 q67 0 104 -42.5t37 -109.5q0 -87 -42.5 -163.5t-127.5 -123.5z" />
<glyph unicode="&#x147;" horiz-adv-x="1482" d="M672 1561l-254 268l131 45l184 -186l182 186l132 -45l-254 -268h-121zM199 0v1423h186l707 -1081v1081h194v-1423h-186l-707 1083v-1083h-194z" />
<glyph unicode="&#x148;" horiz-adv-x="1216" d="M549 1237l-254 268l131 45l184 -186l183 186l131 -45l-254 -268h-121zM170 0v1100h184v-150q43 74 123.5 125t186.5 51q170 0 277.5 -111t107.5 -308v-707h-191v668q0 131 -70 203.5t-178 72.5q-103 0 -177.5 -77.5t-74.5 -213.5v-653h-188z" />
<glyph unicode="&#x14a;" horiz-adv-x="1482" d="M877 -399v163q108 0 161.5 46.5t53.5 162.5v62l-699 1050v-1085h-194v1423h186l707 -1085v1085h194v-1443q0 -106 -29 -181.5t-85.5 -118t-128 -61t-166.5 -18.5z" />
<glyph unicode="&#x14b;" horiz-adv-x="1175" d="M598 -399v163q123 0 183.5 53.5t60.5 196.5v654q0 133 -68 204.5t-170 71.5t-174 -75.5t-72 -215.5v-653h-188v1100h184v-150q36 70 111.5 123t189.5 53q77 0 144 -26.5t119.5 -78t83 -137t30.5 -194.5v-670q0 -97 -21 -170.5t-58 -120.5t-93 -76t-119 -40.5t-143 -11.5z " />
<glyph unicode="&#x14c;" horiz-adv-x="1394" d="M971 1774v-144h-547v144h547zM696 -27q-271 0 -427 188.5t-156 551.5q0 362 156 549.5t427 187.5q274 0 430 -187.5t156 -549.5q0 -364 -156 -552t-430 -188zM696 147q182 0 284.5 137t102.5 429q0 290 -102.5 426.5t-284.5 136.5t-283.5 -136t-101.5 -427 q0 -293 101.5 -429.5t283.5 -136.5z" />
<glyph unicode="&#x14d;" horiz-adv-x="1120" d="M834 1450v-143h-547v143h547zM559 -27q-221 0 -350 150t-129 428q0 277 129 426t350 149q223 0 352 -148.5t129 -426.5t-129.5 -428t-351.5 -150zM559 141q137 0 212 106.5t75 303.5q0 196 -75 301.5t-212 105.5t-211 -105.5t-74 -301.5q0 -198 74 -304t211 -106z" />
<glyph unicode="&#x14e;" horiz-adv-x="1394" d="M698 1569q-122 0 -196.5 71t-75.5 213h137q0 -74 37 -114.5t98 -40.5t97 40.5t36 114.5h140q-1 -142 -76 -213t-197 -71zM696 -27q-271 0 -427 188.5t-156 551.5q0 362 156 549.5t427 187.5q274 0 430 -187.5t156 -549.5q0 -364 -156 -552t-430 -188zM696 147 q182 0 284.5 137t102.5 429q0 290 -102.5 426.5t-284.5 136.5t-283.5 -136t-101.5 -427q0 -293 101.5 -429.5t283.5 -136.5z" />
<glyph unicode="&#x14f;" horiz-adv-x="1120" d="M561 1245q-122 0 -196.5 71.5t-75.5 213.5h137q0 -74 37 -115t98 -41t97 41t36 115h140q-1 -142 -76 -213.5t-197 -71.5zM559 -27q-221 0 -350 150t-129 428q0 277 129 426t350 149q223 0 352 -148.5t129 -426.5t-129.5 -428t-351.5 -150zM559 141q137 0 212 106.5 t75 303.5q0 196 -75 301.5t-212 105.5t-211 -105.5t-74 -301.5q0 -198 74 -304t211 -106z" />
<glyph unicode="&#x150;" horiz-adv-x="1394" d="M496 1556l176 328h164l-189 -328h-151zM758 1556l186 328h170l-203 -328h-153zM696 -27q-271 0 -427 188.5t-156 551.5q0 362 156 549.5t427 187.5q274 0 430 -187.5t156 -549.5q0 -364 -156 -552t-430 -188zM696 147q182 0 284.5 137t102.5 429q0 290 -102.5 426.5 t-284.5 136.5t-283.5 -136t-101.5 -427q0 -293 101.5 -429.5t283.5 -136.5z" />
<glyph unicode="&#x151;" horiz-adv-x="1120" d="M358 1233l177 328h163l-188 -328h-152zM621 1233l186 328h170l-203 -328h-153zM559 -27q-221 0 -350 150t-129 428q0 277 129 426t350 149q223 0 352 -148.5t129 -426.5t-129.5 -428t-351.5 -150zM559 141q137 0 212 106.5t75 303.5q0 196 -75 301.5t-212 105.5 t-211 -105.5t-74 -301.5q0 -198 74 -304t211 -106z" />
<glyph unicode="&#x152;" horiz-adv-x="1832" d="M709 -27q-277 0 -436.5 188.5t-159.5 551.5q0 362 159.5 549.5t436.5 187.5q113 0 198 -27h746v-170h-604v-452h524v-162h-524v-469h643v-170h-785q-100 -27 -198 -27zM709 147q77 0 145 23v1081q-59 25 -145 25q-189 0 -293.5 -136t-104.5 -427q0 -293 104.5 -429.5 t293.5 -136.5z" />
<glyph unicode="&#x153;" horiz-adv-x="1888" d="M1626 319l170 -43q-44 -131 -171 -217t-279 -86q-128 0 -229.5 52.5t-166.5 150.5q-128 -203 -391 -203q-221 0 -350 150t-129 428q0 277 129 426t350 149q262 0 387 -196q63 94 162 145t221 51q137 0 243.5 -68t161 -178.5t54.5 -242.5v-125h-744q9 -176 91 -275.5 t215 -99.5q95 0 169 48t107 134zM1327 963q-111 0 -183.5 -76.5t-92.5 -216.5h544q-3 130 -76.5 211.5t-191.5 81.5zM559 141q137 0 212 106.5t75 303.5q0 196 -75 301.5t-212 105.5t-211 -105.5t-74 -301.5q0 -198 74 -304t211 -106z" />
<glyph unicode="&#x154;" horiz-adv-x="1228" d="M881 1792l-529 -240l-59 127l522 254zM1159 0h-231l-299 541h-6h-230v-541h-194v1423h446q67 0 129.5 -14t123 -46.5t105 -81t72 -122.5t27.5 -166q0 -157 -71.5 -264.5t-201.5 -155.5zM393 711h217q45 0 84 7t78 26t66.5 49t45 80t17.5 116q0 132 -72.5 198t-197.5 66 h-238v-542z" />
<glyph unicode="&#x155;" horiz-adv-x="892" d="M246 1229l-60 127l523 254l65 -142zM170 0v1100h188v-158q42 86 115.5 135t165.5 49q126 0 219 -75l-78 -172q-74 65 -168 65q-107 0 -180.5 -93t-73.5 -239v-612h-188z" />
<glyph unicode="&#x156;" horiz-adv-x="1228" d="M829 573l330 -573h-231l-299 541h-6h-230v-541h-194v1423h446q67 0 129.5 -14t123 -46.5t105 -81t72 -122.5t27.5 -166q0 -157 -71.5 -264.5t-201.5 -155.5zM393 711h217q45 0 84 7t78 26t66.5 49t45 80t17.5 116q0 132 -72.5 198t-197.5 66h-238v-542zM616 -96 q67 0 104.5 -42.5t37.5 -109.5q0 -87 -42.5 -163.5t-127.5 -123.5l-62 70q106 57 123 182q-17 -14 -43 -14q-50 0 -77 29t-27 69q0 42 30 72.5t84 30.5z" />
<glyph unicode="&#x157;" horiz-adv-x="892" d="M170 0v1100h188v-158q42 86 115.5 135t165.5 49q126 0 219 -75l-78 -172q-74 65 -168 65q-107 0 -180.5 -93t-73.5 -239v-612h-188zM229 -535l-61 70q106 57 123 182q-17 -14 -43 -14q-50 0 -77.5 29t-27.5 69q0 41 30.5 72t84.5 31q67 0 104 -42.5t37 -109.5 q0 -87 -42.5 -163.5t-127.5 -123.5z" />
<glyph unicode="&#x158;" horiz-adv-x="1228" d="M664 1561h-121l-254 268l131 45l184 -186l182 186l132 -45zM1159 0h-231l-299 541h-6h-230v-541h-194v1423h446q67 0 129.5 -14t123 -46.5t105 -81t72 -122.5t27.5 -166q0 -157 -71.5 -264.5t-201.5 -155.5zM393 711h217q45 0 84 7t78 26t66.5 49t45 80t17.5 116 q0 132 -72.5 198t-197.5 66h-238v-542z" />
<glyph unicode="&#x159;" horiz-adv-x="892" d="M436 1237l-254 268l131 45l185 -186l182 186l131 -45l-254 -268h-121zM170 0v1100h188v-158q42 86 115.5 135t165.5 49q126 0 219 -75l-78 -172q-74 65 -168 65q-107 0 -180.5 -93t-73.5 -239v-612h-188z" />
<glyph unicode="&#x15a;" horiz-adv-x="1161" d="M369 1552l-60 127l522 254l66 -141zM594 -27q-177 0 -308 78.5t-190 216.5l176 62q44 -87 128.5 -135t193.5 -48q117 0 190.5 59.5t73.5 160.5q0 51 -25 91.5t-68 69t-98 53.5t-116 48.5t-122.5 49.5t-116.5 61t-98 78t-68 106.5t-25 140.5q0 177 128.5 281t328.5 104 q175 0 293 -73t173 -208l-186 -59q-35 79 -108.5 122.5t-169.5 43.5q-110 0 -181 -57.5t-71 -151.5q0 -57 32 -102t83.5 -74t118 -58.5t136 -54t136 -61t118 -79t83.5 -109t32 -150.5q0 -185 -130 -295.5t-343 -110.5z" />
<glyph unicode="&#x15b;" horiz-adv-x="991" d="M238 1229l-60 127l522 254l66 -142zM508 -27q-169 0 -279 71t-157 173l127 96q43 -79 121 -129.5t180 -50.5q84 0 143 43.5t59 110.5q0 48 -33 83.5t-85.5 58t-116 43.5t-127 46.5t-116 59.5t-85.5 91t-33 132q0 146 107 235.5t279 89.5q147 0 253 -61.5t150 -149.5 l-127 -98q-40 67 -112 108.5t-160 41.5q-86 0 -140.5 -42t-54.5 -110q0 -41 25.5 -73.5t67.5 -52.5t95.5 -40.5t109.5 -37.5t109.5 -45t95.5 -61t67.5 -86.5t25.5 -121.5q0 -146 -112.5 -235t-276.5 -89z" />
<glyph unicode="&#x15c;" horiz-adv-x="1161" d="M424 1542l-117 57l240 297h143l240 -297l-117 -57l-195 211zM594 -27q-177 0 -308 78.5t-190 216.5l176 62q44 -87 128.5 -135t193.5 -48q117 0 190.5 59.5t73.5 160.5q0 51 -25 91.5t-68 69t-98 53.5t-116 48.5t-122.5 49.5t-116.5 61t-98 78t-68 106.5t-25 140.5 q0 177 128.5 281t328.5 104q175 0 293 -73t173 -208l-186 -59q-35 79 -108.5 122.5t-169.5 43.5q-110 0 -181 -57.5t-71 -151.5q0 -57 32 -102t83.5 -74t118 -58.5t136 -54t136 -61t118 -79t83.5 -109t32 -150.5q0 -185 -130 -295.5t-343 -110.5z" />
<glyph unicode="&#x15d;" horiz-adv-x="991" d="M293 1219l-117 57l240 297h143l240 -297l-117 -57l-195 211zM508 -27q-169 0 -279 71t-157 173l127 96q43 -79 121 -129.5t180 -50.5q84 0 143 43.5t59 110.5q0 48 -33 83.5t-85.5 58t-116 43.5t-127 46.5t-116 59.5t-85.5 91t-33 132q0 146 107 235.5t279 89.5 q147 0 253 -61.5t150 -149.5l-127 -98q-40 67 -112 108.5t-160 41.5q-86 0 -140.5 -42t-54.5 -110q0 -41 25.5 -73.5t67.5 -52.5t95.5 -40.5t109.5 -37.5t109.5 -45t95.5 -61t67.5 -86.5t25.5 -121.5q0 -146 -112.5 -235t-276.5 -89z" />
<glyph unicode="&#x15e;" horiz-adv-x="1161" d="M1067 379q0 -173 -115 -281.5t-307 -122.5l-67 -88q33 11 63 11q82 0 130 -46t48 -108q0 -69 -62.5 -118.5t-181.5 -49.5q-111 0 -192 51l35 82q73 -45 149 -45q50 0 78.5 22.5t28.5 51.5t-24 49t-68 20q-48 0 -84 -22l-78 43l100 149q-150 15 -260.5 91t-163.5 200 l176 62q44 -87 128.5 -135t193.5 -48q117 0 190.5 59.5t73.5 160.5q0 51 -25 91.5t-68 69t-98 53.5t-116 48.5t-122.5 49.5t-116.5 61t-98 78t-68 106.5t-25 140.5q0 177 128.5 281t328.5 104q175 0 293 -73t173 -208l-186 -59q-35 79 -108.5 122.5t-169.5 43.5 q-110 0 -181 -57.5t-71 -151.5q0 -57 32 -102t83.5 -74t118 -58.5t136 -54t136 -61t118 -79t83.5 -109t32 -150.5z" />
<glyph unicode="&#x15f;" horiz-adv-x="991" d="M897 297q0 -136 -99 -223.5t-249 -98.5l-68 -88q33 11 64 11q82 0 130 -46t48 -108q0 -69 -62.5 -118.5t-181.5 -49.5q-111 0 -192 51l35 82q73 -45 149 -45q50 0 78.5 22.5t28.5 51.5t-24.5 49t-68.5 20q-48 0 -84 -22l-77 43l102 149q-134 17 -223 84.5t-131 155.5 l127 96q43 -79 121 -129.5t180 -50.5q84 0 143 43.5t59 110.5q0 48 -33 83.5t-85.5 58t-116 43.5t-127 46.5t-116 59.5t-85.5 91t-33 132q0 146 107 235.5t279 89.5q147 0 253 -61.5t150 -149.5l-127 -98q-40 67 -112 108.5t-160 41.5q-86 0 -140.5 -42t-54.5 -110 q0 -41 25.5 -73.5t67.5 -52.5t95.5 -40.5t109.5 -37.5t109.5 -45t95.5 -61t67.5 -86.5t25.5 -121.5z" />
<glyph unicode="&#x160;" horiz-adv-x="1161" d="M559 1561l-254 268l131 45l185 -186l182 186l131 -45l-254 -268h-121zM594 -27q-177 0 -308 78.5t-190 216.5l176 62q44 -87 128.5 -135t193.5 -48q117 0 190.5 59.5t73.5 160.5q0 51 -25 91.5t-68 69t-98 53.5t-116 48.5t-122.5 49.5t-116.5 61t-98 78t-68 106.5 t-25 140.5q0 177 128.5 281t328.5 104q175 0 293 -73t173 -208l-186 -59q-35 79 -108.5 122.5t-169.5 43.5q-110 0 -181 -57.5t-71 -151.5q0 -57 32 -102t83.5 -74t118 -58.5t136 -54t136 -61t118 -79t83.5 -109t32 -150.5q0 -185 -130 -295.5t-343 -110.5z" />
<glyph unicode="&#x161;" horiz-adv-x="991" d="M428 1237l-254 268l131 45l184 -186l183 186l131 -45l-254 -268h-121zM508 -27q-169 0 -279 71t-157 173l127 96q43 -79 121 -129.5t180 -50.5q84 0 143 43.5t59 110.5q0 48 -33 83.5t-85.5 58t-116 43.5t-127 46.5t-116 59.5t-85.5 91t-33 132q0 146 107 235.5t279 89.5 q147 0 253 -61.5t150 -149.5l-127 -98q-40 67 -112 108.5t-160 41.5q-86 0 -140.5 -42t-54.5 -110q0 -41 25.5 -73.5t67.5 -52.5t95.5 -40.5t109.5 -37.5t109.5 -45t95.5 -61t67.5 -86.5t25.5 -121.5q0 -146 -112.5 -235t-276.5 -89z" />
<glyph unicode="&#x162;" horiz-adv-x="1247" d="M715 0h-33l-86 -113q33 11 63 11q82 0 130.5 -46t48.5 -108q0 -69 -62 -118.5t-182 -49.5q-112 0 -193 51l35 82q73 -45 150 -45q50 0 78 22.5t28 51.5t-24 49t-68 20q-48 0 -84 -22l-78 43l117 172h-35v1253h-461v170h1117v-170h-461v-1253z" />
<glyph unicode="&#x163;" horiz-adv-x="829" d="M545 -102q82 0 130 -46t48 -108q0 -69 -62.5 -118.5t-181.5 -49.5q-111 0 -192 51l35 82q73 -45 149 -45q50 0 78.5 22.5t28.5 51.5t-24.5 49t-68.5 20q-48 0 -84 -22l-77 43l108 162q-93 28 -143.5 106.5t-50.5 206.5v625h-201v172h201v313l190 35v-348h291v-172h-291 v-588q0 -95 38 -138.5t114 -43.5q73 0 157 43l21 -181q-107 -47 -209 -47h-2l-66 -86q33 11 64 11z" />
<glyph unicode="&#x164;" horiz-adv-x="1247" d="M563 1561l-254 268l131 45l185 -186l182 186l131 -45l-254 -268h-121zM520 0v1253h-461v170h1117v-170h-461v-1253h-195z" />
<glyph unicode="&#x165;" horiz-adv-x="829" d="M666 1159h-138l39 377h158zM549 -27q-146 0 -228.5 83.5t-82.5 246.5v625h-201v172h201v313l190 35v-348h291v-172h-291v-588q0 -95 38 -138.5t114 -43.5q73 0 157 43l21 -181q-107 -47 -209 -47z" />
<glyph unicode="&#x166;" horiz-adv-x="1247" d="M1176 1253h-461v-458h241v-154h-241v-641h-195v641h-246v154h246v458h-461v170h1117v-170z" />
<glyph unicode="&#x167;" horiz-adv-x="829" d="M737 201l21 -181q-107 -47 -209 -47q-146 0 -228.5 83.5t-82.5 246.5v236h-136v135h136v254h-201v172h201v313l190 35v-348h291v-172h-291v-254h186v-135h-186v-199q0 -95 38 -138.5t114 -43.5q73 0 157 43z" />
<glyph unicode="&#x168;" horiz-adv-x="1380" d="M516 1587l-127 31q8 84 52.5 134t117.5 50q42 0 124 -14t108 -14q68 0 71 90l129 -29q-9 -91 -58.5 -144t-133.5 -53q-44 0 -118 14.5t-95 14.5q-34 0 -50.5 -19.5t-19.5 -60.5zM688 -27q-227 0 -364.5 139.5t-137.5 411.5v899h195v-901q0 -82 16.5 -148t51.5 -118 t95.5 -80.5t143.5 -28.5q162 0 236.5 102t74.5 273v901h195v-899q0 -138 -38 -244.5t-107 -173t-160 -100t-201 -33.5z" />
<glyph unicode="&#x169;" horiz-adv-x="1144" d="M371 1264l-127 30q8 84 52.5 134.5t117.5 50.5q42 0 123.5 -14.5t107.5 -14.5q69 0 72 90l129 -29q-9 -90 -59 -143t-134 -53q-44 0 -118 14t-95 14q-34 0 -50 -19t-19 -60zM473 -27q-158 0 -259 104t-101 265v758h190v-725q0 -108 60 -170t159 -62q104 0 181 78.5 t77 208.5v670h191v-783q0 -187 45 -317h-187q-28 62 -34 154q-39 -75 -127 -128t-195 -53z" />
<glyph unicode="&#x16a;" horiz-adv-x="1380" d="M963 1774v-144h-547v144h547zM688 -27q-227 0 -364.5 139.5t-137.5 411.5v899h195v-901q0 -82 16.5 -148t51.5 -118t95.5 -80.5t143.5 -28.5q162 0 236.5 102t74.5 273v901h195v-899q0 -138 -38 -244.5t-107 -173t-160 -100t-201 -33.5z" />
<glyph unicode="&#x16b;" horiz-adv-x="1144" d="M817 1450v-143h-547v143h547zM473 -27q-158 0 -259 104t-101 265v758h190v-725q0 -108 60 -170t159 -62q104 0 181 78.5t77 208.5v670h191v-783q0 -187 45 -317h-187q-28 62 -34 154q-39 -75 -127 -128t-195 -53z" />
<glyph unicode="&#x16c;" horiz-adv-x="1380" d="M690 1569q-122 0 -196.5 71t-75.5 213h137q0 -74 37 -114.5t98 -40.5t97 40.5t36 114.5h140q-1 -142 -76 -213t-197 -71zM688 -27q-227 0 -364.5 139.5t-137.5 411.5v899h195v-901q0 -82 16.5 -148t51.5 -118t95.5 -80.5t143.5 -28.5q162 0 236.5 102t74.5 273v901h195 v-899q0 -138 -38 -244.5t-107 -173t-160 -100t-201 -33.5z" />
<glyph unicode="&#x16d;" horiz-adv-x="1144" d="M545 1245q-122 0 -197 71.5t-76 213.5h138q0 -74 37 -115t98 -41t97 41t36 115h139q-1 -142 -75.5 -213.5t-196.5 -71.5zM473 -27q-158 0 -259 104t-101 265v758h190v-725q0 -108 60 -170t159 -62q104 0 181 78.5t77 208.5v670h191v-783q0 -187 45 -317h-187 q-28 62 -34 154q-39 -75 -127 -128t-195 -53z" />
<glyph unicode="&#x16e;" horiz-adv-x="1380" d="M690 1927q86 0 141.5 -53.5t55.5 -136.5t-55.5 -137t-141.5 -54t-140 53.5t-54 137.5t54 137t140 53zM690 1833q-40 0 -66 -27t-26 -69q0 -44 26 -71.5t66 -27.5t67 27.5t27 71.5q0 42 -27 69t-67 27zM688 -27q-227 0 -364.5 139.5t-137.5 411.5v899h195v-901 q0 -82 16.5 -148t51.5 -118t95.5 -80.5t143.5 -28.5q162 0 236.5 102t74.5 273v901h195v-899q0 -138 -38 -244.5t-107 -173t-160 -100t-201 -33.5z" />
<glyph unicode="&#x16f;" horiz-adv-x="1144" d="M545 1604q86 0 141 -54t55 -137t-55 -136.5t-141 -53.5t-140.5 53.5t-54.5 136.5q0 84 54.5 137.5t140.5 53.5zM545 1509q-40 0 -66 -27t-26 -69q0 -44 26 -71t66 -27t67 27t27 71q0 42 -27 69t-67 27zM473 -27q-158 0 -259 104t-101 265v758h190v-725q0 -108 60 -170 t159 -62q104 0 181 78.5t77 208.5v670h191v-783q0 -187 45 -317h-187q-28 62 -34 154q-39 -75 -127 -128t-195 -53z" />
<glyph unicode="&#x170;" horiz-adv-x="1380" d="M487 1556l177 328h163l-188 -328h-152zM750 1556l186 328h170l-203 -328h-153zM688 -27q-227 0 -364.5 139.5t-137.5 411.5v899h195v-901q0 -82 16.5 -148t51.5 -118t95.5 -80.5t143.5 -28.5q162 0 236.5 102t74.5 273v901h195v-899q0 -138 -38 -244.5t-107 -173 t-160 -100t-201 -33.5z" />
<glyph unicode="&#x171;" horiz-adv-x="1144" d="M342 1233l176 328h164l-188 -328h-152zM604 1233l187 328h170l-203 -328h-154zM473 -27q-158 0 -259 104t-101 265v758h190v-725q0 -108 60 -170t159 -62q104 0 181 78.5t77 208.5v670h191v-783q0 -187 45 -317h-187q-28 62 -34 154q-39 -75 -127 -128t-195 -53z" />
<glyph unicode="&#x172;" horiz-adv-x="1380" d="M999 1423h195v-899q0 -251 -119.5 -389.5t-320.5 -159.5q-56 -63 -56 -120q0 -48 30 -77t85 -30l-27 -125q-106 1 -166.5 56t-60.5 139q0 73 62 159q-199 20 -317 157.5t-118 389.5v899h195v-901q0 -82 16.5 -148t51.5 -118t95.5 -80.5t143.5 -28.5q162 0 236.5 102 t74.5 273v901z" />
<glyph unicode="&#x173;" horiz-adv-x="1144" d="M887 -145q0 -48 29.5 -77t84.5 -30l-26 -125q-106 1 -166.5 56t-60.5 139q0 93 81 182q-28 62 -34 154q-39 -75 -127 -128t-195 -53q-158 0 -259 104t-101 265v758h190v-725q0 -108 60 -170t159 -62q104 0 181 78.5t77 208.5v670h191v-783q0 -187 45 -317h-53 q-76 -80 -76 -145z" />
<glyph unicode="&#x174;" horiz-adv-x="2017" d="M817 1542l-117 57l240 297h143l240 -297l-117 -57l-194 211zM465 0l-385 1423h211l301 -1192l291 1192h252l290 -1192l301 1192h211l-385 -1423h-247l-295 1171l-299 -1171h-246z" />
<glyph unicode="&#x175;" horiz-adv-x="1759" d="M686 1219l-117 57l240 297h143l240 -297l-117 -57l-194 211zM406 0l-326 1100h186l248 -879l264 879h207l258 -879l250 879h186l-325 -1100h-209l-264 874l-267 -874h-208z" />
<glyph unicode="&#x176;" horiz-adv-x="1269" d="M442 1542l-116 57l239 297h144l239 -297l-117 -57l-194 211zM539 0v518l-484 905h219l363 -698l358 698h219l-481 -905v-518h-194z" />
<glyph unicode="&#x177;" horiz-adv-x="1120" d="M543 1430l-195 -211l-117 57l240 297h143l240 -297l-117 -57zM848 1100h201l-414 -1149q-36 -103 -95.5 -178t-133 -117.5t-153 -62t-167.5 -19.5l-12 174q59 0 112.5 12t105.5 38t94.5 74t68.5 114l-441 1114h209l324 -852z" />
<glyph unicode="&#x178;" horiz-adv-x="1269" d="M451 1602q-43 0 -74 27.5t-31 74.5q0 48 31 76t74 28q44 0 74 -27.5t30 -76.5q0 -47 -30 -74.5t-74 -27.5zM821 1602q-44 0 -74 27.5t-30 74.5q0 49 30 76.5t74 27.5q43 0 74 -28t31 -76q0 -47 -31 -74.5t-74 -27.5zM539 0v518l-484 905h219l363 -698l358 698h219 l-481 -905v-518h-194z" />
<glyph unicode="&#x179;" horiz-adv-x="1245" d="M408 1552l-60 127l522 254l66 -141zM113 0v152l764 1101h-746v170h981v-149l-772 -1104h793v-170h-1020z" />
<glyph unicode="&#x17a;" horiz-adv-x="1038" d="M260 1229l-59 127l522 254l65 -142zM84 0l-2 156l602 772h-592v172h828v-144l-603 -784h619v-172h-852z" />
<glyph unicode="&#x17b;" horiz-adv-x="1245" d="M657 1597q-45 0 -76.5 29.5t-31.5 79.5t31.5 79.5t76.5 29.5q44 0 76.5 -29.5t32.5 -79.5t-32.5 -79.5t-76.5 -29.5zM113 0v152l764 1101h-746v170h981v-149l-772 -1104h793v-170h-1020z" />
<glyph unicode="&#x17c;" horiz-adv-x="1038" d="M510 1274q-45 0 -77 29.5t-32 78.5t32 77t77 28q43 0 74.5 -28.5t31.5 -76.5q0 -49 -32 -78.5t-74 -29.5zM84 0l-2 156l602 772h-592v172h828v-144l-603 -784h619v-172h-852z" />
<glyph unicode="&#x17d;" horiz-adv-x="1245" d="M598 1561l-254 268l131 45l184 -186l183 186l131 -45l-254 -268h-121zM113 0v152l764 1101h-746v170h981v-149l-772 -1104h793v-170h-1020z" />
<glyph unicode="&#x17e;" horiz-adv-x="1038" d="M451 1237l-254 268l131 45l184 -186l182 186l131 -45l-254 -268h-120zM84 0l-2 156l602 772h-592v172h828v-144l-603 -784h619v-172h-852z" />
<glyph unicode="&#x18f;" horiz-adv-x="1380" d="M678 1450q276 0 434 -188t158 -543q0 -357 -157.5 -551.5t-426.5 -194.5q-260 0 -412.5 178t-152.5 470v98h948q0 282 -105 419.5t-286 137.5q-130 0 -223 -66.5t-138 -175.5l-170 47q65 169 204 269t327 100zM686 147q155 0 252 105t123 315h-744q5 -185 104 -302.5 t265 -117.5z" />
<glyph unicode="&#x192;" horiz-adv-x="909" d="M205 -27q-91 0 -178 41l41 150q52 -25 102 -25q86 0 133 51.5t47 157.5v328h-266v117h266v284q0 185 92 279t248 94q107 0 193 -45l-43 -150q-53 29 -113 29q-180 0 -180 -207v-284h266v-117h-266v-328q0 -181 -90 -278t-252 -97z" />
<glyph unicode="&#x19d;" horiz-adv-x="1482" d="M-16 -399v163q109 0 162 49.5t53 176.5v1433h188l705 -1081v1081h194v-1423h-188l-705 1083v-1087q0 -112 -29 -190.5t-85.5 -122.5t-128 -63t-166.5 -19z" />
<glyph unicode="&#x1e6;" horiz-adv-x="1452" d="M674 1561l-254 268l131 45l184 -186l183 186l131 -45l-254 -268h-121zM1249 1139l-182 -56q-40 88 -123 140.5t-201 52.5q-191 0 -311.5 -149.5t-120.5 -413.5q0 -260 126 -413t321 -153q226 0 344 136v299h-397v170h591v-570q-92 -99 -233.5 -154t-304.5 -55 q-283 0 -464 205.5t-181 534.5q0 338 172.5 537.5t453.5 199.5q196 0 328 -86t182 -225z" />
<glyph unicode="&#x1e7;" horiz-adv-x="1112" d="M621 1247h-121l-254 269l131 45l184 -187l182 187l131 -45zM745 227q154 0 245 -79t91 -209q0 -164 -138 -264.5t-392 -100.5q-206 0 -339.5 89t-133.5 237q0 62 31.5 121t85.5 104q-72 60 -72 151q0 56 33.5 110t97.5 89q-127 105 -127 277q0 166 119 270t313 104 q152 0 258 -65q66 66 66 164h161q0 -142 -135 -242q80 -96 80 -231q0 -167 -118 -272t-312 -105q-114 0 -201 37q-61 -40 -61 -95q0 -38 32.5 -64t90.5 -26h325zM559 979q-113 0 -180.5 -63t-67.5 -164q0 -103 67 -166.5t181 -63.5q113 0 180.5 64t67.5 166q0 101 -68 164 t-180 63zM553 -266q146 0 241 52.5t95 143.5q0 63 -43 102.5t-111 39.5h-364q-24 0 -56 4q-61 -61 -61 -142q0 -92 82 -146t217 -54z" />
<glyph unicode="&#x1ea;" horiz-adv-x="1394" d="M1282 713q0 -337 -134.5 -524t-373.5 -212q-49 -59 -49 -114q0 -48 30 -77t85 -30l-27 -125q-106 1 -166.5 56t-60.5 139q0 71 55 149q-248 19 -388 206.5t-140 531.5q0 362 156 549.5t427 187.5q274 0 430 -187.5t156 -549.5zM311 713q0 -293 101.5 -429.5t283.5 -136.5 t284.5 137t102.5 429q0 290 -102.5 426.5t-284.5 136.5t-283.5 -136t-101.5 -427z" />
<glyph unicode="&#x1eb;" horiz-adv-x="1120" d="M1040 551q0 -246 -102.5 -392.5t-284.5 -176.5q-49 -63 -49 -117q0 -48 30 -77t85 -30l-27 -125q-106 1 -166.5 56t-60.5 139q0 72 53 147q-203 14 -320.5 163t-117.5 413q0 277 129 426t350 149q223 0 352 -148.5t129 -426.5zM274 551q0 -198 74 -304t211 -106 t212 106.5t75 303.5q0 196 -75 301.5t-212 105.5t-211 -105.5t-74 -301.5z" />
<glyph unicode="&#x1fa;" horiz-adv-x="1259" d="M924 2177l-529 -240l-59 127l522 254zM436 1737q0 83 54.5 136.5t140.5 53.5t141 -53.5t55 -136.5t-55 -137t-141 -54t-140.5 53.5t-54.5 137.5zM725 1737q0 42 -27 69t-67 27t-66 -27t-26 -69q0 -44 26 -71.5t66 -27.5t67 27.5t27 71.5zM1014 0l-107 334h-563l-106 -334 h-199l469 1423h246l467 -1423h-207zM395 502h457l-229 717z" />
<glyph unicode="&#x1fb;" horiz-adv-x="1132" d="M344 1614l-59 127l522 254l65 -142zM580 1604q86 0 141 -54t55 -137t-55 -136.5t-141 -53.5t-140.5 53.5t-54.5 136.5q0 84 54.5 137.5t140.5 53.5zM580 1509q-40 0 -66.5 -27t-26.5 -69q0 -44 26.5 -71t66.5 -27t67 27t27 71q0 42 -27 69t-67 27zM434 -27 q-144 0 -237 84t-93 226q0 161 115 246t320 85h225v125q0 98 -60.5 158.5t-156.5 60.5q-79 0 -140 -43t-88 -114l-176 47q16 50 49.5 97.5t83 89t120 66.5t149.5 25q186 0 298.5 -103.5t112.5 -285.5v-422q0 -210 48 -315h-203q-30 65 -33 147q-45 -78 -136 -126t-198 -48z M496 135q104 0 186 69.5t82 162.5v112h-219q-246 0 -246 -182q0 -71 55.5 -116.5t141.5 -45.5z" />
<glyph unicode="&#x1fc;" horiz-adv-x="1955" d="M1540 1792l-528 -240l-60 127l523 254zM1122 170h693v-170h-887v377h-459l-199 -377h-200l761 1423h928v-170h-637v-454h557v-168h-557v-461zM557 545h371v700z" />
<glyph unicode="&#x1fd;" horiz-adv-x="1794" d="M1196 1468l-528 -239l-60 127l522 254zM1544 319l170 -43q-46 -132 -172 -217.5t-278 -85.5q-127 0 -229 53.5t-167 151.5q-150 -205 -399 -205q-161 0 -263 92.5t-102 243.5q0 158 115.5 259.5t325.5 101.5h219v71q0 96 -60.5 156.5t-156.5 60.5q-78 0 -140 -43 t-88 -114l-176 47q17 50 50.5 97.5t83 89t120 66.5t150.5 25q114 0 203.5 -41t142.5 -118q131 159 352 159q140 0 246.5 -66.5t161.5 -177.5t55 -247v-141h-745q13 -163 95 -258t206 -95q99 0 171.5 45.5t108.5 132.5zM1243 958q-111 0 -181.5 -74t-92.5 -214h544 q-2 130 -75 209t-195 79zM764 403v91h-219q-246 0 -246 -185q0 -76 56 -123t141 -45q107 -2 187.5 71.5t80.5 190.5z" />
<glyph unicode="&#x1fe;" horiz-adv-x="1394" d="M987 1792l-528 -240l-60 127l523 254zM1044 1341q238 -183 238 -628q0 -364 -156 -552t-430 -188q-115 0 -215 35l-61 -145l-133 43l71 170q-245 181 -245 637q0 362 156 549.5t427 187.5q130 0 228 -39l53 127l133 -43zM311 713q0 -318 123 -457l420 989q-73 31 -158 31 q-182 0 -283.5 -136t-101.5 -427zM696 147q182 0 284.5 137t102.5 429q0 303 -116 444l-416 -983q65 -27 145 -27z" />
<glyph unicode="&#x1ff;" horiz-adv-x="1120" d="M836 1468l-529 -239l-59 127l522 254zM868 1020q172 -148 172 -469q0 -278 -129.5 -428t-351.5 -150q-123 0 -223 50l-60 -111l-96 55l64 119q-164 151 -164 465q0 277 129 426t350 149q126 0 217 -45l68 127l96 -55zM274 551q0 -180 64 -289l354 664q-51 32 -133 32 q-137 0 -211 -105.5t-74 -301.5zM559 141q137 0 212 106.5t75 303.5q0 186 -70 295l-356 -668q58 -37 139 -37z" />
<glyph unicode="&#x218;" horiz-adv-x="1161" d="M594 -27q-177 0 -308 78.5t-190 216.5l176 62q44 -87 128.5 -135t193.5 -48q117 0 190.5 59.5t73.5 160.5q0 51 -25 91.5t-68 69t-98 53.5t-116 48.5t-122.5 49.5t-116.5 61t-98 78t-68 106.5t-25 140.5q0 177 128.5 281t328.5 104q175 0 293 -73t173 -208l-186 -59 q-35 79 -108.5 122.5t-169.5 43.5q-110 0 -181 -57.5t-71 -151.5q0 -57 32 -102t83.5 -74t118 -58.5t136 -54t136 -61t118 -79t83.5 -109t32 -150.5q0 -185 -130 -295.5t-343 -110.5zM555 -535l-61 70q105 57 122 182q-17 -14 -43 -14q-49 0 -76.5 29t-27.5 69q0 41 30.5 72 t84.5 31q67 0 104 -42.5t37 -109.5q0 -87 -42.5 -163.5t-127.5 -123.5z" />
<glyph unicode="&#x219;" horiz-adv-x="991" d="M508 -27q-169 0 -279 71t-157 173l127 96q43 -79 121 -129.5t180 -50.5q84 0 143 43.5t59 110.5q0 48 -33 83.5t-85.5 58t-116 43.5t-127 46.5t-116 59.5t-85.5 91t-33 132q0 146 107 235.5t279 89.5q147 0 253 -61.5t150 -149.5l-127 -98q-40 67 -112 108.5t-160 41.5 q-86 0 -140.5 -42t-54.5 -110q0 -41 25.5 -73.5t67.5 -52.5t95.5 -40.5t109.5 -37.5t109.5 -45t95.5 -61t67.5 -86.5t25.5 -121.5q0 -146 -112.5 -235t-276.5 -89zM459 -535l-62 70q106 57 123 182q-17 -14 -43 -14q-49 0 -76.5 29t-27.5 69q0 42 30 72.5t84 30.5 q67 0 104.5 -42.5t37.5 -109.5q0 -87 -42.5 -163.5t-127.5 -123.5z" />
<glyph unicode="&#x21a;" horiz-adv-x="1247" d="M520 0v1253h-461v170h1117v-170h-461v-1253h-195zM573 -535l-61 70q106 57 123 182q-17 -14 -43 -14q-50 0 -77.5 29t-27.5 69q0 41 30.5 72t84.5 31q67 0 104 -42.5t37 -109.5q0 -87 -42.5 -163.5t-127.5 -123.5z" />
<glyph unicode="&#x21b;" horiz-adv-x="829" d="M549 -27q-146 0 -228.5 83.5t-82.5 246.5v625h-201v172h201v313l190 35v-348h291v-172h-291v-588q0 -95 38 -138.5t114 -43.5q73 0 157 43l21 -181q-107 -47 -209 -47zM459 -535l-62 70q106 57 123 182q-17 -14 -43 -14q-49 0 -76.5 29t-27.5 69q0 42 30 72.5t84 30.5 q67 0 104.5 -42.5t37.5 -109.5q0 -87 -42.5 -163.5t-127.5 -123.5z" />
<glyph unicode="&#x232;" horiz-adv-x="1269" d="M909 1774v-144h-547v144h547zM539 0v518l-484 905h219l363 -698l358 698h219l-481 -905v-518h-194z" />
<glyph unicode="&#x233;" horiz-adv-x="1120" d="M815 1450v-143h-547v143h547zM848 1100h201l-414 -1149q-36 -103 -95.5 -178t-133 -117.5t-153 -62t-167.5 -19.5l-12 174q59 0 112.5 12t105.5 38t94.5 74t68.5 114l-441 1114h209l324 -852z" />
<glyph unicode="&#x237;" horiz-adv-x="526" d="M-43 -426v164q108 0 160.5 49t52.5 176v1137h190v-1131q0 -112 -28 -190.5t-83.5 -122.5t-126 -63t-165.5 -19z" />
<glyph unicode="&#x259;" horiz-adv-x="1071" d="M510 1126q219 0 350 -150.5t131 -424.5q0 -275 -131 -426.5t-350 -151.5q-133 0 -238.5 70t-161 184.5t-55.5 249.5v117h742q-9 176 -83 270t-202 94q-92 0 -155.5 -48.5t-98.5 -129.5l-180 43q47 135 162 219t270 84zM508 137q118 0 191 77.5t92 229.5h-545 q0 -128 72 -217.5t190 -89.5z" />
<glyph unicode="&#x272;" horiz-adv-x="1183" d="M-41 -399v163q98 0 146.5 52.5t48.5 173.5v1110h184v-150q36 70 111.5 123t189.5 53q77 0 144 -26.5t119.5 -78t83 -137t30.5 -194.5v-690h-191v668q0 133 -68 204.5t-169 71.5q-102 0 -174 -75.5t-72 -215.5v-657q0 -211 -99 -303t-284 -92z" />
<glyph unicode="&#x2c6;" horiz-adv-x="1241" d="M371 1221l-117 57l240 297h143l240 -297l-117 -57l-195 211z" />
<glyph unicode="&#x2c7;" horiz-adv-x="1241" d="M506 1237l-254 268l131 45l184 -186l183 186l131 -45l-254 -268h-121z" />
<glyph unicode="&#x2d8;" horiz-adv-x="1241" d="M565 1245q-122 0 -196.5 71.5t-75.5 213.5h137q0 -74 37 -115t98 -41t97 41t36 115h140q-1 -142 -76 -213.5t-197 -71.5z" />
<glyph unicode="&#x2d9;" horiz-adv-x="1241" d="M565 1321q-48 0 -82 32t-34 85t34 83.5t82 30.5q47 0 82 -30.5t35 -83.5t-35 -85t-82 -32z" />
<glyph unicode="&#x2da;" horiz-adv-x="1241" d="M565 1604q86 0 141.5 -54t55.5 -137t-55.5 -136.5t-141.5 -53.5t-140 53t-54 137t54 137.5t140 53.5zM565 1509q-40 0 -66 -27t-26 -69q0 -44 26 -71t66 -27t67 27t27 71q0 42 -27 69t-67 27z" />
<glyph unicode="&#x2db;" horiz-adv-x="1241" d="M659 0q-75 -79 -75 -145q0 -48 29.5 -77t84.5 -30l-26 -125q-106 1 -167 56t-61 139q0 92 82 182h133z" />
<glyph unicode="&#x2dc;" horiz-adv-x="1241" d="M391 1264l-127 30q8 84 52.5 134.5t117.5 50.5q42 0 124 -14.5t108 -14.5q68 0 71 90l129 -29q-9 -90 -58.5 -143t-133.5 -53q-44 0 -118 14t-95 14q-34 0 -50.5 -19t-19.5 -60z" />
<glyph unicode="&#x2dd;" horiz-adv-x="1241" d="M256 1233l176 328h164l-188 -328h-152zM518 1233l187 328h169l-202 -328h-154z" />
<glyph unicode="&#x300;" d="M-330 1229l-528 239l65 142l523 -254z" />
<glyph unicode="&#x301;" d="M-799 1229l-59 127l522 254l66 -142z" />
<glyph unicode="&#x302;" d="M-760 1221l-117 57l240 297h143l240 -297l-117 -57l-194 211z" />
<glyph unicode="&#x303;" d="M-739 1264l-127 30q8 84 52.5 134.5t117.5 50.5q42 0 123.5 -14.5t107.5 -14.5q69 0 72 90l129 -29q-9 -90 -59 -143t-134 -53q-44 0 -118 14t-95 14q-34 0 -50 -19t-19 -60z" />
<glyph unicode="&#x304;" d="M-293 1450v-143h-547v143h547z" />
<glyph unicode="&#x306;" d="M-567 1245q-122 0 -197 71.5t-76 213.5h138q0 -74 37 -115t98 -41t97 41t36 115h139q-1 -142 -75.5 -213.5t-196.5 -71.5z" />
<glyph unicode="&#x307;" d="M-565 1321q-48 0 -82.5 32t-34.5 85t34 83.5t83 30.5q47 0 81.5 -30.5t34.5 -83.5t-34.5 -85t-81.5 -32z" />
<glyph unicode="&#x308;" d="M-750 1278q-42 0 -73 27.5t-31 74.5q0 49 31 77t73 28q44 0 74.5 -28t30.5 -77q0 -47 -30.5 -74.5t-74.5 -27.5zM-379 1278q-44 0 -74 27.5t-30 74.5q0 49 30 77t74 28q43 0 74 -28.5t31 -76.5q0 -47 -31 -74.5t-74 -27.5z" />
<glyph unicode="&#x30a;" d="M-567 1604q86 0 141 -54t55 -137t-55 -136.5t-141 -53.5t-140.5 53.5t-54.5 136.5q0 84 54.5 137.5t140.5 53.5zM-567 1509q-40 0 -66 -27t-26 -69q0 -44 26 -71t66 -27t67 27t27 71q0 42 -27 69t-67 27z" />
<glyph unicode="&#x30b;" d="M-874 1233l176 328h163l-188 -328h-151zM-612 1233l186 328h170l-203 -328h-153z" />
<glyph unicode="&#x30c;" d="M-625 1237l-254 268l131 45l185 -186l182 186l131 -45l-254 -268h-121z" />
<glyph unicode="&#x312;" d="M-520 1683l61 -69q-106 -57 -123 -182q17 14 43 14q50 0 77.5 -29t27.5 -69q0 -41 -30.5 -72t-84.5 -31q-67 0 -104 42.5t-37 109.5q0 87 42.5 163t127.5 123z" />
<glyph unicode="&#x323;" d="M-590 -365q-45 0 -76.5 30t-31.5 79t31.5 76.5t76.5 27.5q43 0 75 -28t32 -76q0 -49 -32.5 -79t-74.5 -30z" />
<glyph unicode="&#x326;" d="M-612 -535l-62 70q106 57 123 182q-17 -14 -43 -14q-50 0 -77 29t-27 69q0 42 30 72.5t84 30.5q67 0 104.5 -42.5t37.5 -109.5q0 -87 -42.5 -163.5t-127.5 -123.5z" />
<glyph unicode="&#x327;" d="M-582 -424q-111 0 -192 51l35 82q73 -45 149 -45q50 0 78.5 22.5t28.5 51.5t-24 49t-68 20q-48 0 -84 -22l-78 43l116 172h127l-86 -113q33 11 64 11q82 0 130 -46t48 -108q0 -69 -62 -118.5t-182 -49.5z" />
<glyph unicode="&#x328;" d="M-471 0q-76 -80 -76 -145q0 -48 30 -77t85 -30l-27 -125q-106 1 -166.5 56t-60.5 139q0 92 82 182h133z" />
<glyph unicode="&#x335;" d="M-821 410v135h512v-135h-512z" />
<glyph unicode="&#x336;" d="M-862 451v137h594v-137h-594z" />
<glyph unicode="&#x337;" d="M-827 561v170l524 180v-170z" />
<glyph unicode="&#x338;" d="M-946 -113l663 1241l97 -55l-664 -1241z" />
<glyph unicode="&#x384;" horiz-adv-x="1241" d="M537 1210l59 367h195l-86 -367h-168z" />
<glyph unicode="&#x385;" horiz-adv-x="1241" d="M545 1210l59 367h170l-88 -367h-141zM408 1294q-42 0 -73.5 29t-31.5 76t31.5 75.5t73.5 28.5t73 -28.5t31 -75.5t-31 -76t-73 -29zM891 1294q-43 0 -74 28.5t-31 76.5t31 76t74 28q42 0 73 -28.5t31 -75.5t-31 -76t-73 -29z" />
<glyph unicode="&#x386;" horiz-adv-x="1259" d="M1014 0l-107 334h-563l-106 -334h-199l469 1423h246l467 -1423h-207zM360 1423l-104 -422h-141l92 422h153zM395 502h457l-229 717z" />
<glyph unicode="&#x388;" horiz-adv-x="1376" d="M27 1001l92 422h153l-104 -422h-141zM350 0v1423h832v-170h-637v-454h555v-168h-555v-461h692v-170h-887z" />
<glyph unicode="&#x389;" horiz-adv-x="1671" d="M27 1001l92 422h153l-104 -422h-141zM350 0v1423h195v-620h733v620h195v-1423h-195v633h-733v-633h-195z" />
<glyph unicode="&#x38a;" horiz-adv-x="741" d="M27 1001l92 422h153l-104 -422h-141zM350 0v1423h195v-1423h-195z" />
<glyph unicode="&#x38c;" horiz-adv-x="1462" d="M764 -27q-271 0 -427.5 188.5t-156.5 551.5q0 362 156.5 549.5t427.5 187.5q274 0 430 -187.5t156 -549.5q0 -364 -156 -552t-430 -188zM-14 1001l92 422h153l-104 -422h-141zM764 147q182 0 284.5 137t102.5 429q0 290 -102.5 426.5t-284.5 136.5t-283.5 -136 t-101.5 -427q0 -293 101.5 -429.5t283.5 -136.5z" />
<glyph unicode="&#x38e;" horiz-adv-x="1386" d="M-106 1001l92 422h153l-104 -422h-141zM655 0v518l-483 905h219l363 -698l358 698h219l-481 -905v-518h-195z" />
<glyph unicode="&#x38f;" horiz-adv-x="1449" d="M150 0v147l311 -2q-157 79 -257 245t-100 380q0 103 25.5 201t79 185t130 152.5t185 103.5t236.5 38q158 0 285.5 -58t206 -155t120 -217t41.5 -250q0 -214 -100 -380t-256 -245l311 2v-147h-549v152q197 94 303.5 254.5t106.5 363.5q0 100 -30 190t-87 161t-148 113 t-204 42q-114 0 -205 -42t-148.5 -113t-87.5 -161t-30 -190q0 -203 106 -364t305 -254v-152h-550zM-82 1001l92 422h154l-105 -422h-141z" />
<glyph unicode="&#x390;" horiz-adv-x="579" d="M174 1210l59 367h170l-88 -367h-141zM37 1294q-42 0 -73.5 29t-31.5 76t31.5 75.5t73.5 28.5t73 -28.5t31 -75.5t-31 -76t-73 -29zM520 1294q-43 0 -73.5 28.5t-30.5 76.5t30.5 76t73.5 28q42 0 73.5 -28.5t31.5 -75.5t-31.5 -76t-73.5 -29zM154 340v760h188v-756 q0 -93 39 -140.5t113 -47.5q22 0 57 6l-8 -172q-41 -6 -76 -6q-142 0 -227.5 85.5t-85.5 270.5z" />
<glyph unicode="&#x391;" horiz-adv-x="1259" d="M1014 0l-107 334h-563l-106 -334h-199l469 1423h246l467 -1423h-207zM395 502h457l-229 717z" />
<glyph unicode="&#x392;" horiz-adv-x="1269" d="M199 0v1423h450q46 0 87.5 -4.5t94 -16t94.5 -36.5t78.5 -62t57 -96t20.5 -135q0 -255 -217 -342v-2q33 -9 65 -25.5t66 -45.5t59.5 -65t41.5 -88.5t16 -113.5q0 -111 -35 -189.5t-100 -121t-144.5 -61.5t-181.5 -19h-452zM393 805h232q124 0 189 60.5t65 178.5 q0 209 -250 209h-236v-448zM393 170h250q266 0 266 231q0 116 -70 175t-202 59h-244v-465z" />
<glyph unicode="&#x393;" horiz-adv-x="1089" d="M199 0v1423h807v-170h-613v-1253h-194z" />
<glyph unicode="&#x394;" horiz-adv-x="1226" d="M47 0l434 1423h262l437 -1423h-1133zM279 168h669l-336 1085z" />
<glyph unicode="&#x395;" horiz-adv-x="1224" d="M199 0v1423h831v-170h-637v-454h555v-168h-555v-461h692v-170h-886z" />
<glyph unicode="&#x396;" horiz-adv-x="1245" d="M113 0v152l764 1101h-746v170h981v-149l-772 -1104h793v-170h-1020z" />
<glyph unicode="&#x397;" horiz-adv-x="1519" d="M199 0v1423h194v-620h733v620h195v-1423h-195v633h-733v-633h-194z" />
<glyph unicode="&#x398;" horiz-adv-x="1394" d="M696 -27q-271 0 -427 188.5t-156 551.5q0 362 156 549.5t427 187.5q274 0 430 -187.5t156 -549.5q0 -364 -156 -552t-430 -188zM696 147q182 0 284.5 137t102.5 429q0 290 -102.5 426.5t-284.5 136.5t-283.5 -136t-101.5 -427q0 -293 101.5 -429.5t283.5 -136.5zM961 782 v-143h-533v143h533z" />
<glyph unicode="&#x399;" horiz-adv-x="589" d="M199 0v1423h194v-1423h-194z" />
<glyph unicode="&#x39a;" horiz-adv-x="1292" d="M1249 0h-243l-480 635l-133 -162v-473h-194v1423h194v-653l549 653h236l-523 -632z" />
<glyph unicode="&#x39b;" horiz-adv-x="1259" d="M39 0l469 1423h246l467 -1423h-207l-391 1219l-385 -1219h-199z" />
<glyph unicode="&#x39c;" horiz-adv-x="1740" d="M199 0v1423h209l460 -850l463 850h211v-1423h-194v1079l-398 -745h-162l-395 745v-1079h-194z" />
<glyph unicode="&#x39d;" horiz-adv-x="1482" d="M199 0v1423h186l707 -1081v1081h194v-1423h-186l-707 1083v-1083h-194z" />
<glyph unicode="&#x39e;" horiz-adv-x="1265" d="M154 1253v170h960v-170h-960zM256 631v168h756v-168h-756zM154 0v170h960v-170h-960z" />
<glyph unicode="&#x39f;" horiz-adv-x="1394" d="M696 -27q-271 0 -427 188.5t-156 551.5q0 362 156 549.5t427 187.5q274 0 430 -187.5t156 -549.5q0 -364 -156 -552t-430 -188zM696 147q182 0 284.5 137t102.5 429q0 290 -102.5 426.5t-284.5 136.5t-283.5 -136t-101.5 -427q0 -293 101.5 -429.5t283.5 -136.5z" />
<glyph unicode="&#x3a0;" horiz-adv-x="1519" d="M199 0v1423h1122v-1423h-195v1253h-733v-1253h-194z" />
<glyph unicode="&#x3a1;" horiz-adv-x="1183" d="M199 0v1423h432q211 0 338 -117t127 -319q0 -214 -130.5 -336.5t-349.5 -122.5h-223v-528h-194zM393 696h213q135 0 213 76.5t78 208.5q0 129 -75.5 200.5t-207.5 71.5h-221v-557z" />
<glyph unicode="&#x3a3;" horiz-adv-x="1331" d="M174 0v156l397 557l-391 555v155h961v-170h-740l371 -540l-377 -543h762v-170h-983z" />
<glyph unicode="&#x3a4;" horiz-adv-x="1247" d="M520 0v1253h-461v170h1117v-170h-461v-1253h-195z" />
<glyph unicode="&#x3a5;" horiz-adv-x="1269" d="M539 0v518l-484 905h219l363 -698l358 698h219l-481 -905v-518h-194z" />
<glyph unicode="&#x3a6;" horiz-adv-x="1607" d="M707 -16v172h-35q-249 0 -410.5 155.5t-161.5 401.5t161.5 401.5t410.5 155.5h35v170h194v-170h35q249 0 410 -155.5t161 -401.5t-161 -401.5t-410 -155.5h-35v-172h-194zM678 326h29v774h-29q-165 0 -272 -106t-107 -281t107 -281t272 -106zM901 326h27q166 0 273.5 106 t107.5 281t-107.5 281t-273.5 106h-27v-774z" />
<glyph unicode="&#x3a7;" horiz-adv-x="1366" d="M1274 0h-238l-362 549l-373 -549h-213l475 717l-467 706h238l358 -542l357 542h215l-461 -710z" />
<glyph unicode="&#x3a8;" horiz-adv-x="1607" d="M707 0v324h-35q-241 0 -394 149t-153 395v555h194v-555q0 -174 101 -275t258 -101h29v931h194v-931h27q158 0 259 101t101 275v555h195v-555q0 -246 -153 -395t-394 -149h-35v-324h-194z" />
<glyph unicode="&#x3a9;" horiz-adv-x="1382" d="M82 0v147l311 -2q-156 79 -256 245t-100 380q0 104 25.5 201.5t79 184.5t129.5 152.5t184.5 103.5t236.5 38q127 0 235.5 -38t184.5 -103.5t129.5 -152.5t79 -185t25.5 -201q0 -214 -100 -380t-257 -245l311 2v-147h-548v152q197 93 303 254t106 364q0 100 -30 190 t-87 161t-148 113t-204 42q-114 0 -205 -42t-148.5 -113t-87.5 -161t-30 -190q0 -203 106.5 -364t305.5 -254v-152h-551z" />
<glyph unicode="&#x3aa;" horiz-adv-x="589" d="M109 1602q-43 0 -74 27.5t-31 74.5q0 48 31 76t74 28q44 0 74 -27.5t30 -76.5q0 -47 -30 -74.5t-74 -27.5zM479 1602q-44 0 -74 27.5t-30 74.5q0 49 30 76.5t74 27.5q43 0 74 -28t31 -76q0 -47 -31 -74.5t-74 -27.5zM199 0v1423h194v-1423h-194z" />
<glyph unicode="&#x3ab;" horiz-adv-x="1269" d="M449 1602q-43 0 -74 27.5t-31 74.5q0 48 31 76t74 28q44 0 74 -27.5t30 -76.5q0 -47 -30 -74.5t-74 -27.5zM819 1602q-44 0 -74 27.5t-30 74.5q0 49 30 76.5t74 27.5q43 0 74 -28t31 -76q0 -47 -31 -74.5t-74 -27.5zM539 0v518l-484 905h219l363 -698l358 698h219 l-481 -905v-518h-194z" />
<glyph unicode="&#x3ac;" horiz-adv-x="1318" d="M483 1210l60 367h194l-86 -367h-168zM514 -27q-196 0 -315 152.5t-119 425.5q0 269 121.5 422t312.5 153q123 0 211 -55t129 -135v164h182v-715q0 -113 52.5 -169t148.5 -56l-10 -172q-137 0 -223.5 57t-114.5 160q-120 -232 -375 -232zM559 141q137 0 212 106.5 t75 303.5q0 196 -75 301.5t-212 105.5t-211 -105.5t-74 -301.5q0 -198 74 -304t211 -106z" />
<glyph unicode="&#x3ad;" horiz-adv-x="1019" d="M408 1210l59 367h195l-87 -367h-167zM502 -27q-188 0 -305 95t-117 249q0 105 63.5 173t145.5 90v2q-86 27 -135.5 89t-49.5 156q0 135 112 217t280 82q152 0 255.5 -73t145.5 -174l-186 -50q-27 58 -83.5 92.5t-127.5 34.5q-82 0 -141.5 -44.5t-59.5 -114.5 q0 -61 33 -101.5t80.5 -56.5t107.5 -16h166v-123h-164q-99 0 -170 -45.5t-71 -130.5q0 -84 65.5 -133.5t155.5 -49.5q97 0 163 41.5t99 104.5l176 -58q-40 -115 -152 -185.5t-286 -70.5z" />
<glyph unicode="&#x3ae;" horiz-adv-x="1216" d="M524 1210l60 367h194l-86 -367h-168zM858 -399v1067q0 131 -70 203.5t-178 72.5q-103 0 -177.5 -77.5t-74.5 -213.5v-653h-188v825q0 150 -109 150q-30 0 -57 -8v145q58 14 100 14q177 0 211 -182q47 80 136 131t202 51q81 0 151.5 -26t125.5 -76.5t87 -132t32 -184.5 v-1106h-191z" />
<glyph unicode="&#x3af;" horiz-adv-x="579" d="M166 1210l59 367h195l-86 -367h-168zM154 340v760h188v-756q0 -93 39 -140.5t113 -47.5q22 0 57 6l-8 -172q-41 -6 -76 -6q-142 0 -227.5 85.5t-85.5 270.5z" />
<glyph unicode="&#x3b0;" horiz-adv-x="1114" d="M428 1210l59 367h170l-88 -367h-141zM291 1294q-42 0 -73.5 29t-31.5 76t31.5 75.5t73.5 28.5t73 -28.5t31 -75.5t-31 -76t-73 -29zM774 1294q-43 0 -73.5 28.5t-30.5 76.5t30.5 76t73.5 28q42 0 73.5 -28.5t31.5 -75.5t-31.5 -76t-73.5 -29zM532 -27q-181 0 -300 105.5 t-119 300.5v721h190v-715q0 -115 62.5 -179.5t166.5 -64.5q133 0 204 114t71 339q0 240 -88 506h188q94 -267 94 -506q0 -288 -122 -454.5t-347 -166.5z" />
<glyph unicode="&#x3b1;" horiz-adv-x="1318" d="M514 -27q-196 0 -315 152.5t-119 425.5q0 269 121.5 422t312.5 153q123 0 211 -55t129 -135v164h182v-715q0 -113 52.5 -169t148.5 -56l-10 -172q-137 0 -223.5 57t-114.5 160q-120 -232 -375 -232zM559 141q137 0 212 106.5t75 303.5q0 196 -75 301.5t-212 105.5 t-211 -105.5t-74 -301.5q0 -198 74 -304t211 -106z" />
<glyph unicode="&#x3b2;" horiz-adv-x="1251" d="M170 -399v1417q0 203 125.5 317.5t318.5 114.5q191 0 302.5 -101.5t111.5 -252.5q0 -89 -44.5 -164.5t-119.5 -112.5q125 -37 205 -148t80 -251q0 -195 -135.5 -321t-327.5 -126q-107 0 -194.5 44.5t-133.5 115.5v-532h-188zM662 141q124 0 201 78t77 199 q0 120 -77.5 196t-207.5 76h-84v164h72q92 0 145.5 58.5t53.5 152.5q0 95 -62 156t-166 61q-120 0 -188 -72.5t-68 -191.5v-533q0 -160 80 -252t224 -92z" />
<glyph unicode="&#x3b3;" horiz-adv-x="1183" d="M465 -399v424l-414 1075h215l322 -881q114 106 194 319.5t80 426.5q0 72 -8 135h215q2 -31 2 -90q0 -272 -119 -548.5t-297 -436.5v-424h-190z" />
<glyph unicode="&#x3b4;" horiz-adv-x="1081" d="M541 -25q-209 0 -335 128t-126 362q0 196 93 313.5t255 139.5q-105 26 -171.5 91t-66.5 158q0 89 54.5 155t137.5 97t181 31q180 0 316 -86l-41 -133q-115 78 -250 78q-88 0 -145.5 -39t-57.5 -103q0 -43 21 -75t56.5 -53.5t82 -40.5t97.5 -39.5t102 -45t97.5 -63 t82 -88.5t56.5 -126t21 -171q0 -234 -125.5 -362t-334.5 -128zM541 143q129 0 197.5 84t68.5 240q0 157 -68.5 241.5t-197.5 84.5t-198 -84.5t-69 -241.5q0 -156 69 -240t198 -84z" />
<glyph unicode="&#x3b5;" horiz-adv-x="1019" d="M502 -27q-188 0 -305 95t-117 249q0 105 63.5 173t145.5 90v2q-86 27 -135.5 89t-49.5 156q0 135 112 217t280 82q152 0 255.5 -73t145.5 -174l-186 -50q-27 58 -83.5 92.5t-127.5 34.5q-82 0 -141.5 -44.5t-59.5 -114.5q0 -61 33 -101.5t80.5 -56.5t107.5 -16h166v-123 h-164q-99 0 -170 -45.5t-71 -130.5q0 -84 65.5 -133.5t155.5 -49.5q97 0 163 41.5t99 104.5l176 -58q-40 -115 -152 -185.5t-286 -70.5z" />
<glyph unicode="&#x3b6;" horiz-adv-x="1009" d="M733 -403l-160 38q127 105 127 215q0 51 -35.5 86t-92 55.5t-124.5 38.5t-136.5 43.5t-125 62.5t-92 103.5t-35.5 157.5q0 84 35.5 175.5t78.5 161t135 172t146.5 156.5t172.5 166q16 15 24 23h-401v172h668l-3 -161q-129 -105 -219 -183.5t-179.5 -169t-143 -165 t-86.5 -155t-33 -155.5q0 -64 36 -109.5t93 -71.5t126 -47.5t138.5 -45t126.5 -55.5t93 -87.5t36 -132.5q0 -83 -46 -158.5t-124 -129.5z" />
<glyph unicode="&#x3b7;" horiz-adv-x="1216" d="M858 -399v1067q0 131 -70 203.5t-178 72.5q-103 0 -177.5 -77.5t-74.5 -213.5v-653h-188v825q0 150 -109 150q-30 0 -57 -8v145q58 14 100 14q177 0 211 -182q47 80 136 131t202 51q81 0 151.5 -26t125.5 -76.5t87 -132t32 -184.5v-1106h-191z" />
<glyph unicode="&#x3b8;" horiz-adv-x="1196" d="M598 -27q-226 0 -355.5 188.5t-129.5 551.5q0 362 129.5 549.5t355.5 187.5t355.5 -187.5t129.5 -549.5q0 -363 -129.5 -551.5t-355.5 -188.5zM313 791h570q-9 249 -83.5 367t-201.5 118t-201.5 -118t-83.5 -367zM598 147q127 0 201.5 119t83.5 371h-570 q9 -252 83.5 -371t201.5 -119z" />
<glyph unicode="&#x3b9;" horiz-adv-x="579" d="M154 340v760h188v-756q0 -93 39 -140.5t113 -47.5q22 0 57 6l-8 -172q-41 -6 -76 -6q-142 0 -227.5 85.5t-85.5 270.5z" />
<glyph unicode="&#x3ba;" horiz-adv-x="1204" d="M1096 0h-242l-385 471l-104 -121v-350h-195v1100h195v-479l327 389q105 116 248 116q73 0 152 -28l-27 -178q-55 20 -102 20q-87 0 -154 -78l-207 -239z" />
<glyph unicode="&#x3bb;" horiz-adv-x="1157" d="M1118 0h-198l-355 829l-327 -829h-199l432 1049l-33 75q-36 86 -81 126t-109 40q-46 0 -92 -18l-33 164q79 28 156 28q228 0 335 -260z" />
<glyph unicode="&#x3bc;" horiz-adv-x="1144" d="M971 317q0 -187 45 -317h-187q-28 62 -34 154q-39 -75 -127 -128t-195 -53q-105 0 -192 52l16 -424h-184v1499h190v-725q0 -108 60 -170t159 -62q104 0 181 78.5t77 208.5v670h191v-783z" />
<glyph unicode="&#x3bd;" horiz-adv-x="1200" d="M465 0l-414 1100h197l344 -910q114 125 199.5 354t85.5 449q0 61 -5 107h201q4 -58 4 -84q0 -280 -116 -557.5t-289 -458.5h-207z" />
<glyph unicode="&#x3be;" horiz-adv-x="995" d="M811 -403l-168 41q65 32 101 80.5t36 103.5q0 43 -23 75.5t-61.5 53.5t-89 37.5t-105.5 32.5t-110.5 34t-106 46t-89 64.5t-61.5 93t-23 128.5q0 109 59 193t162 127q-166 88 -166 245q0 95 57 176.5t156 122.5h-270v172h772v-172h-236q-131 0 -209 -76t-78 -174 q0 -82 62.5 -138t165.5 -56h137v-141h-160q-113 0 -178.5 -63.5t-65.5 -156.5q0 -56 28.5 -99.5t75.5 -70t107 -51t122 -42.5t122 -45.5t107 -58.5t75.5 -82.5t28.5 -117.5q0 -86 -44 -161.5t-130 -120.5z" />
<glyph unicode="&#x3bf;" horiz-adv-x="1120" d="M559 -27q-221 0 -350 150t-129 428q0 277 129 426t350 149q223 0 352 -148.5t129 -426.5t-129.5 -428t-351.5 -150zM559 141q137 0 212 106.5t75 303.5q0 196 -75 301.5t-212 105.5t-211 -105.5t-74 -301.5q0 -198 74 -304t211 -106z" />
<glyph unicode="&#x3c0;" horiz-adv-x="1206" d="M1143 -12q-181 -14 -261.5 65t-80.5 240v643h-402v-936h-188v936h-160v164h1104v-166h-164v-649q0 -87 37.5 -119.5t114.5 -32.5v-145z" />
<glyph unicode="&#x3c1;" horiz-adv-x="1163" d="M125 -399v950q0 277 129 426t350 149t350 -149t129 -426q0 -274 -127.5 -426t-324.5 -152q-109 0 -190.5 49.5t-125.5 141.5v-563h-190zM604 141q137 0 211 106t74 304q0 196 -74 301.5t-211 105.5t-211 -105.5t-74 -301.5q0 -198 74 -304t211 -106z" />
<glyph unicode="&#x3c2;" horiz-adv-x="1013" d="M795 -403l-174 38q100 97 100 197q0 62 -36.5 114.5t-95 92.5t-129.5 80t-142 87.5t-129.5 103.5t-95 139.5t-36.5 185.5q0 237 133.5 364t348.5 127q162 0 273.5 -86.5t137.5 -210.5l-176 -53q-29 84 -91.5 133t-150.5 49q-130 0 -205 -82t-75 -233q0 -61 23.5 -113.5 t62.5 -91.5t90 -74.5t107.5 -66t113 -62t107.5 -67.5t90 -77t62.5 -96.5t23.5 -119.5q0 -147 -137 -278z" />
<glyph unicode="&#x3c3;" horiz-adv-x="1163" d="M1165 1126v-172l-237 2q112 -149 112 -405q0 -278 -129.5 -428t-351.5 -150q-221 0 -350 150t-129 428q0 277 129 426t350 149h606zM846 551q0 194 -74 299.5t-209 107.5h-4q-137 0 -211 -105.5t-74 -301.5q0 -198 74 -304t211 -106t212 106.5t75 303.5z" />
<glyph unicode="&#x3c4;" horiz-adv-x="829" d="M549 -27q-146 0 -228.5 83.5t-82.5 246.5v625h-201v172h682v-172h-291v-588q0 -95 38 -138.5t114 -43.5q73 0 157 43l21 -181q-107 -47 -209 -47z" />
<glyph unicode="&#x3c5;" horiz-adv-x="1114" d="M532 -27q-181 0 -300 105.5t-119 300.5v721h190v-715q0 -115 62.5 -179.5t166.5 -64.5q133 0 204 114t71 339q0 240 -88 506h188q94 -267 94 -506q0 -288 -122 -454.5t-347 -166.5z" />
<glyph unicode="&#x3c6;" horiz-adv-x="1458" d="M633 -399v372q-249 15 -401 173.5t-152 404.5q0 244 152 402t401 173v265h190v-265q249 -15 401 -173t152 -402q0 -246 -152 -404.5t-401 -173.5v-372h-190zM633 141v817q-164 -15 -261.5 -121.5t-97.5 -285.5q0 -184 97 -289.5t262 -120.5zM823 141q165 15 262 120.5 t97 289.5q0 179 -97.5 285.5t-261.5 121.5v-817z" />
<glyph unicode="&#x3c7;" horiz-adv-x="1347" d="M1225 -229q21 0 57 8l-2 -191q-49 -14 -102 -14q-182 0 -301 203l-238 399l-358 -575h-213l464 751l-268 451q-73 127 -153 127q-34 0 -64 -10l-24 188q77 18 131 18q165 0 280 -192l234 -391l362 557h213l-471 -731l285 -473q44 -74 79.5 -99.5t88.5 -25.5z" />
<glyph unicode="&#x3c8;" horiz-adv-x="1359" d="M1247 602q0 -136 -37.5 -247.5t-103.5 -187.5t-154 -123t-192 -62v-381h-191v376q-207 24 -331.5 153.5t-124.5 346.5v623h190v-617q0 -142 71 -226t195 -107v1191h191v-1189q136 30 214.5 144t78.5 306q0 120 -28 253.5t-81 244.5h189q114 -234 114 -498z" />
<glyph unicode="&#x3c9;" horiz-adv-x="1820" d="M569 -27q-115 0 -203.5 45.5t-143 127.5t-82 189.5t-27.5 237.5q0 256 98 527h188q-92 -268 -92 -525q0 -126 26 -220.5t88.5 -154t156.5 -59.5q105 0 171 77t66 202v606h191v-606q0 -125 66 -202t171 -77q95 0 157 59.5t87.5 153.5t25.5 221q0 257 -92 525h189 q98 -271 98 -527q0 -130 -27.5 -237.5t-82.5 -189.5t-143.5 -127.5t-203.5 -45.5q-121 0 -208 60.5t-134 161.5q-47 -101 -133.5 -161.5t-206.5 -60.5z" />
<glyph unicode="&#x3ca;" horiz-adv-x="579" d="M63 1278q-42 0 -73 27.5t-31 74.5q0 49 31 77t73 28q44 0 74.5 -28t30.5 -77q0 -47 -30.5 -74.5t-74.5 -27.5zM434 1278q-44 0 -74 27.5t-30 74.5q0 49 30 77t74 28q43 0 74 -28.5t31 -76.5q0 -47 -31 -74.5t-74 -27.5zM154 340v760h188v-756q0 -93 39 -140.5t113 -47.5 q22 0 57 6l-8 -172q-41 -6 -76 -6q-142 0 -227.5 85.5t-85.5 270.5z" />
<glyph unicode="&#x3cb;" horiz-adv-x="1114" d="M317 1278q-42 0 -73 27.5t-31 74.5q0 49 31 77t73 28q44 0 74.5 -28t30.5 -77q0 -47 -30.5 -74.5t-74.5 -27.5zM688 1278q-44 0 -74 27.5t-30 74.5q0 49 30 77t74 28q43 0 74 -28.5t31 -76.5q0 -47 -31 -74.5t-74 -27.5zM532 -27q-181 0 -300 105.5t-119 300.5v721h190 v-715q0 -115 62.5 -179.5t166.5 -64.5q133 0 204 114t71 339q0 240 -88 506h188q94 -267 94 -506q0 -288 -122 -454.5t-347 -166.5z" />
<glyph unicode="&#x3cc;" horiz-adv-x="1120" d="M477 1210l60 367h194l-86 -367h-168zM559 -27q-221 0 -350 150t-129 428q0 277 129 426t350 149q223 0 352 -148.5t129 -426.5t-129.5 -428t-351.5 -150zM559 141q137 0 212 106.5t75 303.5q0 196 -75 301.5t-212 105.5t-211 -105.5t-74 -301.5q0 -198 74 -304t211 -106z " />
<glyph unicode="&#x3cd;" horiz-adv-x="1114" d="M420 1210l59 367h195l-86 -367h-168zM532 -27q-181 0 -300 105.5t-119 300.5v721h190v-715q0 -115 62.5 -179.5t166.5 -64.5q133 0 204 114t71 339q0 240 -88 506h188q94 -267 94 -506q0 -288 -122 -454.5t-347 -166.5z" />
<glyph unicode="&#x3ce;" horiz-adv-x="1820" d="M827 1210l60 367h194l-86 -367h-168zM569 -27q-115 0 -203.5 45.5t-143 127.5t-82 189.5t-27.5 237.5q0 256 98 527h188q-92 -268 -92 -525q0 -126 26 -220.5t88.5 -154t156.5 -59.5q105 0 171 77t66 202v606h191v-606q0 -125 66 -202t171 -77q95 0 157 59.5t87.5 153.5 t25.5 221q0 257 -92 525h189q98 -271 98 -527q0 -130 -27.5 -237.5t-82.5 -189.5t-143.5 -127.5t-203.5 -45.5q-121 0 -208 60.5t-134 161.5q-47 -101 -133.5 -161.5t-206.5 -60.5z" />
<glyph unicode="&#x401;" horiz-adv-x="1224" d="M432 1602q-42 0 -73 27.5t-31 74.5q0 48 30.5 76t73.5 28q44 0 74.5 -27.5t30.5 -76.5q0 -47 -30.5 -74.5t-74.5 -27.5zM803 1602q-44 0 -74.5 27.5t-30.5 74.5q0 49 30.5 76.5t74.5 27.5q43 0 73.5 -28t30.5 -76q0 -47 -31 -74.5t-73 -27.5zM199 0v1423h831v-170h-637 v-454h555v-168h-555v-461h692v-170h-886z" />
<glyph unicode="&#x402;" horiz-adv-x="1556" d="M1034 893q196 0 319.5 -123t123.5 -326q0 -94 -35 -175.5t-98.5 -141.5t-159 -94.5t-211.5 -34.5v162q80 0 140.5 24t95 65.5t51 90.5t16.5 104q0 120 -74 199.5t-205 79.5q-120 0 -201 -85t-81 -220v-418h-195v1253h-461v170h1117v-170h-461v-532q45 78 130 125t189 47z " />
<glyph unicode="&#x403;" horiz-adv-x="1089" d="M352 1552l-59 127l522 254l66 -141zM199 0v1423h807v-170h-613v-1253h-194z" />
<glyph unicode="&#x404;" horiz-adv-x="1316" d="M1057 338l178 -57q-47 -130 -176.5 -219t-319.5 -89q-135 0 -248.5 47.5t-198 138.5t-132 233t-47.5 321q0 178 47.5 319t131.5 232t197 138.5t248 47.5q189 0 318 -89t176 -218l-180 -58q-94 191 -312 191q-180 0 -294.5 -122t-131.5 -363h557v-154h-557 q17 -242 132.5 -366t297.5 -124q220 0 314 191z" />
<glyph unicode="&#x405;" horiz-adv-x="1161" d="M594 -27q-177 0 -308 78.5t-190 216.5l176 62q44 -87 128.5 -135t193.5 -48q117 0 190.5 59.5t73.5 160.5q0 51 -25 91.5t-68 69t-98 53.5t-116 48.5t-122.5 49.5t-116.5 61t-98 78t-68 106.5t-25 140.5q0 177 128.5 281t328.5 104q175 0 293 -73t173 -208l-186 -59 q-35 79 -108.5 122.5t-169.5 43.5q-110 0 -181 -57.5t-71 -151.5q0 -57 32 -102t83.5 -74t118 -58.5t136 -54t136 -61t118 -79t83.5 -109t32 -150.5q0 -185 -130 -295.5t-343 -110.5z" />
<glyph unicode="&#x406;" horiz-adv-x="589" d="M199 0v1423h194v-1423h-194z" />
<glyph unicode="&#x407;" horiz-adv-x="589" d="M109 1602q-43 0 -74 27.5t-31 74.5q0 48 31 76t74 28q44 0 74 -27.5t30 -76.5q0 -47 -30 -74.5t-74 -27.5zM479 1602q-44 0 -74 27.5t-30 74.5q0 49 30 76.5t74 27.5q43 0 74 -28t31 -76q0 -47 -31 -74.5t-74 -27.5zM199 0v1423h194v-1423h-194z" />
<glyph unicode="&#x408;" horiz-adv-x="985" d="M113 0v170h125q186 0 276 93.5t90 281.5v708h-409v170h604v-878q0 -277 -140 -411t-421 -134h-125z" />
<glyph unicode="&#x409;" horiz-adv-x="2164" d="M1657 803q105 0 190 -34.5t137 -91.5t79.5 -128t27.5 -148t-27.5 -147.5t-79.5 -128t-137 -91.5t-190 -34h-600v1253h-584l-57 -850q-14 -222 -112 -312.5t-290 -90.5v170q106 0 158 52.5t59 183.5l64 1017h958v-620h404zM1632 170q123 0 191.5 68.5t68.5 162.5 t-68.5 163t-191.5 69h-379v-463h379z" />
<glyph unicode="&#x40a;" horiz-adv-x="2234" d="M1726 803q105 0 190 -34.5t137.5 -91.5t80 -128t27.5 -148t-27.5 -147.5t-80 -128t-137.5 -91.5t-190 -34h-600v633h-733v-633h-194v1423h194v-620h733v620h197v-620h403zM1702 170q123 0 191.5 68.5t68.5 162.5t-68.5 163t-191.5 69h-379v-463h379z" />
<glyph unicode="&#x40b;" horiz-adv-x="1597" d="M1044 891q162 0 272.5 -104t110.5 -281v-506h-194v477q0 108 -70 174t-178 66t-183 -69t-87 -181v-467h-197v1253h-459v170h1117v-170h-461v-536q48 78 137.5 126t191.5 48z" />
<glyph unicode="&#x40c;" horiz-adv-x="1255" d="M926 1792l-529 -240l-59 127l522 254zM682 793q83 -25 148 -89t111.5 -153t83.5 -179.5t85 -196.5t96 -175h-223q-33 46 -67.5 119.5t-59.5 140.5t-59.5 138.5t-69.5 123.5t-88 85.5t-117 33.5h-129v-641h-194v1423h194v-614h111l231 424q66 121 140 169t161 48 q74 0 150 -33l-41 -164q-52 25 -92 25q-44 0 -81 -25t-73 -90z" />
<glyph unicode="&#x40e;" horiz-adv-x="1255" d="M629 1569q-122 0 -197 71t-76 213h138q0 -74 37 -114.5t98 -40.5t97 40.5t36 114.5h139q-1 -142 -75.5 -213t-196.5 -71zM985 1423h211l-469 -1083q-87 -197 -204.5 -276.5t-319.5 -79.5l-10 170q108 0 188.5 43.5t144.5 160.5l-467 1065h211l357 -839z" />
<glyph unicode="&#x40f;" horiz-adv-x="1492" d="M1294 1423v-1423h-463v-367h-169v367h-463v1423h194v-1253h707v1253h194z" />
<glyph unicode="&#x410;" horiz-adv-x="1259" d="M1014 0l-107 334h-563l-106 -334h-199l469 1423h246l467 -1423h-207zM395 502h457l-229 717z" />
<glyph unicode="&#x411;" horiz-adv-x="1306" d="M797 803q105 0 190 -34.5t137 -91.5t79.5 -128t27.5 -148t-27.5 -147.5t-79.5 -128t-137 -91.5t-190 -34h-598v1423h659v-170h-465v-450h404zM772 170q123 0 191.5 68.5t68.5 162.5t-68.5 163t-191.5 69h-379v-463h379z" />
<glyph unicode="&#x412;" horiz-adv-x="1269" d="M199 0v1423h450q46 0 87.5 -4.5t94 -16t94.5 -36.5t78.5 -62t57 -96t20.5 -135q0 -255 -217 -342v-2q33 -9 65 -25.5t66 -45.5t59.5 -65t41.5 -88.5t16 -113.5q0 -111 -35 -189.5t-100 -121t-144.5 -61.5t-181.5 -19h-452zM393 805h232q124 0 189 60.5t65 178.5 q0 209 -250 209h-236v-448zM393 170h250q266 0 266 231q0 116 -70 175t-202 59h-244v-465z" />
<glyph unicode="&#x413;" horiz-adv-x="1089" d="M199 0v1423h807v-170h-613v-1253h-194z" />
<glyph unicode="&#x414;" horiz-adv-x="1564" d="M1300 170h148v-537h-170v367h-1069v-367h-170v537h127q54 69 82 140.5t35 181.5l59 931h958v-1253zM358 170h748v1083h-590l-53 -764q-7 -116 -33 -187t-72 -132z" />
<glyph unicode="&#x415;" horiz-adv-x="1224" d="M199 0v1423h831v-170h-637v-454h555v-168h-555v-461h692v-170h-886z" />
<glyph unicode="&#x416;" horiz-adv-x="1923" d="M1348 793q83 -25 148 -89t111.5 -153t83.5 -179.5t85 -196.5t96 -175h-223q-33 46 -67.5 119.5t-59.5 140.5t-59.5 138.5t-69.5 123.5t-88 85.5t-117 33.5h-129v-641h-197v641h-129q-64 0 -117 -33.5t-88 -85.5t-69.5 -123.5t-59.5 -138.5t-59.5 -140.5t-67.5 -119.5 h-223q48 69 96 175t85 196.5t83.5 179.5t111.5 153t148 89l-217 370q-36 65 -72.5 90t-80.5 25q-40 0 -92 -25l-41 164q76 33 149 33q87 0 161 -48t140 -169l232 -424h110v614h197v-614h110l232 424q66 121 140 169t161 48q73 0 149 -33l-41 -164q-52 25 -92 25 q-44 0 -80.5 -25t-72.5 -90z" />
<glyph unicode="&#x417;" horiz-adv-x="1157" d="M571 -27q-199 0 -328 87.5t-177 222.5l178 59q38 -85 123 -140t206 -55q73 0 136 27t105 86t42 139q0 63 -26.5 112t-71 78.5t-99 44.5t-114.5 15h-187v160h181q59 0 108.5 12.5t90.5 40t64 77t23 116.5q0 101 -74.5 161t-177.5 60q-93 0 -162.5 -48.5t-105.5 -135.5 l-186 59q49 133 170 216t286 83q126 0 228 -43.5t163.5 -129t61.5 -198.5q0 -129 -62 -213t-167 -116v-2q45 -12 88 -38t82.5 -67t63.5 -104.5t24 -139.5q0 -192 -135.5 -309t-350.5 -117z" />
<glyph unicode="&#x418;" horiz-adv-x="1482" d="M1284 0h-194v1083l-707 -1083h-186v1423h194v-1081l707 1081h186v-1423z" />
<glyph unicode="&#x419;" horiz-adv-x="1482" d="M752 1569q-122 0 -197 71t-76 213h137q0 -73 37.5 -114t98.5 -41t97 40.5t36 114.5h139q-1 -142 -75.5 -213t-196.5 -71zM1284 0h-194v1083l-707 -1083h-186v1423h194v-1081l707 1081h186v-1423z" />
<glyph unicode="&#x41a;" horiz-adv-x="1255" d="M682 793q83 -25 148 -89t111.5 -153t83.5 -179.5t85 -196.5t96 -175h-223q-33 46 -67.5 119.5t-59.5 140.5t-59.5 138.5t-69.5 123.5t-88 85.5t-117 33.5h-129v-641h-194v1423h194v-614h111l231 424q66 121 140 169t161 48q74 0 150 -33l-41 -164q-52 25 -92 25 q-44 0 -81 -25t-73 -90z" />
<glyph unicode="&#x41b;" horiz-adv-x="1449" d="M14 0v170q106 0 158 52.5t59 183.5l64 1017h956v-1423h-194v1253h-584l-57 -850q-14 -222 -112 -312.5t-290 -90.5z" />
<glyph unicode="&#x41c;" horiz-adv-x="1740" d="M199 0v1423h209l460 -850l463 850h211v-1423h-194v1079l-398 -745h-162l-395 745v-1079h-194z" />
<glyph unicode="&#x41d;" horiz-adv-x="1519" d="M199 0v1423h194v-620h733v620h195v-1423h-195v633h-733v-633h-194z" />
<glyph unicode="&#x41e;" horiz-adv-x="1394" d="M696 -27q-271 0 -427 188.5t-156 551.5q0 362 156 549.5t427 187.5q274 0 430 -187.5t156 -549.5q0 -364 -156 -552t-430 -188zM696 147q182 0 284.5 137t102.5 429q0 290 -102.5 426.5t-284.5 136.5t-283.5 -136t-101.5 -427q0 -293 101.5 -429.5t283.5 -136.5z" />
<glyph unicode="&#x41f;" horiz-adv-x="1492" d="M199 0v1423h1095v-1423h-194v1253h-707v-1253h-194z" />
<glyph unicode="&#x420;" horiz-adv-x="1183" d="M199 0v1423h432q211 0 338 -117t127 -319q0 -214 -130.5 -336.5t-349.5 -122.5h-223v-528h-194zM393 696h213q135 0 213 76.5t78 208.5q0 129 -75.5 200.5t-207.5 71.5h-221v-557z" />
<glyph unicode="&#x421;" horiz-adv-x="1316" d="M739 -27q-135 0 -248.5 47.5t-198 138.5t-132 233t-47.5 321q0 178 47.5 319t131.5 232t197 138.5t248 47.5q189 0 318 -89t176 -218l-180 -58q-94 191 -312 191q-196 0 -312 -142t-116 -421q0 -280 118 -423t314 -143q220 0 314 191l178 -57q-47 -130 -176.5 -219 t-319.5 -89z" />
<glyph unicode="&#x422;" horiz-adv-x="1247" d="M520 0v1253h-461v170h1117v-170h-461v-1253h-195z" />
<glyph unicode="&#x423;" horiz-adv-x="1255" d="M985 1423h211l-469 -1083q-87 -197 -204.5 -276.5t-319.5 -79.5l-10 170q108 0 188.5 43.5t144.5 160.5l-467 1065h211l357 -839z" />
<glyph unicode="&#x424;" horiz-adv-x="1607" d="M707 -16v172h-35q-249 0 -410.5 155.5t-161.5 401.5t161.5 401.5t410.5 155.5h35v170h194v-170h35q249 0 410 -155.5t161 -401.5t-161 -401.5t-410 -155.5h-35v-172h-194zM678 326h29v774h-29q-165 0 -272 -106t-107 -281t107 -281t272 -106zM901 326h27q166 0 273.5 106 t107.5 281t-107.5 281t-273.5 106h-27v-774z" />
<glyph unicode="&#x425;" horiz-adv-x="1366" d="M1274 0h-238l-362 549l-373 -549h-213l475 717l-467 706h238l358 -542l357 542h215l-461 -710z" />
<glyph unicode="&#x426;" horiz-adv-x="1517" d="M1294 170h107v-537h-170v367h-1032v1423h194v-1253h707v1253h194v-1253z" />
<glyph unicode="&#x427;" horiz-adv-x="1243" d="M852 0v711q-48 -80 -138.5 -129.5t-193.5 -49.5q-162 0 -272.5 104.5t-110.5 281.5v505h195v-477q0 -107 69.5 -173t178.5 -66q118 0 195 80t77 208v428h195v-1423h-195z" />
<glyph unicode="&#x428;" horiz-adv-x="2394" d="M199 0v1423h194v-1253h707v1253h194v-1253h709v1253h195v-1423h-1999z" />
<glyph unicode="&#x429;" horiz-adv-x="2420" d="M2198 170h106v-537h-170v367h-1935v1423h194v-1253h707v1253h194v-1253h709v1253h195v-1253z" />
<glyph unicode="&#x42a;" horiz-adv-x="1540" d="M1030 803q105 0 190 -34.5t137 -91.5t79.5 -128t27.5 -148t-27.5 -147.5t-79.5 -128t-137 -91.5t-190 -34h-598v1253h-409v170h604v-620h403zM1006 170q123 0 191.5 68.5t68.5 162.5t-68.5 163t-191.5 69h-379v-463h379z" />
<glyph unicode="&#x42b;" horiz-adv-x="1779" d="M797 803q105 0 190 -34.5t137 -91.5t79.5 -128t27.5 -148t-27.5 -147.5t-79.5 -128t-137 -91.5t-190 -34h-598v1423h194v-620h404zM1386 1423h195v-1423h-195v1423zM772 170q123 0 191.5 68.5t68.5 162.5t-68.5 163t-191.5 69h-379v-463h379z" />
<glyph unicode="&#x42c;" horiz-adv-x="1306" d="M797 803q105 0 190 -34.5t137 -91.5t79.5 -128t27.5 -148t-27.5 -147.5t-79.5 -128t-137 -91.5t-190 -34h-598v1423h194v-620h404zM772 170q123 0 191.5 68.5t68.5 162.5t-68.5 163t-191.5 69h-379v-463h379z" />
<glyph unicode="&#x42d;" horiz-adv-x="1316" d="M580 1450q135 0 248 -47.5t197 -138.5t131.5 -232t47.5 -319q0 -179 -47.5 -321t-132 -233t-198 -138.5t-248.5 -47.5q-190 0 -319.5 89t-176.5 219l178 57q94 -191 313 -191q182 0 298 124t133 366h-558v154h558q-17 241 -131.5 363t-294.5 122q-218 0 -312 -191 l-180 58q47 129 176 218t318 89z" />
<glyph unicode="&#x42e;" horiz-adv-x="1972" d="M1272 1450q274 0 430 -187.5t156 -549.5q0 -364 -156 -552t-430 -188q-255 0 -409.5 168t-172.5 492h-297v-633h-194v1423h194v-620h297q20 317 174.5 482t407.5 165zM1272 147q182 0 284.5 137t102.5 429q0 290 -102.5 426.5t-284.5 136.5t-283.5 -136t-101.5 -427 q0 -293 101.5 -429.5t283.5 -136.5z" />
<glyph unicode="&#x42f;" horiz-adv-x="1275" d="M647 1423h430v-1423h-194v565h-101q-68 0 -124.5 -28.5t-94.5 -73t-75.5 -107t-63.5 -121t-61.5 -125.5t-67.5 -110h-223q36 51 81 138.5t80.5 162.5t90 160t112.5 141q-132 51 -203 158.5t-71 234.5q0 82 31 157t89.5 136.5t153 98t211.5 36.5zM883 735v518h-240 q-133 0 -208 -76.5t-75 -181.5q0 -106 75 -183t208 -77h240z" />
<glyph unicode="&#x430;" horiz-adv-x="1132" d="M434 -27q-144 0 -237 84t-93 226q0 161 115 246t320 85h225v125q0 98 -60.5 158.5t-156.5 60.5q-79 0 -140 -43t-88 -114l-176 47q16 50 49.5 97.5t83 89t120 66.5t149.5 25q186 0 298.5 -103.5t112.5 -285.5v-422q0 -210 48 -315h-203q-30 65 -33 147q-45 -78 -136 -126 t-198 -48zM496 135q104 0 186 69.5t82 162.5v112h-219q-246 0 -246 -182q0 -71 55.5 -116.5t141.5 -45.5z" />
<glyph unicode="&#x431;" horiz-adv-x="1081" d="M541 1047q209 0 334.5 -140.5t125.5 -396.5q0 -254 -126 -395.5t-334 -141.5q-210 0 -335.5 141t-125.5 396q0 157 13.5 276.5t46.5 221t87 170.5t136 115.5t194 66.5q139 26 198.5 64.5t78.5 127.5l165 -20q-23 -139 -118 -214.5t-279 -113.5q-111 -18 -175.5 -68 t-94.5 -135q91 46 209 46zM541 137q123 0 195.5 98t72.5 275t-72.5 275t-195.5 98q-125 0 -198 -98.5t-73 -274.5q0 -177 73 -275t198 -98z" />
<glyph unicode="&#x432;" horiz-adv-x="1136" d="M170 0v1100h457q162 0 255 -80t93 -209q0 -45 -12.5 -83.5t-31.5 -64.5t-45 -47t-49.5 -33t-48.5 -20v-2q83 -23 144 -89.5t61 -166.5q0 -135 -101.5 -220t-277.5 -85h-444zM358 627h238q95 0 141.5 45t46.5 110q0 64 -44.5 109t-131.5 45h-250v-309zM358 164h238 q99 0 151 47.5t52 114.5q0 66 -52 112.5t-151 46.5h-238v-321z" />
<glyph unicode="&#x433;" horiz-adv-x="978" d="M170 0v1100h741v-164h-553v-936h-188z" />
<glyph unicode="&#x434;" horiz-adv-x="1353" d="M1116 164h125v-522h-170v358h-878v-358h-170v522h110q45 56 67.5 107.5t26.5 131.5l49 697h840v-936zM322 164h604v778h-475l-41 -539q-6 -86 -27.5 -139.5t-60.5 -99.5z" />
<glyph unicode="&#x435;" horiz-adv-x="1107" d="M858 319l170 -43q-44 -131 -171 -217t-279 -86q-226 0 -362 159.5t-136 428.5q0 257 132 411t349 154q137 0 243.5 -68t161 -178.5t54.5 -242.5v-125h-744q9 -176 91 -275.5t215 -99.5q95 0 169 48t107 134zM559 963q-111 0 -183.5 -76.5t-92.5 -216.5h544 q-3 130 -76.5 211.5t-191.5 81.5z" />
<glyph unicode="&#x436;" horiz-adv-x="1703" d="M1219 621q54 -20 99.5 -61.5t76.5 -91t62.5 -113t56 -121.5t58.5 -122.5t68 -111.5h-223q-32 39 -64.5 106.5t-59 127.5t-59.5 116.5t-80 90.5t-107 34h-101v-475h-188v475h-101q-60 0 -107 -34t-80 -90.5t-59.5 -116.5t-59 -127.5t-64.5 -106.5h-224q40 54 79.5 134.5 t70.5 150t68 139t88.5 121.5t115.5 76l-168 258q-56 84 -131 84q-26 0 -77 -17l-39 148q70 32 133 32q169 0 278 -178l187 -307h90v459h188v-459h90l187 307q109 178 278 178q63 0 133 -32l-39 -148q-51 17 -77 17q-76 0 -132 -84z" />
<glyph unicode="&#x437;" horiz-adv-x="1052" d="M510 -27q-174 0 -286 70.5t-152 185.5l178 58q31 -62 97 -104t163 -42q90 0 155.5 49.5t65.5 133.5q0 85 -71.5 130.5t-170.5 45.5h-163v123h166q60 0 107.5 16t80.5 56.5t33 101.5q0 70 -59.5 114.5t-141.5 44.5q-71 0 -127.5 -34.5t-83.5 -92.5l-186 50 q42 101 145.5 174t255.5 73q168 0 279.5 -82t111.5 -217q0 -94 -49 -156t-135 -89v-2q82 -22 145.5 -90t63.5 -173q0 -154 -117 -249t-305 -95z" />
<glyph unicode="&#x438;" horiz-adv-x="1312" d="M1143 0h-189v813l-600 -813h-184v1100h188v-813l600 813h185v-1100z" />
<glyph unicode="&#x439;" horiz-adv-x="1312" d="M657 1245q-122 0 -196.5 71.5t-75.5 213.5h137q0 -74 37 -115t98 -41t97.5 41t36.5 115h139q-1 -142 -76 -213.5t-197 -71.5zM1143 0h-189v813l-600 -813h-184v1100h188v-813l600 813h185v-1100z" />
<glyph unicode="&#x43a;" horiz-adv-x="1116" d="M631 621q64 -24 115.5 -76t88.5 -121.5t68 -139t70.5 -150t79.5 -134.5h-224q-32 39 -64.5 106.5t-59 127.5t-59.5 116.5t-80 90.5t-107 34h-101v-475h-188v1100h188v-459h91l186 307q109 178 278 178q64 0 134 -32l-39 -148q-51 17 -78 17q-75 0 -131 -84z" />
<glyph unicode="&#x43b;" horiz-adv-x="1253" d="M18 -10v162q88 0 131.5 40.5t49.5 135.5l53 772h833v-1100h-190v936h-467l-45 -606q-13 -182 -103 -261t-262 -79z" />
<glyph unicode="&#x43c;" horiz-adv-x="1488" d="M170 0v1100h229l344 -654l349 654h227v-1100h-191v811l-305 -596h-159l-304 596v-811h-190z" />
<glyph unicode="&#x43d;" horiz-adv-x="1306" d="M170 0v1100h188v-459h588v459h191v-1100h-191v477h-588v-477h-188z" />
<glyph unicode="&#x43e;" horiz-adv-x="1120" d="M559 -27q-221 0 -350 150t-129 428q0 277 129 426t350 149q223 0 352 -148.5t129 -426.5t-129.5 -428t-351.5 -150zM559 141q137 0 212 106.5t75 303.5q0 196 -75 301.5t-212 105.5t-211 -105.5t-74 -301.5q0 -198 74 -304t211 -106z" />
<glyph unicode="&#x43f;" horiz-adv-x="1271" d="M170 0v1100h934v-1100h-191v936h-555v-936h-188z" />
<glyph unicode="&#x440;" horiz-adv-x="1204" d="M170 -399v1499h188v-187q15 37 41.5 72.5t66 68t97.5 52.5t125 20q197 0 316.5 -148.5t119.5 -426.5q0 -279 -119.5 -428.5t-316.5 -149.5q-121 0 -204.5 59t-125.5 136v-567h-188zM643 141q137 0 212 106.5t75 303.5q0 196 -75 301.5t-212 105.5t-211 -105.5t-74 -301.5 q0 -197 74.5 -303.5t210.5 -106.5z" />
<glyph unicode="&#x441;" horiz-adv-x="1050" d="M561 -27q-103 0 -191 39t-152.5 111t-101 182.5t-36.5 245.5q0 264 135.5 419.5t345.5 155.5q162 0 274 -86.5t138 -210.5l-176 -53q-29 84 -91.5 133t-150.5 49q-127 0 -204 -111t-77 -296q0 -186 77 -298t204 -112q90 0 158.5 47t103.5 127l172 -36 q-41 -135 -160 -220.5t-268 -85.5z" />
<glyph unicode="&#x442;" horiz-adv-x="1085" d="M449 0v936h-398v164h985v-164h-397v-936h-190z" />
<glyph unicode="&#x443;" horiz-adv-x="1120" d="M848 1100h201l-414 -1149q-36 -103 -95.5 -178t-133 -117.5t-153 -62t-167.5 -19.5l-12 174q59 0 112.5 12t105.5 38t94.5 74t68.5 114l-441 1114h209l324 -852z" />
<glyph unicode="&#x444;" horiz-adv-x="1398" d="M604 -399v399q-233 15 -378.5 162.5t-145.5 388.5q0 239 145.5 386.5t378.5 162.5v436h191v-436q233 -15 378.5 -162.5t145.5 -386.5q0 -241 -145.5 -388.5t-378.5 -162.5v-399h-191zM604 168v764q-150 -8 -240 -106t-90 -275q0 -182 89.5 -278.5t240.5 -104.5zM795 168 q151 8 240 104.5t89 278.5q0 178 -89.5 275.5t-239.5 105.5v-764z" />
<glyph unicode="&#x445;" horiz-adv-x="1075" d="M1020 0h-229l-265 395l-256 -395h-219l373 549l-369 551h228l260 -387l258 387h217l-375 -539z" />
<glyph unicode="&#x446;" horiz-adv-x="1298" d="M1092 164h94v-522h-170v358h-846v1100h188v-936h543v936h191v-936z" />
<glyph unicode="&#x447;" horiz-adv-x="1060" d="M698 0v500q-46 -60 -122.5 -91.5t-161.5 -31.5q-130 0 -223 77.5t-93 225.5v420h193v-393q0 -83 52.5 -129t127.5 -46q90 0 158.5 58t68.5 155v355h195v-1100h-195z" />
<glyph unicode="&#x448;" horiz-adv-x="2004" d="M170 0v1100h188v-936h555v936h191v-936h541v936h190v-1100h-1665z" />
<glyph unicode="&#x449;" horiz-adv-x="2041" d="M1835 164h94v-522h-170v358h-1589v1100h188v-936h555v936h191v-936h541v936h190v-936z" />
<glyph unicode="&#x44a;" horiz-adv-x="1333" d="M879 662q87 0 158 -28.5t114.5 -75.5t66.5 -105t23 -121q0 -64 -23 -122.5t-66.5 -105.5t-114.5 -75.5t-158 -28.5h-494v936h-346v164h534v-438h306zM852 164q93 0 144 50t51 118q0 67 -51.5 117.5t-143.5 50.5h-279v-336h279z" />
<glyph unicode="&#x44b;" horiz-adv-x="1511" d="M664 662q87 0 158 -28.5t114.5 -75.5t66.5 -105t23 -121q0 -64 -23 -122.5t-66.5 -105.5t-114 -75.5t-158.5 -28.5h-494v1100h188v-438h306zM1153 1100h188v-1100h-188v1100zM637 164q93 0 143.5 49.5t50.5 118.5q0 67 -51 117.5t-143 50.5h-279v-336h279z" />
<glyph unicode="&#x44c;" horiz-adv-x="1120" d="M664 662q87 0 158 -28.5t114.5 -75.5t66.5 -105t23 -121q0 -64 -23 -122.5t-66.5 -105.5t-114 -75.5t-158.5 -28.5h-494v1100h188v-438h306zM637 164q93 0 143.5 49.5t50.5 118.5q0 67 -51 117.5t-143 50.5h-279v-336h279z" />
<glyph unicode="&#x44d;" horiz-adv-x="1091" d="M481 1126q114 0 210.5 -37.5t168 -108.5t112 -181.5t40.5 -247.5q0 -139 -41 -249.5t-113 -182t-169.5 -109t-211.5 -37.5q-164 0 -278 73.5t-152 178.5l170 60q32 -62 99.5 -103t158.5 -41q136 0 226 83.5t110 244.5h-469v160h469q-18 161 -108 245t-226 84 q-91 0 -155.5 -39.5t-96.5 -101.5l-176 60q40 103 154 176t278 73z" />
<glyph unicode="&#x44e;" horiz-adv-x="1638" d="M1077 1126q223 0 352.5 -149t129.5 -426q0 -278 -129.5 -428t-352.5 -150q-203 0 -330 128.5t-145 367.5h-244v-469h-188v1100h188v-467h244q18 239 145 366t330 127zM1077 141q137 0 212 106.5t75 303.5q0 196 -75 301.5t-212 105.5t-210.5 -105.5t-73.5 -301.5 q0 -198 73.5 -304t210.5 -106z" />
<glyph unicode="&#x44f;" horiz-adv-x="1112" d="M555 1100h389v-1100h-194v410h-78q-55 0 -100 -20.5t-75.5 -52.5t-59.5 -77.5t-50 -87.5t-49.5 -91t-54.5 -81h-224q34 43 80 130.5t98 174t109 144.5q-101 44 -155 127.5t-54 179.5q0 66 26.5 126.5t76.5 109.5t131.5 78.5t183.5 29.5zM750 578v354h-201 q-102 0 -158.5 -52.5t-56.5 -125.5q0 -71 57 -123.5t158 -52.5h201z" />
<glyph unicode="&#x451;" horiz-adv-x="1107" d="M362 1278q-42 0 -73 27.5t-31 74.5q0 49 31 77t73 28q44 0 74.5 -28t30.5 -77q0 -47 -30.5 -74.5t-74.5 -27.5zM733 1278q-44 0 -74 27.5t-30 74.5q0 49 30 77t74 28q43 0 74 -28.5t31 -76.5q0 -47 -31 -74.5t-74 -27.5zM858 319l170 -43q-44 -131 -171 -217t-279 -86 q-226 0 -362 159.5t-136 428.5q0 257 132 411t349 154q137 0 243.5 -68t161 -178.5t54.5 -242.5v-125h-744q9 -176 91 -275.5t215 -99.5q95 0 169 48t107 134zM559 963q-111 0 -183.5 -76.5t-92.5 -216.5h544q-3 130 -76.5 211.5t-191.5 81.5z" />
<glyph unicode="&#x452;" horiz-adv-x="1148" d="M647 1126q163 0 270 -111t107 -325v-694q0 -112 -28 -190.5t-82.5 -122.5t-123.5 -63t-161 -19v163q102 0 153.5 49.5t51.5 176.5v678q0 133 -67.5 204.5t-170.5 71.5q-100 0 -172 -76t-72 -215v-653h-190v1286h-117v137h117v113h190v-113h287v-137h-287v-330 q36 68 110.5 119t184.5 51z" />
<glyph unicode="&#x453;" horiz-adv-x="978" d="M240 1229l-60 127l522 254l66 -142zM170 0v1100h741v-164h-553v-936h-188z" />
<glyph unicode="&#x454;" horiz-adv-x="1091" d="M874 285l170 -60q-38 -105 -152 -178.5t-278 -73.5q-114 0 -211 37.5t-169.5 109t-113 182t-40.5 249.5q0 137 40.5 247.5t112 181.5t167.5 108.5t210 37.5q164 0 278 -73t154 -176l-176 -60q-32 62 -96.5 101.5t-155.5 39.5q-136 0 -225.5 -84t-107.5 -245h469v-160 h-469q20 -161 109.5 -244.5t225.5 -83.5q91 0 158.5 41t99.5 103z" />
<glyph unicode="&#x455;" horiz-adv-x="991" d="M508 -27q-169 0 -279 71t-157 173l127 96q43 -79 121 -129.5t180 -50.5q84 0 143 43.5t59 110.5q0 48 -33 83.5t-85.5 58t-116 43.5t-127 46.5t-116 59.5t-85.5 91t-33 132q0 146 107 235.5t279 89.5q147 0 253 -61.5t150 -149.5l-127 -98q-40 67 -112 108.5t-160 41.5 q-86 0 -140.5 -42t-54.5 -110q0 -41 25.5 -73.5t67.5 -52.5t95.5 -40.5t109.5 -37.5t109.5 -45t95.5 -61t67.5 -86.5t25.5 -121.5q0 -146 -112.5 -235t-276.5 -89z" />
<glyph unicode="&#x456;" horiz-adv-x="528" d="M264 1321q-48 0 -82.5 32t-34.5 85t34 83.5t83 30.5q47 0 82 -30.5t35 -83.5t-35 -85t-82 -32zM170 0v1100h188v-1100h-188z" />
<glyph unicode="&#x457;" horiz-adv-x="528" d="M78 1278q-43 0 -74 27.5t-31 74.5q0 48 31 76.5t74 28.5q44 0 74 -28t30 -77q0 -47 -30 -74.5t-74 -27.5zM449 1278q-44 0 -74.5 27.5t-30.5 74.5q0 49 30.5 77t74.5 28q42 0 73 -28t31 -77q0 -47 -31 -74.5t-73 -27.5zM170 0v1100h188v-1100h-188z" />
<glyph unicode="&#x458;" horiz-adv-x="526" d="M266 1321q-48 0 -82 32t-34 85t34 83.5t82 30.5q47 0 82 -30.5t35 -83.5t-35 -85t-82 -32zM-43 -426v164q108 0 160.5 49t52.5 176v1137h190v-1131q0 -112 -28 -190.5t-83.5 -122.5t-126 -63t-165.5 -19z" />
<glyph unicode="&#x459;" horiz-adv-x="1845" d="M1389 662q87 0 158 -28.5t114.5 -75.5t66.5 -105t23 -121q0 -64 -23 -122.5t-66.5 -105.5t-114.5 -75.5t-158 -28.5h-494v936h-467l-45 -606q-13 -182 -103 -261t-262 -79v162q88 0 131.5 40.5t49.5 135.5l53 772h833v-438h304zM1362 164q93 0 143.5 49.5t50.5 118.5 q0 67 -51 117.5t-143 50.5h-277v-336h277z" />
<glyph unicode="&#x45a;" horiz-adv-x="1896" d="M1442 662q87 0 158 -28.5t114.5 -75.5t66.5 -105t23 -121q0 -64 -23 -122.5t-66.5 -105.5t-114 -75.5t-158.5 -28.5h-496v477h-588v-477h-188v1100h188v-459h588v459h191v-438h305zM1415 164q93 0 144 50t51 118q0 67 -51.5 117.5t-143.5 50.5h-278v-336h278z" />
<glyph unicode="&#x45b;" horiz-adv-x="1216" d="M664 1126q170 0 277.5 -111t107.5 -308v-707h-191v668q0 131 -70 203.5t-178 72.5q-103 0 -177.5 -77.5t-74.5 -213.5v-653h-188v1288h-158v137h158v111h188v-111h248v-137h-248v-332q44 72 123.5 121t182.5 49z" />
<glyph unicode="&#x45c;" horiz-adv-x="1116" d="M854 1468l-528 -239l-60 127l522 254zM631 621q64 -24 115.5 -76t88.5 -121.5t68 -139t70.5 -150t79.5 -134.5h-224q-32 39 -64.5 106.5t-59 127.5t-59.5 116.5t-80 90.5t-107 34h-101v-475h-188v1100h188v-459h91l186 307q109 178 278 178q64 0 134 -32l-39 -148 q-51 17 -78 17q-75 0 -131 -84z" />
<glyph unicode="&#x45e;" horiz-adv-x="1120" d="M543 1245q-122 0 -197 71.5t-76 213.5h138q0 -74 37 -115t98 -41t97 41t36 115h139q-1 -142 -75.5 -213.5t-196.5 -71.5zM848 1100h201l-414 -1149q-36 -103 -95.5 -178t-133 -117.5t-153 -62t-167.5 -19.5l-12 174q59 0 112.5 12t105.5 38t94.5 74t68.5 114l-441 1114 h209l324 -852z" />
<glyph unicode="&#x45f;" horiz-adv-x="1271" d="M1104 1100v-1100h-383v-358h-170v358h-381v1100h188v-936h555v936h191z" />
<glyph unicode="&#x462;" horiz-adv-x="1368" d="M858 803q105 0 190 -34.5t137 -91.5t79.5 -128t27.5 -148t-27.5 -147.5t-79.5 -128t-137 -91.5t-190 -34h-598v1106h-303v154h303v163h195v-163h323v-154h-323v-303h403zM834 170q123 0 191.5 68.5t68.5 162.5t-68.5 163t-191.5 69h-379v-463h379z" />
<glyph unicode="&#x463;" horiz-adv-x="1177" d="M727 645q87 0 157 -27.5t112.5 -73.5t64.5 -102t22 -118t-22 -119t-64.5 -103.5t-112.5 -74t-157 -27.5h-389v936h-299v164h299v436h188v-436h299v-164h-299v-291h201zM709 164q87 0 133.5 47t46.5 113q0 64 -46.5 111.5t-133.5 47.5h-183v-319h183z" />
<glyph unicode="&#x472;" horiz-adv-x="1394" d="M696 1450q274 0 430 -187.5t156 -549.5q0 -364 -156 -552t-430 -188q-271 0 -427 188.5t-156 551.5q0 362 156 549.5t427 187.5zM696 1276q-365 0 -385 -512q74 67 166 67q83 0 216.5 -32.5t209.5 -32.5q61 0 108 27.5t64 74.5q-27 209 -125 308.5t-254 99.5zM696 147 q171 0 272 120t113 374q-73 -51 -176 -51q-85 0 -218.5 32.5t-201.5 32.5q-61 0 -106.5 -33.5t-56.5 -82.5q55 -392 374 -392z" />
<glyph unicode="&#x473;" horiz-adv-x="1112" d="M559 1126q223 0 352 -148.5t129 -426.5t-129.5 -428t-351.5 -150q-221 0 -350 150t-129 428q0 277 129 426t350 149zM559 958q-128 0 -201 -91.5t-82 -262.5q48 39 109 39q63 -1 165.5 -26t162.5 -25q44 0 78 17.5t49 49.5q-20 145 -92 222t-189 77zM559 141 q126 0 200.5 91.5t84.5 261.5q-53 -35 -131 -35q-65 0 -167 25.5t-155 25.5q-77 -3 -110 -57q17 -152 88.5 -232t189.5 -80z" />
<glyph unicode="&#x474;" horiz-adv-x="1382" d="M537 0l-504 1423h219l403 -1165l328 936q47 137 112 192.5t154 55.5q44 0 127 -23l-24 -178q-42 10 -62 10q-44 0 -73 -30.5t-60 -118.5l-393 -1102h-227z" />
<glyph unicode="&#x475;" horiz-adv-x="1247" d="M457 0l-406 1100h219l301 -832l242 641q40 114 101 160.5t143 46.5q43 0 123 -22l-25 -179q-37 13 -55 13q-38 0 -63.5 -25t-49.5 -90l-309 -813h-221z" />
<glyph unicode="&#x490;" horiz-adv-x="1089" d="M836 1667h170v-414h-613v-1253h-194v1423h637v244z" />
<glyph unicode="&#x491;" horiz-adv-x="978" d="M750 1337h161v-401h-553v-936h-188v1100h580v237z" />
<glyph unicode="&#x492;" horiz-adv-x="1089" d="M1006 1253h-613v-462h332v-154h-332v-637h-194v637h-211v154h211v632h807v-170z" />
<glyph unicode="&#x493;" horiz-adv-x="919" d="M827 936h-397v-328h215v-137h-215v-471h-190v471h-189v137h189v492h587v-164z" />
<glyph unicode="&#x496;" horiz-adv-x="1923" d="M1778 170h135v-537h-170v367h-94q-33 46 -67.5 119.5t-59.5 140.5t-59.5 138.5t-69.5 123.5t-88 85.5t-117 33.5h-129v-641h-197v641h-129q-64 0 -117 -33.5t-88 -85.5t-69.5 -123.5t-59.5 -138.5t-59.5 -140.5t-67.5 -119.5h-223q48 69 96 175t85 196.5t83.5 179.5 t111.5 153t148 89l-217 370q-36 65 -72.5 90t-80.5 25q-40 0 -92 -25l-41 164q76 33 149 33q87 0 161 -48t140 -169l232 -424h110v614h197v-614h110l232 424q66 121 140 169t161 48q73 0 149 -33l-41 -164q-52 25 -92 25q-44 0 -80.5 -25t-72.5 -90l-217 -370 q57 -17 107 -54.5t84 -80t70 -109.5t58 -118.5t55.5 -132.5t55.5 -128z" />
<glyph unicode="&#x497;" horiz-adv-x="1703" d="M1546 164h131v-522h-170v358h-90q-32 39 -64.5 106.5t-59 127.5t-59.5 116.5t-80 90.5t-107 34h-101v-475h-188v475h-101q-60 0 -107 -34t-80 -90.5t-59.5 -116.5t-59 -127.5t-64.5 -106.5h-224q40 54 79.5 134.5t70.5 150t68 139t88.5 121.5t115.5 76l-168 258 q-56 84 -131 84q-26 0 -77 -17l-39 148q70 32 133 32q169 0 278 -178l187 -307h90v459h188v-459h90l187 307q109 178 278 178q63 0 133 -32l-39 -148q-51 17 -77 17q-76 0 -132 -84l-167 -258q42 -16 79 -45.5t62.5 -59t55 -80.5t45 -83.5t43.5 -96t42 -92.5z" />
<glyph unicode="&#x498;" horiz-adv-x="1157" d="M1057 399q0 -163 -101.5 -274t-269.5 -141q-3 -61 -14 -110t-36 -93t-63.5 -73.5t-98.5 -46.5t-138 -17v143q91 0 132 49t46 139q-175 13 -289.5 98.5t-158.5 209.5l178 59q38 -85 123 -140t206 -55q73 0 136 27t105 86t42 139q0 63 -26.5 112t-71 78.5t-99 44.5 t-114.5 15h-187v160h181q59 0 108.5 12.5t90.5 40t64 77t23 116.5q0 101 -74.5 161t-177.5 60q-93 0 -162.5 -48.5t-105.5 -135.5l-186 59q49 133 170 216t286 83q126 0 228 -43.5t163.5 -129t61.5 -198.5q0 -129 -62 -213t-167 -116v-2q45 -12 88 -38t82.5 -67t63.5 -104.5 t24 -139.5z" />
<glyph unicode="&#x499;" horiz-adv-x="1052" d="M932 317q0 -131 -87 -220.5t-233 -114.5q-3 -76 -21 -133.5t-56 -105.5t-107 -73.5t-166 -25.5v143q92 0 132.5 49.5t45.5 140.5q-145 13 -238 80.5t-130 171.5l178 58q31 -62 97 -104t163 -42q90 0 155.5 49.5t65.5 133.5q0 85 -71.5 130.5t-170.5 45.5h-163v123h166 q60 0 107.5 16t80.5 56.5t33 101.5q0 70 -59.5 114.5t-141.5 44.5q-71 0 -127.5 -34.5t-83.5 -92.5l-186 50q42 101 145.5 174t255.5 73q168 0 279.5 -82t111.5 -217q0 -94 -49 -156t-135 -89v-2q82 -22 145.5 -90t63.5 -173z" />
<glyph unicode="&#x49a;" horiz-adv-x="1255" d="M1112 170h139v-537h-170v367h-98q-33 46 -67.5 119.5t-59.5 140.5t-59.5 138.5t-69.5 123.5t-88 85.5t-117 33.5h-129v-641h-194v1423h194v-614h111l231 424q66 121 140 169t161 48q74 0 150 -33l-41 -164q-52 25 -92 25q-44 0 -81 -25t-73 -90l-217 -370 q57 -17 107 -54.5t84 -80t70 -109.5t58 -118.5t55.5 -132.5t55.5 -128z" />
<glyph unicode="&#x49b;" horiz-adv-x="1116" d="M958 164h129v-522h-169v358h-89q-32 39 -64.5 106.5t-59 127.5t-59.5 116.5t-80 90.5t-107 34h-101v-475h-188v1100h188v-459h91l186 307q109 178 278 178q64 0 134 -32l-39 -148q-51 17 -78 17q-75 0 -131 -84l-168 -258q42 -16 79 -45.5t62.5 -59t55 -80.5t45 -83.5 t43.5 -96t42 -92.5z" />
<glyph unicode="&#x4a0;" horiz-adv-x="1490" d="M915 793q83 -25 148 -89t111.5 -153t84 -179.5t85.5 -196.5t96 -175h-223q-33 46 -67.5 119.5t-59.5 140.5t-59.5 138.5t-69.5 123.5t-88 85.5t-117 33.5h-129v-641h-195v1253h-409v170h604v-614h110l232 424q66 121 140 169t161 48q73 0 149 -33l-41 -164q-52 25 -92 25 q-44 0 -80.5 -25t-72.5 -90z" />
<glyph unicode="&#x4a1;" horiz-adv-x="1292" d="M807 621q64 -24 115.5 -76t88.5 -121.5t68 -139t70.5 -150t79.5 -134.5h-223q-32 39 -64.5 106.5t-59 127.5t-60 116.5t-80.5 90.5t-107 34h-100v-475h-189v936h-323v164h512v-459h90l186 307q109 178 279 178q63 0 133 -32l-39 -148q-51 17 -78 17q-75 0 -131 -84z" />
<glyph unicode="&#x4a2;" horiz-adv-x="1519" d="M1321 170h143v-537h-170v367h-168v633h-733v-633h-194v1423h194v-620h733v620h195v-1253z" />
<glyph unicode="&#x4a3;" horiz-adv-x="1306" d="M1137 164h104v-522h-170v358h-125v477h-588v-477h-188v1100h188v-459h588v459h191v-936z" />
<glyph unicode="&#x4aa;" horiz-adv-x="1316" d="M1235 281q-41 -116 -152 -202t-272 -102q-4 -75 -22 -132t-56.5 -104t-106.5 -72t-165 -25v143q92 0 132.5 50t47.5 143q-239 33 -383.5 222.5t-144.5 510.5q0 178 47.5 319t131.5 232t197 138.5t248 47.5q189 0 318 -89t176 -218l-180 -58q-94 191 -312 191 q-196 0 -312 -142t-116 -421q0 -280 118 -423t314 -143q220 0 314 191z" />
<glyph unicode="&#x4ab;" horiz-adv-x="1050" d="M989 279q-35 -116 -130.5 -196.5t-219.5 -102.5q-3 -75 -21 -132.5t-56 -105t-107 -73t-166 -25.5v143q94 0 134.5 51t45.5 144q-176 33 -282.5 182t-106.5 387q0 264 135.5 419.5t345.5 155.5q162 0 274 -86.5t138 -210.5l-176 -53q-29 84 -91.5 133t-150.5 49 q-127 0 -204 -111t-77 -296q0 -186 77 -298t204 -112q90 0 158.5 47t103.5 127z" />
<glyph unicode="&#x4ae;" horiz-adv-x="1269" d="M539 0v518l-484 905h219l363 -698l358 698h219l-481 -905v-518h-194z" />
<glyph unicode="&#x4af;" horiz-adv-x="1144" d="M494 -399v485l-414 1014h223l287 -834l287 834h221l-414 -1014v-485h-190z" />
<glyph unicode="&#x4b0;" horiz-adv-x="1269" d="M733 518v-84h324v-153h-324v-281h-194v281h-330v153h330v84l-484 905h219l363 -698l358 698h219z" />
<glyph unicode="&#x4b1;" horiz-adv-x="1144" d="M1098 1100l-393 -963h296v-137h-317v-399h-190v399h-314v137h293l-393 963h223l287 -834l287 834h221z" />
<glyph unicode="&#x4b2;" horiz-adv-x="1366" d="M1161 170h150v-537h-170v367h-105l-362 549l-373 -549h-213l475 717l-467 706h238l358 -542l357 542h215l-461 -710z" />
<glyph unicode="&#x4b3;" horiz-adv-x="1075" d="M909 164h148v-522h-170v358h-96l-265 395l-256 -395h-219l373 549l-369 551h228l260 -387l258 387h217l-375 -539z" />
<glyph unicode="&#x4b6;" horiz-adv-x="1243" d="M1047 170h124v-537h-170v367h-149v711q-48 -80 -138.5 -129.5t-193.5 -49.5q-162 0 -272.5 104.5t-110.5 281.5v505h195v-477q0 -107 69.5 -173t178.5 -66q118 0 195 80t77 208v428h195v-1253z" />
<glyph unicode="&#x4b7;" horiz-adv-x="1060" d="M893 164h57v-522h-170v358h-82v500q-46 -60 -122.5 -91.5t-161.5 -31.5q-130 0 -223 77.5t-93 225.5v420h193v-393q0 -83 52.5 -129t127.5 -46q90 0 158.5 58t68.5 155v355h195v-936z" />
<glyph unicode="&#x4ba;" horiz-adv-x="1247" d="M362 1423v-710q48 80 138.5 129t193.5 49q162 0 272.5 -104t110.5 -281v-506h-194v477q0 108 -70 174t-178 66q-118 0 -195.5 -80.5t-77.5 -208.5v-428h-194v1423h194z" />
<glyph unicode="&#x4bb;" horiz-adv-x="1216" d="M664 1126q170 0 277.5 -111t107.5 -308v-707h-191v668q0 131 -70 203.5t-178 72.5q-103 0 -177.5 -77.5t-74.5 -213.5v-653h-188v1536h188v-580q44 72 123.5 121t182.5 49z" />
<glyph unicode="&#x4c0;" horiz-adv-x="589" d="M199 0v1423h194v-1423h-194z" />
<glyph unicode="&#x4c9;" horiz-adv-x="1519" d="M1321 170h127l-148 -537h-153l92 367h-113v633h-733v-633h-194v1423h194v-620h733v620h195v-1253z" />
<glyph unicode="&#x4ca;" horiz-adv-x="1325" d="M1137 170h137l-148 -537h-153l92 367h-119v477h-588v-477h-188v1100h188v-459h588v459h191v-930z" />
<glyph unicode="&#x4cf;" horiz-adv-x="528" d="M170 0v1100h188v-1100h-188z" />
<glyph unicode="&#x4d8;" horiz-adv-x="1380" d="M678 1450q276 0 434 -188t158 -543q0 -357 -157.5 -551.5t-426.5 -194.5q-260 0 -412.5 178t-152.5 470v98h948q0 282 -105 419.5t-286 137.5q-130 0 -223 -66.5t-138 -175.5l-170 47q65 169 204 269t327 100zM686 147q155 0 252 105t123 315h-744q5 -185 104 -302.5 t265 -117.5z" />
<glyph unicode="&#x4d9;" horiz-adv-x="1071" d="M510 1126q219 0 350 -150.5t131 -424.5q0 -275 -131 -426.5t-350 -151.5q-133 0 -238.5 70t-161 184.5t-55.5 249.5v117h742q-9 176 -83 270t-202 94q-92 0 -155.5 -48.5t-98.5 -129.5l-180 43q47 135 162 219t270 84zM508 137q118 0 191 77.5t92 229.5h-545 q0 -128 72 -217.5t190 -89.5z" />
<glyph unicode="&#x4e2;" horiz-adv-x="1482" d="M1024 1774v-144h-547v144h547zM1284 0h-194v1083l-707 -1083h-186v1423h194v-1081l707 1081h186v-1423z" />
<glyph unicode="&#x4e3;" horiz-adv-x="1312" d="M930 1450v-143h-547v143h547zM1143 0h-189v813l-600 -813h-184v1100h188v-813l600 813h185v-1100z" />
<glyph unicode="&#x4e8;" horiz-adv-x="1394" d="M696 1450q274 0 430 -187.5t156 -549.5q0 -364 -156 -552t-430 -188q-271 0 -427 188.5t-156 551.5q0 362 156 549.5t427 187.5zM696 1276q-169 0 -269.5 -117.5t-113.5 -367.5h768q-13 249 -114.5 367t-270.5 118zM696 147q171 0 271.5 118.5t113.5 371.5h-768 q13 -253 113 -371.5t270 -118.5z" />
<glyph unicode="&#x4e9;" horiz-adv-x="1120" d="M559 1126q223 0 352 -148.5t129 -426.5t-129.5 -428t-351.5 -150q-221 0 -350 150t-129 428q0 277 129 426t350 149zM559 958q-125 0 -198 -88t-85 -252h568q-12 164 -86 252t-199 88zM559 141q125 0 199 88.5t86 253.5h-568q12 -166 85 -254t198 -88z" />
<glyph unicode="&#x4ee;" horiz-adv-x="1255" d="M901 1774v-144h-547v144h547zM985 1423h211l-469 -1083q-87 -197 -204.5 -276.5t-319.5 -79.5l-10 170q108 0 188.5 43.5t144.5 160.5l-467 1065h211l357 -839z" />
<glyph unicode="&#x4ef;" horiz-adv-x="1120" d="M815 1450v-143h-547v143h547zM848 1100h201l-414 -1149q-36 -103 -95.5 -178t-133 -117.5t-153 -62t-167.5 -19.5l-12 174q59 0 112.5 12t105.5 38t94.5 74t68.5 114l-441 1114h209l324 -852z" />
<glyph unicode="&#x1e80;" horiz-adv-x="2017" d="M1235 1552l-528 240l65 141l522 -254zM465 0l-385 1423h211l301 -1192l291 1192h252l290 -1192l301 1192h211l-385 -1423h-247l-295 1171l-299 -1171h-246z" />
<glyph unicode="&#x1e81;" horiz-adv-x="1759" d="M1104 1229l-529 239l66 142l522 -254zM406 0l-326 1100h186l248 -879l264 879h207l258 -879l250 879h186l-325 -1100h-209l-264 874l-267 -874h-208z" />
<glyph unicode="&#x1e82;" horiz-adv-x="2017" d="M762 1552l-60 127l523 254l65 -141zM465 0l-385 1423h211l301 -1192l291 1192h252l290 -1192l301 1192h211l-385 -1423h-247l-295 1171l-299 -1171h-246z" />
<glyph unicode="&#x1e83;" horiz-adv-x="1759" d="M631 1229l-60 127l523 254l65 -142zM406 0l-326 1100h186l248 -879l264 879h207l258 -879l250 879h186l-325 -1100h-209l-264 874l-267 -874h-208z" />
<glyph unicode="&#x1e84;" horiz-adv-x="2017" d="M825 1602q-42 0 -73 27.5t-31 74.5q0 48 30.5 76t73.5 28q44 0 74.5 -27.5t30.5 -76.5q0 -47 -30.5 -74.5t-74.5 -27.5zM1196 1602q-44 0 -74 27.5t-30 74.5q0 49 30 76.5t74 27.5q43 0 73.5 -28t30.5 -76q0 -47 -31 -74.5t-73 -27.5zM465 0l-385 1423h211l301 -1192 l291 1192h252l290 -1192l301 1192h211l-385 -1423h-247l-295 1171l-299 -1171h-246z" />
<glyph unicode="&#x1e85;" horiz-adv-x="1759" d="M694 1278q-42 0 -73 27.5t-31 74.5q0 49 31 77t73 28q44 0 74.5 -28t30.5 -77q0 -47 -30.5 -74.5t-74.5 -27.5zM1065 1278q-44 0 -74 27.5t-30 74.5q0 49 30 77t74 28q42 0 73 -28t31 -77q0 -47 -31 -74.5t-73 -27.5zM406 0l-326 1100h186l248 -879l264 879h207l258 -879 l250 879h186l-325 -1100h-209l-264 874l-267 -874h-208z" />
<glyph unicode="&#x1e9e;" horiz-adv-x="1486" d="M913 -27q-118 0 -217 58.5t-151 152.5l127 117q36 -74 101 -114t142 -40q110 0 183 80t73 209q0 125 -85 208t-232 83q-64 0 -104 -37l-82 121l315 348q-99 115 -272 115q-61 0 -116.5 -20t-101.5 -59t-73 -104.5t-27 -148.5v-942h-194v942q0 125 44 224t118.5 160 t168.5 92.5t199 31.5q166 0 302 -67t202 -173l-311 -338q110 -2 197.5 -39.5t141.5 -99.5t82.5 -138t28.5 -159q0 -200 -126 -331.5t-333 -131.5z" />
<glyph unicode="&#x1ea0;" horiz-adv-x="1259" d="M1221 0h-207l-107 334h-563l-106 -334h-199l469 1423h246zM395 502h457l-229 717zM631 -152q43 0 74.5 -28t31.5 -76q0 -49 -32 -79t-74 -30q-45 0 -77 30t-32 79t32 76.5t77 27.5z" />
<glyph unicode="&#x1ea1;" horiz-adv-x="1132" d="M434 -27q-144 0 -237 84t-93 226q0 161 115 246t320 85h225v125q0 98 -60.5 158.5t-156.5 60.5q-79 0 -140 -43t-88 -114l-176 47q16 50 49.5 97.5t83 89t120 66.5t149.5 25q186 0 298.5 -103.5t112.5 -285.5v-422q0 -210 48 -315h-203q-30 65 -33 147q-45 -78 -136 -126 t-198 -48zM496 135q104 0 186 69.5t82 162.5v112h-219q-246 0 -246 -182q0 -71 55.5 -116.5t141.5 -45.5zM584 -365q-45 0 -77 30t-32 79t32 76.5t77 27.5q43 0 74.5 -28t31.5 -76q0 -49 -32 -79t-74 -30z" />
<glyph unicode="&#x1eb8;" horiz-adv-x="1224" d="M199 0v1423h831v-170h-637v-454h555v-168h-555v-461h692v-170h-886zM641 -365q-45 0 -77 30t-32 79t32 76.5t77 27.5q43 0 75 -28t32 -76q0 -49 -32.5 -79t-74.5 -30z" />
<glyph unicode="&#x1eb9;" horiz-adv-x="1107" d="M858 319l170 -43q-44 -131 -171 -217t-279 -86q-226 0 -362 159.5t-136 428.5q0 257 132 411t349 154q137 0 243.5 -68t161 -178.5t54.5 -242.5v-125h-744q9 -176 91 -275.5t215 -99.5q95 0 169 48t107 134zM559 963q-111 0 -183.5 -76.5t-92.5 -216.5h544 q-3 130 -76.5 211.5t-191.5 81.5zM559 -152q43 0 75 -28t32 -76q0 -49 -32.5 -79t-74.5 -30q-45 0 -76.5 30t-31.5 79t31.5 76.5t76.5 27.5z" />
<glyph unicode="&#x1ebc;" horiz-adv-x="1224" d="M444 1587l-127 31q8 84 52.5 134t117.5 50q42 0 124 -14t108 -14q69 0 72 90l129 -29q-9 -90 -59 -143.5t-134 -53.5q-44 0 -118 14.5t-95 14.5q-34 0 -50.5 -19.5t-19.5 -60.5zM199 0v1423h831v-170h-637v-454h555v-168h-555v-461h692v-170h-886z" />
<glyph unicode="&#x1ebd;" horiz-adv-x="1107" d="M444 1343q-34 0 -50 -19t-19 -60l-127 30q8 84 52.5 134.5t117.5 50.5q42 0 123.5 -14.5t107.5 -14.5q69 0 72 90l129 -29q-9 -90 -59 -143t-134 -53q-44 0 -118 14t-95 14zM858 319l170 -43q-44 -131 -171 -217t-279 -86q-226 0 -362 159.5t-136 428.5q0 257 132 411 t349 154q137 0 243.5 -68t161 -178.5t54.5 -242.5v-125h-744q9 -176 91 -275.5t215 -99.5q95 0 169 48t107 134zM559 963q-111 0 -183.5 -76.5t-92.5 -216.5h544q-3 130 -76.5 211.5t-191.5 81.5z" />
<glyph unicode="&#x1eca;" horiz-adv-x="589" d="M199 0v1423h194v-1423h-194zM295 -365q-45 0 -77 30t-32 79t32 76.5t77 27.5q43 0 74.5 -28t31.5 -76q0 -49 -32 -79t-74 -30z" />
<glyph unicode="&#x1ecb;" horiz-adv-x="528" d="M264 1321q-48 0 -82.5 32t-34.5 85t34 83.5t83 30.5q47 0 82 -30.5t35 -83.5t-35 -85t-82 -32zM170 0v1100h188v-1100h-188zM264 -365q-45 0 -76.5 30t-31.5 79t31.5 76.5t76.5 27.5q43 0 75 -28t32 -76q0 -49 -32.5 -79t-74.5 -30z" />
<glyph unicode="&#x1ecc;" horiz-adv-x="1394" d="M696 -27q-271 0 -427 188.5t-156 551.5q0 362 156 549.5t427 187.5q274 0 430 -187.5t156 -549.5q0 -364 -156 -552t-430 -188zM696 147q182 0 284.5 137t102.5 429q0 290 -102.5 426.5t-284.5 136.5t-283.5 -136t-101.5 -427q0 -293 101.5 -429.5t283.5 -136.5z M698 -365q-45 0 -76.5 30t-31.5 79t31.5 76.5t76.5 27.5q43 0 75 -28t32 -76q0 -49 -32.5 -79t-74.5 -30z" />
<glyph unicode="&#x1ecd;" horiz-adv-x="1120" d="M559 -27q-221 0 -350 150t-129 428q0 277 129 426t350 149q223 0 352 -148.5t129 -426.5t-129.5 -428t-351.5 -150zM559 141q137 0 212 106.5t75 303.5q0 196 -75 301.5t-212 105.5t-211 -105.5t-74 -301.5q0 -198 74 -304t211 -106zM561 -365q-45 0 -76.5 30t-31.5 79 t31.5 76.5t76.5 27.5q43 0 75 -28t32 -76q0 -49 -32.5 -79t-74.5 -30z" />
<glyph unicode="&#x1ee4;" horiz-adv-x="1380" d="M688 -27q-227 0 -364.5 139.5t-137.5 411.5v899h195v-901q0 -82 16.5 -148t51.5 -118t95.5 -80.5t143.5 -28.5q162 0 236.5 102t74.5 273v901h195v-899q0 -138 -38 -244.5t-107 -173t-160 -100t-201 -33.5zM688 -365q-45 0 -76.5 30t-31.5 79t31.5 76.5t76.5 27.5 q43 0 75 -28t32 -76q0 -49 -32.5 -79t-74.5 -30z" />
<glyph unicode="&#x1ee5;" horiz-adv-x="1144" d="M473 -27q-158 0 -259 104t-101 265v758h190v-725q0 -108 60 -170t159 -62q104 0 181 78.5t77 208.5v670h191v-783q0 -187 45 -317h-187q-28 62 -34 154q-39 -75 -127 -128t-195 -53zM528 -365q-45 0 -76.5 30t-31.5 79t31.5 76.5t76.5 27.5q43 0 75 -28t32 -76 q0 -49 -32.5 -79t-74.5 -30z" />
<glyph unicode="&#x1ef2;" horiz-adv-x="1269" d="M860 1552l-528 240l65 141l523 -254zM539 0v518l-484 905h219l363 -698l358 698h219l-481 -905v-518h-194z" />
<glyph unicode="&#x1ef3;" horiz-adv-x="1120" d="M825 1356l-59 -127l-528 239l65 142zM848 1100h201l-414 -1149q-36 -103 -95.5 -178t-133 -117.5t-153 -62t-167.5 -19.5l-12 174q59 0 112.5 12t105.5 38t94.5 74t68.5 114l-441 1114h209l324 -852z" />
<glyph unicode="&#x1ef8;" horiz-adv-x="1269" d="M463 1587l-127 31q8 84 52.5 134t117.5 50q42 0 123.5 -14t107.5 -14q69 0 72 90l129 -29q-9 -90 -59 -143.5t-134 -53.5q-44 0 -118 14.5t-95 14.5q-34 0 -50 -19.5t-19 -60.5zM539 0v518l-484 905h219l363 -698l358 698h219l-481 -905v-518h-194z" />
<glyph unicode="&#x1ef9;" horiz-adv-x="1120" d="M438 1343q-34 0 -50 -19t-19 -60l-127 30q8 84 52.5 134.5t117.5 50.5q42 0 123.5 -14.5t107.5 -14.5q69 0 72 90l129 -29q-9 -90 -59 -143t-134 -53q-44 0 -118 14t-95 14zM848 1100h201l-414 -1149q-36 -103 -95.5 -178t-133 -117.5t-153 -62t-167.5 -19.5l-12 174 q59 0 112.5 12t105.5 38t94.5 74t68.5 114l-441 1114h209l324 -852z" />
<glyph unicode="&#x1f74;" horiz-adv-x="1216" d="M688 1210h-168l-86 367h195zM858 -399v1067q0 131 -70 203.5t-178 72.5q-103 0 -177.5 -77.5t-74.5 -213.5v-653h-188v825q0 150 -109 150q-30 0 -57 -8v145q58 14 100 14q177 0 211 -182q47 80 136 131t202 51q81 0 151.5 -26t125.5 -76.5t87 -132t32 -184.5v-1106h-191 z" />
<glyph unicode="&#x1fef;" horiz-adv-x="1241" d="M750 1210h-168l-86 367h194z" />
<glyph unicode="&#x2000;" horiz-adv-x="1159" />
<glyph unicode="&#x2001;" horiz-adv-x="2318" />
<glyph unicode="&#x2002;" horiz-adv-x="1159" />
<glyph unicode="&#x2003;" horiz-adv-x="2318" />
<glyph unicode="&#x2004;" horiz-adv-x="772" />
<glyph unicode="&#x2005;" horiz-adv-x="579" />
<glyph unicode="&#x2006;" horiz-adv-x="386" />
<glyph unicode="&#x2007;" horiz-adv-x="386" />
<glyph unicode="&#x2008;" horiz-adv-x="289" />
<glyph unicode="&#x2009;" horiz-adv-x="463" />
<glyph unicode="&#x200a;" horiz-adv-x="128" />
<glyph unicode="&#x2010;" horiz-adv-x="946" d="M133 588v188h680v-188h-680z" />
<glyph unicode="&#x2011;" horiz-adv-x="946" d="M133 588v188h680v-188h-680z" />
<glyph unicode="&#x2012;" horiz-adv-x="946" d="M133 588v188h680v-188h-680z" />
<glyph unicode="&#x2013;" horiz-adv-x="1341" d="M133 598v170h1077v-170h-1077z" />
<glyph unicode="&#x2014;" horiz-adv-x="1781" d="M133 598v170h1518v-170h-1518z" />
<glyph unicode="&#x2018;" horiz-adv-x="526" d="M344 1546l57 -88q-65 -32 -113 -96t-48 -125q0 -13 4 -29q24 15 51 15q43 0 74.5 -31t31.5 -80q0 -48 -31.5 -83.5t-88.5 -35.5q-81 0 -125.5 59.5t-44.5 147.5q0 109 58 203.5t175 142.5z" />
<glyph unicode="&#x2019;" horiz-adv-x="526" d="M182 1008l-57 88q65 32 113.5 96t48.5 125q0 13 -4 29q-24 -15 -52 -15q-43 0 -74.5 31t-31.5 80q0 48 32 83.5t89 35.5q81 0 125.5 -59.5t44.5 -147.5q0 -108 -58.5 -203t-175.5 -143z" />
<glyph unicode="&#x201a;" horiz-adv-x="503" d="M170 -125l-57 88q65 32 113 96t48 125q0 13 -4 29q-22 -14 -51 -14q-43 0 -74.5 30.5t-31.5 79.5q0 48 31.5 83.5t88.5 35.5q81 0 125.5 -59.5t44.5 -147.5q0 -109 -58 -203.5t-175 -142.5z" />
<glyph unicode="&#x201c;" horiz-adv-x="899" d="M346 1546l57 -88q-65 -32 -113 -96t-48 -125q0 -13 4 -29q24 15 51 15q43 0 74.5 -31t31.5 -80q0 -48 -31.5 -83.5t-88.5 -35.5q-81 0 -125.5 59.5t-44.5 147.5q0 109 58 203.5t175 142.5zM717 1546l57 -88q-65 -32 -113.5 -96t-48.5 -125q0 -13 4 -29q24 15 52 15 q43 0 74.5 -31t31.5 -80q0 -48 -32 -83.5t-89 -35.5q-81 0 -125.5 59.5t-44.5 147.5q0 108 58.5 203t175.5 143z" />
<glyph unicode="&#x201d;" horiz-adv-x="899" d="M182 1008l-57 88q65 32 113.5 96t48.5 125q0 13 -4 29q-24 -15 -52 -15q-43 0 -74.5 31t-31.5 80q0 48 32 83.5t89 35.5q81 0 125.5 -59.5t44.5 -147.5q0 -108 -58.5 -203t-175.5 -143zM553 1008l-57 88q65 32 113 96t48 125q0 13 -4 29q-24 -15 -51 -15q-43 0 -74.5 31 t-31.5 80q0 48 31.5 83.5t88.5 35.5q81 0 125.5 -59.5t44.5 -147.5q0 -109 -58 -203.5t-175 -142.5z" />
<glyph unicode="&#x201e;" horiz-adv-x="874" d="M170 -125l-57 88q65 32 113 96t48 125q0 13 -4 29q-22 -14 -51 -14q-43 0 -74.5 30.5t-31.5 79.5q0 48 31.5 83.5t88.5 35.5q81 0 125.5 -59.5t44.5 -147.5q0 -109 -58 -203.5t-175 -142.5zM541 -125l-58 88q65 32 113.5 96t48.5 125q0 13 -4 29q-22 -14 -51 -14 q-43 0 -75 30.5t-32 79.5q0 48 32 83.5t89 35.5q81 0 125.5 -59.5t44.5 -147.5q0 -109 -58 -203.5t-175 -142.5z" />
<glyph unicode="&#x2020;" horiz-adv-x="1036" d="M485 0l-2 215q-2 175 -8 272t-29 195q31 98 37 301q-86 -1 -180.5 -15t-118.5 -14q-36 0 -53.5 19.5t-17.5 48.5q0 27 17.5 46t53.5 19q24 0 118 -12.5t179 -13.5q-2 87 -15 189t-13 128q0 32 19 49t46 17t46.5 -17t19.5 -49q0 -27 -14 -129t-17 -188q86 1 180 13.5 t119 12.5q35 0 53.5 -19.5t18.5 -47.5q0 -27 -18.5 -46.5t-53.5 -19.5q-25 0 -119 14t-180 15q6 -203 37 -301q-23 -98 -29 -195t-8 -272l-2 -215h-66z" />
<glyph unicode="&#x2021;" horiz-adv-x="1159" d="M580 -14q-27 0 -46.5 17.5t-19.5 49.5q0 26 13.5 128.5t15.5 189.5q-85 -1 -179 -14t-118 -13q-36 0 -54 18.5t-18 45.5q0 29 18 48t54 19q24 0 118.5 -14t180.5 -15q-5 168 -37 269q32 101 37 268q-86 -1 -180.5 -15t-118.5 -14q-36 0 -54 19.5t-18 48.5q0 27 18 46 t54 19q24 0 118 -12.5t179 -13.5q-2 87 -15.5 189t-13.5 128q0 32 19.5 49t46.5 17t46 -17t19 -49q0 -27 -14 -129t-17 -188q86 1 180 13.5t119 12.5q35 0 53.5 -19.5t18.5 -47.5q0 -27 -18.5 -46.5t-53.5 -19.5q-25 0 -119 14t-180 15q5 -167 37 -268q-32 -101 -37 -269 q86 1 180 15t119 14q35 0 53.5 -19t18.5 -46q0 -28 -18.5 -47t-53.5 -19q-25 0 -119 13t-180 14q3 -86 17 -188.5t14 -129.5q0 -32 -19 -49.5t-46 -17.5z" />
<glyph unicode="&#x2022;" horiz-adv-x="518" d="M258 877q72 0 120 -47.5t48 -118.5q0 -70 -48 -117t-120 -47q-71 0 -118.5 47t-47.5 117q0 71 48 118.5t118 47.5z" />
<glyph unicode="&#x2026;" horiz-adv-x="1163" d="M219 -14q-48 0 -81.5 31.5t-33.5 84.5q0 52 33.5 83.5t81.5 31.5q49 0 83 -31.5t34 -83.5q0 -54 -34 -85t-83 -31zM582 -14q-48 0 -81.5 31.5t-33.5 84.5q0 52 33.5 83.5t81.5 31.5q49 0 82.5 -31.5t33.5 -83.5q0 -54 -33.5 -85t-82.5 -31zM942 -14q-48 0 -81.5 31.5 t-33.5 84.5q0 52 33.5 83.5t81.5 31.5q49 0 83 -31.5t34 -83.5q0 -54 -34 -85t-83 -31z" />
<glyph unicode="&#x202f;" horiz-adv-x="278" />
<glyph unicode="&#x2030;" horiz-adv-x="2158" d="M315 1436q127 0 195 -95t68 -274t-68 -275t-195 -96q-124 0 -191 96t-67 275q0 178 66.5 273.5t191.5 95.5zM502 0h-142l672 1423h142zM315 1331q-66 0 -100.5 -68.5t-34.5 -195.5q0 -128 34.5 -196t100.5 -68q69 0 105.5 68t36.5 196q0 127 -36.5 195.5t-105.5 68.5z M1212 725q127 0 195 -95t68 -274t-68 -274.5t-195 -95.5q-124 0 -191 95.5t-67 274.5q0 178 66.5 273.5t191.5 95.5zM1837 725q127 0 194.5 -95t67.5 -274t-67.5 -274.5t-194.5 -95.5q-124 0 -191 95.5t-67 274.5q0 178 66.5 273.5t191.5 95.5zM1212 621q-66 0 -100.5 -69 t-34.5 -196q0 -128 34.5 -196t100.5 -68q69 0 105.5 68t36.5 196q0 127 -36.5 196t-105.5 69zM1837 621q-66 0 -100.5 -69t-34.5 -196q0 -128 34.5 -196t100.5 -68q69 0 105 68t36 196q0 127 -36 196t-105 69z" />
<glyph unicode="&#x2039;" horiz-adv-x="593" d="M354 268l-241 394l241 393l127 -43l-202 -350l202 -351z" />
<glyph unicode="&#x203a;" horiz-adv-x="593" d="M240 268l-127 43l202 351l-202 350l127 43l241 -393z" />
<glyph unicode="&#x2044;" horiz-adv-x="284" d="M-123 0h-141l672 1423h141z" />
<glyph unicode="&#x205f;" horiz-adv-x="579" />
<glyph unicode="&#x20ac;" horiz-adv-x="1218" d="M967 338l178 -55q-16 -59 -48.5 -111t-82.5 -98.5t-125.5 -73.5t-165.5 -27q-205 0 -331 135.5t-161 389.5h-159v116h147q-2 31 -2 97q0 48 2 73h-147v117h155q32 266 159 407.5t337 141.5q92 0 166 -26t122.5 -71.5t79.5 -97.5t48 -114l-178 -56q-70 191 -238 191 q-245 0 -295 -375h481l-18 -117h-471q-2 -25 -2 -73q0 -66 2 -97h434l-16 -116h-406q26 -173 100 -262t191 -89q171 0 244 191z" />
<glyph unicode="&#x20bd;" horiz-adv-x="1212" d="M694 1423q104 0 188 -33.5t136 -89.5t79 -125t27 -145t-27 -145t-79 -125t-136 -89.5t-188 -33.5h-258v-197h256v-170h-256v-270h-194v270h-187v170h187v197h-187v170h187v616h452zM672 807q119 0 185.5 66.5t66.5 156.5q0 91 -66.5 157t-185.5 66h-236v-446h236z" />
<glyph unicode="&#x2113;" horiz-adv-x="849" d="M346 375q0 -52 14 -92t36 -62.5t52 -37t57.5 -19t57.5 -4.5l-10 -172q-395 0 -395 383v784q0 136 78.5 215.5t193.5 79.5q128 0 200 -79t72 -204q0 -392 -356 -698v-94zM346 629q219 229 219 524q0 67 -30 108.5t-80 41.5q-48 0 -78.5 -36t-30.5 -96v-542z" />
<glyph unicode="&#x2116;" horiz-adv-x="2078" d="M1665 926q-109 0 -186.5 76.5t-77.5 185.5q0 107 77.5 184.5t186.5 77.5q107 0 184.5 -77.5t77.5 -184.5q0 -108 -77 -185t-185 -77zM199 0v1423h186l707 -1081v1081h194v-1423h-186l-707 1083v-1083h-194zM1665 1028q65 0 111.5 47t46.5 113t-46.5 113t-111.5 47 q-67 0 -113.5 -47t-46.5 -113t46.5 -113t113.5 -47zM1438 741v109h452v-109h-452z" />
<glyph unicode="&#x2122;" horiz-adv-x="1497" d="M342 805v506h-188v112h489v-112h-188v-506h-113zM725 805v618h162l147 -342l148 342h161v-618h-112v452l-141 -327h-111l-141 327v-452h-113z" />
<glyph unicode="&#x212e;" horiz-adv-x="1679" d="M1567 766h-1094v-629q181 -110 418 -110q199 0 376 105.5t253 270.5l45 -28q-92 -177 -281 -289.5t-393 -112.5q-226 0 -403.5 92.5t-276 259t-98.5 377.5q0 216 93 387t260 266t378 95q210 0 374.5 -80.5t256.5 -225.5t92 -329v-49zM1206 1315q-158 82 -362 82 t-371 -101v-479h733v498z" />
<glyph unicode="&#x2190;" horiz-adv-x="1839" d="M805 -2l-662 678l662 680l121 -119l-463 -475h1231v-172h-1231l463 -475z" />
<glyph unicode="&#x2191;" horiz-adv-x="1525" d="M678 0v1128l-453 -440l-116 121l655 637l655 -637l-119 -121l-452 440v-1128h-170z" />
<glyph unicode="&#x2192;" horiz-adv-x="1839" d="M1034 -2l-121 117l463 475h-1231v172h1231l-463 475l121 119l662 -680z" />
<glyph unicode="&#x2193;" horiz-adv-x="1525" d="M678 1423h170v-1128l452 440l119 -121l-655 -637l-655 637l116 121l453 -440v1128z" />
<glyph unicode="&#x2194;" horiz-adv-x="2371" d="M1567 1356l661 -680l-661 -678l-121 117l463 475h-1446l463 -475l-121 -117l-662 678l662 680l121 -119l-463 -475h1446l-463 475z" />
<glyph unicode="&#x2195;" horiz-adv-x="1525" d="M848 -63l452 440l119 -121l-655 -637l-655 637l116 121l453 -440v1349l-453 -440l-116 121l655 637l655 -637l-119 -121l-452 440v-1349z" />
<glyph unicode="&#x2196;" horiz-adv-x="1482" d="M176 248v985h985v-168h-696l868 -868l-121 -121l-868 868v-696h-168z" />
<glyph unicode="&#x2197;" horiz-adv-x="1482" d="M1307 326h-168v696l-869 -868l-120 120l868 869h-696v168h985v-985z" />
<glyph unicode="&#x2198;" horiz-adv-x="1482" d="M1307 1100v-985h-985v168h696l-868 868l120 121l869 -869v697h168z" />
<glyph unicode="&#x2199;" horiz-adv-x="1482" d="M176 1004h168v-697l868 869l121 -121l-868 -869h696v-168h-985v986z" />
<glyph unicode="&#x2202;" horiz-adv-x="1067" d="M401 -27q-165 0 -257.5 113.5t-92.5 290.5q0 118 33 213t91 156t135 93.5t167 32.5q89 0 165 -37t124 -94q16 91 16 226q0 150 -56.5 229.5t-170.5 79.5q-144 0 -254 -113l-84 129q75 75 170 116.5t199 41.5q106 0 183.5 -40t121.5 -111.5t64 -159t20 -193.5 q0 -279 -62.5 -495.5t-194 -347t-317.5 -130.5zM422 141q64 0 119.5 37.5t94 101t64.5 140t39 162.5q-35 53 -99.5 92t-141.5 39q-118 0 -187 -84t-69 -250q0 -104 50.5 -171t129.5 -67z" />
<glyph unicode="&#x2205;" horiz-adv-x="1687" d="M1397 1198q89 -100 137.5 -225.5t48.5 -263.5q0 -150 -58.5 -286t-157.5 -234.5t-236 -157t-287 -58.5q-264 0 -467 166l-160 -166l-86 86l158 164q-88 99 -136.5 224t-48.5 262q0 150 58.5 287.5t158 236.5t236.5 158t287 59q260 0 465 -168l161 168l89 -86zM287 709 q0 -201 129 -353l766 795q-150 115 -338 115q-113 0 -216 -44t-178 -119t-119 -178t-44 -216zM844 158q150 0 278 74t202.5 201t74.5 276q0 201 -129 356l-764 -793q146 -114 338 -114z" />
<glyph unicode="&#x220f;" horiz-adv-x="1337" d="M1278 1423v-170h-176v-1253h-195v1253h-477v-1253h-194v1253h-177v170h1219z" />
<glyph unicode="&#x2211;" horiz-adv-x="1036" d="M80 -340v156l397 727l-391 725v155h870v-170h-657l358 -673v-76l-364 -674h696v-170h-909z" />
<glyph unicode="&#x2212;" horiz-adv-x="1171" d="M113 629v170h946v-170h-946z" />
<glyph unicode="&#x221a;" horiz-adv-x="1261" d="M557 0l-342 944l-176 -41l-25 150l353 73l315 -911l385 1235l180 -23l-465 -1427h-225z" />
<glyph unicode="&#x221e;" horiz-adv-x="1423" d="M399 440q-114 0 -192 77t-78 194t78 194.5t192 77.5q160 0 312 -164q157 164 313 164q114 0 193 -77.5t79 -194.5t-79 -194t-193 -77q-156 0 -313 164q-152 -164 -312 -164zM416 588q39 0 82 22.5t66.5 42.5t62.5 58q-37 37 -62 59t-67.5 44t-81.5 22q-55 0 -92 -35 t-37 -90q0 -53 37 -88t92 -35zM1008 588q55 0 92 35t37 88q0 55 -37 90t-92 35q-39 0 -81.5 -22t-67.5 -44t-62 -59q39 -38 62.5 -58t66.5 -42.5t82 -22.5z" />
<glyph unicode="&#x222b;" horiz-adv-x="509" d="M27 -426q-76 0 -118 39.5t-42 91.5q0 42 27 72t71 30q45 0 68.5 -23t23.5 -58q0 -28 -13.5 -54t-37.5 -39q48 0 83.5 44t35.5 130v1219q0 115 26.5 201t70.5 132.5t92.5 68.5t101.5 22q78 0 120 -39.5t42 -91.5q0 -42 -27.5 -72t-71.5 -30q-45 0 -68.5 23t-23.5 58 q0 28 13.5 54t37.5 39q-49 0 -84 -44t-35 -130v-1219q0 -93 -18 -167.5t-47 -121.5t-68 -78t-78.5 -44t-80.5 -13z" />
<glyph unicode="&#x2248;" horiz-adv-x="1132" d="M780 827q-47 0 -107 18.5t-108 41t-102.5 41t-91.5 18.5q-54 0 -86.5 -34.5t-32.5 -90.5h-139q0 125 63 199t178 74q57 0 136.5 -29t154 -58.5t119.5 -29.5q53 0 85 34t32 91h141q0 -125 -64 -200t-178 -75zM780 432q-47 0 -107 18.5t-108 40t-102.5 40t-91.5 18.5 q-54 0 -86.5 -34t-32.5 -91h-139q0 127 63 200.5t178 73.5q57 0 136.5 -29t154 -58t119.5 -29q53 0 85 34t32 89h141q0 -125 -64 -199t-178 -74z" />
<glyph unicode="&#x2260;" horiz-adv-x="1171" d="M1059 915h-303l-211 -403h514v-170h-602l-146 -276h-127l144 276h-215v170h305l209 403h-514v170h604l143 277h129l-145 -277h215v-170z" />
<glyph unicode="&#x2264;" horiz-adv-x="1171" d="M1059 293l-946 416v153l946 418v-182l-740 -312l740 -311v-182zM113 0v170h946v-170h-946z" />
<glyph unicode="&#x2265;" horiz-adv-x="1171" d="M113 293v182l739 311l-739 312v182l946 -418v-153zM1059 0h-946v170h946v-170z" />
<glyph unicode="&#x25ca;" horiz-adv-x="1130" d="M459 0l-375 713l375 710h213l377 -710l-377 -713h-213zM565 162l293 551l-293 551l-293 -551z" />
<glyph unicode="&#x25fc;" horiz-adv-x="1095" d="M0 1096h1096v-1096h-1096v1096z" />
<glyph unicode="&#xfb00;" horiz-adv-x="1277" d="M207 0v928h-170v172h170v80q0 151 79.5 241t231.5 90q88 0 189 -43l-19 -161q-75 32 -131 32q-77 0 -119.5 -36.5t-42.5 -124.5v-78h396v143q0 157 84.5 244.5t236.5 87.5q119 0 211 -43l-27 -162q-81 37 -155 37t-117 -36.5t-43 -129.5v-141h256v-172h-256v-928h-190 v928h-396v-928h-188z" />
<glyph unicode="&#xfb03;" horiz-adv-x="1734" d="M207 0v928h-170v172h170v80q0 151 79.5 241t231.5 90q88 0 189 -43l-19 -161q-75 32 -131 32q-77 0 -119.5 -36.5t-42.5 -124.5v-78h396v143q0 150 74.5 241t226.5 91q88 0 188 -41l-18 -156q-65 29 -121 29q-76 0 -118 -37t-42 -129v-141h584v-1100h-189v928h-395v-928 h-190v928h-396v-928h-188zM1470 1247q-47 0 -81.5 31t-34.5 84t34.5 84t81.5 31q48 0 82.5 -31t34.5 -84t-34.5 -84t-82.5 -31z" />
<glyph unicode="&#xfb04;" horiz-adv-x="1873" d="M207 0v928h-170v172h170v80q0 151 79.5 241t231.5 90q88 0 189 -43l-19 -161q-75 32 -131 32q-77 0 -119.5 -36.5t-42.5 -124.5v-78h396v143q0 149 81 240.5t234 91.5q92 0 184 -41l-18 -162q-59 33 -123 33q-168 0 -168 -172v-133h256v-172h-256v-928h-190v928h-396 v-928h-188zM1792 -12q-180 0 -279.5 96.5t-99.5 269.5v1182h189v-1149q0 -107 53 -167t147 -60z" />
<glyph horiz-adv-x="528" d="M264 1321q-48 0 -82.5 32t-34.5 85t34 83.5t83 30.5q47 0 82 -30.5t35 -83.5t-35 -85t-82 -32zM170 0v1100h188v-1100h-188z" />
<glyph horiz-adv-x="528" d="M264 1321q-48 0 -82.5 32t-34.5 85t34 83.5t83 30.5q47 0 82 -30.5t35 -83.5t-35 -85t-82 -32zM170 0v1100h188v-1100h-188z" />
<glyph horiz-adv-x="636" d="M315 725q127 0 195 -95t68 -274t-68 -274.5t-195 -95.5q-124 0 -191 95.5t-67 274.5q0 178 66.5 273.5t191.5 95.5zM315 621q-66 0 -100.5 -69t-34.5 -196q0 -128 34.5 -196t100.5 -68q69 0 105.5 68t36.5 196q0 127 -36.5 196t-105.5 69z" />
<glyph horiz-adv-x="393" d="M193 0v582l-150 -86l-12 110l174 107h106v-713h-118z" />
<glyph horiz-adv-x="563" d="M43 0v106l248 234q58 57 80 92.5t22 77.5q0 48 -33 79.5t-88 31.5q-44 0 -79 -22t-50 -60l-114 32q22 66 85.5 110t159.5 44q115 0 180.5 -58t65.5 -147q0 -65 -30.5 -119.5t-102.5 -121.5l-176 -168h319v-111h-487z" />
<glyph horiz-adv-x="587" d="M293 -14q-102 0 -168.5 46t-91.5 118l110 36q16 -43 55 -68.5t97 -25.5q50 0 87.5 29.5t37.5 83.5t-40.5 82t-100.5 28h-80v97h80q127 0 127 108q0 46 -33.5 73.5t-79.5 27.5q-90 0 -123 -82l-115 32q20 66 82 110t156 44q104 0 169.5 -51t65.5 -137q0 -63 -28.5 -103.5 t-77.5 -56.5v-2q48 -14 84.5 -58t36.5 -114q0 -97 -69.5 -157t-180.5 -60z" />
<glyph horiz-adv-x="577" d="M348 0v156h-313v96l203 461h122l-196 -455h184v176h113v-176h84v-102h-84v-156h-113z" />
<glyph horiz-adv-x="593" d="M299 -14q-104 0 -171.5 45.5t-94.5 118.5l110 36q16 -43 54 -68.5t94 -25.5q60 0 97.5 39.5t37.5 99.5q0 69 -40.5 107.5t-100.5 38.5q-69 0 -109 -43l-92 18l22 361h398v-111h-307l-11 -153q61 28 123 28q99 0 169.5 -65.5t70.5 -180.5q0 -110 -72 -177.5t-178 -67.5z " />
<glyph horiz-adv-x="610" d="M324 -14q-126 0 -196.5 89t-70.5 249q0 194 79 297.5t204 103.5q83 0 139.5 -40.5t69.5 -96.5l-103 -31q-30 61 -106 61q-71 0 -116.5 -65.5t-49.5 -179.5q29 41 74 65.5t98 24.5q97 0 164.5 -66t67.5 -168q0 -101 -69 -172t-185 -71zM326 92q56 0 92.5 37.5t36.5 99.5 q0 59 -37 97.5t-92 38.5q-56 0 -93.5 -39t-37.5 -97q0 -62 37 -99.5t94 -37.5z" />
<glyph horiz-adv-x="497" d="M483 713v-101l-272 -612h-123l268 608h-338v105h465z" />
<glyph horiz-adv-x="595" d="M297 -12q-115 0 -183.5 56t-68.5 149q0 61 34.5 105t92.5 67q-113 50 -113 163q0 85 65 140t173 55q110 0 175 -55t65 -140q0 -63 -29.5 -100t-85.5 -63q129 -51 129 -172q0 -92 -69.5 -148.5t-184.5 -56.5zM297 410q59 0 91 32.5t32 77.5q0 52 -35 82.5t-88 30.5 q-52 0 -86.5 -30.5t-34.5 -82.5q0 -45 31.5 -77.5t89.5 -32.5zM297 80q59 0 97 32.5t38 88.5q0 52 -37 85t-98 33q-59 0 -95 -33t-36 -85q0 -56 36.5 -88.5t94.5 -32.5z" />
<glyph horiz-adv-x="614" d="M291 727q126 0 196 -89t70 -249q0 -194 -79 -297.5t-204 -103.5q-83 0 -139 40.5t-69 96.5l102 31q30 -62 106 -62q71 0 116.5 66t49.5 180q-29 -41 -74 -65.5t-98 -24.5q-97 0 -164 65.5t-67 167.5q0 101 69 172.5t185 71.5zM289 621q-56 0 -92.5 -38t-36.5 -100 q0 -58 36.5 -96.5t92.5 -38.5t93.5 38.5t37.5 96.5q0 62 -37 100t-94 38z" />
<glyph horiz-adv-x="636" d="M315 1436q127 0 195 -95t68 -274t-68 -275t-195 -96q-124 0 -191 96t-67 275q0 178 66.5 273.5t191.5 95.5zM315 1331q-66 0 -100.5 -68.5t-34.5 -195.5q0 -128 34.5 -196t100.5 -68q69 0 105.5 68t36.5 196q0 127 -36.5 195.5t-105.5 68.5z" />
<glyph horiz-adv-x="393" d="M193 711v581l-150 -86l-12 111l174 106h106v-712h-118z" />
<glyph horiz-adv-x="563" d="M43 711v106l248 234q58 57 80 92.5t22 77.5q0 48 -33 79t-88 31q-44 0 -79 -22t-50 -60l-114 33q22 66 85.5 110t159.5 44q115 0 180.5 -58t65.5 -147q0 -65 -30.5 -120t-102.5 -122l-176 -168h319v-110h-487z" />
<glyph horiz-adv-x="587" d="M293 696q-102 0 -168.5 46t-91.5 118l110 37q16 -43 55 -68.5t97 -25.5q50 0 87.5 29.5t37.5 82.5q0 54 -40.5 82.5t-100.5 28.5h-80v96h80q57 0 92 26t35 83q0 45 -33.5 72.5t-79.5 27.5q-90 0 -123 -82l-115 33q20 66 82 110t156 44q104 0 169.5 -51t65.5 -138 q0 -63 -28.5 -103.5t-77.5 -56.5v-2q48 -14 84.5 -58t36.5 -114q0 -97 -69.5 -157t-180.5 -60z" />
<glyph horiz-adv-x="577" d="M348 711v155h-313v97l203 460h122l-196 -454h184v176h113v-176h84v-103h-84v-155h-113z" />
<glyph horiz-adv-x="593" d="M299 696q-104 0 -171.5 45.5t-94.5 118.5l110 37q16 -43 54 -68.5t94 -25.5q60 0 97.5 39.5t37.5 99.5q0 69 -40.5 107t-100.5 38q-69 0 -109 -43l-92 19l22 360h398v-110h-307l-11 -154q63 29 123 29q99 0 169.5 -65.5t70.5 -180.5q0 -110 -72 -178t-178 -68z" />
<glyph horiz-adv-x="610" d="M324 696q-126 0 -196.5 89t-70.5 249q0 194 79 298t204 104q83 0 139.5 -41t69.5 -97l-103 -30q-30 61 -106 61q-71 0 -116.5 -66t-49.5 -180q29 41 74.5 66t97.5 25q97 0 164.5 -66t67.5 -168q0 -101 -69 -172.5t-185 -71.5zM326 803q56 0 92.5 37.5t36.5 99.5 q0 58 -36.5 96.5t-92.5 38.5t-93.5 -38.5t-37.5 -96.5q0 -62 37 -99.5t94 -37.5z" />
<glyph horiz-adv-x="497" d="M483 1423v-100l-272 -612h-123l268 608h-338v104h465z" />
<glyph horiz-adv-x="595" d="M297 698q-115 0 -183.5 56t-68.5 149q0 61 34.5 105t92.5 67q-113 50 -113 164q0 85 65 140t173 55q110 0 175 -55t65 -140q0 -63 -29.5 -100.5t-85.5 -63.5q129 -51 129 -172q0 -92 -69.5 -148.5t-184.5 -56.5zM297 1120q59 0 91 33t32 78q0 52 -35 82t-88 30 q-52 0 -86.5 -30t-34.5 -82q0 -45 31.5 -78t89.5 -33zM297 791q59 0 97 32t38 88q0 52 -37 85.5t-98 33.5q-59 0 -95 -33.5t-36 -85.5q0 -56 36.5 -88t94.5 -32z" />
<glyph horiz-adv-x="614" d="M291 1438q126 0 196 -89t70 -249q0 -194 -79 -298t-204 -104q-83 0 -139 40.5t-69 97.5l102 30q30 -61 106 -61q71 0 116.5 66t49.5 180q-29 -41 -74 -65.5t-98 -24.5q-97 0 -164 65.5t-67 167.5q0 101 69 172.5t185 71.5zM289 1331q-56 0 -92.5 -37.5t-36.5 -99.5 q0 -58 36.5 -96.5t92.5 -38.5t93.5 38.5t37.5 96.5q0 62 -37 99.5t-94 37.5z" />
<glyph d="M-526 1159h-138l39 377h158z" />
<glyph d="M-565 1274q-45 0 -77 29.5t-32 78.5t32 77t77 28q43 0 74.5 -28.5t31.5 -76.5q0 -49 -32 -78.5t-74 -29.5z" />
<glyph d="M-565 1274q-45 0 -77 29t-32 79t32 79.5t77 29.5q44 0 76 -29.5t32 -79.5t-32 -79t-76 -29z" />
<glyph d="M-453 0q-100 -93 -100 -176q0 -50 30 -77t87 -28l-31 -116q-114 3 -172.5 54t-58.5 144q0 54 26.5 109t67.5 90h151z" />
<glyph d="M-901 401v154h682v-154h-682z" />
<glyph d="M-1497 442v154h1429v-154h-1429z" />
<glyph d="M-881 455v170l629 108v-170z" />
<glyph d="M-287 1501l133 -43l-690 -1632l-133 43z" />
<glyph horiz-adv-x="1241" d="M494 1001l92 422h153l-104 -422h-141z" />
<glyph d="M-592 1245q-122 0 -196.5 71.5t-75.5 213.5h137q0 -74 37 -115t98 -41t97 41t36 115h140q-1 -142 -76 -213.5t-197 -71.5z" />
<glyph horiz-adv-x="1527" d="M672 -358v358h-58v164h228v-522h-170z" />
<glyph horiz-adv-x="1241" d="M496 -367l92 367h-49v170h258l-148 -537h-153z" />
<glyph horiz-adv-x="1527" d="M590 -356v143q101 0 140.5 60t39.5 169h170q0 -84 -15 -146.5t-52.5 -116t-108.5 -81.5t-174 -28z" />
<glyph horiz-adv-x="1527" d="M672 -367v367h-58v170h228v-537h-170z" />
</font>
</defs>
</svg>
