<svg viewBox="0 0 67 41" aria-hidden="true" width="67" height="41"><path fill="#1B1819" d="M0 33.568l5.878 5.951 3.984-4.036-1.338-1.355-2.497 2.528-4.538-4.597zM7.52 28.38l1 1.017 2.07-2.095 1.196 1.213-2.065 2.096 1.277 1.294 2.559-2.59 1.197 1.213-4.05 4.1-5.874-5.95 4.046-4.1 1.198 1.214zM20.605 24.604l-3.998-1.148.004-.003c.458-.885.252-2.087-.554-2.908-.872-.88-2.36-.849-3.346.153h-.004L9.73 23.714l5.878 5.951 1.492-1.51-4.759-4.817.96-.973c.427-.434 1.109-.449 1.523-.029.414.419.4 1.11-.026 1.543l-.876.887 5.08 1.457 1.603-1.62zM17.91 15.165c1.84-1.86 4.271-1.68 5.993.064 1.722 1.744 1.898 4.203.061 6.064-1.836 1.86-4.266 1.68-5.987-.064-1.722-1.744-1.903-4.203-.066-6.064m1.171 1.183c-.934.943-.622 2.09.515 3.241 1.136 1.15 2.268 1.465 3.201.522.933-.945.62-2.092-.516-3.243-1.135-1.15-2.267-1.465-3.2-.52M25.673 12.038L24.58 8.68l1.735-1.76 1.462 5.758 2.303 2.332-1.494 1.51-2.29-2.319-5.45-1.742 1.643-1.662 3.152 1.238zM53.18 32.389l5.873-5.952-1.563-1.585-5.878 5.952zM30.69 9.618l4.57-2.208-3.376 3.417 1.355 1.375 5.878-5.951-1.868-1.89-4.424 2.185h.004l2.211-4.423L33.12.178l-5.878 5.949L28.6 7.502l3.377-3.417-2.18 4.628zM40.878 10.459l-1.004 1.014 2.255 2.284-1.198 1.213-2.255-2.283-1.28 1.295 2.743 2.778-1.198 1.213-4.235-4.288 5.877-5.95 4.236 4.287-1.198 1.214zM46.548 25.684l3.99 4.036 1.339-1.355-2.502-2.528 4.54-4.596-1.488-1.508zM62.381 29.802l-1.884 6.309v.003l4.06-4.11 1.39 1.411-5.873 5.95-1.84-1.866L59.84 31v-.004l-4.016 4.066-1.355-1.373 5.877-5.95zM45.435 24.558l1.136-4.05v.004c.876.467 2.065.258 2.875-.562.868-.881.837-2.386-.154-3.389l-3.161-3.203-5.878 5.95 1.492 1.51 4.756-4.817 1.149 1.162c.427.433.44 1.121.027 1.54-.415.42-1.097.407-1.524-.026l-1.061-1.075-1.256 5.334 1.6 1.622z"></path><path fill="#6C3" d="M6.702 40.819h51.666L32.533 14.663z"></path></svg>